<svg width="25" height="24" viewBox="0 0 25 24" fill="none" xmlns="http://www.w3.org/2000/svg">
<path d="M20.2632 10C20.2632 14.993 14.7242 20.193 12.8642 21.799C12.6909 21.9293 12.48 21.9998 12.2632 21.9998C12.0464 21.9998 11.8355 21.9293 11.6622 21.799C9.80218 20.193 4.26318 14.993 4.26318 10C4.26318 7.87827 5.10604 5.84344 6.60633 4.34315C8.10662 2.84285 10.1415 2 12.2632 2C14.3849 2 16.4197 2.84285 17.92 4.34315C19.4203 5.84344 20.2632 7.87827 20.2632 10Z" stroke="#06483A" stroke-width="2" stroke-linecap="round" stroke-linejoin="round"/>
<path d="M12.2632 13C13.92 13 15.2632 11.6569 15.2632 10C15.2632 8.34315 13.92 7 12.2632 7C10.6063 7 9.26318 8.34315 9.26318 10C9.26318 11.6569 10.6063 13 12.2632 13Z" stroke="#06483A" stroke-width="2" stroke-linecap="round" stroke-linejoin="round"/>
</svg>
