<svg width="19" height="22" viewBox="0 0 19 22" fill="none" xmlns="http://www.w3.org/2000/svg">
<path d="M5.93098 2.80368L5.94364 1.3452C5.94522 1.16288 6.10773 1.02412 6.28804 1.05111L17.7398 2.76542C17.8866 2.78741 17.9953 2.91358 17.9953 3.06211V18.9566C17.9953 19.1055 17.8861 19.2319 17.7387 19.2534L6.11933 20.9494C5.93728 20.976 5.77442 20.834 5.77601 20.65L5.78846 19.216M5.93098 2.80368H1.46773C1.30204 2.80368 1.16772 2.93799 1.16772 3.10368V18.916C1.16772 19.0817 1.30204 19.216 1.46772 19.216H5.78846M5.93098 2.80368L5.78846 19.216M10.9142 11.2827L8.54142 11.6532C8.35948 11.6816 8.19513 11.5409 8.19513 11.3568V10.0848C8.19513 9.89826 8.36351 9.75695 8.54718 9.78931L10.9199 10.2073C11.0633 10.2326 11.1679 10.3571 11.1679 10.5027V10.9863C11.1679 11.1341 11.0602 11.2599 10.9142 11.2827Z" stroke="black" stroke-width="1.2"/>
</svg>
