<svg width="23" height="19" viewBox="0 0 23 19" fill="none" xmlns="http://www.w3.org/2000/svg">
<path d="M19.5018 8.38598L19.7239 8.94337C19.9288 8.86171 20.0724 8.67417 20.0978 8.45502L19.5018 8.38598ZM22 6.97008H22.6C22.6 6.75205 22.4817 6.55118 22.2911 6.44541L22 6.97008ZM11.9995 1.42233L12.2905 0.897651C12.2261 0.861897 12.1556 0.838324 12.0826 0.828112L11.9995 1.42233ZM16.361 12.8887L16.7585 13.3382V13.3382L16.361 12.8887ZM8.25299 4.60348L7.65367 4.57495C7.65284 4.59235 7.65277 4.60977 7.65346 4.62718L8.25299 4.60348ZM3.9008 8.7585L3.83465 8.16216C3.82106 8.16367 3.80752 8.16564 3.79407 8.16807L3.9008 8.7585ZM11.9994 15.8601L12.1138 16.4491C12.2836 16.4161 12.4309 16.3115 12.5179 16.162L11.9994 15.8601ZM10.8906 18.3986L10.6034 18.9254C10.6915 18.9734 10.7902 18.9986 10.8906 18.9986V18.3986ZM1.2562 13.1457L0.716417 13.4077C0.770978 13.5201 0.859275 13.6127 0.968985 13.6725L1.2562 13.1457ZM9.48821 3.58374L19.2135 8.91218L19.7901 7.85978L10.0648 2.53135L9.48821 3.58374ZM20.0978 8.45502C20.1372 8.11492 20.2859 7.70998 20.5285 7.4884C20.6367 7.38959 20.7642 7.32533 20.9308 7.3104C21.105 7.2948 21.3664 7.32955 21.7381 7.5099L22.2619 6.43027C21.7496 6.18171 21.2688 6.07532 20.8238 6.11519C20.3713 6.15572 20.0027 6.34354 19.7194 6.60225C19.1789 7.09574 18.9625 7.82764 18.9058 8.31693L20.0978 8.45502ZM22.2911 6.44541L12.2905 0.897651L11.7084 1.947L21.7089 7.49476L22.2911 6.44541ZM12.0826 0.828112C11.6369 0.765763 10.9503 0.782062 10.3459 1.07851C10.0344 1.23129 9.73458 1.46413 9.51478 1.80641C9.29388 2.15041 9.17651 2.5697 9.17651 3.05755H10.3765C10.3765 2.76691 10.4444 2.5796 10.5245 2.45483C10.6057 2.32834 10.7227 2.23025 10.8743 2.15589C11.1961 1.99805 11.621 1.97523 11.9163 2.01654L12.0826 0.828112ZM19.2797 7.82859C19.1671 7.87348 18.9811 7.9782 18.8008 8.08766C18.6045 8.2069 18.3663 8.36171 18.134 8.53068C17.9054 8.69704 17.665 8.8897 17.4756 9.08512C17.3812 9.18249 17.2851 9.29501 17.2093 9.41813C17.1389 9.53265 17.0505 9.71267 17.0505 9.93197H18.2505C18.2505 10.0322 18.2126 10.0775 18.2313 10.0472C18.2446 10.0254 18.2765 9.98291 18.3371 9.92041C18.4576 9.7961 18.6356 9.64979 18.84 9.50103C19.0409 9.35488 19.2507 9.21842 19.4237 9.11335C19.51 9.06092 19.5848 9.01779 19.6424 8.98621C19.7081 8.95021 19.7313 8.94042 19.7239 8.94337L19.2797 7.82859ZM17.0505 9.93197C17.0505 10.2606 17.0712 10.5938 16.9521 11.0044C16.8375 11.3992 16.5807 11.8936 15.9636 12.4391L16.7585 13.3382C17.5348 12.6518 17.9227 11.9655 18.1046 11.3388C18.2818 10.728 18.2505 10.1988 18.2505 9.93197H17.0505ZM15.9636 12.4391C15.0126 13.28 13.6701 13.4192 13.1417 13.3786L13.0499 14.5751C13.7693 14.6304 15.48 14.4685 16.7585 13.3382L15.9636 12.4391ZM17.9464 9.41004L8.54893 4.08154L7.95705 5.12542L17.3546 10.4539L17.9464 9.41004ZM8.85231 4.63201C8.84827 4.71682 8.8249 4.77216 8.82445 4.77328C8.82016 4.78423 8.81917 4.78442 8.82635 4.77124C8.84043 4.7454 8.86789 4.70093 8.9114 4.63902C8.99721 4.51692 9.12177 4.36048 9.26428 4.20304C9.40742 4.04491 9.55762 3.89799 9.69313 3.78852C9.84653 3.66458 9.91802 3.64068 9.90987 3.64254L9.64316 2.47255C9.36982 2.53486 9.11947 2.70928 8.93899 2.85509C8.74061 3.01537 8.54488 3.20965 8.37463 3.39773C8.20375 3.58651 8.04748 3.7813 7.9296 3.94904C7.87126 4.03205 7.81616 4.11715 7.77255 4.19722C7.75088 4.237 7.72726 4.28424 7.70725 4.33528C7.69109 4.3765 7.6589 4.46499 7.65367 4.57495L8.85231 4.63201ZM13.392 13.4551L4.19695 8.23668L3.60466 9.28032L12.7997 14.4987L13.392 13.4551ZM3.79407 8.16807C3.65618 8.193 3.55529 8.25603 3.50222 8.29356C3.44273 8.33563 3.39329 8.38194 3.3553 8.42106C3.27927 8.49937 3.20774 8.59206 3.1447 8.68144C3.01652 8.86317 2.8807 9.09252 2.75718 9.32218C2.63263 9.55377 2.51312 9.79959 2.41919 10.0193C2.33371 10.2192 2.24333 10.4563 2.21551 10.6457L3.40278 10.8201C3.40247 10.8222 3.40764 10.7936 3.43127 10.7245C3.45285 10.6613 3.48354 10.5823 3.52259 10.491C3.60062 10.3085 3.70406 10.095 3.81403 9.89059C3.92502 9.68421 4.03529 9.50074 4.12531 9.3731C4.17138 9.30779 4.20199 9.27167 4.2162 9.25704C4.22333 9.24969 4.21604 9.25851 4.1951 9.27332C4.18059 9.28358 4.11466 9.32957 4.00754 9.34893L3.79407 8.16807ZM2.51433 11.2555C3.94194 12.0609 9.23921 15.011 11.7077 16.3844L12.2911 15.3358C9.82079 13.9613 4.52763 11.0135 3.10395 10.2103L2.51433 11.2555ZM12.5179 16.162L13.6143 14.2788L12.5773 13.675L11.4809 15.5582L12.5179 16.162ZM11.885 15.2711C11.5737 15.3316 11.1096 15.4767 10.7065 15.7336C10.3151 15.9829 9.84647 16.4303 9.84647 17.1168H11.0465C11.0465 17.0392 11.0955 16.9085 11.3512 16.7457C11.5951 16.5903 11.9074 16.4892 12.1138 16.4491L11.885 15.2711ZM9.84647 17.1168C9.84647 18.0191 10.1954 18.632 10.535 18.8819L11.2462 17.9153C11.28 17.9402 11.2261 17.9076 11.1626 17.7627C11.105 17.6311 11.0465 17.4203 11.0465 17.1168H9.84647ZM11.1778 17.8718L1.54342 12.6189L0.968985 13.6725L10.6034 18.9254L11.1778 17.8718ZM1.79598 12.8837C1.62941 12.5405 1.5453 12.1114 1.6393 11.8245C1.67852 11.7047 1.75054 11.5997 1.89606 11.5142C2.05391 11.4215 2.33275 11.3329 2.80914 11.3329V10.1329C2.19595 10.1329 1.68708 10.2454 1.28846 10.4794C0.877512 10.7207 0.62431 11.068 0.498901 11.451C0.26363 12.1693 0.492644 12.9466 0.716417 13.4077L1.79598 12.8837ZM7.65346 4.62718C7.67257 5.11069 7.51871 5.90814 6.96865 6.62221C6.43298 7.31759 5.48707 7.97885 3.83465 8.16216L3.96696 9.35485C5.91189 9.13908 7.16617 8.33219 7.91929 7.35451C8.65803 6.39552 8.88158 5.315 8.85252 4.57978L7.65346 4.62718ZM21.4 6.97008V12.4545H22.6V6.97008H21.4ZM17.3709 17.7986H10.8906V18.9986H17.3709V17.7986ZM17.0505 17.8178V18.119H18.2505V17.8178H17.0505ZM21.669 12.1228C18.977 12.691 17.0505 15.0665 17.0505 17.8178H18.2505C18.2505 15.6337 19.7798 13.748 21.9168 13.2969L21.669 12.1228ZM17.3709 18.9986C17.8567 18.9986 18.2505 18.6048 18.2505 18.119H17.0505C17.0505 17.942 17.194 17.7986 17.3709 17.7986V18.9986ZM21.4 12.4545C21.4 12.2942 21.5122 12.1559 21.669 12.1228L21.9168 13.2969C22.315 13.2129 22.6 12.8615 22.6 12.4545H21.4Z" fill="black"/>
</svg>
