<svg width="19" height="21" viewBox="0 0 19 21" fill="none" xmlns="http://www.w3.org/2000/svg">
<path d="M1 5.47582L0.743422 4.93345C0.533725 5.03265 0.4 5.24384 0.4 5.47582H1ZM18.2488 5.47208H18.8488C18.8488 5.23991 18.7149 5.02858 18.5049 4.92948L18.2488 5.47208ZM9.62627 19.4411L9.36987 19.9836C9.53236 20.0604 9.72072 20.0603 9.88314 19.9833L9.62627 19.4411ZM1.28633 15.4991L1.02993 16.0415L1.28633 15.4991ZM17.9629 15.4918L17.706 14.9496L17.9629 15.4918ZM9.4052 1.4996L9.14863 0.957224L9.4052 1.4996ZM9.83245 1.49941L9.57633 2.04201L9.83245 1.49941ZM1.25658 6.01819L9.66178 2.04197L9.14863 0.957224L0.743422 4.93345L1.25658 6.01819ZM9.57633 2.04201L17.9927 6.01467L18.5049 4.92948L10.0886 0.956821L9.57633 2.04201ZM17.6488 5.47208V15.0399H18.8488V5.47208H17.6488ZM17.706 14.9496L9.3694 18.8989L9.88314 19.9833L18.2197 16.034L17.706 14.9496ZM9.88267 18.8986L1.54273 14.9566L1.02993 16.0415L9.36987 19.9836L9.88267 18.8986ZM1.6 15.047V5.47582H0.4V15.047H1.6ZM0.74311 6.01805L9.36189 10.1014L9.87567 9.01691L1.25689 4.9336L0.74311 6.01805ZM9.87559 10.1014L18.5056 6.01434L17.992 4.92981L9.36197 9.01687L9.87559 10.1014ZM9.01878 9.55959L9.02627 19.4415L10.2263 19.4406L10.2188 9.55868L9.01878 9.55959ZM1.54273 14.9566C1.5777 14.9732 1.6 15.0084 1.6 15.047H0.4C0.4 15.4725 0.645309 15.8597 1.02993 16.0415L1.54273 14.9566ZM17.6488 15.0399C17.6488 15.0013 17.6711 14.9661 17.706 14.9496L18.2197 16.034C18.6039 15.8521 18.8488 15.465 18.8488 15.0399H17.6488ZM9.66178 2.04197C9.63474 2.05476 9.60339 2.05478 9.57633 2.04201L10.0886 0.956821C9.79096 0.81635 9.44611 0.816497 9.14863 0.957224L9.66178 2.04197Z" fill="black"/>
</svg>
