<svg width="21" height="21" viewBox="0 0 21 21" fill="none" xmlns="http://www.w3.org/2000/svg">
<path d="M7.5063 4.71159L7.18692 4.20365L7.151 4.22624L7.11861 4.25366L7.5063 4.71159ZM20 7.67387H20.6V7.40029L20.3935 7.22089L20 7.67387ZM20 15.449L20.4192 15.8783L20.6 15.7017V15.449H20ZM14.9307 20.3986L14.8708 20.9956C15.0474 21.0133 15.2228 20.9519 15.3498 20.8279L14.9307 20.3986ZM1 19.0015H0.4C0.4 19.3097 0.633481 19.5678 0.940129 19.5985L1 19.0015ZM12.5868 1.51702L12.9062 2.02496L12.5868 1.51702ZM12.9432 1.5445L13.3367 1.09151L12.9432 1.5445ZM1.10615 10.1302L1.49385 10.5881L1.10615 10.1302ZM1.49385 10.5881L7.894 5.16951L7.11861 4.25366L0.71846 9.67224L1.49385 10.5881ZM7.82568 5.21952L12.9062 2.02496L12.2674 1.00909L7.18692 4.20365L7.82568 5.21952ZM12.5498 1.99748L19.6065 8.12686L20.3935 7.22089L13.3367 1.09151L12.5498 1.99748ZM19.4 7.67387V15.449H20.6V7.67387H19.4ZM19.5808 15.0197L14.5115 19.9693L15.3498 20.8279L20.4192 15.8783L19.5808 15.0197ZM14.9906 19.8016L1.05987 18.4045L0.940129 19.5985L14.8708 20.9956L14.9906 19.8016ZM1.6 19.0015V10.3591H0.4V19.0015H1.6ZM1.34589 19.4918L7.85219 14.9014L7.16041 13.9209L0.654108 18.5112L1.34589 19.4918ZM7.45663 15.0091L19.9503 16.0469L20.0497 14.851L7.55597 13.8132L7.45663 15.0091ZM6.9063 4.71159V14.4112H8.1063V4.71159H6.9063ZM15.5307 20.3986V11.5372H14.3307V20.3986H15.5307ZM15.3368 11.0955L7.91238 4.26989L7.10022 5.15329L14.5246 11.9789L15.3368 11.0955ZM19.6363 7.19666L14.567 11.06L15.2944 12.0144L20.3637 8.15108L19.6363 7.19666ZM12.9062 2.02496C12.7943 2.09531 12.6496 2.08415 12.5498 1.99748L13.3367 1.09151C13.0373 0.831504 12.6031 0.798031 12.2674 1.00909L12.9062 2.02496ZM0.71846 9.67224C0.51648 9.84324 0.4 10.0945 0.4 10.3591H1.6C1.6 10.4473 1.56117 10.5311 1.49385 10.5881L0.71846 9.67224Z" fill="black"/>
</svg>
