<svg width="512" height="512" viewBox="0 0 512 512" fill="none" xmlns="http://www.w3.org/2000/svg">
<path d="M370.701 0H141.29C63.3826 0 0 63.3856 0 141.293V370.704C0 448.614 63.3826 511.997 141.29 511.997H370.701C448.614 511.997 511.997 448.611 511.997 370.704V141.293C512 63.3856 448.614 0 370.701 0ZM466.573 370.704C466.573 423.566 423.566 466.57 370.704 466.57H141.29C88.4309 466.573 45.4269 423.566 45.4269 370.704V141.293C45.4269 88.434 88.4309 45.4269 141.29 45.4269H370.701C423.563 45.4269 466.57 88.434 466.57 141.293V370.704H466.573Z" fill="white"/>
<path d="M255.998 124.076C183.251 124.076 124.069 183.258 124.069 256.004C124.069 328.748 183.251 387.927 255.998 387.927C328.745 387.927 387.927 328.748 387.927 256.004C387.927 183.258 328.745 124.076 255.998 124.076ZM255.998 342.497C208.303 342.497 169.496 303.696 169.496 256.001C169.496 208.303 208.3 169.5 255.998 169.5C303.696 169.5 342.5 208.303 342.5 256.001C342.5 303.696 303.693 342.497 255.998 342.497Z" fill="white"/>
<path d="M393.461 85.5571C384.708 85.5571 376.11 89.1004 369.929 95.3088C363.718 101.487 360.147 110.088 360.147 118.87C360.147 127.625 363.721 136.223 369.929 142.432C376.107 148.61 384.708 152.183 393.461 152.183C402.243 152.183 410.814 148.61 417.022 142.432C423.23 136.223 426.774 127.622 426.774 118.87C426.774 110.088 423.23 101.487 417.022 95.3088C410.844 89.1004 402.243 85.5571 393.461 85.5571Z" fill="white"/>
</svg>
