<svg width="512" height="512" fill="none" xmlns="http://www.w3.org/2000/svg"><path d="M370.701 0H141.29C63.383 0 0 63.386 0 141.293v229.411c0 77.91 63.383 141.293 141.29 141.293h229.411c77.913 0 141.296-63.386 141.296-141.293V141.293C512 63.386 448.614 0 370.701 0Zm95.872 370.704c0 52.862-43.007 95.866-95.869 95.866H141.29c-52.86.003-95.863-43.004-95.863-95.866V141.293c0-52.859 43.004-95.866 95.863-95.866h229.411c52.862 0 95.869 43.007 95.869 95.866v229.411h.003Z" fill="#e31e24"/><path d="M255.998 124.076c-72.747 0-131.929 59.182-131.929 131.928 0 72.744 59.182 131.923 131.929 131.923s131.929-59.179 131.929-131.923c0-72.746-59.182-131.928-131.929-131.928Zm0 218.421c-47.695 0-86.502-38.801-86.502-86.496 0-47.698 38.804-86.501 86.502-86.501 47.698 0 86.502 38.803 86.502 86.501 0 47.695-38.807 86.496-86.502 86.496Zm137.463-256.94c-8.753 0-17.351 3.543-23.532 9.752-6.211 6.178-9.782 14.779-9.782 23.561 0 8.755 3.574 17.353 9.782 23.562 6.178 6.178 14.779 9.751 23.532 9.751 8.782 0 17.353-3.573 23.561-9.751 6.208-6.209 9.752-14.81 9.752-23.562 0-8.782-3.544-17.383-9.752-23.561-6.178-6.209-14.779-9.752-23.561-9.752Z" fill="#e31e24"/></svg>