<svg height="512" width="512" fill="#e31e24" xmlns="http://www.w3.org/2000/svg"><path d="M388 132H124c-11.046 0-20-8.954-20-20s8.954-20 20-20h264c11.046 0 20 8.954 20 20s-8.954 20-20 20zm20 84c0-11.046-8.954-20-20-20H124c-11.046 0-20 8.954-20 20s8.954 20 20 20h264c11.046 0 20-8.954 20-20zM276 320c0-11.046-8.954-20-20-20H124c-11.046 0-20 8.954-20 20s8.954 20 20 20h132c11.046 0 20-8.954 20-20zm-5.858 186.142L344.284 432H492c11.046 0 20-8.954 20-20V20c0-11.046-8.954-20-20-20H20C8.954 0 0 8.954 0 20v392c0 11.046 8.954 20 20 20h147.716l74.142 74.142c7.811 7.811 20.474 7.81 28.284 0zM40 40h432v352H336a19.998 19.998 0 0 0-14.142 5.858L256 463.716l-65.858-65.858A19.998 19.998 0 0 0 176 392H40z"/></svg>