<svg width="247" height="17" viewBox="0 0 247 17" fill="none" xmlns="http://www.w3.org/2000/svg">
<path fill-rule="evenodd" clip-rule="evenodd" d="M106.705 8.27519H109.703C111.263 8.27519 112.487 7.37518 112.487 5.9745C112.487 4.59976 111.263 3.72485 109.703 3.72485H106.705V8.27519ZM112.894 17L109.801 12.0737H109.775H106.705V17H102.649V0H109.775C113.83 0 116.539 2.30069 116.539 5.9745C116.539 8.20066 115.508 9.99829 113.783 11.049L117.619 17H112.894Z" fill="#E61C41"/>
<path fill-rule="evenodd" clip-rule="evenodd" d="M123.625 3.67562V6.77521H130.536V10.3755H123.625V13.3244H131.52V17H119.758V0H131.52V3.67562H123.625Z" fill="#E61C41"/>
<path fill-rule="evenodd" clip-rule="evenodd" d="M144.628 8.45098C144.628 5.82464 142.64 3.801 140.045 3.801H137.611V13.199H140.045C142.64 13.199 144.628 11.1503 144.628 8.45098ZM148.628 8.45098C148.628 13.4996 145.05 17 140.045 17H133.658V0H140.045C145.05 0 148.628 3.47453 148.628 8.45098Z" fill="#E61C41"/>
<path fill-rule="evenodd" clip-rule="evenodd" d="M151.835 17H156.113V0H151.835V17Z" fill="#E61C41"/>
<path fill-rule="evenodd" clip-rule="evenodd" d="M171.082 3.77526H166.598V17H162.734V3.77526H158.251V0H171.082V3.77526Z" fill="#E61C41"/>
<path fill-rule="evenodd" clip-rule="evenodd" d="M96.3764 10.7944C95.7739 12.3035 94.5171 13.1961 92.7625 13.1961C90.1995 13.1961 88.4203 11.2228 88.4203 8.50117C88.4203 5.77876 90.1995 3.80544 92.7625 3.80544C94.5171 3.80544 95.7739 4.69964 96.3764 6.20714H100.511C99.6992 2.46726 96.7492 0 92.7872 0C88.0504 0 84.4717 3.56432 84.4717 8.50117C84.4717 13.4373 88.0504 17 92.7872 17C96.7507 17 99.6992 14.5343 100.511 10.7944H96.3764Z" fill="#E61C41"/>
<path fill-rule="evenodd" clip-rule="evenodd" d="M189.621 11.7254C189.621 10.6746 188.792 10.0745 187.299 10.0745H183.644V13.5H187.227C188.888 13.5 189.621 12.7252 189.621 11.7254ZM183.644 3.45064V6.99995H186.658C188.175 6.99995 189.005 6.2008 189.005 5.10073C189.005 4.02493 188.199 3.45064 186.658 3.45064H183.644ZM193.537 12.2754C193.537 15.1 191.377 17 187.75 17H179.636V0H187.274C190.784 0 192.825 1.74958 192.825 4.52481C192.825 6.09968 191.993 7.7255 190.595 8.24966C192.564 8.69939 193.537 10.449 193.537 12.2754Z" fill="#E61C41"/>
<path fill-rule="evenodd" clip-rule="evenodd" d="M205.21 10.5493L203.148 4.82491L201.088 10.5493H205.21ZM206.482 14.0743H199.815L198.772 17H194.606L201.295 0H205.047L211.714 17H207.547L206.482 14.0743Z" fill="#E61C41"/>
<path fill-rule="evenodd" clip-rule="evenodd" d="M227.753 0V17H224.638L216.831 7.67455V17H212.784V0H215.873L223.731 9.57458V0H227.753Z" fill="#E61C41"/>
<path fill-rule="evenodd" clip-rule="evenodd" d="M237.479 10.6512L235.056 13.5485V17H230.961V0H235.056V7.79993L241.622 0H246.467L240.193 7.45049L247 17H241.89L237.479 10.6512Z" fill="#E61C41"/>
<path fill-rule="evenodd" clip-rule="evenodd" d="M14.9697 0V17H10.8723V10.6247H4.12028V17H0V0H4.12028V6.82576H10.8723V0H14.9697Z" fill="#E61C41"/>
<path fill-rule="evenodd" clip-rule="evenodd" d="M59.8787 17H55.9385V8.4761L52.419 14.2997V14.3248H50.2287V14.2997L46.6866 8.42506L46.7092 17H42.7705V0H45.7069L51.3246 9.07563L56.9415 0H59.8787V17Z" fill="#E61C41"/>
<path fill-rule="evenodd" clip-rule="evenodd" d="M66.9527 3.67497V6.77553H73.8649V10.376H66.9527V13.3251H74.8483V17H63.0864V0H74.8483V3.67497H66.9527Z" fill="#E61C41"/>
<path fill-rule="evenodd" clip-rule="evenodd" d="M28.3372 0C22.1359 0 17.1084 4.9721 17.1084 11.1091C17.1084 13.2727 17.7346 15.2927 18.8158 17H24.2318C22.5872 15.7079 21.5201 13.6646 21.5201 11.3582C21.5201 7.44846 24.5719 4.2791 28.3357 4.2791C32.101 4.2791 35.1528 7.44846 35.1528 11.3582C35.1528 13.6646 34.0856 15.7079 32.441 17H37.857C38.939 15.2927 39.5629 13.2727 39.5629 11.1091C39.5629 4.9721 34.5385 0 28.3372 0Z" fill="#E61C41"/>
<path fill-rule="evenodd" clip-rule="evenodd" d="M24.5933 12.4668C25.1302 14.446 26.6021 15.8668 28.3361 15.8668C30.07 15.8668 31.5426 14.446 32.0781 12.4668H24.5933Z" fill="#E61C41"/>
</svg>
