<svg width="249" height="30" viewBox="0 0 249 30" fill="none" xmlns="http://www.w3.org/2000/svg">
<g clip-path="url(#clip0)">
<path d="M73.2906 13.4582H52.4309C51.7732 13.4582 51.2094 14.0189 51.2094 14.6732V26.7292C51.2094 28.2246 52.4309 29.533 54.0283 29.533C55.5317 29.533 56.8472 28.318 56.8472 26.7292V18.4115H60.1358V26.7292C60.1358 28.2246 61.3574 29.533 62.9547 29.533C64.5521 29.533 65.7736 28.318 65.7736 26.7292V18.4115H69.0623V26.7292C69.0623 28.2246 70.2838 29.533 71.8811 29.533C73.3845 29.533 74.7 28.318 74.7 26.7292V14.7666C74.5121 14.1124 73.9483 13.4582 73.2906 13.4582ZM12.1211 21.6825C11.7453 21.4021 11.3694 21.2152 10.8996 21.0283C12.1211 20.4675 12.8728 19.1591 12.8728 17.8507C12.8728 17.1965 12.8728 13.6451 7.89283 13.6451H0.469811C0.187925 13.4582 0 13.832 0 13.9255V29.0657C0 29.3461 0.187925 29.533 0.469811 29.533H8.36264C13.4366 29.533 13.8125 25.7012 13.8125 24.9535C13.8125 23.7386 13.2487 22.4302 12.1211 21.6825ZM4.88604 17.1965H6.57736C6.95321 17.1965 7.32906 17.29 7.70491 17.3834C8.08075 17.5704 8.36264 18.0376 8.26868 18.4115C8.26868 19.1591 7.79887 19.6264 6.4834 19.6264H4.88604V17.1965ZM6.76528 25.9816H4.88604V23.3647H6.76528C8.17472 23.3647 8.83245 23.9255 8.83245 24.6732C8.83245 25.5143 8.17472 25.9816 6.76528 25.9816ZM163.682 12.2432C165.655 12.3367 167.535 11.4956 168.662 9.9068C168.85 9.71988 168.756 9.43951 168.568 9.25259L166.219 8.03764C166.031 7.94418 165.749 8.03764 165.655 8.22456C164.998 9.25259 163.588 9.53297 162.555 8.87876C162.273 8.69185 162.085 8.50493 161.897 8.22456C161.803 8.03764 161.521 7.94418 161.333 8.03764L158.984 9.25259C158.796 9.43951 158.702 9.71988 158.89 9.9068C159.924 11.4956 161.709 12.4302 163.682 12.2432ZM42.1891 17.3834C43.4106 17.3834 44.5381 17.9442 45.3838 18.9722C45.5717 19.1591 45.8536 19.1591 46.0415 18.9722L48.2966 16.1685C48.4845 15.9816 48.4845 15.7012 48.2966 15.5143C46.6053 14.1124 44.4441 13.2713 42.283 13.3647C37.5849 13.3647 34.1083 16.6358 34.1083 21.6825C34.1083 25.047 36.0815 30.0003 42.283 30.0003C44.5381 30.0937 46.6992 29.2526 48.2966 27.7573C48.4845 27.5704 48.4845 27.29 48.2966 27.1031L46.0415 24.2993C45.8536 24.1124 45.5717 24.1124 45.3838 24.2993C44.5381 25.2339 43.4106 25.7947 42.1891 25.7947C40.4977 25.7947 38.9004 24.4862 38.9004 21.589C38.9004 19.2526 40.0279 17.3834 42.1891 17.3834ZM23.8664 13.1778C19.1683 13.1778 15.6917 16.4489 15.6917 21.4956C15.6917 24.8601 17.6649 29.8133 23.8664 29.8133C30.0679 29.8133 32.0411 24.8601 32.0411 21.4956C32.0411 16.5423 28.5645 13.1778 23.8664 13.1778ZM23.8664 25.9816C22.1751 25.9816 20.5777 24.5797 20.5777 21.6825C20.5777 19.2526 21.7992 17.3834 23.8664 17.3834C25.9336 17.3834 27.1551 19.2526 27.1551 21.6825C27.2491 24.5797 25.5577 25.9816 23.8664 25.9816ZM127.977 13.4582H124.03C123.748 13.4582 123.56 13.6451 123.56 13.9255V19.533H118.862V13.9255C118.862 13.6451 118.674 13.4582 118.392 13.4582H114.446C114.164 13.4582 113.976 13.6451 113.976 13.9255V29.0657C113.976 29.3461 114.164 29.533 114.446 29.533H118.392C118.674 29.533 118.862 29.3461 118.862 29.0657V23.1778H123.56V29.0657C123.56 29.3461 123.748 29.533 124.03 29.533H127.977C128.258 29.533 128.446 29.3461 128.446 29.0657V13.9255C128.446 13.832 128.258 13.4582 127.977 13.4582ZM170.354 13.4582H166.219C166.031 13.4582 165.937 13.5517 165.843 13.7386L161.427 22.0563V13.9255C161.427 13.6451 161.239 13.4582 160.957 13.4582H157.011C156.729 13.4582 156.541 13.6451 156.541 13.9255V29.0657C156.541 29.3461 156.729 29.533 157.011 29.533H161.145C161.333 29.533 161.427 29.4395 161.521 29.2526L165.937 20.9348V29.0657C165.937 29.3461 166.125 29.533 166.407 29.533H170.354C170.635 29.533 170.823 29.3461 170.823 29.0657V13.9255C170.823 13.832 170.635 13.4582 170.354 13.4582C170.448 13.4582 170.448 13.4582 170.354 13.4582ZM85.5996 13.1778C80.9015 13.1778 77.4249 16.4489 77.4249 21.4956C77.4249 24.8601 79.3981 29.8133 85.5996 29.8133C91.8011 29.8133 93.7743 24.8601 93.7743 21.4956C93.7743 16.5423 90.2977 13.1778 85.5996 13.1778ZM85.5996 25.9816C83.9083 25.9816 82.3109 24.5797 82.3109 21.6825C82.3109 19.2526 83.5324 17.3834 85.5996 17.3834C87.6668 17.3834 88.8883 19.2526 88.8883 21.6825C88.8883 24.5797 87.197 25.9816 85.5996 25.9816ZM152.313 13.4582H148.366C148.085 13.4582 147.897 13.6451 147.897 13.9255V29.0657C147.897 29.3461 148.085 29.533 148.366 29.533H152.313C152.595 29.533 152.783 29.3461 152.783 29.0657V13.9255C152.783 13.832 152.595 13.4582 152.313 13.4582ZM139.346 19.4395H137.091V14.0189C137.091 13.7386 136.903 13.5517 136.621 13.5517H132.675C132.393 13.5517 132.205 13.7386 132.205 14.0189V29.1591C132.205 29.4395 132.393 29.6264 132.675 29.6264H139.44C143.574 29.6264 145.829 27.8507 145.829 24.4862C145.829 21.1218 143.574 19.4395 139.346 19.4395ZM138.97 25.9816H137.091V23.0844H138.97C139.346 23.0844 139.816 23.1778 140.192 23.2713C140.661 23.4582 140.943 23.9255 140.849 24.3928C140.849 25.7947 139.722 25.9816 138.97 25.9816ZM109.748 13.4582H105.802C105.52 13.4582 105.332 13.6451 105.332 13.9255V20.4675C101.573 21.0283 100.822 19.7199 100.822 18.5049V13.832C100.822 13.5517 100.634 13.3647 100.352 13.3647H96.4053C96.2174 13.3647 96.0294 13.5517 95.9355 13.7386C95.9355 14.3928 95.9355 15.7012 95.9355 16.9161C95.9355 18.5984 95.9355 20.4675 96.1234 21.2152C96.4992 23.3647 98.4725 24.2059 100.446 24.3928C102.137 24.5797 103.734 24.4862 105.332 24.0189V28.9722C105.332 29.2526 105.52 29.4395 105.802 29.4395H109.748C110.03 29.4395 110.218 29.2526 110.218 28.9722V13.9255C110.218 13.832 110.03 13.4582 109.748 13.4582ZM230.677 13.4582H226.731C226.449 13.4582 226.261 13.6451 226.261 13.9255V19.533H221.563V13.9255C221.563 13.6451 221.375 13.4582 221.093 13.4582H217.147C216.865 13.4582 216.677 13.6451 216.677 13.9255V29.0657C216.677 29.3461 216.865 29.533 217.147 29.533H221.093C221.375 29.533 221.563 29.3461 221.563 29.0657V23.1778H226.261V29.0657C226.261 29.3461 226.449 29.533 226.731 29.533H230.677C230.959 29.533 231.147 29.3461 231.147 29.0657V13.9255C231.147 13.832 230.959 13.4582 230.677 13.4582ZM191.401 19.6264H187.925V17.1965H195.254C195.535 17.1965 195.723 17.0096 195.723 16.7292V14.0189C195.723 13.7386 195.535 13.5517 195.254 13.5517H183.508C183.226 13.5517 183.038 13.7386 183.038 14.0189V29.1591C183.038 29.4395 183.226 29.6264 183.508 29.6264H191.401C196.475 29.6264 196.851 25.8881 196.851 24.5797C196.851 23.3647 196.475 19.6264 191.401 19.6264ZM189.804 25.9816H187.925V23.2713H189.804C191.213 23.2713 191.871 23.7386 191.871 24.6732C191.871 25.5143 191.213 25.9816 189.804 25.9816ZM244.02 21.589L248.906 14.2993C249.094 14.1124 249 13.832 248.812 13.6451C248.718 13.5517 248.624 13.5517 248.53 13.5517H244.302C244.114 13.5517 244.02 13.6451 243.926 13.7386L239.792 20.561V14.0189C239.792 13.7386 239.604 13.5517 239.322 13.5517H235.375C235.094 13.5517 234.906 13.7386 234.906 14.0189V29.1591C234.906 29.4395 235.094 29.6264 235.375 29.6264H239.322C239.604 29.6264 239.792 29.4395 239.792 29.1591V22.6171L243.926 29.4395C244.02 29.533 244.114 29.6264 244.302 29.6264H248.53C248.812 29.6264 249 29.4395 249 29.1591C249 29.0657 249 28.9722 248.906 28.8788L244.02 21.589ZM208.69 13.832C208.596 13.6451 208.408 13.5517 208.22 13.5517H203.992C203.804 13.5517 203.616 13.6451 203.522 13.832L197.791 28.9722C197.791 29.0657 197.791 29.0657 197.791 29.1591C197.791 29.4395 197.978 29.6264 198.26 29.6264H202.489C202.677 29.6264 202.865 29.533 202.958 29.3461L203.71 27.0096H208.784L209.536 29.3461C209.63 29.533 209.818 29.6264 210.006 29.6264H214.234C214.516 29.6264 214.704 29.4395 214.704 29.1591C214.704 29.0657 214.704 29.0657 214.704 28.9722L208.69 13.832ZM204.744 23.2713L206.153 18.4115L207.657 23.2713H204.744Z" fill="#1B58A9"/>
<path d="M50.1757 9.9064C49.518 8.69144 49.8938 7.19612 51.1153 6.54191L62.2969 0.0933119C62.6727 -0.093604 63.1425 -0.093604 63.5184 0.0933119L74.6999 6.54191C75.9214 7.19612 76.2972 8.69144 75.6395 9.9064C74.9818 11.1214 73.4784 11.4952 72.2569 10.841L62.9546 5.60733L53.5584 10.841C52.4308 11.4952 50.9274 11.0279 50.1757 9.9064Z" fill="#EB3723"/>
</g>
<defs>
<clipPath id="clip0">
<rect width="249" height="30" fill="white"/>
</clipPath>
</defs>
</svg>
