<svg width="115" height="19" viewBox="0 0 115 19" fill="none" xmlns="http://www.w3.org/2000/svg">
<path fill-rule="evenodd" clip-rule="evenodd" d="M0 11.5055C0 15.2371 2.07756 19 6.72983 19C11.3778 19 13.4594 15.2371 13.4594 11.5055C13.4594 8.95684 12.6057 6.02197 11.181 3.65086C9.7953 1.36163 8.1303 0 6.72983 0C5.32509 0 3.65966 1.36163 2.28601 3.65086C0.854197 6.02197 0 8.95684 0 11.5055ZM47.7815 5.59829H43.0705V1.0179H57.5394V5.59829H52.8287L52.8285 17.9822H47.7812L47.7815 5.59829ZM68.3047 5.59836H75.7081V1.01797H68.3055C61.5035 1.01797 57.872 4.42777 57.872 9.50009C57.872 14.5724 61.5035 17.9823 68.3055 17.9823H75.7081V13.4018H68.3047C65.1574 13.4018 63.0874 12.2674 63.0874 9.50009C63.0874 6.73281 65.1574 5.59836 68.3047 5.59836ZM30.1128 11.1437L32.8036 1.01797H41.7226V17.9823H36.6756V4.17498L33.0064 17.9823H27.2193L23.5525 4.1836V17.9823H18.5052V1.01797H27.422L30.1128 11.1437ZM84.9138 5.9352H83.134V7.59461H84.9138C85.3647 7.59461 85.6332 7.36122 85.6332 6.9308V6.62343C85.6332 6.1808 85.4017 5.9352 84.9138 5.9352ZM85.3647 9.50009H80.7563V1.01774H87.5348V3.0463H83.134V4.1525H85.3647C87.2302 4.1525 88.1324 5.08681 88.1324 6.73403C88.1324 8.46742 87.2302 9.50009 85.3647 9.50009ZM93.6167 6.03333H91.7392L92.678 2.89882L93.6167 6.03333ZM97.225 9.50009L94.6286 1.01797H91.093L88.4963 9.50009H90.7153L91.1906 7.87731H94.1654L94.6531 9.50009H97.225ZM103.235 9.50009V6.21789H100.516V9.50009H98.0776V1.01797H100.516V4.12806H103.235V1.01797H105.673V9.50009H103.235ZM110.002 4.12799H109.575V1.0179H107.136V9.5H109.575V6.21783H109.928L112.184 9.5H115L111.952 5.06231L114.756 1.0179H112.184L110.002 4.12799Z" fill="#E30611"/>
</svg>
