<svg width="167" height="40" viewBox="0 0 167 40" fill="none" xmlns="http://www.w3.org/2000/svg">
<path d="M40.2749 6.88379H47.6742C51.4207 6.88379 53.9496 9.95356 53.9496 12.9303C53.9496 16.0001 51.4207 19.0698 47.6742 19.0698H43.0848V24.0001H40.2749V6.88379ZM47.3932 16.4652C49.8285 16.4652 51.1397 14.6047 51.1397 12.9303C51.1397 11.1629 49.8285 9.39542 47.3932 9.39542H43.0848V16.4652H47.3932Z" fill="#323E48"/>
<path d="M54.7925 17.7675C54.7925 14.1396 57.3214 11.2559 61.2552 11.2559C65.2827 11.2559 67.2496 14.6047 67.2496 17.9535V18.6047H57.6024C57.977 20.7442 59.8502 21.9535 62.3791 21.9535C63.9714 21.9535 65.2827 21.4884 66.4066 20.8373V23.1628C65.3763 23.907 63.6904 24.3721 61.8172 24.3721C57.8833 24.3721 54.7925 21.7675 54.7925 17.7675ZM64.4397 16.4652C64.4397 15.1628 63.4094 13.4884 61.1615 13.4884C59.0073 13.4884 57.7897 14.9768 57.696 16.4652H64.4397Z" fill="#323E48"/>
<path d="M69.6851 11.5352H72.4949V16.3724H78.864V11.5352H81.6738V24.0003H78.864V18.791H72.4949V24.0003H69.6851V11.5352Z" fill="#323E48"/>
<path d="M84.0151 17.7675C84.0151 14.1396 86.544 11.2559 90.4778 11.2559C94.5053 11.2559 96.4722 14.6047 96.4722 17.9535V18.6047H86.825C87.1997 20.7442 89.0729 21.9535 91.6018 21.9535C93.1941 21.9535 94.5053 21.4884 95.6293 20.8373V23.1628C94.599 23.907 92.9131 24.3721 91.0398 24.3721C87.106 24.3721 84.0151 21.7675 84.0151 17.7675ZM93.6624 16.4652C93.6624 15.1628 92.6321 13.4884 90.3842 13.4884C88.2299 13.4884 87.0123 14.9768 86.9187 16.4652H93.6624Z" fill="#323E48"/>
<path d="M98.0645 17.7675C98.0645 13.8605 101.155 11.2559 104.902 11.2559C106.4 11.2559 107.524 11.5349 108.648 12.0931V14.4186C107.524 13.8605 106.494 13.5814 105.276 13.5814C102.841 13.5814 100.781 15.2559 100.781 17.7675C100.781 20.2791 102.748 21.9535 105.276 21.9535C106.681 21.9535 107.805 21.6745 108.836 21.0233V23.3489C107.618 24 106.4 24.3721 104.808 24.3721C101.155 24.3721 98.0645 21.6745 98.0645 17.7675Z" fill="#323E48"/>
<path d="M110.241 17.7675C110.241 13.8605 113.332 11.2559 117.078 11.2559C118.577 11.2559 119.701 11.5349 120.825 12.0931V14.4186C119.701 13.8605 118.67 13.5814 117.453 13.5814C115.018 13.5814 112.957 15.2559 112.957 17.7675C112.957 20.2791 114.924 21.9535 117.453 21.9535C118.858 21.9535 119.982 21.6745 121.012 21.0233V23.3489C119.794 24 118.577 24.3721 116.984 24.3721C113.425 24.3721 110.241 21.6745 110.241 17.7675Z" fill="#323E48"/>
<path d="M136.373 21.6745V23.721C135.998 24 135.342 24.0931 134.78 24.0931C133.563 24.0931 132.532 23.5349 132.158 22.3256C131.221 23.3489 129.723 24.2791 127.568 24.2791C124.946 24.2791 122.885 22.7907 122.885 20.0931C122.885 17.3024 124.946 16.4652 127.662 16.4652C129.535 16.4652 131.97 16.4652 131.97 16.4652V16.2791C131.97 14.1396 130.191 13.5814 128.318 13.5814C126.819 13.5814 125.32 14.1396 124.384 14.6977V12.2791C125.32 11.814 126.725 11.2559 128.973 11.2559C132.345 11.2559 134.78 12.8373 134.78 16V20.6512C134.78 21.3954 135.249 21.8605 135.811 21.8605C135.811 21.8605 136.092 21.8605 136.373 21.6745ZM131.783 18.6047C131.783 18.6047 129.816 18.6047 128.505 18.6047C126.725 18.6047 125.508 18.9768 125.508 20.1861C125.508 21.5814 126.725 22.0466 128.224 22.0466C129.723 22.0466 131.128 21.3024 131.783 20.5582V18.6047Z" fill="#323E48"/>
<path d="M138.339 11.5352H141.149V16.3724H147.518V11.5352H150.328V24.0003H147.518V18.791H141.149V24.0003H138.339V11.5352Z" fill="#323E48"/>
<path d="M152.67 17.7675C152.67 13.8605 155.761 11.2559 159.507 11.2559C161.006 11.2559 162.13 11.5349 163.254 12.0931V14.4186C162.13 13.8605 161.1 13.5814 159.882 13.5814C157.447 13.5814 155.386 15.2559 155.386 17.7675C155.386 20.2791 157.353 21.9535 159.882 21.9535C161.287 21.9535 162.411 21.6745 163.441 21.0233V23.3489C162.223 24 161.006 24.3721 159.414 24.3721C155.761 24.3721 152.67 21.6745 152.67 17.7675Z" fill="#323E48"/>
<path d="M40.2749 30.6982H41.5862V33.1168L43.8341 30.6982H45.4263L42.8038 33.4889L45.8946 36.8378H44.3024L41.6798 34.0471V36.8378H40.2749V30.6982Z" fill="#323E48"/>
<path d="M47.5806 30.6982H50.2968C51.6081 30.6982 52.451 31.4424 52.451 32.5587C52.451 33.675 51.6081 34.4192 50.2968 34.4192H48.8918V36.8378H47.5806V30.6982ZM50.2031 33.3029C50.7651 33.3029 51.1397 33.0238 51.1397 32.5587C51.1397 32.0936 50.7651 31.8145 50.2031 31.8145H48.8918V33.3029H50.2031Z" fill="#323E48"/>
<path d="M54.3242 30.6982H58.82V31.8145H55.5418V33.0238H58.1644V34.1401H55.5418V35.7215H59.0073V36.8378H54.3242V30.6982Z" fill="#323E48"/>
<path d="M60.6933 35.7213H61.2552C61.8172 34.884 62.0982 33.7678 62.0982 31.7212V30.791H66.4067V35.8143H67.2496V38.2329H66.032V37.0236H61.8172V38.2329H60.5996V35.7213H60.6933ZM65.1891 35.7213V31.8143H63.4095C63.4095 33.1166 63.3158 34.4189 62.7538 35.7213H65.1891Z" fill="#323E48"/>
<path d="M69.2168 30.6982H70.5281V34.6982L73.5253 30.6982H74.6492V36.8378H73.4316V32.8378L70.2471 36.8378H69.2168V30.6982Z" fill="#323E48"/>
<path d="M81.5801 30.6982V31.8145H79.6131V36.8378H78.3019V31.8145H76.335V30.6982H81.5801Z" fill="#323E48"/>
<path d="M7.77406 30.698H3.74658V13.4887C3.74658 7.62823 8.61702 2.79102 14.5178 2.79102H27.8178V13.3957C27.8178 19.3492 22.9474 24.0933 17.0466 24.0933H10.3029L11.8015 20.0933H16.953C20.6995 20.0933 23.6967 17.1166 23.6967 13.3957V6.79102H14.4241C10.6776 6.79102 7.6804 9.76776 7.6804 13.4887V30.698H7.77406Z" fill="url(#paint0_radial)"/>
<defs>
<radialGradient id="paint0_radial" cx="0" cy="0" r="1" gradientUnits="userSpaceOnUse" gradientTransform="translate(4.55105 29.5748) scale(23.3098 23.1507)">
<stop stop-color="#D6005E"/>
<stop offset="1" stop-color="#E3448A"/>
</radialGradient>
</defs>
</svg>
