<svg width="245" height="56" viewBox="0 0 245 56" fill="none" xmlns="http://www.w3.org/2000/svg">
<path fill-rule="evenodd" clip-rule="evenodd" d="M61.2614 26.1932L62.0667 23.5892L59.4011 23.6748C59.1773 23.6748 57.5391 23.6254 55.9531 22.4642C56.0723 22.4741 56.1883 22.4922 56.3124 22.4922C57.9458 22.4922 59.5285 21.4974 60.1606 20.0744L61.3072 17.5049C59.8698 17.5247 58.555 17.3419 58.555 17.3419C58.5436 17.3419 57.508 17.2052 56.3108 15.9682C55.4517 15.0838 54.3884 14.6144 53.2369 14.6144C52.781 14.6161 52.3281 14.6889 51.8943 14.8301C51.9547 14.6226 52.0119 14.4101 52.0462 14.1927C52.4104 11.788 50.88 9.95647 50.88 9.95647L48.8759 7.44965L47.6329 10.3946C47.628 10.4045 47.3144 11.0962 46.7542 11.4322C46.5843 10.5659 46.1678 9.59247 45.2793 8.66188C43.6018 6.90941 41.5618 6.64588 40.4936 6.64588C39.9987 6.64588 39.6443 6.70188 39.5593 6.71506L37.1404 7.196C37.2792 6.65082 37.5781 5.69718 38.1204 4.84235L39.4564 2.74235L36.0967 3.12941L35.0268 0.833412L32.9541 1.91224L31.0382 0L29.1272 1.91059L27.0513 0.833412L25.9831 3.12776L22.6249 2.74071L23.9626 4.844C24.5065 5.69882 24.8022 6.64753 24.941 7.19271L22.6331 6.73153L22.5531 6.72C22.2343 6.66936 21.9121 6.64458 21.5894 6.64588C20.5212 6.64588 18.4812 6.90941 16.8086 8.66188C15.9185 9.59082 15.5003 10.5659 15.3305 11.4322C14.7735 11.0979 14.4615 10.4193 14.4615 10.4193L13.2169 7.45459L11.1802 9.98118C10.9319 10.3056 9.70527 12.0285 10.0368 14.1976C10.0728 14.4134 10.1283 14.6242 10.1887 14.8318C9.75612 14.6901 9.30425 14.6173 8.8494 14.616C7.69627 14.616 6.63297 15.0854 5.7722 15.9699C4.57987 17.2019 3.54923 17.3419 3.5574 17.3419C3.5574 17.3419 2.46797 17.5395 0.780733 17.5066L1.92243 20.076C2.55617 21.4991 4.1405 22.4939 5.77057 22.4939C5.8947 22.4939 6.01067 22.4758 6.13153 22.4659C4.5472 23.6287 2.9106 23.6765 2.71297 23.6765L0 23.5892L0.821567 26.1915C1.23643 27.5355 2.61823 29.7574 5.26423 29.9962C4.97677 31.2151 4.33813 32.5821 2.93673 33.1718L0.914667 34.0118L2.01717 35.952C2.63947 36.9979 4.1013 38.2216 6.18053 38.2216C6.6297 38.2216 7.06417 38.1739 7.48393 38.0849C7.5901 38.5626 7.72403 39.0402 7.88247 39.5179C8.49987 41.3791 7.9674 42.6769 7.96087 42.6918L6.96453 44.8033L9.19077 45.3962C9.21853 45.4061 9.8931 45.5939 10.7343 45.5939C11.1165 45.5939 11.4823 45.5527 11.8253 45.4704C12.0834 45.4094 12.3317 45.3271 12.5718 45.2299C12.8609 45.752 13.2104 46.2296 13.6187 46.6562C15.0463 48.1369 17.0716 48.8864 19.6327 48.8864H19.6408L21.4702 48.8616L17.6906 50.4494L20.5604 51.8511C21.6041 52.3649 22.8389 52.9711 24.0998 53.4355L23.7405 54.4254L24.7287 54.8816C24.8169 54.9228 26.7213 55.7809 29.8818 55.9638C29.8818 55.9638 30.6446 56 31.0644 56C31.4858 56 32.2404 55.9621 32.2404 55.9621C35.3796 55.7744 37.2678 54.9228 37.356 54.8816L38.3474 54.4254L37.9864 53.4339C39.28 52.9562 40.5622 52.3238 41.5634 51.8313L44.3793 50.4478L40.6112 48.8616L42.4487 48.8864C45.013 48.8864 47.0384 48.1353 48.4643 46.6546C48.871 46.2296 49.2189 45.7536 49.5096 45.2299C50.0926 45.473 50.7179 45.5962 51.3487 45.5922C52.1768 45.5922 52.8579 45.4078 52.8759 45.4012L55.1136 44.8033L54.1385 42.7296C54.1156 42.6769 53.5831 41.3791 54.2005 39.5146C54.359 39.0402 54.4913 38.5609 54.5991 38.0849C55.0188 38.1739 55.4582 38.22 55.9106 38.2216C58.5599 38.2216 59.8306 36.3391 60.0756 35.9306L61.1683 34.0101L59.1463 33.1718C57.7416 32.5838 57.1046 31.2167 56.8204 29.9995C59.4321 29.7689 60.8319 27.5454 61.2631 26.1948L61.2614 26.1932Z" fill="#FFFFFE"/>
<path fill-rule="evenodd" clip-rule="evenodd" d="M31.0382 7.97624C28.8985 7.97788 27.293 8.68612 26.9434 9.52118L31.0382 11.1518L35.1346 9.52118C34.7883 8.68612 33.1828 7.97788 31.0382 7.97624ZM31.0823 51.1934H31.0006C29.7038 51.2016 27.9153 50.9332 27.0561 50.6779L26.0206 53.5092C26.7033 53.7546 29.0161 54.2256 31.0431 54.2256C33.0668 54.2256 35.3812 53.7546 36.0623 53.5092L35.0284 50.6795C34.1644 50.9332 32.3792 51.2016 31.0823 51.1934ZM38.9174 48.3769C38.1465 48.8184 36.4266 49.4805 35.4253 49.7868L36.2649 52.1256C37.8133 51.6974 39.0922 51.1984 40.1473 50.6631L38.4029 50.0784L38.9174 48.3769ZM23.1639 48.3769L23.68 50.0784L21.934 50.6631C22.9875 51.1984 24.2713 51.6974 25.8148 52.124L26.656 49.7852C25.6564 49.4788 23.9332 48.8184 23.1639 48.3769ZM31.0382 5.27012C32.6536 5.27012 34.2346 5.66047 35.4531 6.344C35.5642 5.96847 35.7193 5.51059 35.93 5.03129L35.4694 5.08729L34.9876 5.13671L34.7834 4.69365L34.166 3.38094L33.0456 3.97059L32.6078 4.19459L32.2583 3.84871L31.0382 2.62988L29.8214 3.84871L29.4735 4.19459L29.0374 3.97059L27.9104 3.38094L27.3011 4.69365L27.0937 5.13835L26.6102 5.08729L26.1529 5.03129C26.3636 5.51059 26.5171 5.96847 26.6298 6.344C27.8516 5.66047 29.4326 5.27012 31.0398 5.27012H31.0382ZM55.677 20.4511C55.8877 20.5235 56.1001 20.5565 56.3108 20.5565C57.2254 20.5565 58.1074 19.9586 58.4096 19.2767C58.4096 19.2767 56.7354 19.1746 54.9355 17.3282C54.3638 16.732 53.7562 16.5525 53.2368 16.5525C52.4283 16.5525 51.8207 16.9824 51.8207 16.9824C53.9963 18.1518 54.439 20.0294 55.677 20.4511ZM5.77054 20.5548C5.98287 20.5548 6.19521 20.5235 6.39937 20.4494C7.64071 20.0278 8.08824 18.1518 10.2589 16.984C10.2589 16.984 9.65134 16.5525 8.84774 16.5525C8.32507 16.5525 7.71911 16.7304 7.14417 17.3299C5.34587 19.1746 3.67334 19.2784 3.67334 19.2784C3.97387 19.9586 4.85751 20.5565 5.77054 20.5565V20.5548Z" fill="#FFFFFE"/>
<path fill-rule="evenodd" clip-rule="evenodd" d="M55.0222 33.9214C53.3399 33.0814 52.2782 30.8578 52.0202 30.0574C51.7425 34.4682 49.611 37.5284 47.1202 40.4734C45.8266 42.0018 45.3758 43.4875 45.3758 43.4875C45.3758 43.4875 45.6257 41.8042 46.7429 40.4338C49.0671 37.6141 51.2754 34.1025 51.4403 30.0409C51.553 27.208 50.8327 24.9103 49.7057 23.0162C50.3362 24.9877 50.2464 27.404 48.1083 29.6588C48.1083 29.6588 52.3664 24.5068 46.4146 19.223C44.0332 17.2136 41.4264 15.9717 40.0854 15.0922C44.9315 16.6898 47.2998 14.9308 47.2998 14.9308C45.7514 16.2863 43.7473 16.2632 42.5044 16.0672C42.8425 16.2336 43.1936 16.4082 43.5693 16.6108C47.6575 18.8541 51.3293 22.5451 51.9565 27.6543V27.6148C52.9054 32.6334 55.0222 33.9214 55.0222 33.9214ZM56.2668 28.0743C56.3044 28.0776 56.3371 28.0776 56.3746 28.0776C58.6531 28.0776 59.4241 25.612 59.4241 25.612H59.38C58.9618 25.612 55.5743 25.5131 53.1798 22.4381C51.6053 20.4171 50.3133 18.6399 47.7621 17.9416L47.5105 17.8955L47.4566 17.6369C47.3864 17.2432 47.6526 16.8743 48.2602 16.4774C51.7801 14.1484 49.3872 11.1771 49.3872 11.1771C49.3872 11.1771 48.3844 13.5522 46.1353 13.5522L45.967 13.5489C45.7122 13.5357 45.4656 13.5275 45.2173 13.4731L44.8025 13.3908C44.8025 13.3908 45.4444 11.6284 43.896 10.0127C42.7314 8.79054 41.312 8.58301 40.4937 8.58301C40.0805 8.58301 39.8192 8.63736 39.8192 8.63736C40.5966 9.66348 41.1585 11.3682 40.2602 12.419C39.4843 13.3216 37.5897 13.3661 37.5897 14.7134C37.5897 15.2832 38.1172 15.9487 39.0646 16.5465C41.9131 18.3583 44.7404 20.763 45.9164 23.9863C47.3864 28.0051 45.7302 30.6734 43.3684 32.2035C43.3684 32.2035 44.1099 32.892 45.183 32.9809C45.4019 33.0023 45.6159 33.0122 45.8151 33.0122C48.0838 33.0122 49.2566 31.9367 49.2566 31.9367C49.2566 31.9367 49.0622 33.4223 47.8846 34.8009C46.7935 36.0724 45.3643 36.8235 43.1838 36.8548C43.1838 36.8548 43.1152 37.876 44.0805 38.7621C44.6996 39.3204 46.1255 39.5032 46.1255 39.5032C46.1255 39.5032 43.4533 40.0484 43.1577 44.036C42.9976 46.1969 42.4521 46.9463 42.4521 46.9463H42.4995C48.6996 46.9463 48.5412 41.5736 48.5412 41.5736C48.5412 41.5736 48.9724 43.1647 50.7021 43.5797C50.9111 43.6357 51.1349 43.6571 51.3472 43.6571C51.9026 43.6571 52.3877 43.5254 52.3877 43.5254C52.3877 43.5254 51.4812 41.595 52.3795 38.8955C53.1259 36.6538 53.0051 34.9936 53.0051 34.9936C53.0051 34.9936 53.8397 36.2701 55.9124 36.2816H55.9336C56.4232 36.2892 56.9068 36.1722 57.3396 35.9413C57.7725 35.7104 58.1405 35.3731 58.4098 34.9607C54.2758 33.2263 54.6841 27.6312 54.6841 27.6312C54.6841 27.6312 55.2199 28.0364 56.2668 28.076V28.0743ZM14.9615 40.4734C12.4706 37.5284 10.3391 34.4682 10.0582 30.0574C9.80176 30.8595 8.74173 33.083 7.06103 33.9214C7.06103 33.9214 9.17456 32.6334 10.1235 27.6148V27.6543C10.7524 22.5451 14.4241 18.8541 18.5123 16.6124C18.888 16.4065 19.2408 16.2336 19.5756 16.0689C18.3343 16.2632 16.3286 16.2863 14.7818 14.9324C14.7818 14.9324 17.1501 16.6898 21.9946 15.0922C20.6553 15.9717 18.0485 17.2136 15.6687 19.223C9.7152 24.5068 13.9733 29.6588 13.9733 29.6588C11.8336 27.4023 11.7454 24.9894 12.3759 23.0162C11.2489 24.9103 10.527 27.208 10.6446 30.0425C10.8063 34.1025 13.0129 37.6141 15.3322 40.4355C16.456 41.8025 16.7091 43.4858 16.7091 43.4858C16.7091 43.4858 16.2518 42.0018 14.9615 40.4734ZM15.9578 39.5016C15.9578 39.5016 17.3837 39.3204 18.0027 38.7604C18.9664 37.876 18.8994 36.8548 18.8994 36.8548C16.7173 36.8235 15.2898 36.0724 14.1938 34.8009C13.0211 33.4223 12.8251 31.9367 12.8251 31.9367C12.8251 31.9367 13.9978 33.0122 16.2632 33.0122C16.4674 33.0122 16.6797 33.0023 16.897 32.9809C17.5673 32.9124 18.2015 32.6415 18.7165 32.2035C16.3514 30.6734 14.6952 28.0051 16.1636 23.9847C17.3396 20.7647 20.1653 18.3583 23.0171 16.5449C23.9628 15.9487 24.4887 15.2832 24.4887 14.7134C24.4887 13.3661 22.5973 13.3216 21.8215 12.419C20.9231 11.3682 21.4866 9.66348 22.2625 8.63736C22.2625 8.63736 22.0028 8.58301 21.5879 8.58301C20.7712 8.58301 19.3519 8.79054 18.1857 10.0127C16.634 11.6301 17.2792 13.3924 17.2792 13.3924L16.8643 13.4748C16.6177 13.5258 16.3678 13.5357 16.113 13.5505L15.9496 13.5522C13.6956 13.5522 12.6944 11.1788 12.6944 11.1788C12.6944 11.1788 10.3048 14.1484 13.8247 16.4774C14.429 16.8743 14.6952 17.2449 14.625 17.6369L14.5711 17.8938L14.3147 17.94C11.7683 18.64 10.4763 20.4171 8.89853 22.4381C6.50406 25.5131 3.1198 25.612 2.70003 25.612H2.6543C2.6543 25.612 3.42686 28.0776 5.707 28.0776C5.74293 28.0776 5.7756 28.0776 5.8148 28.0743C6.86176 28.0364 7.39913 27.6312 7.39913 27.6312C7.39913 27.6312 7.8042 33.2263 3.67186 34.9607C3.67186 34.9607 4.42483 36.2832 6.14963 36.2832H6.16923C8.24356 36.2701 9.07656 34.9936 9.07656 34.9936C9.07656 34.9936 8.9557 36.6555 9.69886 38.8955C10.5972 41.5967 9.6956 43.5237 9.6956 43.5237C9.6956 43.5237 10.1774 43.6555 10.7344 43.6555C10.95 43.6555 11.1705 43.6357 11.3779 43.5797C13.106 43.1647 13.5388 41.5736 13.5388 41.5736C13.5388 41.5736 13.3804 46.9463 19.5822 46.9463H19.6279C19.6279 46.9463 19.084 46.1969 18.9256 44.036C18.6316 40.0501 15.9562 39.5016 15.9562 39.5016H15.9578ZM29.6402 19.704H32.5639V20.7169C32.2209 20.292 31.5512 20.3792 31.5512 20.3792V21.8402C31.5512 21.8402 31.5741 22.5583 31.8256 22.8696H30.3785C30.6317 22.5583 30.6529 21.8402 30.6529 21.8402V20.3792C30.6529 20.3792 29.9865 20.292 29.6402 20.7169V19.704ZM26.4552 19.8555C26.5565 19.9658 26.6561 20.0861 26.7525 20.2063C26.7754 20.2343 26.7966 20.259 26.8195 20.292C26.9093 20.4105 26.9991 20.539 27.0857 20.6675L27.1445 20.7548C27.2474 20.9129 27.3454 21.076 27.4434 21.2456C28.3385 22.8054 29.7693 23.7376 31.0384 23.7392C32.3107 23.7376 33.7399 22.8054 34.6366 21.2456C34.7362 21.0727 34.8359 20.9047 34.9404 20.7465C35.0596 20.5623 35.1872 20.3837 35.3226 20.2112C35.4222 20.0861 35.5251 19.9642 35.6297 19.8522C35.6476 19.8357 35.6623 19.8176 35.6803 19.8028C36.1376 19.3317 36.6783 18.9727 37.3904 18.7734L37.0735 18.5872H37.0572L35.7963 17.8494L34.5043 17.1L31.0482 19.0007L31.0384 18.9924L31.0335 19.0007L27.5773 17.1L26.2837 17.8494L25.0228 18.5872H25.0081L24.6896 18.7734C25.4001 18.971 25.9424 19.3268 26.3997 19.7995C26.4193 19.816 26.4324 19.839 26.4552 19.8555Z" fill="#FFFFFE"/>
<path fill-rule="evenodd" clip-rule="evenodd" d="M29.9388 13.2635V14.2188L29.7575 14.1331C29.7494 14.1265 29.4815 14.0672 29.0193 13.695C28.2532 13.0955 28.2385 12.5421 28.2385 12.5421L29.9372 13.2635H29.9388ZM30.7392 17.7385V11.8058L27.0021 10.5244L27.9886 16.2727L30.7408 17.7385H30.7392ZM32.1438 13.2635L33.8425 12.5421C33.8425 12.5421 33.8294 13.0955 33.0601 13.695C32.5979 14.0656 32.3317 14.1265 32.3235 14.1331L32.1438 14.2171V13.2635ZM34.0924 16.2743L35.074 10.5261L31.3386 11.8058V17.7385L34.0924 16.2727V16.2743ZM25.4537 31.4915C25.8179 31.6232 26.2589 31.6512 26.486 31.6512C26.4941 31.6232 26.5072 31.5887 26.5186 31.5458C26.5366 31.4799 26.5562 31.4108 26.5709 31.3383C26.6346 31.0089 26.6558 30.6383 26.6624 30.3978C26.4535 30.2726 26.2832 30.0913 26.1707 29.8741C26.0319 29.5792 25.8343 29.4409 25.5452 29.4409C25.1695 29.4409 24.7661 29.6715 24.5913 29.7769C24.4541 30.5971 25.0535 31.3416 25.4537 31.4898V31.4915ZM33.7216 28.3439C33.0291 29.1065 31.6685 30.4357 31.6032 30.5016L31.5215 30.5839L27.2259 30.5164C27.2223 30.8748 27.1762 31.2314 27.0887 31.5788L27.0544 31.7155L32.1618 32.6444C32.6926 32.2689 34.1545 31.1901 34.7229 30.7668C34.3096 30.1574 34.2704 29.4343 34.3635 28.927C34.1183 28.7708 33.9012 28.5736 33.7216 28.3439Z" fill="#FFFFFE"/>
<path fill-rule="evenodd" clip-rule="evenodd" d="M34.3051 23.1266C33.3153 24.1182 32.3663 24.4855 31.5186 24.5711C31.3635 24.5881 31.2075 24.5969 31.0515 24.5975H31.0302C30.7184 24.5974 30.4075 24.5643 30.1025 24.4986C30.047 24.721 29.9767 25.1871 30.1776 25.6285C30.3573 26.0288 30.7215 26.3269 31.254 26.5262L31.4337 26.597L31.4353 26.7914C31.4353 26.849 31.4778 28.1106 32.84 28.4615C33.0621 28.2309 33.2646 28.0217 33.4116 27.8455C33.134 27.185 33.281 26.5097 33.6844 26.1786C33.6681 26.2495 33.4884 27.9048 34.8032 28.5208L35.0205 28.6245L34.9551 28.8568C34.9339 28.9276 34.4962 30.5302 36.0887 31.1264L36.3696 31.2351L36.2438 31.5102C36.2161 31.5711 35.5921 33.0255 37.0621 33.8523H40.2488V31.2944C39.1152 31.1544 38.6367 30.2337 38.5125 29.5815C37.985 29.4909 37.5783 29.2619 37.299 28.8881C36.6293 27.9986 37.2042 27.1834 37.2124 27.1389C37.2108 27.1455 37.2124 28.0118 37.7416 28.5488C38.0046 28.8057 38.3149 29.0066 38.7869 29.0511L39.0172 29.0725L39.0368 29.3114C39.0417 29.3624 39.1675 30.5368 40.2488 30.7212L40.2471 25.5001C40.2471 24.6897 40.4807 23.8761 40.7616 23.125H34.3051V23.1266ZM25.7252 25.5198L25.6402 28.8436L26.0159 28.9029L26.9306 25.7125L26.4651 24.7309L25.7268 25.5198H25.7252ZM27.708 37.8299C27.6829 37.8291 27.6582 37.8232 27.6355 37.8124C27.6127 37.8017 27.5924 37.7863 27.5757 37.7674C27.559 37.7484 27.5464 37.7262 27.5385 37.7021C27.5307 37.678 27.5278 37.6526 27.53 37.6273C27.5314 37.6024 27.5378 37.5779 27.5488 37.5555C27.5597 37.533 27.575 37.513 27.5937 37.4966C27.6124 37.4802 27.6342 37.4677 27.6577 37.4599C27.6813 37.4521 27.7062 37.4491 27.7309 37.4511C27.8387 37.4561 27.9138 37.5499 27.9106 37.6521C27.9068 37.7026 27.8834 37.7496 27.8455 37.7829C27.8076 37.8162 27.7582 37.8331 27.708 37.8299ZM35.8126 40.7732C35.8404 40.7732 35.8731 40.7765 35.9025 40.7848C36.4741 40.9495 36.6162 43.0215 37.6142 43.2059C37.7122 43.2274 37.8037 43.2323 37.8821 43.2323C38.1712 43.2323 38.3427 43.1088 38.5289 42.8864C38.5289 42.8864 38.0258 42.0909 37.6501 41.5523C37.152 40.8474 36.7649 39.9958 35.8355 39.9958C35.8126 39.9958 35.7865 39.9958 35.762 39.9991C35.585 40.0063 35.4138 40.0646 35.2687 40.1671C34.9585 39.9602 34.5953 39.8486 34.2234 39.8459C33.6436 39.8459 33.1895 40.1161 32.9625 40.1161H32.9543L30.88 39.9085C30.5549 39.8756 30.2985 39.5462 30.2054 39.4177L30.1695 39.3617C30.1695 39.3041 30.1695 39.2464 30.1662 39.1954C30.096 37.4808 28.7828 36.7478 28.314 36.7346C28.314 36.7346 28.3695 36.4085 28.2438 36.285L27.7864 36.845L26.2838 36.0841L27.3552 37.349L26.4487 38.3784C26.3344 38.4954 26.3491 38.6535 26.3965 38.721L26.7885 39.0702L27.285 38.7655C27.3095 38.7473 27.3552 38.7408 27.4108 38.7408C27.548 38.7408 27.7538 38.777 27.9383 38.777C28.1425 38.777 28.3173 38.7342 28.3385 38.5415C28.2764 39.1772 27.6917 40.2824 28.0755 41.1504L28.3597 41.8059L26.5255 41.5391L25.6664 43.0033C25.4018 43.4909 25.3593 44.0179 25.6141 44.3045L25.9359 44.7113C25.9359 44.7113 26.3867 44.2288 26.4863 43.9109L26.3409 43.7495C26.2184 43.6128 26.225 43.4909 26.3001 43.3443L26.8391 42.4417L29.0033 42.9572L29.1176 42.7596C29.2646 42.5125 29.4769 42.4401 29.7089 42.4401C29.8052 42.4401 29.9032 42.4516 30.0045 42.4681C30.4063 42.5488 31.0678 42.6558 31.7293 42.6558C32.4561 42.6558 33.1764 42.5241 33.5603 42.0909C34.3443 43.2652 35.9351 43.4513 35.8094 44.0492L35.3912 46.0619C35.6689 46.0488 35.9351 46.0306 36.1883 45.9961L36.5868 43.9026C36.6191 43.7249 36.6475 43.5464 36.6718 43.3673C36.5182 43.2092 36.1475 42.8782 35.9368 42.4746C35.6575 41.9295 35.8094 41.6445 35.548 40.9363C35.548 40.9363 35.6297 40.7716 35.8126 40.7716V40.7732Z" fill="#FFFFFE"/>
<path fill-rule="evenodd" clip-rule="evenodd" d="M24.7501 42.6757C24.7501 42.6757 25.4688 42.3792 25.5341 42.1651L25.4361 41.9246C25.3691 41.7665 25.3773 41.5952 25.5096 41.503L26.2838 40.9611L27.579 41.2131C27.579 41.2131 27.3438 40.9166 27.3667 40.5213L26.1319 40.2578L24.9657 40.9743C24.7622 41.1264 24.6151 41.3429 24.5479 41.5892C24.4807 41.8355 24.4973 42.0974 24.5949 42.3331L24.7501 42.6773V42.6757ZM33.9082 46.0884C34.1385 46.0785 34.3966 46.0752 34.6759 46.0752C34.6759 46.0752 35.3423 44.107 35.3798 44.0444C34.8849 43.8116 34.4019 43.5538 33.9327 43.2719C34.1303 43.5717 34.6105 43.9126 34.5158 44.1762L33.9082 46.0884Z" fill="#FFFFFE"/>
<path fill-rule="evenodd" clip-rule="evenodd" d="M40.2484 34.4149H21.8325V41.4133C21.8325 44.2759 23.8824 46.0662 26.9089 46.0662C29.4357 46.0662 30.1021 46.165 31.0413 47.1088C31.6897 46.4549 32.2254 46.2128 33.3279 46.1206L33.3524 46.0135L33.9323 44.2001C33.8996 44.1589 32.9523 43.0702 32.9523 43.0702C32.5766 43.197 32.2597 43.2184 31.7273 43.2184C31.1834 43.2184 30.5676 43.1526 29.8996 43.0274C29.8369 43.0124 29.7728 43.0047 29.7085 43.0043C29.6268 43.0043 29.6219 43.0109 29.599 43.0521L29.4847 43.2448L29.2724 43.5973L28.8755 43.5034L27.1082 43.0834L26.8648 43.4869L26.9024 43.5314L27.1164 43.7702L27.0216 44.0832C26.891 44.49 26.4696 44.966 26.3405 45.0977L25.8995 45.5754L25.4961 45.0632L25.1939 44.6794C24.8754 44.3203 24.8019 43.7702 24.9816 43.1937C24.9763 43.1976 24.9701 43.1999 24.9636 43.2003L24.4655 43.4095L24.2417 42.9154L24.0833 42.5679C23.9312 42.2123 23.9038 41.8151 24.0056 41.4417C24.1075 41.0683 24.3325 40.7411 24.6435 40.514L26.0645 39.702L27.4202 39.9704C27.4528 39.8387 27.5018 39.3709 27.5394 39.2507C27.5133 39.2474 27.4888 39.2424 27.4626 39.2424L26.6819 39.5356L25.9306 39.0119C25.9306 39.0119 25.6366 38.7253 25.9028 38.4387L26.6296 37.3236L24.784 34.9848L27.6211 36.1608L27.8105 35.9253L28.1927 35.4608L28.6272 35.8792C28.7414 35.9918 28.8209 36.1354 28.8559 36.2926C29.6366 36.6006 31.038 37.5081 31.1621 38.9839L30.7244 39.1601V39.1716C30.824 39.2919 30.9073 39.3413 30.9335 39.3462L32.9588 39.5472C33.0111 39.5373 33.0731 39.5142 33.145 39.4944C33.3982 39.4072 33.7755 39.2803 34.223 39.2803C34.5889 39.2803 34.9417 39.366 35.2798 39.5274C35.4055 39.478 35.5574 39.4434 35.7371 39.4319L35.8351 39.4286C36.918 39.4286 37.457 40.2472 37.8898 40.901C37.9617 41.0147 38.0336 41.1201 38.1087 41.2255C38.4876 41.7657 38.9825 42.5547 39.0021 42.5893L39.2259 42.9401L38.9515 43.2629C38.7424 43.51 38.4239 43.7982 37.8817 43.7982C37.7588 43.7972 37.6363 43.7845 37.5158 43.7603C37.4047 43.7388 37.2962 43.7051 37.1924 43.6599C37.1758 43.7761 37.1567 43.892 37.1352 44.0074L36.7808 45.8801C38.9041 45.353 40.2533 43.7323 40.2533 41.4133L40.2484 34.4149ZM21.8325 33.8516H36.1569C35.4415 33.1039 35.4529 32.1601 35.6342 31.5457C35.441 31.4521 35.2613 31.3325 35.1001 31.19C34.5399 31.6067 32.8314 32.8634 32.3855 33.1796L32.2891 33.2455L26.6672 32.2177H26.5529C26.4189 32.2177 26.2213 32.2128 26.0057 32.1848C25.9826 32.2889 25.9301 32.384 25.8545 32.4587C25.779 32.5333 25.6836 32.5842 25.5799 32.6053C25.4762 32.6264 25.3686 32.6167 25.2703 32.5775C25.1719 32.5382 25.087 32.471 25.0257 32.3841C24.9826 32.3247 24.9518 32.2573 24.935 32.1857C24.9181 32.1142 24.9157 32.0399 24.9277 31.9674L24.9489 31.8439C24.3707 31.4321 23.8334 30.5097 24.0718 29.538L24.0947 29.4359L24.1764 29.3766C24.2588 29.3198 24.3438 29.2671 24.4312 29.2184L24.0228 29.1526C23.9503 29.14 23.8855 29.0994 23.8422 29.0395C23.7989 28.9795 23.7805 28.9048 23.7909 28.8314C23.817 28.6766 23.9591 28.5679 24.111 28.5959L25.0829 28.7507L25.1727 25.2902L26.6198 23.742L27.5247 25.6641L26.5708 28.9944L27.43 29.1312C27.5033 29.1433 27.5689 29.1842 27.6124 29.2451C27.6559 29.3059 27.6737 29.3816 27.6619 29.4556C27.6514 29.5212 27.6179 29.5809 27.5676 29.6237C27.5173 29.6666 27.4534 29.69 27.3875 29.6895L27.3434 29.6879L26.6427 29.5726C26.6525 29.5956 26.6656 29.6072 26.6754 29.6302C26.7533 29.7666 26.8707 29.8758 27.0118 29.9432L31.2961 30.014C31.4774 29.8344 31.9265 29.3897 32.3904 28.9187C31.9866 28.7692 31.6322 28.5093 31.3667 28.1681C31.1013 27.8268 30.9354 27.4177 30.8877 26.9867C30.2997 26.733 29.8914 26.3542 29.666 25.8601C29.3916 25.2474 29.4896 24.6347 29.5631 24.3366C28.9914 24.1274 28.3904 23.742 27.7762 23.126H21.3213C21.599 23.877 21.8325 24.6907 21.8325 25.4994V33.85V33.8516Z" fill="#FFE52B"/>
<path fill-rule="evenodd" clip-rule="evenodd" d="M27.7306 37.451C27.7058 37.449 27.6808 37.452 27.6571 37.4599C27.6334 37.4678 27.6116 37.4805 27.5929 37.4971C27.5741 37.5136 27.5589 37.5339 27.548 37.5565C27.5372 37.5792 27.531 37.6038 27.5297 37.6289C27.5277 37.654 27.5308 37.6792 27.5388 37.7031C27.5467 37.727 27.5594 37.749 27.5761 37.7678C27.5927 37.7866 27.613 37.8018 27.6356 37.8124C27.6582 37.8231 27.6828 37.829 27.7078 37.8298C27.7577 37.833 27.8068 37.8163 27.8447 37.7834C27.8826 37.7504 27.9061 37.7038 27.9103 37.6536C27.913 37.6027 27.8956 37.5529 27.8619 37.5149C27.8283 37.4769 27.7811 37.454 27.7306 37.451ZM36.2664 52.1263L35.4253 49.7875C36.4265 49.4795 38.1464 48.8173 38.919 48.3776L38.4045 50.079L40.1472 50.6637C39.0921 51.1973 37.8148 51.6964 36.2664 52.1246V52.1263ZM31.043 54.2263C29.0161 54.2263 26.7033 53.7552 26.0205 53.5098L27.0561 50.6802C27.9152 50.9338 29.7021 51.2023 31.0006 51.194H31.0822C32.3791 51.2023 34.1643 50.9322 35.0284 50.6802L36.0623 53.5098C35.3795 53.7569 33.0667 54.2263 31.043 54.2263ZM21.9356 50.6637L23.68 50.079L23.1638 48.3776C23.9331 48.8173 25.6579 49.4811 26.6559 49.7875L25.8147 52.1263C24.2712 51.6981 22.9891 51.1973 21.9356 50.6637ZM40.2256 50.1449L39.164 49.7331L39.458 48.6263L39.7797 47.419C39.7797 47.419 37.9014 48.4501 35.2505 49.2225C34.4992 49.4399 33.9308 49.5404 33.9308 49.5404V50.3623C33.9308 50.3623 32.513 50.6093 31.0822 50.6093H31.0006C29.5665 50.6093 28.152 50.3623 28.152 50.3623V49.5388C28.152 49.5388 27.582 49.4399 26.8307 49.2225C24.183 48.4484 22.3047 47.419 22.3047 47.419L22.6216 48.6263L22.9221 49.7331L21.8572 50.1449L20.6763 50.5896C22.0287 51.25 23.9037 52.2103 25.6187 52.6846L25.2153 53.8013C25.2153 53.8013 27.3909 54.8027 31.0153 54.8126V54.8143H31.0643V54.8126C34.6935 54.8027 36.8691 53.8013 36.8691 53.8013L36.4608 52.6846C38.1774 52.2103 40.0558 51.2517 41.4016 50.5896L40.2256 50.1449ZM26.6118 5.08629L27.0936 5.13899L27.3011 4.69429L27.9087 3.38158L29.0357 3.97123L29.4734 4.19687L31.0381 2.62887L32.2582 3.8477L32.6078 4.19687L33.0455 3.97123L34.166 3.38158L34.7834 4.69429L34.9875 5.13899L35.4694 5.08629L35.93 5.03193C35.7193 5.51123 35.5641 5.96746 35.4514 6.34629C34.2346 5.65946 32.6535 5.27076 31.0398 5.27076C29.4326 5.27076 27.8515 5.65946 26.6298 6.34629C26.498 5.89861 26.3387 5.45964 26.1528 5.03193L26.6102 5.08629H26.6118ZM31.0381 5.95429C33.199 5.95429 34.9255 6.67899 35.881 7.44817C35.881 7.44817 36.1652 5.7237 37.1321 4.20346L35.3926 4.40111L34.4828 2.44935L32.7352 3.36017L31.0381 1.66699L29.3476 3.36017L27.5967 2.44935L26.6886 4.40276L24.9491 4.20182C25.9176 5.7237 26.2002 7.44652 26.2002 7.44652C27.1606 6.67734 28.8821 5.95429 31.0381 5.95429ZM58.4095 34.9606C58.4095 34.9606 57.6582 36.2832 55.9334 36.2832H55.9122C53.8411 36.2701 53.0048 34.9936 53.0048 34.9936C53.0048 34.9936 53.1257 36.6538 52.3809 38.8955C51.4826 41.5966 52.3874 43.5237 52.3874 43.5237C52.3874 43.5237 51.904 43.6571 51.347 43.6571C51.1347 43.6571 50.9125 43.6357 50.7018 43.5797C48.9721 43.1663 48.5409 41.5752 48.5409 41.5752C48.5409 41.5752 48.701 46.9463 42.4992 46.9463H42.4502C42.4502 46.9463 42.9974 46.1969 43.1591 44.0359C43.4531 40.05 46.1252 39.5016 46.1252 39.5016C46.1252 39.5016 44.6993 39.3204 44.0803 38.7621C43.115 37.8776 43.182 36.8548 43.182 36.8548C45.3641 36.8235 46.7949 36.0741 47.8843 34.8009C48.5864 33.9863 49.06 32.9975 49.2563 31.9366C49.2563 31.9366 48.0836 33.0122 45.8149 33.0122C45.6156 33.0122 45.4033 33.0023 45.1844 32.9809C44.1097 32.8936 43.3682 32.2035 43.3682 32.2035C45.73 30.6733 47.3862 28.0035 45.9178 23.9846C44.7418 20.7646 41.9129 18.3583 39.066 16.5465C38.1186 15.9486 37.5894 15.2832 37.5894 14.7117C37.5894 13.3661 39.4841 13.3232 40.2616 12.419C41.1599 11.3682 40.5964 9.66346 39.8189 8.63734C39.8189 8.63734 40.0803 8.58299 40.4935 8.58299C41.3134 8.58299 42.7312 8.79052 43.8974 10.0126C45.4441 11.6301 44.8022 13.3924 44.8022 13.3924L45.2171 13.4748C45.4654 13.5258 45.712 13.5373 45.9684 13.5505L46.135 13.5522C48.3841 13.5522 49.3886 11.1771 49.3886 11.1771C49.3886 11.1771 51.7798 14.1484 48.26 16.4773C47.654 16.8743 47.3862 17.2449 47.4564 17.6369L47.5119 17.8955L47.7618 17.9399C50.3131 18.6399 51.6051 20.4188 53.1812 22.438C55.5757 25.5131 58.9632 25.6119 59.3797 25.6119H59.4255C59.4255 25.6119 58.6529 28.0776 56.3744 28.0776C56.3368 28.0776 56.3042 28.0776 56.2666 28.0743C55.2213 28.0364 54.6823 27.6312 54.6823 27.6312C54.6823 27.6312 54.2756 33.2263 58.4095 34.9606ZM56.3744 28.8319C59.1674 28.8319 60.1017 25.9611 60.1409 25.8392L60.4512 24.8263L59.4059 24.8592H59.4026C59.0318 24.8592 55.9514 24.7769 53.7676 21.9719L53.5602 21.7117C52.1326 19.8785 50.7786 18.1343 48.358 17.3388C48.4547 17.2533 48.558 17.1757 48.6667 17.1065C49.9505 16.2533 50.6986 15.2173 50.8848 14.0133C51.1608 12.2032 50.0158 10.7604 49.9668 10.7011L49.1894 9.72934L48.7026 10.8823C48.67 10.9531 47.8533 12.7978 46.135 12.7978H46.0076C45.89 12.7929 45.7773 12.7879 45.6663 12.7781C45.7267 11.9545 45.5781 10.683 44.4347 9.48723C43.0611 8.04935 41.3755 7.83358 40.4935 7.83358C40.0231 7.83358 39.7095 7.89287 39.6752 7.89617L38.5008 8.1317L39.2244 9.09523C39.7928 9.8397 40.3089 11.2117 39.6981 11.9282C39.5021 12.1588 39.1003 12.3416 38.7164 12.5277C37.9259 12.895 36.8446 13.4089 36.8446 14.7117C36.8446 15.555 37.4931 16.4395 38.6691 17.1889C42.1448 19.3976 44.291 21.7035 45.2171 24.2482C46.6512 28.1616 44.781 30.395 42.9631 31.571L42.1497 32.0997L42.8635 32.7618C42.9598 32.8475 43.8304 33.6232 45.1191 33.7352C45.3641 33.7517 45.5977 33.7649 45.8165 33.7649C46.6414 33.7649 47.3453 33.6331 47.917 33.4585C47.7461 33.7592 47.547 34.0427 47.3225 34.3051C46.2853 35.5206 45.008 36.0741 43.1705 36.1037L42.4878 36.1136L42.4355 36.8053C42.429 36.9453 42.3784 38.2284 43.5789 39.3188C43.7634 39.4868 43.9856 39.6268 44.2191 39.7388C43.4025 40.4799 42.576 41.7712 42.4159 43.9816C42.2804 45.8263 41.8443 46.5098 41.8394 46.5181L41.0848 47.6809L42.4486 47.699C44.701 47.699 46.4258 47.0731 47.6197 45.8279C48.2381 45.1739 48.6997 44.3856 48.9689 43.5237C49.6321 44.094 50.4754 44.407 51.347 44.4065C51.984 44.4065 52.5165 44.2698 52.5753 44.2566L53.4458 44.0228L53.062 43.2025C53.0326 43.1366 52.3074 41.4896 53.0881 39.1392C53.4246 38.123 53.5961 37.2138 53.6794 36.5039C54.2282 36.7938 54.9616 37.031 55.9105 37.0343C58.0665 37.0343 59.0155 35.4086 59.058 35.3411L59.4826 34.5933L58.6954 34.2672C56.1278 33.1901 55.5594 30.2978 55.445 28.7331C55.6786 28.7776 55.9432 28.8188 56.2421 28.827L56.3744 28.8319Z" fill="#1A1919"/>
<path fill-rule="evenodd" clip-rule="evenodd" d="M53.2369 16.5525C53.7563 16.5525 54.3639 16.7321 54.9355 17.3299C56.7355 19.1747 58.4096 19.2784 58.4096 19.2784C58.1058 19.9587 57.2238 20.5565 56.3108 20.5565C56.1001 20.5565 55.8861 20.5236 55.6787 20.4495C54.439 20.0278 53.9964 18.1518 51.8224 16.9841C51.8224 16.9841 52.4267 16.5525 53.2369 16.5525ZM51.468 17.6495C52.5084 18.2095 53.116 18.9622 53.6485 19.6276C54.1711 20.2782 54.666 20.9041 55.4451 21.1643C55.7195 21.2598 56.0119 21.3059 56.3108 21.3059C57.4754 21.3059 58.6465 20.5845 59.0907 19.5864L59.5366 18.5883L58.457 18.5224C58.4064 18.5224 57.0164 18.3923 55.4713 16.7979C54.8343 16.1424 54.065 15.7998 53.2369 15.7998C52.2242 15.7998 51.4729 16.3104 51.3912 16.3631L50.3981 17.0697L51.468 17.6495ZM51.9563 27.6158V27.6537C51.3291 22.5445 47.6574 18.8551 43.5692 16.6118C43.1935 16.4076 42.8423 16.233 42.5042 16.0683C43.7472 16.2627 45.7513 16.2857 47.2997 14.9318C47.2997 14.9318 44.9314 16.6892 40.0853 15.0916C41.4246 15.9711 44.033 17.213 46.4144 19.2224C52.3647 24.5062 48.1082 29.6582 48.1082 29.6582C50.2479 27.4034 50.3361 24.9888 49.7056 23.0156C50.8326 24.9097 51.5513 27.2074 51.4402 30.0419C51.2769 34.1019 49.067 37.6135 46.7427 40.4349C45.6255 41.8019 45.3773 43.4852 45.3773 43.4852C45.3773 43.4852 45.8281 42.0012 47.12 40.4744C49.6109 37.5262 51.7424 34.4676 52.02 30.0568C52.2781 30.8589 53.3398 33.0824 55.0221 33.9208C55.0221 33.9208 52.9069 32.6328 51.9563 27.6158ZM19.5837 46.9457C13.3819 46.9457 13.5403 41.5747 13.5403 41.5747C13.5403 41.5747 13.1059 43.1657 11.3794 43.5791C11.1685 43.6326 10.9517 43.6587 10.7343 43.6565C10.1789 43.6565 9.69547 43.5248 9.69547 43.5248C9.69547 43.5248 10.5987 41.5944 9.69874 38.8949C8.9572 36.6549 9.07807 34.993 9.07807 34.993C9.07807 34.993 8.24344 36.2695 6.17074 36.2827H6.1495C4.42634 36.2827 3.67337 34.9601 3.67337 34.9601C7.8057 33.2257 7.40064 27.6307 7.40064 27.6307C7.40064 27.6307 6.86164 28.0358 5.8163 28.0754H5.70687C3.42674 28.0754 2.65417 25.6114 2.65417 25.6114H2.70154C3.12294 25.6114 6.50557 25.5125 8.8984 22.4375C10.4746 20.4165 11.7682 18.6394 14.3145 17.941L14.571 17.8949L14.6249 17.6363C14.6967 17.2443 14.4289 16.8737 13.8245 16.4768C10.3047 14.1478 12.6943 11.1782 12.6943 11.1782C12.6943 11.1782 13.6939 13.5516 15.9495 13.5516L16.1128 13.5499C16.3676 13.5368 16.6175 13.5252 16.8642 13.4725L17.279 13.3918C17.279 13.3918 16.6355 11.6295 18.1872 10.0121C19.3534 8.78995 20.7695 8.58242 21.5878 8.58242C22.0043 8.58242 22.2607 8.63677 22.2607 8.63677C21.4865 9.66289 20.9246 11.3676 21.8197 12.4184C22.5972 13.3227 24.4902 13.3655 24.4902 14.7111C24.4902 15.2827 23.9626 15.9481 23.0169 16.5459C20.1668 18.3577 17.3395 20.7624 16.1635 23.9857C14.6967 28.0045 16.3529 30.6728 18.7164 32.2045C18.7164 32.2045 17.9732 32.893 16.8985 32.9803C16.6878 33.0008 16.4763 33.0112 16.2647 33.0116C13.9977 33.0116 12.8249 31.9377 12.8249 31.9377C12.8249 31.9377 13.0209 33.4217 14.1937 34.8019C15.288 36.0735 16.7172 36.8229 18.8977 36.8542C18.8977 36.8542 18.9679 37.8754 18.0026 38.7615C17.3836 39.3215 15.9577 39.5027 15.9577 39.5027C15.9577 39.5027 18.6314 40.0495 18.9254 44.0354C19.0855 46.1963 19.6278 46.9457 19.6278 46.9457H19.5837ZM20.2419 46.5175C20.2403 46.5092 19.8074 45.8257 19.6686 43.981C19.5053 41.7707 18.6788 40.4794 17.8605 39.7382C18.0973 39.6262 18.3178 39.4862 18.5008 39.3182C19.7013 38.2278 19.6506 36.9464 19.6425 36.8048L19.5967 36.113L18.9091 36.1031C17.0765 36.0735 15.7976 35.5201 14.7604 34.3045C14.5369 34.0414 14.3378 33.758 14.1659 33.4579C14.7376 33.6342 15.4366 33.7643 16.2647 33.7643C16.4852 33.7643 16.7172 33.7511 16.9605 33.7347C17.7942 33.6507 18.5824 33.3116 19.2194 32.7629L19.9332 32.0991L19.1198 31.5721C17.297 30.3944 15.4334 28.1627 16.8658 24.2476C17.7919 21.7029 19.9332 19.3987 23.4155 17.1883C24.5915 16.4389 25.235 15.5544 25.235 14.7111C25.235 13.4083 24.157 12.8944 23.3665 12.5271C22.981 12.341 22.5792 12.1565 22.3848 11.9276C21.7723 11.2111 22.2868 9.83913 22.8569 9.09465L23.5853 8.13113L22.4044 7.8956C22.3718 7.89066 22.0614 7.83301 21.5878 7.83301C20.7074 7.83301 19.0234 8.04877 17.6514 9.48666C16.5065 10.6824 16.3562 11.9556 16.415 12.7775C16.3039 12.7874 16.1929 12.7923 16.0753 12.7972H15.9495C14.2247 12.7972 13.4113 10.9525 13.3803 10.8817L12.8952 9.72877L12.1112 10.7005C12.0671 10.7598 10.9188 12.2027 11.1998 14.0128C11.3843 15.2151 12.1324 16.2528 13.4162 17.1059C13.5567 17.1965 13.653 17.2739 13.7233 17.3382C11.2994 18.1337 9.94864 19.8779 8.5211 21.7111L8.3153 21.9714C6.13317 24.7763 3.04454 24.8603 2.6754 24.8603L1.62354 24.8274L1.94367 25.8387C1.98124 25.9605 2.91224 28.8314 5.70687 28.8314L5.8408 28.8264C6.13644 28.8182 6.40267 28.777 6.63787 28.7309C6.52354 30.2956 5.95187 33.1895 3.38427 34.265L2.60027 34.5944L3.02494 35.3405C3.06414 35.4081 4.018 37.0337 6.17727 37.0337C6.9501 37.0415 7.71333 36.8607 8.40187 36.5067C8.48517 37.2149 8.6583 38.1224 8.99477 39.1387C9.7755 41.4874 9.04867 43.1361 9.0209 43.2019L8.63544 44.0222L9.506 44.2544C9.5648 44.2709 10.1005 44.4059 10.7343 44.4059C11.6062 44.4082 12.45 44.095 13.1124 43.5231C13.3492 44.2594 13.7559 45.0911 14.4599 45.8274C15.6588 47.0709 17.3819 47.6984 19.6327 47.6984L20.9965 47.6803L20.2419 46.5175Z" fill="#1A1919"/>
<path fill-rule="evenodd" clip-rule="evenodd" d="M7.14437 17.33C7.71931 16.7321 8.32527 16.5509 8.84794 16.5509C9.65154 16.5509 10.2608 16.9841 10.2608 16.9841C8.08844 18.1535 7.64091 20.0279 6.39957 20.4512C6.19741 20.5218 5.9847 20.5569 5.77074 20.5549C4.85771 20.5549 3.97407 19.9587 3.67354 19.2785C3.67354 19.2785 5.34607 19.1747 7.14437 17.33ZM5.77074 21.306C6.06964 21.306 6.36201 21.2599 6.63967 21.1643C7.41714 20.9041 7.91367 20.2799 8.43634 19.6276C8.97044 18.9639 9.57151 18.2112 10.6136 17.6512L11.685 17.0698L10.6887 16.3615C10.607 16.3105 9.86061 15.8015 8.84794 15.8015C8.01821 15.8015 7.24727 16.1425 6.61191 16.798C5.06514 18.394 3.67844 18.5225 3.6278 18.5241L2.5498 18.5883L2.9908 19.5881C3.43834 20.5846 4.60781 21.306 5.77074 21.306ZM10.643 30.042C10.5286 27.2074 11.2473 24.9098 12.3743 23.0156C11.7471 24.9888 11.832 27.4034 13.975 29.6599C13.975 29.6599 9.71524 24.5046 15.6687 19.2241C18.0501 17.2131 20.6553 15.9712 21.9946 15.0916C17.1502 16.6893 14.7835 14.9302 14.7835 14.9302C16.3302 16.2858 18.3343 16.2643 19.5773 16.0667C19.2408 16.2331 18.888 16.406 18.5124 16.6119C14.4241 18.8535 10.754 22.5446 10.1236 27.6538V27.6159C9.17461 32.6328 7.06107 33.9208 7.06107 33.9208C8.74341 33.0808 9.80181 30.8573 10.0599 30.0568C10.3408 34.4676 12.4707 37.5279 14.9599 40.4745C16.2535 42.0013 16.7075 43.4853 16.7075 43.4853C16.7075 43.4853 16.456 41.8036 15.3339 40.4349C13.0146 37.6135 10.8063 34.102 10.643 30.042ZM29.6403 19.7034V20.718C29.9865 20.2914 30.6529 20.3787 30.6529 20.3787V21.8396C30.6529 21.8396 30.6317 22.5578 30.3785 22.8691H31.8257C31.5741 22.5578 31.5496 21.8396 31.5496 21.8396V20.3787C31.5496 20.3787 32.2193 20.2914 32.5623 20.718V19.7034H29.6386H29.6403ZM29.0196 13.6949C29.4818 14.0655 29.7497 14.1281 29.7579 14.1331L29.9375 14.2171V13.2634L28.2389 12.542C28.2389 12.542 28.2536 13.0954 29.0196 13.6949ZM33.0605 13.6949C33.8281 13.0954 33.8445 12.542 33.8445 12.542L32.1442 13.2634V14.2187L32.3238 14.1331C32.332 14.1281 32.5982 14.0655 33.0605 13.6949Z" fill="#1A1919"/>
<path fill-rule="evenodd" clip-rule="evenodd" d="M31.04 11.1542L26.9452 9.52028C27.2931 8.68686 28.8987 7.97863 31.04 7.97698C33.1829 7.97863 34.7885 8.68686 35.1364 9.52028L31.04 11.1542ZM34.0927 16.2749L31.3405 17.7407V11.8047L35.0759 10.5233L34.0927 16.2716V16.2749ZM35.7979 17.8495L37.0555 18.5873H37.0735L37.3904 18.7735C36.6799 18.9711 36.136 19.3318 35.6803 19.8029L35.6313 19.8523C35.5238 19.9679 35.4208 20.0877 35.3226 20.2113L35.2654 20.2871C35.1674 20.4139 35.0743 20.544 34.9877 20.6791L34.9404 20.7466C34.8344 20.9097 34.7337 21.0762 34.6382 21.2457C33.7399 22.8055 32.3107 23.7377 31.04 23.741C29.7692 23.7377 28.3384 22.8055 27.4434 21.2457C27.3482 21.0793 27.2485 20.9157 27.1445 20.7549L27.0857 20.6676C27.0003 20.5404 26.9121 20.4152 26.8211 20.292C26.7982 20.2591 26.777 20.2344 26.7541 20.2064C26.6582 20.0863 26.5585 19.9693 26.4552 19.8556C26.434 19.8391 26.4193 19.8177 26.3997 19.7996C25.933 19.3068 25.3417 18.952 24.6896 18.7735L25.0097 18.5873H25.0228L26.2853 17.8495L27.5773 17.1L31.0334 19.0007L31.04 18.9942L31.0498 19.0007L34.5043 17.1L35.7979 17.8495ZM40.7632 23.1266C40.4806 23.8777 40.2471 24.6913 40.2471 25.5L40.2503 30.7212C39.1707 30.54 39.0417 29.364 39.0384 29.313L39.0188 29.0742L38.7852 29.0527C38.3892 29.0175 38.0191 28.8391 37.7432 28.5504C37.2123 28.0151 37.2123 27.1487 37.2123 27.1405C37.2058 27.185 36.6309 27.997 37.2973 28.8864C37.5782 29.2619 37.9865 29.4942 38.5125 29.5847C38.6366 30.2353 39.1168 31.156 40.2503 31.2977V33.8506H37.0637C35.5937 33.0254 36.216 31.5727 36.2454 31.5102L36.3695 31.2334L36.0886 31.1264C34.4961 30.5302 34.9355 28.9259 34.9567 28.8567L35.022 28.6229L34.8032 28.5207C33.49 27.9047 33.668 26.2478 33.686 26.1786C33.2809 26.5097 33.1355 27.1833 33.4132 27.8471C33.2629 28.0217 33.0604 28.2309 32.8399 28.4615C32.4562 28.377 32.1108 28.1675 31.8569 27.8653C31.6031 27.5632 31.4549 27.1852 31.4352 26.7897L31.4336 26.5953L31.2539 26.5262C30.7231 26.3285 30.3589 26.0287 30.1776 25.6285C29.9767 25.1855 30.0469 24.7226 30.1024 24.497C30.4077 24.5608 30.7184 24.5939 31.0302 24.5958H31.0514C31.2098 24.5958 31.365 24.5859 31.5185 24.5711C32.3679 24.4855 33.3152 24.1182 34.305 23.1266H40.7632ZM36.7811 45.8807L37.1372 44.008L37.1944 43.6622C37.4142 43.749 37.6476 43.7953 37.8836 43.7989C38.4259 43.7989 38.7428 43.509 38.9535 43.2636L39.2246 42.9424L39.0025 42.5899C38.9829 42.5553 38.488 41.7664 38.109 41.2262C38.0338 41.1194 37.9613 41.0107 37.8918 40.9C37.459 40.2478 36.9183 39.4292 35.8338 39.4292L35.7374 39.4325C35.5812 39.441 35.4271 39.4726 35.2801 39.5264C34.9501 39.3673 34.5891 39.284 34.2233 39.2826C33.8554 39.2916 33.4915 39.3628 33.147 39.4935C33.0751 39.5149 33.0098 39.5379 32.9591 39.5478L30.9338 39.3469C30.9077 39.3403 30.826 39.2909 30.7247 39.1723V39.1607L31.1625 38.9845C31.04 37.5087 29.6369 36.6012 28.8562 36.2932C28.8216 36.1354 28.7421 35.9912 28.6275 35.8782L28.1931 35.4615L27.8109 35.9243L27.623 36.1614L24.7843 34.9838L26.63 37.3243L25.9031 38.4393C25.6353 38.7243 25.9309 39.0125 25.9309 39.0125L26.6822 39.5363L27.463 39.2415C27.4891 39.2415 27.512 39.248 27.5397 39.2513C27.5022 39.3716 27.4532 39.841 27.4205 39.9711L26.0665 39.7026L24.6455 40.5146C23.9121 41.0582 23.8125 41.9542 24.0852 42.5685L24.242 42.9177L24.4658 43.4102L24.964 43.2026C24.9721 43.1993 24.9787 43.1977 24.9836 43.1927C24.8039 43.7709 24.8774 44.3193 25.1959 44.68L25.4981 45.0638L25.8999 45.5777L26.3409 45.0984C26.4715 44.9666 26.8929 44.4906 27.022 44.0822L27.1167 43.7709L26.9027 43.532L26.8668 43.4876L27.1085 43.084L28.8758 43.5057L29.2743 43.5979L29.4867 43.2438L29.601 43.0527C29.6222 43.0116 29.6271 43.005 29.7088 43.005C29.7725 43.005 29.8346 43.0116 29.9015 43.028C30.5042 43.148 31.1166 43.2114 31.7309 43.2174C32.2584 43.2174 32.5769 43.1977 32.9526 43.0709C32.9526 43.0709 33.9016 44.1579 33.9342 44.2007L33.3528 46.0125L33.3266 46.1212C32.2274 46.2118 31.6917 46.4556 31.0432 47.1094C30.1024 46.1673 29.4377 46.0669 26.9109 46.0669C23.8843 46.0669 21.8329 44.2765 21.8329 41.4123V34.4156H40.2503L40.2536 41.4123C40.2536 43.733 38.9045 45.352 36.7811 45.8807ZM25.4376 41.9245L25.534 42.1666C25.4687 42.3774 24.75 42.6772 24.75 42.6772L24.5965 42.333C24.4984 42.0971 24.4816 41.8348 24.5489 41.5882C24.6161 41.3415 24.7634 41.1247 24.9672 40.9725L26.1318 40.256L27.3682 40.5196C27.3437 40.9165 27.5789 41.213 27.5789 41.213L26.2853 40.9626L25.5095 41.5029C25.3788 41.5951 25.369 41.7664 25.4376 41.9245ZM36.5851 43.901L36.1882 45.9944C35.9334 46.0306 35.6656 46.0504 35.3912 46.0603L35.8093 44.0509C35.9334 43.4513 34.3458 43.2652 33.5602 42.0909C33.1764 42.5257 32.4561 42.6558 31.7309 42.6558C31.0677 42.6558 30.4079 42.5487 30.0044 42.468C29.9073 42.451 29.809 42.4416 29.7104 42.44C29.4769 42.44 29.2662 42.5125 29.1192 42.7612L29.0048 42.9589L26.839 42.4433L26.3 43.3443C26.2249 43.4909 26.2184 43.6127 26.3409 43.7495L26.4879 43.9109C26.3866 44.2287 25.9358 44.7113 25.9358 44.7113L25.614 44.3045C25.3592 44.0179 25.4017 43.4909 25.6663 43.0033L26.5254 41.5374L28.3597 41.8059L28.0755 41.1487C27.6916 40.2807 28.2764 39.1772 28.3384 38.5414C28.3172 38.7342 28.1424 38.777 27.9399 38.777C27.7537 38.777 27.5479 38.7424 27.4107 38.7424C27.3568 38.7424 27.3094 38.7473 27.2849 38.7654L26.7884 39.0702L26.3964 38.721C26.349 38.6551 26.3343 38.4953 26.4487 38.3767L27.3568 37.349L26.2853 36.084L27.7847 36.8466L28.2437 36.285C28.3695 36.4102 28.3139 36.7346 28.3139 36.7346C28.7827 36.7478 30.0975 37.4807 30.1661 39.1937C30.171 39.2464 30.171 39.304 30.171 39.3617L30.2053 39.4177C30.2984 39.5478 30.5549 39.8789 30.8799 39.9085L32.9542 40.116H32.9624C33.1911 40.116 33.6435 39.8459 34.2233 39.8459C34.5418 39.8459 34.893 39.9283 35.2687 40.1671C35.2687 40.1671 35.4581 40.0156 35.7636 39.9991C35.7864 39.9958 35.8126 39.9958 35.8338 39.9958C36.7648 39.9958 37.1519 40.8457 37.6517 41.5523C38.0274 42.0892 38.5288 42.8864 38.5288 42.8864C38.3442 43.1087 38.1711 43.2323 37.882 43.2323C37.7921 43.2326 37.7023 43.2238 37.6141 43.2059C36.6178 43.0198 36.4724 40.9494 35.904 40.7847C35.8742 40.7768 35.8434 40.7729 35.8126 40.7732C35.6296 40.7732 35.5496 40.9379 35.5496 40.9379C35.8109 41.6445 35.6574 41.9295 35.9383 42.4746C36.1474 42.8782 36.5182 43.2092 36.6717 43.3673C36.6717 43.3673 36.6309 43.6737 36.5851 43.9026V43.901ZM34.6758 46.0751C34.3981 46.0751 34.14 46.0784 33.9081 46.0883L34.5157 44.176C34.6104 43.9109 34.1302 43.5699 33.9326 43.2702C34.2315 43.4612 35.0073 43.8796 35.3814 44.0443C35.139 44.7186 34.9037 45.3956 34.6758 46.0751ZM25.6402 28.8436L25.7267 25.5198L26.465 24.7309L26.9289 25.7125L26.0142 28.9029L25.6385 28.8452L25.6402 28.8436ZM26.171 29.8746C26.2831 30.0912 26.4528 30.2719 26.661 30.3967C26.6553 30.7127 26.6253 31.0276 26.5712 31.3389C26.5548 31.4113 26.5385 31.4789 26.5173 31.5464C26.5075 31.5892 26.4944 31.6238 26.4862 31.6518C26.2592 31.6518 25.8166 31.6238 25.4556 31.4904C25.0538 31.3422 24.4544 30.5977 24.5932 29.7775C24.7663 29.6704 25.1681 29.4415 25.5454 29.4415C25.8345 29.4415 26.0322 29.5798 26.171 29.8746ZM34.7231 30.7673C34.1564 31.1906 32.6929 32.2694 32.1621 32.645L27.053 31.716L27.0889 31.5793C27.1543 31.3109 27.2245 30.9452 27.2278 30.5153L31.5218 30.5845L31.6035 30.5022C31.6688 30.4363 33.0294 29.1071 33.7219 28.3445C33.8869 28.5537 34.0927 28.7513 34.3638 28.9259C34.2723 29.4365 34.3099 30.1579 34.7231 30.7673ZM27.7766 23.1266C28.3923 23.7426 28.9918 24.1264 29.5634 24.3372C29.4899 24.6337 29.3919 25.2497 29.6663 25.8607C29.8917 26.3549 30.3001 26.7337 30.8897 26.9873C30.955 27.5967 31.3356 28.5142 32.3924 28.9193C31.9285 29.3904 31.4777 29.8351 31.298 30.013L27.0122 29.9454C26.8706 29.8772 26.7532 29.7668 26.6757 29.6292C26.6675 29.6078 26.6528 29.5963 26.643 29.5732L27.3437 29.6885L27.3878 29.6902C27.4537 29.6906 27.5176 29.6673 27.5679 29.6244C27.6183 29.5815 27.6517 29.5219 27.6622 29.4563C27.6741 29.3825 27.6565 29.307 27.6133 29.2462C27.5702 29.1854 27.505 29.1443 27.4319 29.1318L26.5712 28.9935L27.525 25.6647L26.6218 23.7426L25.173 25.2909L25.0848 28.7513L24.1114 28.5949C23.9611 28.5652 23.8174 28.6772 23.7896 28.8304C23.7787 28.9045 23.7971 28.98 23.8408 29.0407C23.8844 29.1013 23.9499 29.1423 24.0232 29.1549L24.4315 29.2175C24.2845 29.3015 24.1881 29.369 24.1767 29.3772L24.095 29.4365L24.0722 29.5386C23.8353 30.5104 24.3711 31.4327 24.9493 31.8445L24.928 31.968C24.9052 32.1163 24.9378 32.2645 25.026 32.3847C25.0762 32.4578 25.1434 32.5173 25.2217 32.5581C25.3 32.5989 25.3871 32.6196 25.4752 32.6186C25.599 32.6176 25.7188 32.5744 25.8151 32.4961C25.9115 32.4177 25.9788 32.3089 26.006 32.1871C26.2216 32.2118 26.4193 32.2184 26.5532 32.2184H26.6692L32.2895 33.2445L32.3858 33.1803C32.8334 32.864 34.5418 31.6073 35.1004 31.1906C35.2556 31.324 35.4271 31.4459 35.6345 31.5464C35.4532 32.1607 35.4418 33.1045 36.1572 33.8523H21.8329V25.5017C21.8329 24.6913 21.5993 23.8777 21.3216 23.1266H27.7766ZM27.0024 10.5266L30.7411 11.8064V17.7391L27.9889 16.2732L27.0024 10.525V10.5266ZM36.1229 9.81016C36.1229 8.36239 33.7105 7.05957 31.0481 7.05957H31.0318C28.3695 7.05957 25.9587 8.36239 25.9587 9.81016L26.0109 10.1659L27.0742 16.3309L26.006 16.9567L23.2441 18.5873H23.2539C23.2539 18.5873 22.6332 18.9102 22.3441 19.1078C21.2922 19.8457 21.0685 20.9229 21.6793 21.3676C21.8296 20.4897 22.5172 19.5723 23.8027 19.5723C24.7304 19.5723 25.436 20.0565 26.0077 20.7796C26.1547 20.9624 26.2935 21.1584 26.4225 21.3676C26.5826 21.6327 26.7443 21.8666 26.9027 22.0906H19.7847C20.3073 23.153 20.8055 24.2779 20.8055 25.5V41.4139C20.8055 45.2647 23.7373 47.1029 26.9093 47.1029C29.3609 47.1029 29.6908 46.9909 31.0432 48.3513C32.3891 46.9909 32.7207 47.1029 35.1739 47.1029C38.3475 47.1029 41.2744 45.2647 41.2744 41.4139V25.5C41.2744 24.2779 41.7726 23.153 42.2985 22.0906H35.1772C35.3373 21.8666 35.4973 21.6327 35.6574 21.3676C35.7881 21.1584 35.9269 20.9624 36.0706 20.7796C36.6456 20.0532 37.3512 19.5723 38.2789 19.5723C39.5643 19.5723 40.2503 20.4897 40.4022 21.3676C41.0131 20.9229 40.7926 19.8457 39.7326 19.1078C39.4516 18.9102 38.8277 18.5873 38.8277 18.5873H38.8391L36.0706 16.9567L35.009 16.3309L36.0706 10.1659L36.1229 9.81016Z" fill="#1A1919"/>
<path d="M81.8626 36.3343H86.7626V24.8378H93.492V20.6543H75.1333V24.8378H81.8626V36.3343ZM108.355 20.6543L100.189 29.779V20.6543H95.452V36.3343H99.6333L107.8 27.2096V36.3343H112.537V20.6543H108.355ZM120.862 30.5037H128.473V36.3343H133.21V20.6543H128.473V26.3861H120.862V20.6543H116.125V36.3343H120.862V30.5037ZM146.401 36.3343C147.479 36.3343 148.459 36.2355 149.373 35.9719C151.823 35.2802 153.424 33.2708 153.424 30.5367C153.424 27.9343 152.052 26.1225 149.863 25.299C148.818 24.9037 147.577 24.8708 146.401 24.8708H141.533V20.6543H136.797V36.3343H146.401ZM141.533 28.5602H145.584C146.237 28.5602 146.858 28.5602 147.413 28.7578C148.197 29.0214 148.655 29.6802 148.655 30.4708C148.655 31.2943 148.197 31.9861 147.446 32.3155C146.923 32.5461 146.401 32.5461 145.584 32.5461H141.533V28.5602ZM160.611 30.4049H161.917L167.569 36.3343H173.873L166.001 28.1649L173.579 20.6543H167.634L161.917 26.5508H160.611V20.6543H155.874V36.3343H160.611V30.4049Z" fill="black"/>
<path d="M183.619 20.2258C177.249 20.2258 173.427 23.8494 173.427 28.527C173.427 33.2046 177.249 36.8282 183.619 36.8282C189.957 36.8282 193.779 33.2046 193.779 28.527C193.779 23.8494 189.957 20.2258 183.619 20.2258ZM183.619 33.007C180.451 33.007 178.425 31.0964 178.425 28.527C178.425 25.9576 180.451 24.0799 183.619 24.0799C186.755 24.0799 188.813 25.9576 188.813 28.527C188.813 31.0964 186.755 33.007 183.619 33.007ZM209.553 21.3458V19.7646H204.817V21.3458C198.871 21.4776 195.311 24.0141 195.311 28.4941C195.311 32.9741 198.871 35.3129 204.817 35.4446V37.0258H209.553V35.4446C215.531 35.3129 219.092 32.9741 219.092 28.4941C219.092 24.0141 215.531 21.4776 209.553 21.3458ZM204.817 32.0846C201.55 31.9529 200.113 30.6023 200.113 28.4941C200.113 26.3858 201.55 24.8705 204.817 24.7388V32.0846ZM209.553 32.0846V24.7388C212.853 24.8705 214.257 26.3858 214.257 28.4941C214.257 30.6023 212.853 31.9529 209.553 32.0846ZM234.85 21.3458V19.7646H230.114V21.3458C224.168 21.4776 220.608 24.0141 220.608 28.4941C220.608 32.9741 224.168 35.3129 230.114 35.4446V37.0258H234.85V35.4446C240.828 35.3129 244.389 32.9741 244.389 28.4941C244.389 24.0141 240.828 21.4776 234.85 21.3458ZM230.114 32.0846C226.847 31.9529 225.41 30.6023 225.41 28.4941C225.41 26.3858 226.847 24.8705 230.114 24.7388V32.0846ZM234.85 32.0846V24.7388C238.15 24.8705 239.554 26.3858 239.554 28.4941C239.554 30.6023 238.15 31.9529 234.85 32.0846Z" fill="black"/>
</svg>
