<svg width="109" height="24" viewBox="0 0 109 24" fill="none" xmlns="http://www.w3.org/2000/svg">
<path fill-rule="evenodd" clip-rule="evenodd" d="M23.7659 23.318H14.4448C14.2753 23.318 14.2753 23.1638 14.2753 23.1638L10.5469 14.8354C7.32694 16.9946 9.02166 20.3876 9.69956 21.0046C10.0385 21.4673 8.1743 23.935 5.12379 23.935C2.07327 23.935 0.0395913 21.7758 0.209065 18.9996C0.378538 15.7608 4.27641 12.522 9.02166 11.1339L3.42905 0.954764C3.42905 0.954764 3.42905 0.800534 3.59853 0.800534H12.2417C12.4112 0.800534 12.4112 0.954764 12.4112 0.954764L15.9701 9.28315C19.529 7.4324 17.4954 3.11398 16.8174 2.49706C16.6479 2.34283 17.4954 0.337846 20.7153 0.0293865C24.1048 -0.279072 26.3079 1.88014 26.3079 4.65628C26.3079 7.89509 22.749 11.2881 17.8342 12.6762L23.7659 23.318C23.7659 23.1638 23.9353 23.318 23.7659 23.318ZM45.2889 21.6215C45.7974 20.8504 43.2553 21.7758 43.9331 16.8404C44.2721 14.6812 45.4584 7.58663 45.4584 7.58663C45.4584 7.4324 45.2889 7.4324 45.2889 7.4324H38.51C38.51 7.4324 38.3405 7.4324 38.3405 7.58663C38.3405 7.58663 38.1711 8.51201 38.0016 9.74585C37.1542 8.04932 35.629 6.81548 33.2563 6.81548C28.85 6.81548 25.7995 10.6712 25.2911 14.9897C24.7827 19.1538 26.4774 23.935 30.8837 23.935C33.2563 23.935 35.29 22.3927 36.8153 20.3876C36.9847 22.5469 38.6794 23.935 41.0521 23.935C42.7468 23.7808 44.7805 22.5469 45.2889 21.6215ZM37.4931 15.2981C37.1542 17.6116 35.9679 19.4623 34.2732 19.4623C32.5784 19.4623 31.9005 17.6116 32.2395 15.2981C32.5784 12.9847 33.5953 10.9797 35.29 10.9797C37.1542 10.9797 37.8321 12.8304 37.4931 15.2981ZM65.2867 23.1638C65.2867 23.1638 67.3205 8.51201 67.3205 7.74086C67.3205 7.58663 67.3205 7.58663 67.151 7.58663C61.8973 6.50702 56.9826 6.66126 52.2374 7.58663C52.2374 7.58663 52.0679 7.58663 52.0679 7.74086C52.0679 7.74086 51.3899 12.8304 50.3731 15.1439C48.3395 19.6165 46.3057 19.925 46.3057 20.3876C46.1362 21.0046 46.9837 23.7808 50.2036 23.7808C52.9152 23.7808 54.9488 22.0842 55.9658 18.3827C56.6436 15.915 56.9826 13.1389 57.1521 10.2085H59.8637C59.1857 14.8354 58.1689 22.8553 58.1689 22.8553C58.1689 23.0096 58.3384 23.0096 58.3384 23.0096L65.2867 23.1638C65.2867 23.318 65.2867 23.318 65.2867 23.1638ZM86.3014 15.4523C85.9625 10.9797 80.3698 10.0543 76.472 11.2881L76.6414 10.6712C90.5383 9.28315 88.3351 -0.124843 81.3867 0.0293865C73.4215 0.183616 69.0151 9.28315 69.0151 16.0692C69.0151 20.3876 71.8962 23.935 76.9804 23.935C82.2341 23.935 86.6404 20.542 86.3014 15.4523ZM77.8277 13.91C79.5225 14.2184 80.0309 15.2981 80.0309 16.9946C80.0309 17.92 79.1835 20.542 77.3194 20.542C74.7773 20.542 75.6246 15.6066 75.7941 14.2186C75.9636 14.0642 76.9804 13.7558 77.8277 13.91ZM77.3194 8.20355C77.6583 7.12394 78.6751 4.03936 80.2004 4.03936C81.0477 4.03936 81.0478 4.50204 81.0478 4.8105C80.7088 6.81548 77.3194 8.20355 77.3194 8.20355ZM107.994 21.6215C108.502 20.8504 105.96 21.7758 106.638 16.8404C106.977 14.6812 108.163 7.58663 108.163 7.58663C108.163 7.4324 107.994 7.4324 107.994 7.4324H101.215C101.215 7.4324 101.046 7.4324 101.046 7.58663C101.046 7.58663 100.876 8.51201 100.707 9.74585C99.8592 8.04932 98.3339 6.81548 95.9613 6.81548C91.5551 6.81548 88.5045 10.6712 87.9962 14.9897C87.4877 19.1538 89.1825 23.935 93.5887 23.935C95.9613 23.935 97.9951 22.3927 99.5204 20.3876C99.6897 22.5469 101.385 23.935 103.757 23.935C105.621 23.7808 107.655 22.5469 107.994 21.6215ZM100.198 15.2981C99.8592 17.6116 98.6729 19.4623 96.9783 19.4623C95.2835 19.4623 94.6056 17.6116 94.9445 15.2981C95.2835 12.9847 96.3003 10.9797 97.9951 10.9797C99.8592 10.9797 100.537 12.8304 100.198 15.2981Z" fill="#FE5308"/>
</svg>
