<svg width="31" height="30" viewBox="0 0 31 30" fill="none" xmlns="http://www.w3.org/2000/svg">
<path d="M15.6711 11.936C17.1166 11.936 18.2885 10.802 18.2885 9.40307C18.2885 8.00416 17.1166 6.87012 15.6711 6.87012C14.2256 6.87012 13.0537 8.00416 13.0537 9.40307C13.0537 10.802 14.2256 11.936 15.6711 11.936Z" fill="white"/>
<path d="M15.5 0C6.93967 0 0 6.71581 0 15C0 23.2842 6.93967 30 15.5 30C24.0603 30 31 23.2842 31 15C31 6.71581 24.0603 0 15.5 0ZM15.671 4.25404C18.6093 4.25404 20.9913 6.55915 20.9913 9.40268C20.9913 12.2462 18.6093 14.5513 15.671 14.5513C12.7327 14.5513 10.3507 12.2462 10.3507 9.40268C10.3507 6.55915 12.7327 4.25404 15.671 4.25404ZM20.4003 17.519C19.2694 18.2216 17.7191 18.4875 16.7064 18.5885L17.5538 19.4083L20.6889 22.4422C21.1651 22.9034 21.1654 23.6507 20.6889 24.1119L20.5452 24.2509C20.0687 24.712 19.2964 24.712 18.8199 24.2509C18.0231 23.4798 16.8745 22.3683 15.6848 21.2169L12.5497 24.2509C12.0732 24.7117 11.3009 24.712 10.8244 24.2509L10.6808 24.1119C10.2043 23.6507 10.2043 22.9034 10.6808 22.4422C11.4776 21.6711 12.6261 20.5596 13.8158 19.4083L14.6604 18.5909C13.6486 18.4921 12.0817 18.2274 10.941 17.5187C9.60577 16.6891 9.01422 16.1973 9.53788 15.1792C9.83838 14.5951 10.6701 14.1093 11.7759 14.9525C13.2702 16.092 15.6707 16.092 15.6707 16.092C15.6707 16.092 18.0712 16.092 19.5655 14.9525C20.6713 14.1093 21.503 14.5951 21.8035 15.1792C22.3271 16.1976 21.7356 16.6894 20.4003 17.519Z" fill="white"/>
</svg>
