<svg width="16" height="18" viewBox="0 0 16 18" fill="none" xmlns="http://www.w3.org/2000/svg">
<path d="M2.97713 2.16377L3.04122 2.09969C4.44352 0.701153 6.28311 0 8.12269 0C9.96228 0 11.8056 0.701153 13.2004 2.09592L13.2645 2.16C14.663 3.55854 15.3642 5.39813 15.3642 7.24148C15.3642 9.08106 14.663 10.9244 13.2645 12.323L8.59013 17.0011C8.33002 17.2612 7.91159 17.2612 7.65149 17.0011L2.97336 12.323C1.57483 10.9244 0.877441 9.08106 0.877441 7.24148C0.877441 5.4019 1.57859 3.55854 2.97336 2.16377H2.97713ZM8.12269 4.23708C9.78133 4.23708 11.1271 5.58284 11.1271 7.24148C11.1271 8.90012 9.78133 10.2459 8.12269 10.2459C6.46405 10.2459 5.11829 8.90012 5.11829 7.24148C5.11829 5.58284 6.46405 4.23708 8.12269 4.23708ZM3.97609 3.03456L3.912 3.09864C2.77357 4.23708 2.20436 5.74116 2.20436 7.24525C2.20436 8.74934 2.77357 10.2497 3.912 11.3881L8.11892 15.595L12.3258 11.3881C13.4643 10.2534 14.0335 8.74934 14.0335 7.24525C14.0335 5.74116 13.4643 4.24085 12.3258 3.10241L12.2618 3.03833C11.1233 1.8999 9.61924 1.33068 8.11515 1.33068C6.61107 1.33068 5.10698 1.8999 3.96855 3.03833L3.97609 3.03456Z" fill="#538C37"/>
</svg>
