<svg width="16" height="16" viewBox="0 0 16 16" fill="none" xmlns="http://www.w3.org/2000/svg">
<path d="M13.3553 6.36788H12.5047V6.93829L13.3553 6.36788ZM12.5047 5.04021H14.3634C14.7273 5.04021 15.0272 5.34017 15.0272 5.70405V15.1993C15.0272 15.5632 14.7273 15.8632 14.3634 15.8632H0.663833C0.299954 15.8632 0 15.5632 0 15.1993V5.70405C0 5.34017 0.299954 5.04021 0.663833 5.04021H2.52257V0.663833C2.52257 0.299954 2.82252 0 3.1864 0H11.8507C12.2145 0 12.5145 0.299954 12.5145 0.663833V5.04021H12.5047ZM2.51765 6.36788H1.66696L2.51765 6.93829V6.36788ZM3.84532 7.82831L7.51361 10.287L11.1819 7.82831V1.32767H3.84532V7.8234V7.82831ZM8.69867 11.0836L13.6996 14.4322V7.73489L8.69867 11.0836ZM1.32275 7.73489V14.5404H11.4769L7.17432 11.6589L7.15956 11.649L7.13498 11.6294L7.12023 11.6195L1.32275 7.73489Z" fill="#538C37"/>
</svg>
