<svg width="16" height="16" viewBox="0 0 16 16" fill="none" xmlns="http://www.w3.org/2000/svg">
<path d="M11.0744 11.987C10.814 11.7266 10.8166 11.3044 11.0769 11.0466C11.3373 10.7862 11.7595 10.7888 12.0173 11.0491L13.5542 12.5987C13.812 12.8591 13.812 13.2787 13.5517 13.539C12.0021 15.0911 9.96975 15.8672 7.93738 15.8672C5.90501 15.8672 3.87263 15.0937 2.3256 13.5466L2.28768 13.5062C0.763404 11.9617 0 9.947 0 7.93485C0 5.90501 0.776043 3.87263 2.32307 2.32307C3.87263 0.773515 5.90248 0 7.93485 0C9.96217 0 11.9945 0.776043 13.5441 2.3256C14.3682 3.14715 14.9749 4.11025 15.3591 5.13655C15.7585 6.20076 15.9228 7.33576 15.8495 8.45306C15.8267 8.81959 15.5107 9.10018 15.1442 9.07743C14.7777 9.05468 14.4971 8.7387 14.5198 8.37216C14.5805 7.43687 14.444 6.49146 14.1129 5.60672C13.7944 4.75737 13.2888 3.95605 12.6012 3.26848C11.3146 1.97929 9.62597 1.33469 7.93485 1.33469C6.24626 1.33469 4.55767 1.97929 3.26848 3.26848C1.98182 4.55515 1.33469 6.24626 1.33469 7.93485C1.33469 9.6108 1.96918 11.2867 3.23309 12.5709L3.26595 12.6012C4.55515 13.8904 6.24626 14.5375 7.93485 14.535C9.41616 14.535 10.9 14.0345 12.1133 13.0385L11.0694 11.9844L11.0744 11.987Z" fill="#538C37"/>
</svg>
