<svg width="31" height="30" viewBox="0 0 31 30" fill="none" xmlns="http://www.w3.org/2000/svg">
<path d="M15.5 0C6.93967 0 0 6.71581 0 15C0 23.2842 6.93967 30 15.5 30C24.0603 30 31 23.2842 31 15C31 6.71581 24.0603 0 15.5 0ZM20.0539 8.59781C19.3172 8.59781 18.5757 8.59781 17.8392 8.59781C17.3731 8.5686 16.8921 8.91294 16.807 9.36405C16.7969 10.1449 16.8019 10.9254 16.8019 11.7063C17.8842 11.7111 18.9667 11.7063 20.0492 11.7111C19.9691 12.8409 19.8239 13.9661 19.6535 15.0815C18.6964 15.0913 17.7393 15.0815 16.7821 15.0864C16.7721 18.4178 16.7872 21.7444 16.7771 25.0761C15.3538 25.081 13.9359 25.0713 12.5127 25.081C12.4875 21.7496 12.5127 18.4181 12.4976 15.0864C11.8061 15.0815 11.1095 15.0913 10.418 15.0815C10.423 13.9612 10.418 12.8412 10.418 11.7257C11.1095 11.716 11.8061 11.7257 12.4976 11.7209C12.5177 10.6346 12.4775 9.54352 12.5177 8.45727C12.5928 7.58913 12.9285 6.72128 13.5952 6.12478C14.4021 5.38287 15.5443 5.1307 16.6269 5.1015C17.7694 5.09176 18.912 5.09663 20.0543 5.09663C20.059 6.26531 20.059 7.42912 20.0539 8.59781Z" fill="#ADADAD"/>
</svg>
