<svg width="189" height="71" viewBox="0 0 189 71" fill="none" xmlns="http://www.w3.org/2000/svg">
<path d="M104.384 51H101.542C101.542 49.8932 101.474 48.028 101.337 45.4043C101.2 42.7741 101.129 41.1335 101.122 40.4824H100.976C100.911 40.873 100.738 41.5957 100.458 42.6504C100.178 43.7051 99.6509 45.2611 98.8762 47.3184C98.1079 49.3691 97.7238 50.5964 97.7238 51H95.5656C95.5656 50.5833 95.1945 49.3431 94.4523 47.2793C93.7167 45.2155 93.2349 43.7702 93.007 42.9434C92.7792 42.1165 92.5969 41.2962 92.4602 40.4824H92.3137C92.3072 41.2962 92.2258 43.041 92.0695 45.7168C91.9198 48.3926 91.8449 50.1536 91.8449 51H89.2668C89.2668 50.8047 89.5012 48.8483 89.9699 45.1309C90.4452 41.4134 90.6828 39.1315 90.6828 38.2852H94.4621C94.4621 39.0143 94.8592 40.6224 95.6535 43.1094C96.4543 45.5964 96.8547 47.1882 96.8547 47.8848H97.0012C97.0012 47.1816 97.4536 45.5866 98.3586 43.0996C99.2701 40.6126 99.7258 39.0078 99.7258 38.2852H103.476C103.476 39.6328 103.626 42.0384 103.925 45.502C104.231 48.959 104.384 50.7917 104.384 51ZM115.78 48.8516L115.702 51H107.391C107.476 49.0339 107.518 46.8171 107.518 44.3496C107.518 41.9798 107.476 39.9583 107.391 38.2852H115.321L115.214 40.4238C113.261 40.3197 111.49 40.2676 109.901 40.2676C109.966 41.1725 109.999 42.2402 109.999 43.4707C111.36 43.4707 112.815 43.4349 114.364 43.3633V45.4043C112.841 45.3392 111.386 45.3066 109.999 45.3066C109.999 46.6283 110.025 47.8652 110.077 49.0176C111.861 49.0176 113.762 48.9622 115.78 48.8516ZM128.573 51H125.301C125.301 50.7721 124.93 49.9355 124.188 48.4902C123.465 47.0775 122.948 46.1562 122.635 45.7266H122.479C122.199 46.1107 121.73 47.0124 121.073 48.4316C120.396 49.8835 120.057 50.7396 120.057 51H117.039C117.039 50.8047 117.671 49.7077 118.934 47.709C120.204 45.7103 121.017 44.5352 121.375 44.1836V44.0371C121.024 43.6335 120.33 42.6439 119.295 41.0684C118.228 39.4212 117.694 38.4935 117.694 38.2852H120.838C120.838 38.4935 121.141 39.1934 121.746 40.3848C122.352 41.5762 122.778 42.3216 123.026 42.6211H123.182C123.423 42.3151 123.83 41.5697 124.403 40.3848C124.982 39.1999 125.272 38.5 125.272 38.2852H128.162C128.162 38.4674 127.603 39.3724 126.483 41C125.37 42.6211 124.657 43.5846 124.344 43.8906V44.0371C124.774 44.5059 125.584 45.7233 126.776 47.6895C127.974 49.6556 128.573 50.7591 128.573 51ZM142.273 44.4082C142.273 46.4069 141.661 48.0638 140.438 49.3789C139.214 50.694 137.7 51.3516 135.896 51.3516C134.178 51.3516 132.739 50.7493 131.58 49.5449C130.421 48.334 129.842 46.7975 129.842 44.9355C129.842 42.9368 130.454 41.2799 131.678 39.9648C132.902 38.6497 134.415 37.9922 136.219 37.9922C137.938 37.9922 139.376 38.5944 140.535 39.7988C141.694 41.0033 142.273 42.5397 142.273 44.4082ZM139.578 44.6914C139.578 43.3307 139.23 42.2272 138.533 41.3809C137.837 40.5345 136.977 40.1113 135.955 40.1113C135.005 40.1113 134.197 40.5378 133.533 41.3906C132.869 42.2435 132.537 43.321 132.537 44.623C132.537 45.9772 132.885 47.0807 133.582 47.9336C134.285 48.7799 135.145 49.2031 136.16 49.2031C137.111 49.2031 137.918 48.7767 138.582 47.9238C139.246 47.0645 139.578 45.987 139.578 44.6914ZM154.636 47.1719C154.636 49.763 152.517 51.0586 148.279 51.0586C147.543 51.0586 146.397 51.0391 144.841 51C144.926 49.0339 144.968 46.8171 144.968 44.3496C144.968 41.9798 144.926 39.9583 144.841 38.2852H146.423C146.723 38.2852 147.224 38.2754 147.927 38.2559C148.637 38.2363 149.19 38.2266 149.587 38.2266C152.472 38.2266 153.914 39.1641 153.914 41.0391C153.914 42.4844 153.175 43.4414 151.697 43.9102V44.0566C152.485 44.1803 153.171 44.4896 153.757 44.9844C154.343 45.4727 154.636 46.2018 154.636 47.1719ZM152 47.2793C152 45.9837 150.864 45.3359 148.591 45.3359C148.142 45.3359 147.755 45.3522 147.429 45.3848C147.429 46.7454 147.459 47.9987 147.517 49.1445C147.739 49.1966 148.071 49.2227 148.513 49.2227C149.718 49.2227 150.6 49.0794 151.16 48.793C151.72 48.5 152 47.9954 152 47.2793ZM151.287 41.8105C151.287 40.6452 150.558 40.0625 149.099 40.0625C148.429 40.0625 147.833 40.1113 147.312 40.209C147.384 40.8665 147.42 41.9961 147.42 43.5977C147.667 43.6107 147.927 43.6172 148.201 43.6172C150.258 43.6172 151.287 43.015 151.287 41.8105ZM168.279 51H165.154C165.154 50.5703 164.857 49.3529 164.265 47.3477H159.753C159.141 49.3203 158.835 50.5378 158.835 51H155.896C155.896 50.7461 156.654 48.6628 158.171 44.75C159.695 40.8372 160.456 38.6823 160.456 38.2852H164.148C164.148 38.6562 164.835 40.7819 166.208 44.6621C167.588 48.5358 168.279 50.6484 168.279 51ZM163.767 45.4824C162.654 42.123 162.097 40.3066 162.097 40.0332H161.941C161.941 40.2871 161.364 42.1035 160.212 45.4824H163.767ZM179.294 51H176.579C176.637 49.4831 176.667 47.7839 176.667 45.9023C176.328 45.8828 175.928 45.873 175.466 45.873C174.658 45.873 174.033 46.153 173.591 46.7129C173.148 47.2663 172.653 48.5 172.106 50.4141C172.041 50.6484 171.957 50.8438 171.852 51H169.001C169.098 50.7917 169.271 50.3652 169.518 49.7207C170.117 47.9694 170.619 46.8138 171.022 46.2539C171.432 45.694 171.979 45.3229 172.663 45.1406V44.9844C170.742 44.5872 169.782 43.526 169.782 41.8008C169.782 39.418 171.436 38.2266 174.743 38.2266C175.238 38.2266 175.794 38.2363 176.413 38.2559C177.038 38.2754 177.432 38.2852 177.595 38.2852H179.294C179.203 39.9648 179.157 41.9896 179.157 44.3594C179.157 46.8203 179.203 49.0339 179.294 51ZM176.667 44.0176C176.667 42.6504 176.637 41.3809 176.579 40.209C175.817 40.1178 175.15 40.0723 174.577 40.0723C173.04 40.0723 172.272 40.6419 172.272 41.7812C172.272 43.2917 173.369 44.0469 175.563 44.0469C175.973 44.0469 176.341 44.0371 176.667 44.0176Z" fill="white"/>
<path d="M90.8633 15.3779L90.7847 17.7925C89.2873 17.6802 87.876 17.624 86.5508 17.624C86.5358 19.0391 86.5284 20.6151 86.5284 22.3521C86.5284 25.0474 86.5695 27.5967 86.6519 30H83.5074C83.6047 27.6191 83.6534 25.0698 83.6534 22.3521C83.6534 20.645 83.6384 19.069 83.6084 17.624C82.5528 17.624 81.104 17.6839 79.2622 17.8037L79.3521 15.3779H90.8633ZM104.693 25.5977C104.693 28.5775 102.256 30.0674 97.3819 30.0674C96.5359 30.0674 95.2182 30.0449 93.4288 30C93.5261 27.7389 93.5748 25.1896 93.5748 22.3521C93.5748 19.6268 93.5261 17.3021 93.4288 15.3779H95.2481C95.5925 15.3779 96.169 15.3667 96.9776 15.3442C97.7937 15.3218 98.4301 15.3105 98.8868 15.3105C102.204 15.3105 103.862 16.3887 103.862 18.5449C103.862 20.207 103.012 21.3076 101.313 21.8467V22.0151C102.219 22.1574 103.008 22.513 103.682 23.082C104.356 23.6436 104.693 24.4821 104.693 25.5977ZM101.661 25.7212C101.661 24.2313 100.354 23.4863 97.7413 23.4863C97.2247 23.4863 96.7792 23.505 96.4049 23.5425C96.4049 25.1073 96.4386 26.5485 96.506 27.8662C96.7605 27.9261 97.1423 27.9561 97.6515 27.9561C99.0366 27.9561 100.051 27.7913 100.695 27.4619C101.339 27.125 101.661 26.5448 101.661 25.7212ZM100.841 19.4321C100.841 18.092 100.002 17.4219 98.3253 17.4219C97.5541 17.4219 96.8691 17.478 96.2701 17.5903C96.3525 18.3465 96.3937 19.6455 96.3937 21.4873C96.6782 21.5023 96.9776 21.5098 97.2921 21.5098C99.658 21.5098 100.841 20.8172 100.841 19.4321ZM117.512 27.5293L117.422 30H107.865C107.962 27.7389 108.011 25.1896 108.011 22.3521C108.011 19.6268 107.962 17.3021 107.865 15.3779H116.984L116.861 17.8374C114.614 17.7176 112.578 17.6577 110.751 17.6577C110.826 18.6984 110.863 19.9263 110.863 21.3413C112.428 21.3413 114.102 21.3001 115.883 21.2178V23.5649C114.132 23.4901 112.458 23.4526 110.863 23.4526C110.863 24.9725 110.893 26.395 110.953 27.7202C113.005 27.7202 115.191 27.6566 117.512 27.5293ZM131.353 19.2075C131.353 20.9969 130.686 22.3184 129.354 23.1719C128.029 24.0254 126.4 24.4521 124.468 24.4521C124.117 24.4521 123.866 24.4447 123.716 24.4297C123.716 25.8372 123.757 27.694 123.84 30H120.684C120.781 27.8363 120.83 25.2869 120.83 22.3521C120.83 19.6567 120.781 17.332 120.684 15.3779H122.638C122.915 15.3779 123.447 15.3667 124.233 15.3442C125.019 15.3218 125.7 15.3105 126.277 15.3105C127.699 15.3105 128.901 15.6325 129.882 16.2764C130.862 16.9202 131.353 17.8973 131.353 19.2075ZM128.455 19.8252C128.455 18.223 127.392 17.4219 125.266 17.4219C124.734 17.4219 124.173 17.478 123.581 17.5903C123.664 19.0054 123.705 20.6076 123.705 22.397C123.892 22.4119 124.109 22.4194 124.356 22.4194C127.089 22.4194 128.455 21.5547 128.455 19.8252ZM144.621 27.3384L144.43 29.9214C143.367 30.1759 142.319 30.3032 141.285 30.3032C138.717 30.3032 136.76 29.5957 135.412 28.1807C134.072 26.7581 133.402 25.0324 133.402 23.0034C133.402 20.8996 134.113 19.069 135.535 17.5117C136.965 15.9544 138.923 15.1758 141.409 15.1758C142.322 15.1758 143.187 15.2806 144.003 15.4902L143.61 18.0845C142.727 17.8 141.881 17.6577 141.072 17.6577C139.552 17.6577 138.422 18.1406 137.68 19.1064C136.939 20.0648 136.569 21.2327 136.569 22.6104C136.569 24.0179 137.007 25.2383 137.883 26.2715C138.766 27.3047 140.001 27.8213 141.589 27.8213C142.517 27.8213 143.528 27.6603 144.621 27.3384ZM158.911 30H155.385C155.317 29.8877 155.216 29.6331 155.081 29.2363C154.467 26.8704 153.891 25.3468 153.352 24.6655C152.813 23.9842 152.042 23.6436 151.038 23.6436C150.754 23.6436 150.526 23.6585 150.353 23.6885C150.353 25.8522 150.395 27.9561 150.477 30H147.31C147.407 27.7389 147.456 25.1896 147.456 22.3521C147.456 19.6268 147.407 17.3021 147.31 15.3779H150.477C150.395 17.5941 150.353 19.6118 150.353 21.4312C150.66 21.4461 150.889 21.4536 151.038 21.4536C153.09 21.4536 154.438 19.6605 155.081 16.0742C155.126 15.8122 155.216 15.5801 155.351 15.3779H158.383C158.286 15.61 158.136 16.0181 157.934 16.6021C157.44 18.354 156.908 19.6305 156.339 20.4316C155.778 21.2327 155.018 21.8354 154.059 22.2397V22.3633C155.055 22.6852 155.819 23.2205 156.35 23.9692C156.889 24.7179 157.578 26.3164 158.417 28.7646C158.522 29.0791 158.686 29.4909 158.911 30ZM174.47 30H170.876C170.876 29.5059 170.536 28.1058 169.854 25.7998H164.666C163.962 28.0684 163.61 29.4684 163.61 30H160.23C160.23 29.708 161.102 27.3122 162.847 22.8125C164.599 18.3128 165.475 15.8346 165.475 15.3779H169.72C169.72 15.8047 170.51 18.2492 172.089 22.7114C173.676 27.1662 174.47 29.5957 174.47 30ZM169.282 23.6548C168.001 19.7915 167.361 17.7026 167.361 17.3882H167.182C167.182 17.6802 166.519 19.769 165.194 23.6548H169.282ZM187.368 30H184.246C184.313 28.2555 184.347 26.3014 184.347 24.1377C183.957 24.1152 183.497 24.104 182.965 24.104C182.037 24.104 181.318 24.4259 180.809 25.0698C180.3 25.7062 179.731 27.125 179.102 29.3262C179.027 29.5957 178.93 29.8203 178.81 30H175.531C175.643 29.7604 175.841 29.27 176.126 28.5288C176.815 26.5148 177.391 25.1859 177.855 24.542C178.327 23.8981 178.956 23.4714 179.742 23.2617V23.082C177.533 22.6253 176.429 21.4049 176.429 19.4209C176.429 16.6807 178.331 15.3105 182.134 15.3105C182.703 15.3105 183.343 15.3218 184.055 15.3442C184.773 15.3667 185.226 15.3779 185.414 15.3779H187.368C187.263 17.3096 187.21 19.638 187.21 22.3633C187.21 25.1934 187.263 27.7389 187.368 30ZM184.347 21.9702C184.347 20.3979 184.313 18.938 184.246 17.5903C183.37 17.4855 182.602 17.4331 181.943 17.4331C180.176 17.4331 179.293 18.0882 179.293 19.3984C179.293 21.1354 180.554 22.0039 183.078 22.0039C183.549 22.0039 183.972 21.9927 184.347 21.9702Z" fill="white"/>
<path fill-rule="evenodd" clip-rule="evenodd" d="M25.056 27.9485C31.5967 28.9957 35.7797 27.4914 37.3751 22.7031C38.8862 25.1983 41.5588 26.6355 45.1961 26.9333C47.2853 29.3383 47.4208 33.1366 46.7626 36.8793C46.2312 39.9007 44.7416 42.2586 42.8451 44.446C40.9436 46.6385 38.3453 48.487 35.4152 48.4756C32.3178 48.4633 30.11 46.5197 28.2256 44.33C26.5204 42.3487 25.0287 40.0786 24.3763 37.4855C23.5349 34.1425 23.63 30.4326 25.056 27.9485ZM39.0374 42.5405C38.6272 42.6245 38.0072 42.5429 37.6062 42.4045C37.1926 42.2613 36.2837 41.8013 35.6329 42.3832C34.9822 41.8013 34.0723 42.2613 33.6584 42.4045C33.2589 42.5429 32.6376 42.6245 32.2275 42.5405C32.1378 42.5227 31.4174 42.2945 31.4541 42.5014C31.4693 42.5866 31.6651 42.777 31.7393 42.8468C31.9126 43.0088 32.4808 43.5895 32.5917 43.7314C32.9005 44.1279 33.3484 44.4424 33.7776 44.7026C34.3222 45.0337 34.9693 45.1721 35.626 45.1603H35.6389C36.2955 45.1721 36.9438 45.0337 37.4873 44.7026C37.9176 44.4424 38.3642 44.1279 38.6743 43.7314C38.7839 43.5895 39.3532 43.0088 39.5254 42.8468C39.5996 42.777 39.7965 42.5866 39.8107 42.5014C39.8472 42.2945 39.1271 42.5227 39.0374 42.5405ZM26.265 30.5922C26.265 30.5922 27.7539 30.3532 28.2913 30.3532C28.8278 30.3532 31.1712 31.1587 31.981 30.8974C32.7897 30.6359 32.5032 29.8528 32.0988 29.8198C31.0085 29.7323 28.6083 29.6684 28.0686 29.7122C27.5287 29.7547 25.3032 30.5389 26.265 30.5922ZM32.2787 33.5839C30.5236 34.8972 27.8047 34.646 26.8402 32.7878C27.8036 31.9189 28.1539 31.4815 29.5459 31.6664C30.52 31.7959 31.822 32.355 32.2787 33.5839ZM38.6781 33.5839C40.4332 34.8972 43.152 34.646 44.1165 32.7878C43.1532 31.9189 42.8028 31.4815 41.411 31.6664C40.4367 31.7959 39.1348 32.355 38.6781 33.5839ZM44.6898 30.7459C44.6898 30.7459 43.1998 30.507 42.6635 30.507C42.1259 30.507 39.7824 31.3114 38.9725 31.0499C38.1639 30.7898 38.4502 30.0067 38.8547 29.9735C39.945 29.8848 42.3451 29.8209 42.885 29.8647C43.425 29.9085 45.6505 30.6916 44.6898 30.7459ZM34.2632 39.1803C34.7642 39.2866 35.185 39.3409 35.6106 39.3457C36.0372 39.3633 36.4381 39.3091 36.9391 39.1803C36.6833 39.6178 36.1374 39.9327 35.6 39.9198C35.0659 39.8985 34.5472 39.6048 34.2632 39.1803Z" fill="white"/>
<path fill-rule="evenodd" clip-rule="evenodd" d="M35.4231 0C28.171 3.44782 16.6705 11.0767 13.6929 18.7362C7.799 33.8957 23.1387 43.1853 23.1387 38.1478C23.1387 37.4797 22.5682 36.9378 21.8645 36.9378C21.5086 36.9378 21.1879 37.075 20.9569 37.2974C20.7528 36.7142 20.5996 34.1453 20.5996 33.8308C20.5996 25.8316 26.9086 18.7398 35.4243 18.6854C43.6194 18.7375 50.2467 25.4969 50.2467 33.8248C50.2467 34.1371 50.1265 36.6884 49.926 37.3022C48.9488 36.4127 47.4657 37.2573 47.7863 38.5252C47.9232 39.0668 48.9653 40.097 50.0369 38.9556C58.4771 35.7859 60.3231 26.882 57.1544 18.7302C54.1756 11.0707 42.6738 3.44782 35.4231 0Z" fill="white"/>
<path fill-rule="evenodd" clip-rule="evenodd" d="M35.3876 70.9997C36.3695 69.8418 37.302 68.8341 38.4986 67.8441C40.5955 66.1091 43.0216 64.7583 45.5371 63.6738C51.9404 60.9119 61.1457 58.7819 66.2018 53.9643C71.0726 49.3244 71.6878 42.1402 69.5849 36.1175C67.9488 31.4349 64.7058 27.2207 61.2176 23.4963C61.312 23.8666 61.3969 24.2391 61.4688 24.6139C62.3305 28.4307 61.9215 33.2635 59.8833 36.5942C55.6923 43.4407 35.0599 50.1686 35.3629 60.5492C35.0367 49.9753 15.9277 44.51 10.971 36.4167C8.93163 33.0861 8.53079 28.3255 9.25812 24.5572C9.33124 24.1822 9.41601 23.8096 9.5105 23.4395C6.02234 27.164 2.77948 31.3782 1.14321 36.062C-0.959678 42.0835 -0.344329 49.2676 4.52634 53.9087C9.58237 58.7249 18.7865 60.8552 25.191 63.6168C27.7065 64.7016 30.1326 66.0534 32.2295 67.7873C33.4449 68.794 34.3891 69.8182 35.3876 70.9997Z" fill="white"/>
</svg>
