<svg width="27" height="31" viewBox="0 0 27 31" fill="none" xmlns="http://www.w3.org/2000/svg">
<path d="M13.125 0C16.606 0 19.9444 1.38281 22.4058 3.84422C24.8672 6.30564 26.25 9.64403 26.25 13.125C26.25 18.5588 22.1083 24.2521 14 30.3333C13.7476 30.5227 13.4405 30.625 13.125 30.625C12.8095 30.625 12.5024 30.5227 12.25 30.3333C4.14167 24.2521 0 18.5588 0 13.125C0 9.64403 1.38281 6.30564 3.84422 3.84422C6.30564 1.38281 9.64403 0 13.125 0ZM13.125 2.91667C10.4176 2.91667 7.82105 3.99218 5.90662 5.90662C3.99218 7.82105 2.91667 10.4176 2.91667 13.125C2.91667 17.0771 6.00542 21.6358 12.32 26.6963L13.125 27.3321L13.93 26.6963C20.2446 21.6358 23.3333 17.0771 23.3333 13.125C23.3333 10.4176 22.2578 7.82105 20.3434 5.90662C18.4289 3.99218 15.8324 2.91667 13.125 2.91667ZM13.125 10.2083C13.8985 10.2083 14.6404 10.5156 15.1874 11.0626C15.7344 11.6096 16.0417 12.3515 16.0417 13.125C16.0417 13.8985 15.7344 14.6404 15.1874 15.1874C14.6404 15.7344 13.8985 16.0417 13.125 16.0417C12.3515 16.0417 11.6096 15.7344 11.0626 15.1874C10.5156 14.6404 10.2083 13.8985 10.2083 13.125C10.2083 12.3515 10.5156 11.6096 11.0626 11.0626C11.6096 10.5156 12.3515 10.2083 13.125 10.2083Z" fill="#A40000"/>
</svg>
