<svg width="17" height="17" viewBox="0 0 17 17" fill="none" xmlns="http://www.w3.org/2000/svg">
<path d="M14.6672 6.375H2.33257C1.67065 6.375 1.16985 6.97369 1.28679 7.6252L2.62172 15.0627C2.7126 15.569 3.15311 15.9375 3.66751 15.9375H13.3322C13.8467 15.9375 14.2872 15.569 14.3781 15.0627L15.713 7.6252C15.83 6.9737 15.3291 6.375 14.6672 6.375Z" stroke="black" stroke-width="1.5" stroke-linecap="square" stroke-linejoin="round"/>
<path d="M11.6875 5.3125C11.6875 4.46712 11.3516 3.65637 10.7539 3.0586C10.1561 2.46082 9.34538 2.125 8.5 2.125C7.65462 2.125 6.84387 2.46082 6.2461 3.0586C5.64832 3.65637 5.3125 4.46712 5.3125 5.3125" stroke="black" stroke-width="1.5" stroke-linecap="square" stroke-linejoin="round"/>
</svg>
