<svg width="14" height="14" viewBox="0 0 14 14" fill="none" xmlns="http://www.w3.org/2000/svg">
<path d="M12.079 5.25H1.92114C1.37603 5.25 0.963605 5.74304 1.05991 6.27958L2.15927 12.4046C2.23411 12.8215 2.59688 13.125 3.0205 13.125H10.9797C11.4034 13.125 11.7661 12.8215 11.841 12.4046L12.9403 6.27958C13.0366 5.74305 12.6242 5.25 12.079 5.25Z" stroke="black" stroke-width="1.5" stroke-linecap="square" stroke-linejoin="round"/>
<path d="M9.625 4.375C9.625 3.67881 9.34841 3.01113 8.85614 2.51884C8.36387 2.02656 7.69619 1.75 7 1.75C6.30381 1.75 5.63613 2.02656 5.14385 2.51884C4.65156 3.01113 4.375 3.67881 4.375 4.375" stroke="black" stroke-width="1.5" stroke-linecap="square" stroke-linejoin="round"/>
</svg>
