<svg width="138" height="80" viewBox="0 0 138 80" fill="none" xmlns="http://www.w3.org/2000/svg">
<path d="M29.7304 27.0544C39.1308 27.0544 46.4946 23.2045 46.4946 18.2897C46.4946 13.3749 39.1308 9.525 29.7304 9.525C20.33 9.525 12.9661 13.3749 12.9661 18.2897C12.9661 23.2045 20.33 27.0544 29.7304 27.0544ZM29.7304 12.3612C37.9495 12.3612 43.6783 15.4854 43.6783 18.2897C43.6783 21.094 37.9495 24.2183 29.7304 24.2183C21.5112 24.2183 15.7824 21.094 15.7824 18.2897C15.7824 15.4854 21.5112 12.3612 29.7304 12.3612Z" fill="black" fill-opacity="0.5"/>
<path d="M137.218 21.3641C129.445 17.481 110.596 21.3405 88.7689 25.8122C75.3994 28.5494 60.7942 31.5368 47.4354 32.9475C54.7151 29.6105 59.4593 24.2911 59.4593 18.2897C59.4593 8.20523 46.1233 0 29.7304 0C13.3374 0 0.00137513 8.20523 0.00137513 18.2897C0.00137513 18.5589 0.0483016 18.8208 0.0670377 19.0872C0.0355816 19.2053 0.00137513 19.3228 0.00137513 19.4502L0 62.8763C0 62.9458 0.0297373 63.0051 0.0391913 63.0718C0.0488173 63.1419 0.0371286 63.2108 0.0577555 63.2807C2.26983 70.7715 7.7664 75.2399 15.327 77.6506C15.5543 77.809 15.8149 77.9227 16.1124 77.9227C16.1277 77.9227 16.1404 77.9144 16.1556 77.9139C21.1683 79.3834 27.0327 80 33.4418 80C34.5452 80 35.7034 79.936 36.8369 79.9013C36.9745 79.9465 37.1146 79.9889 37.2675 79.9889C37.4648 79.9889 37.6518 79.9467 37.8225 79.8728C44.2217 79.6247 51.0294 78.88 57.9969 77.8363C58.1332 77.8807 58.2714 77.9227 58.4225 77.9227C58.7137 77.9227 58.9686 77.8128 59.1931 77.6606C69.2843 76.1063 79.6188 74.0062 89.3286 72.0177C109.759 67.8355 129.06 63.8845 135.965 67.33C135.977 67.3362 135.991 67.3347 136.003 67.3404C136.089 67.3806 136.185 67.3929 136.279 67.415C136.37 67.4361 136.458 67.4671 136.549 67.4697C136.564 67.4702 136.576 67.4782 136.59 67.4782C136.663 67.4782 136.726 67.4472 136.796 67.4365C136.894 67.4212 136.991 67.4134 137.084 67.378C137.174 67.3437 137.249 67.289 137.329 67.2379C137.401 67.192 137.476 67.1541 137.54 67.0949C137.618 67.0221 137.673 66.9322 137.734 66.8431C137.77 66.7891 137.822 66.7505 137.851 66.6902C137.858 66.6777 137.856 66.6642 137.862 66.6518C137.902 66.5647 137.914 66.4678 137.936 66.3722C137.957 66.2808 137.988 66.1925 137.99 66.101C137.991 66.0866 137.999 66.0746 137.999 66.0601L138 22.634C138 22.0953 137.696 21.6023 137.218 21.3641ZM29.7304 2.83617C44.5694 2.83617 56.6431 9.76873 56.6431 18.2897C56.6431 26.6558 44.9978 33.4739 30.5302 33.7201C16.7192 33.2909 6.17469 29.5427 2.92473 19.503C2.8699 19.1014 2.81765 18.6993 2.81765 18.2897C2.81765 9.76873 14.8913 2.83617 29.7304 2.83617ZM135.182 64.0367C132.184 63.173 128.138 63.0301 123.296 63.386V42.5024C123.296 41.72 122.666 41.0843 121.888 41.0843C121.111 41.0843 120.479 41.7186 120.479 42.5024V63.6364C115.087 64.1983 108.876 65.2562 102.139 66.5543V55.2901C102.139 54.5063 101.508 53.872 100.731 53.872C99.9528 53.872 99.323 54.5077 99.323 55.2901V67.1031C95.907 67.7778 92.3838 68.4974 88.7675 69.2383C86.2141 69.7613 83.6122 70.2927 80.9856 70.8214V47.5003C80.9856 46.7165 80.3558 46.0823 79.5775 46.0823C78.7992 46.0823 78.1694 46.7165 78.1694 47.5003V71.3845C72.0994 72.5885 65.9192 73.7453 59.8306 74.7094V62.159C59.8306 61.3752 59.2008 60.7409 58.4225 60.7409C57.6442 60.7409 57.0143 61.3752 57.0143 62.159V75.1423C50.6807 76.0833 44.4891 76.7818 38.6756 77.0617V54.3678C38.6756 53.584 38.0444 52.9497 37.2675 52.9497C36.4891 52.9497 35.8593 53.5854 35.8593 54.3678V77.1618C28.989 77.3288 22.7411 76.8335 17.5206 75.3786V67.1555C17.5206 66.3717 16.8907 65.7374 16.1124 65.7374C15.3341 65.7374 14.7043 66.3717 14.7043 67.1555V74.4625C8.8256 72.2332 4.60153 68.4838 2.81627 62.6323L2.81765 26.0092C3.92996 27.4706 5.32795 28.8322 6.99959 30.0528C8.76836 31.4124 10.8017 32.5187 13.046 33.4175C17.8066 35.411 23.55 36.5794 29.7304 36.5794C30.196 36.5794 30.6495 36.5495 31.11 36.5363C48.4249 36.9597 70.1132 32.5274 89.3299 28.5916C109.034 24.5575 127.689 20.734 135.184 23.5646L135.182 64.0367Z" fill="black" fill-opacity="0.5"/>
</svg>
