<svg width="26" height="26" viewBox="0 0 26 26" fill="none" xmlns="http://www.w3.org/2000/svg">
<path d="M25.4565 12.5724C25.4565 19.2389 20.0418 24.6447 13.3606 24.6447C6.67929 24.6447 1.26465 19.2389 1.26465 12.5724C1.26465 5.90587 6.67929 0.5 13.3606 0.5C20.0418 0.5 25.4565 5.90587 25.4565 12.5724Z" stroke="black" stroke-opacity="0.5"/>
<path d="M14.2362 18.2039V13.0747H15.9699L16.2275 11.0664H14.2362V9.78724C14.2362 9.20773 14.398 8.81096 15.2313 8.81096H16.2871V7.02049C15.7736 6.96542 15.257 6.93913 14.7403 6.94101C13.208 6.94101 12.1559 7.87473 12.1559 9.58885V11.0627H10.4336V13.0709H12.1597V18.2039H14.2362Z" fill="black" fill-opacity="0.5"/>
</svg>
