<svg width="17" height="16" viewBox="0 0 17 16" fill="none" xmlns="http://www.w3.org/2000/svg">
<path d="M8.31094 1.82909C7.39094 0.990762 6.2176 0.530762 4.98094 0.530762C3.66594 0.530762 2.42094 1.04993 1.4701 1.99576C-0.490729 3.96493 -0.489896 7.04493 1.47177 9.00576L7.58177 15.1158C7.72344 15.3649 7.99677 15.5258 8.31094 15.5258C8.57927 15.5258 8.81844 15.3899 8.97094 15.1849L15.1501 9.00576C17.1118 7.0441 17.1118 3.96493 15.1484 1.99243C14.2009 1.04993 12.9559 0.530762 11.6409 0.530762C10.4051 0.530762 9.23094 0.990762 8.31094 1.82909ZM13.9701 3.17076C15.2726 4.47993 15.2734 6.52493 13.9718 7.82743L8.31094 13.4883L2.6501 7.82743C1.34844 6.52493 1.34927 4.47993 2.64844 3.1741C3.28177 2.5441 4.1101 2.19743 4.98094 2.19743C5.85177 2.19743 6.67677 2.54409 7.3051 3.17243L7.72177 3.58909C8.0476 3.91493 8.57427 3.91493 8.9001 3.58909L9.31677 3.17243C10.5768 1.91493 12.7118 1.91826 13.9701 3.17076Z" fill="black"/>
</svg>
