<svg width="27" height="26" viewBox="0 0 27 26" fill="none" xmlns="http://www.w3.org/2000/svg">
<path d="M25.6293 12.5724C25.6293 19.2389 20.2147 24.6447 13.5334 24.6447C6.85214 24.6447 1.4375 19.2389 1.4375 12.5724C1.4375 5.90587 6.85214 0.5 13.5334 0.5C20.2147 0.5 25.6293 5.90587 25.6293 12.5724Z" stroke="black" stroke-opacity="0.5"/>
<path d="M18.4339 10.0991C18.4419 10.2073 18.4419 10.3148 18.4419 10.4223C18.4419 13.7125 15.933 17.5037 11.3479 17.5037C9.93524 17.5037 8.6229 17.0953 7.51855 16.386C7.71912 16.4089 7.91226 16.4169 8.12087 16.4169C9.2865 16.4169 10.3593 16.0239 11.2166 15.3535C10.1203 15.3307 9.20169 14.6139 8.88475 13.6278C9.03889 13.6507 9.19365 13.6661 9.35583 13.6661C9.5793 13.6661 9.80401 13.6352 10.0126 13.5815C8.86928 13.3504 8.01316 12.3488 8.01316 11.139V11.1081C8.34558 11.2929 8.73123 11.4084 9.13979 11.4239C8.46814 10.9777 8.02802 10.2147 8.02802 9.35151C8.02802 8.88934 8.1512 8.46548 8.36724 8.09599C9.59478 9.60545 11.4401 10.5922 13.5089 10.7003C13.4705 10.515 13.447 10.3228 13.447 10.13C13.447 8.75835 14.5588 7.64124 15.9404 7.64124C16.6585 7.64124 17.3066 7.94152 17.7622 8.42717C18.3256 8.31904 18.8654 8.11082 19.3445 7.82598C19.1594 8.40369 18.7651 8.88934 18.2482 9.19766C18.7502 9.14328 19.2368 9.00488 19.6837 8.8121C19.3445 9.30517 18.9204 9.74447 18.4339 10.0991Z" fill="black" fill-opacity="0.5"/>
</svg>
