<svg width="193" height="50" viewBox="0 0 193 50" fill="none" xmlns="http://www.w3.org/2000/svg">
<path d="M20.1598 26.1212C20.8883 26.1001 21.6109 26.2625 22.2658 26.5946C22.8511 26.9111 23.2784 27.4337 23.5475 28.1625C23.7272 28.6991 23.8251 29.2616 23.8375 29.8295C23.8663 30.4923 23.8807 31.2428 23.8807 32.0811C23.8807 33.1137 23.875 33.9976 23.8637 34.7328C23.8672 35.3746 23.7665 36.0124 23.5658 36.6195C23.4341 37.0082 23.2313 37.367 22.9687 37.6761C22.7303 37.9507 22.4445 38.1766 22.126 38.342C21.7982 38.5098 21.4495 38.6294 21.09 38.6974C20.7078 38.7709 20.3198 38.8072 19.9311 38.8059H16.418V26.1212H20.1598ZM21.8582 30.8414C21.8582 29.9787 21.7119 29.2983 21.4192 28.8C21.1266 28.3018 20.604 28.0527 19.8514 28.0527H18.4391V36.869H19.8763C20.6244 36.869 21.1422 36.6656 21.4297 36.2587C21.7171 35.8518 21.8604 35.2834 21.8595 34.5537L21.8582 30.8414Z" fill="black"/>
<path d="M33.5764 34.9128C33.5851 35.4635 33.4837 36.0109 33.2775 36.5269C33.0914 36.9877 32.8033 37.4067 32.4321 37.7565C32.0633 38.0991 31.6213 38.3653 31.1348 38.5376C29.9862 38.9163 28.7294 38.8935 27.5975 38.4735C27.1016 38.2736 26.6638 37.9666 26.3201 37.5776C25.9897 37.1905 25.7464 36.745 25.605 36.2679C25.4485 35.7574 25.3705 35.2288 25.3732 34.6978V29.9796C25.3756 29.5233 25.4503 29.0698 25.5949 28.6339C25.7438 28.165 25.9971 27.7308 26.3382 27.3597C26.6794 26.9886 27.1007 26.6889 27.5746 26.4804C28.1741 26.2254 28.8284 26.1026 29.487 26.1212C30.1155 26.107 30.7395 26.2238 31.3136 26.463C31.8008 26.6729 32.2358 26.9753 32.5909 27.3508C32.9284 27.7117 33.1838 28.1327 33.3418 28.5885C33.4994 29.0376 33.5804 29.507 33.5821 29.9796L33.5764 34.9128ZM31.3465 29.9476C31.3422 29.762 31.3129 29.5776 31.2592 29.3989C31.1988 29.1834 31.0981 28.9795 30.9617 28.7968C30.8099 28.5967 30.615 28.4284 30.3895 28.3028C30.1119 28.1548 29.795 28.083 29.4755 28.0958C29.1555 28.085 28.8376 28.1483 28.5501 28.2801C28.3166 28.3926 28.1128 28.5522 27.9536 28.7474C27.809 28.9281 27.7014 29.1323 27.6361 29.3495C27.5747 29.5483 27.5424 29.754 27.5403 29.9609L27.5588 34.7432C27.5388 35.2769 27.6935 35.8036 28.0023 36.2532C28.2969 36.6609 28.7966 36.8647 29.5013 36.8647C29.984 36.8707 30.4499 36.6996 30.7986 36.3881C31.1629 36.0703 31.3455 35.636 31.3465 35.085V29.9476Z" fill="black"/>
<path d="M42.5322 34.9128C42.5405 35.4634 42.4488 36.0108 42.2617 36.5269C42.0925 36.9877 41.8306 37.4067 41.493 37.7565C41.1577 38.0991 40.7558 38.3653 40.3134 38.5376C39.2691 38.9163 38.1264 38.8935 37.0971 38.4735C36.6463 38.2736 36.2482 37.9666 35.9357 37.5776C35.6353 37.1905 35.4141 36.745 35.2855 36.2679C35.1432 35.7574 35.0722 35.2288 35.0748 34.6978V29.9796C35.0769 29.5233 35.1449 29.0698 35.2764 28.6339C35.4117 28.165 35.642 27.7308 35.9522 27.3597C36.2624 26.9886 36.6455 26.6889 37.0763 26.4804C37.6215 26.2254 38.2164 26.1026 38.8152 26.1212C39.3867 26.107 39.954 26.2238 40.476 26.463C40.919 26.6729 41.3146 26.9753 41.6374 27.3508C41.9443 27.7114 42.1762 28.1326 42.3189 28.5885C42.4628 29.0375 42.5365 29.507 42.5374 29.9796L42.5322 34.9128ZM40.5059 29.9476C40.5014 29.762 40.4748 29.5778 40.4266 29.3989C40.3717 29.1834 40.2801 28.9795 40.1561 28.7968C40.0181 28.5967 39.8409 28.4284 39.6358 28.3028C39.3834 28.1548 39.0953 28.083 38.8048 28.0958C38.5113 28.0856 38.2199 28.1502 37.9568 28.2841C37.7451 28.3969 37.5603 28.5565 37.4158 28.7514C37.289 28.9314 37.1952 29.1336 37.1388 29.3481C37.0829 29.547 37.0536 29.7527 37.0516 29.9596L37.0685 34.7419C37.0505 35.2754 37.1906 35.8019 37.4704 36.2519C37.7383 36.6595 38.1931 36.8634 38.8347 36.8634C39.2736 36.8694 39.6972 36.6982 40.0143 36.3867C40.3455 36.069 40.5116 35.6346 40.5124 35.0837L40.5059 29.9476Z" fill="black"/>
<path d="M50.0823 38.806L48.281 33.5137H46.737V38.806H44.7761V26.1195H48.649C49.1188 26.1153 49.586 26.1923 50.0322 26.3475C50.4403 26.4871 50.8148 26.7186 51.1297 27.026C51.4449 27.3457 51.69 27.7343 51.8477 28.1645C52.0287 28.6744 52.116 29.216 52.105 29.7603C52.1233 30.4865 51.9562 31.2045 51.6212 31.8392C51.2885 32.4318 50.7862 32.8978 50.1866 33.1704L52.2388 38.806H50.0823ZM50.1686 29.7617C50.1686 29.1664 50.0244 28.7259 49.7362 28.44C49.448 28.1541 49.0333 28.0112 48.492 28.0112H46.746V31.6397H48.474C48.9938 31.6397 49.406 31.4819 49.7105 31.1662C50.015 30.8504 50.1677 30.3836 50.1686 29.7658V29.7617Z" fill="black"/>
<path d="M61.1938 35.1487C61.1938 36.2837 60.8387 37.1772 60.1286 37.8293C59.4184 38.4813 58.4156 38.8068 57.1202 38.806C56.091 38.806 55.2395 38.6076 54.5659 38.2109C53.9145 37.8362 53.3708 37.307 52.9851 36.6725L54.7122 35.4529C54.9724 35.8611 55.3165 36.2123 55.7227 36.4843C56.1499 36.7514 56.65 36.8858 57.1571 36.8699C57.8299 36.8699 58.3044 36.7111 58.5806 36.3936C58.86 36.0633 59.0059 35.6447 58.9909 35.2168C58.9986 34.9621 58.9418 34.7096 58.8254 34.4816C58.7139 34.2735 58.5577 34.0915 58.3673 33.9479C58.1485 33.7856 57.9067 33.6553 57.6494 33.5609C57.3677 33.4533 57.0619 33.3514 56.7319 33.2554C56.1947 33.0941 55.672 32.8902 55.1689 32.6456C54.7771 32.4558 54.4203 32.2037 54.1132 31.8998C53.8409 31.6251 53.6365 31.2933 53.5157 30.9297C53.3872 30.526 53.3254 30.1049 53.3324 29.6822C53.327 29.1934 53.4199 28.7084 53.6059 28.2545C53.7831 27.826 54.0526 27.4396 54.3963 27.1217C54.7493 26.7994 55.165 26.5494 55.6188 26.3866C56.1273 26.2038 56.6658 26.1133 57.2077 26.1197C58.164 26.1197 58.9389 26.2754 59.5324 26.5867C60.1112 26.8845 60.6015 27.3229 60.9559 27.8596L59.3573 29.1685C59.1113 28.8173 58.7832 28.5283 58.4001 28.3253C58.0179 28.1409 57.5957 28.0494 57.1695 28.0584C56.6225 28.0584 56.1999 28.2047 55.9018 28.4974C55.7561 28.6427 55.6419 28.8152 55.566 29.0045C55.4901 29.1939 55.4541 29.3962 55.4602 29.5995C55.4546 29.8333 55.5255 30.0628 55.6625 30.2546C55.8101 30.4521 55.9959 30.6193 56.2095 30.747C56.4703 30.904 56.7477 31.0333 57.0368 31.1326C57.3554 31.2473 57.6918 31.3567 58.0473 31.4648C58.5702 31.6114 59.073 31.8193 59.5447 32.0839C59.913 32.2922 60.24 32.5634 60.5101 32.8845C60.754 33.1809 60.9323 33.5235 61.0338 33.8905C61.1444 34.3011 61.1982 34.7242 61.1938 35.1487Z" fill="black"/>
<path d="M21.7209 23.1316L19.9211 17.8416H18.3785V23.1316H16.418V10.4479H20.2875C20.7568 10.4443 21.2236 10.5213 21.6695 10.6757C22.0826 10.8155 22.4604 11.0521 22.7746 11.3678C23.0887 11.6835 23.3311 12.0702 23.4834 12.4988C23.6643 13.0084 23.7515 13.5498 23.7405 14.0939C23.7588 14.8197 23.5919 15.5374 23.2572 16.1719C22.9247 16.7642 22.4229 17.23 21.8238 17.5025L23.8807 23.1343L21.7209 23.1316ZM21.807 14.0912C21.807 13.4953 21.6631 13.0549 21.3751 12.77C21.0871 12.4852 20.671 12.3432 20.1268 12.3441H18.3875V15.9712H20.1152C20.6295 15.9712 21.0408 15.8134 21.3494 15.4978C21.6579 15.1822 21.8105 14.7142 21.807 14.0939V14.0912Z" fill="black"/>
<path d="M25.3732 23.1343V21.2764L29.8099 12.3463H25.565V10.4478H32.0896V12.2107L27.6529 21.1612H32.0896V23.1343H25.3732Z" fill="black"/>
<path d="M39.7892 23.1343V17.6492H36.3473V23.1343H34.3284V10.4478H36.3473V15.7715H39.7892V10.4478H41.7911V23.1343H39.7892Z" fill="black"/>
<path d="M44.7761 23.1343V10.4478H51.4913V12.3811H46.7545V15.7728H50.8327V17.6722H46.7545V21.1725H51.4925V23.1343H44.7761Z" fill="black"/>
<path d="M57.7365 23.1343H55.6771L52.2389 10.4478H54.5057L55.8625 16.0443L56.6992 19.8355H56.7684L57.5982 16.047L58.955 10.4505H61.1941L57.7365 23.1343Z" fill="black"/>
<path d="M18.3058 44.1005V45.9898H4.08227V4.00889H18.3058V6.35219H22.3881V0H0V50H22.3881V44.1005H18.3058Z" fill="black"/>
<path d="M5.22393 26.1194H9.70154V24.6268H5.22393V26.1194Z" fill="black"/>
<path d="M80.364 18.016V21.376H81.414V18.968H88.092V21.376H89.142V18.016H87.952V9H82.506V12.36C82.506 14.796 82.156 16.588 81.246 18.016H80.364ZM82.436 18.016C83.234 16.616 83.514 14.866 83.514 13.018V9.952H86.888V18.016H82.436Z" fill="black"/>
<path d="M96.3287 17.064C96.3287 16.224 95.8667 15.678 95.1247 15.398C95.8247 15.146 96.2167 14.628 96.2167 13.886C96.2167 12.794 95.4047 12.08 94.1867 12.08H90.9947V18.968H94.2707C95.5587 18.968 96.3287 18.24 96.3287 17.064ZM95.2227 13.97C95.2227 14.628 94.8027 15.006 94.0047 15.006H91.9887V12.948H94.0047C94.7887 12.948 95.2227 13.312 95.2227 13.97ZM95.3347 16.966C95.3347 17.652 94.8727 18.1 94.0887 18.1H91.9887V15.832H94.0887C94.8727 15.832 95.3347 16.28 95.3347 16.966Z" fill="black"/>
<path d="M103.806 15.79V15.328C103.806 13.27 102.728 11.996 100.978 11.996C99.2276 11.996 98.1496 13.312 98.1496 15.482C98.1496 17.82 99.1996 19.052 101.188 19.052C101.692 19.052 102.14 18.968 102.518 18.814C102.938 18.646 103.176 18.478 103.68 17.988L102.994 17.386C102.616 17.75 102.434 17.876 102.126 18.002C101.874 18.1 101.566 18.17 101.244 18.17C100.306 18.17 99.6896 17.806 99.3676 17.036C99.2276 16.7 99.1856 16.42 99.1576 15.79H103.806ZM102.798 15.034H99.1576C99.1856 14.418 99.2276 14.194 99.3676 13.886C99.6476 13.242 100.25 12.85 100.978 12.85C101.79 12.85 102.434 13.326 102.672 14.124C102.756 14.376 102.77 14.502 102.798 15.034Z" fill="black"/>
<path d="M111.425 15.538C111.425 13.102 110.627 11.996 108.849 11.996C108.415 11.996 108.051 12.066 107.743 12.22C107.449 12.374 107.281 12.514 106.959 12.892V12.08H105.951V22.048H106.959V18.156C107.295 18.548 107.463 18.688 107.757 18.828C108.079 18.982 108.443 19.052 108.863 19.052C110.613 19.052 111.425 17.932 111.425 15.538ZM110.417 15.538C110.417 17.372 109.899 18.156 108.695 18.156C107.477 18.156 106.959 17.372 106.959 15.524C106.959 13.69 107.477 12.892 108.681 12.892C109.913 12.892 110.417 13.662 110.417 15.538Z" fill="black"/>
<path d="M119.138 18.968V12.08H118.13L114.588 17.386V12.08H113.594V18.968H114.588L118.13 13.634V18.968H119.138Z" fill="black"/>
<path d="M86.524 34.482C86.524 33.194 86.272 32.368 85.684 31.78C85.18 31.276 84.48 30.996 83.71 30.996C82.926 30.996 82.24 31.276 81.736 31.78C81.148 32.382 80.896 33.194 80.896 34.524C80.896 35.854 81.148 36.666 81.736 37.268C82.24 37.772 82.926 38.052 83.71 38.052C84.494 38.052 85.18 37.772 85.684 37.268C86.286 36.652 86.524 35.854 86.524 34.482ZM85.516 34.566C85.516 35.658 85.362 36.246 84.97 36.652C84.662 36.974 84.2 37.156 83.71 37.156C83.22 37.156 82.772 36.974 82.464 36.652C82.058 36.232 81.904 35.644 81.904 34.524C81.904 33.404 82.058 32.802 82.464 32.396C82.772 32.074 83.234 31.892 83.71 31.892C84.2 31.892 84.662 32.074 84.97 32.396C85.376 32.802 85.516 33.39 85.516 34.566Z" fill="black"/>
<path d="M93.0691 31.948V31.08H87.4411V31.948H89.8071V37.968H90.8151V31.948H93.0691Z" fill="black"/>
<path d="M103.301 37.968V31.08H97.9674V37.968H98.9614V31.948H102.293V37.968H103.301Z" fill="black"/>
<path d="M111.289 34.538C111.289 32.102 110.491 30.996 108.713 30.996C108.279 30.996 107.915 31.066 107.607 31.22C107.313 31.374 107.145 31.514 106.823 31.892V31.08H105.815V41.048H106.823V37.156C107.159 37.548 107.327 37.688 107.621 37.828C107.943 37.982 108.307 38.052 108.727 38.052C110.477 38.052 111.289 36.932 111.289 34.538ZM110.281 34.538C110.281 36.372 109.763 37.156 108.559 37.156C107.341 37.156 106.823 36.372 106.823 34.524C106.823 32.69 107.341 31.892 108.545 31.892C109.777 31.892 110.281 32.662 110.281 34.538Z" fill="black"/>
<path d="M118.708 34.482C118.708 33.194 118.456 32.368 117.868 31.78C117.364 31.276 116.664 30.996 115.894 30.996C115.11 30.996 114.424 31.276 113.92 31.78C113.332 32.382 113.08 33.194 113.08 34.524C113.08 35.854 113.332 36.666 113.92 37.268C114.424 37.772 115.11 38.052 115.894 38.052C116.678 38.052 117.364 37.772 117.868 37.268C118.47 36.652 118.708 35.854 118.708 34.482ZM117.7 34.566C117.7 35.658 117.546 36.246 117.154 36.652C116.846 36.974 116.384 37.156 115.894 37.156C115.404 37.156 114.956 36.974 114.648 36.652C114.242 36.232 114.088 35.644 114.088 34.524C114.088 33.404 114.242 32.802 114.648 32.396C114.956 32.074 115.418 31.892 115.894 31.892C116.384 31.892 116.846 32.074 117.154 32.396C117.56 32.802 117.7 33.39 117.7 34.566Z" fill="black"/>
<path d="M126.425 37.968V31.08H125.417L121.875 36.386V31.08H120.881V37.968H121.875L125.417 32.634V37.968H126.425Z" fill="black"/>
<path d="M133.498 36.022C133.498 35.238 133.022 34.622 132.294 34.398C132.994 34.146 133.386 33.544 133.386 32.858C133.386 31.654 132.308 30.996 130.95 30.996C129.998 30.996 129.186 31.192 128.43 31.738L129.004 32.41C129.564 32.018 130.166 31.836 130.852 31.836C131.79 31.836 132.406 32.186 132.406 32.886C132.406 33.6 131.874 33.992 131.118 33.992H130.096V34.832H131.104C131.944 34.832 132.518 35.21 132.518 35.98C132.518 36.736 131.608 37.17 130.782 37.17C129.928 37.17 129.382 36.974 128.766 36.4L128.136 37.058C128.948 37.8 129.788 38.038 130.894 38.038C132.28 38.038 133.498 37.268 133.498 36.022Z" fill="black"/>
<path d="M141.049 36.064C141.049 35.224 140.587 34.678 139.845 34.398C140.545 34.146 140.937 33.628 140.937 32.886C140.937 31.794 140.125 31.08 138.907 31.08H135.715V37.968H138.991C140.279 37.968 141.049 37.24 141.049 36.064ZM139.943 32.97C139.943 33.628 139.523 34.006 138.725 34.006H136.709V31.948H138.725C139.509 31.948 139.943 32.312 139.943 32.97ZM140.055 35.966C140.055 36.652 139.593 37.1 138.809 37.1H136.709V34.832H138.809C139.593 34.832 140.055 35.28 140.055 35.966Z" fill="black"/>
<path d="M148.512 34.482C148.512 33.194 148.26 32.368 147.672 31.78C147.168 31.276 146.468 30.996 145.698 30.996C144.914 30.996 144.228 31.276 143.724 31.78C143.136 32.382 142.884 33.194 142.884 34.524C142.884 35.854 143.136 36.666 143.724 37.268C144.228 37.772 144.914 38.052 145.698 38.052C146.482 38.052 147.168 37.772 147.672 37.268C148.274 36.652 148.512 35.854 148.512 34.482ZM147.504 34.566C147.504 35.658 147.35 36.246 146.958 36.652C146.65 36.974 146.188 37.156 145.698 37.156C145.208 37.156 144.76 36.974 144.452 36.652C144.046 36.232 143.892 35.644 143.892 34.524C143.892 33.404 144.046 32.802 144.452 32.396C144.76 32.074 145.222 31.892 145.698 31.892C146.188 31.892 146.65 32.074 146.958 32.396C147.364 32.802 147.504 33.39 147.504 34.566Z" fill="black"/>
<path d="M156.597 40.026V37.1H155.575V31.08H151.249V32.396C151.249 34.902 150.857 35.952 150.339 37.1H149.527V40.026H150.493V37.968H155.617V40.026H156.597ZM154.567 37.1H151.431C151.879 36.078 152.201 35.07 152.215 33.25V31.948H154.567V37.1Z" fill="black"/>
<path d="M163.873 37.968V31.08H162.865L159.323 36.386V31.08H158.329V37.968H159.323L162.865 32.634V37.968H163.873Z" fill="black"/>
<path d="M170.917 31.948V31.08H165.289V31.948H167.655V37.968H168.663V31.948H170.917Z" fill="black"/>
<path d="M177.456 34.79V34.328C177.456 32.27 176.378 30.996 174.628 30.996C172.878 30.996 171.8 32.312 171.8 34.482C171.8 36.82 172.85 38.052 174.838 38.052C175.342 38.052 175.79 37.968 176.168 37.814C176.588 37.646 176.826 37.478 177.33 36.988L176.644 36.386C176.266 36.75 176.084 36.876 175.776 37.002C175.524 37.1 175.216 37.17 174.894 37.17C173.956 37.17 173.34 36.806 173.018 36.036C172.878 35.7 172.836 35.42 172.808 34.79H177.456ZM176.448 34.034H172.808C172.836 33.418 172.878 33.194 173.018 32.886C173.298 32.242 173.9 31.85 174.628 31.85C175.44 31.85 176.084 32.326 176.322 33.124C176.406 33.376 176.42 33.502 176.448 34.034Z" fill="black"/>
<path d="M184.726 37.968V31.08H180.316V34.034C180.316 36.904 179.476 37.1 178.86 37.1H178.636V37.968H179.098C180.358 37.968 181.282 37.212 181.282 34.328V31.948H183.718V37.968H184.726Z" fill="black"/>
<path d="M191.094 34.44H189.148C188.266 34.44 187.776 33.978 187.776 33.18C187.776 32.368 188.266 31.906 189.148 31.906H191.094V34.44ZM187.944 37.968L189.442 35.266H191.094V37.968H192.088V31.08H188.952C187.65 31.08 186.782 31.906 186.782 33.138C186.782 34.188 187.412 34.944 188.392 35.14L186.782 37.968H187.944Z" fill="black"/>
</svg>
