<svg width="62" height="50" viewBox="0 0 62 50" fill="none" xmlns="http://www.w3.org/2000/svg">
<path d="M20.1598 26.1212C20.8883 26.1001 21.6109 26.2625 22.2658 26.5946C22.8511 26.9111 23.2784 27.4337 23.5475 28.1625C23.7272 28.6991 23.8251 29.2616 23.8375 29.8295C23.8663 30.4923 23.8807 31.2428 23.8807 32.0811C23.8807 33.1137 23.875 33.9976 23.8637 34.7328C23.8672 35.3746 23.7665 36.0124 23.5658 36.6195C23.4341 37.0082 23.2313 37.367 22.9687 37.6761C22.7303 37.9507 22.4445 38.1766 22.126 38.342C21.7982 38.5098 21.4495 38.6294 21.09 38.6974C20.7078 38.7709 20.3198 38.8072 19.9311 38.8059H16.418V26.1212H20.1598ZM21.8582 30.8414C21.8582 29.9787 21.7119 29.2983 21.4192 28.8C21.1266 28.3018 20.604 28.0527 19.8514 28.0527H18.4391V36.869H19.8763C20.6244 36.869 21.1422 36.6656 21.4297 36.2587C21.7171 35.8518 21.8604 35.2834 21.8595 34.5537L21.8582 30.8414Z" fill="black"/>
<path d="M33.5764 34.9128C33.5851 35.4635 33.4837 36.0109 33.2775 36.5269C33.0914 36.9877 32.8033 37.4067 32.4321 37.7565C32.0633 38.0991 31.6213 38.3653 31.1348 38.5376C29.9862 38.9163 28.7294 38.8935 27.5975 38.4735C27.1016 38.2736 26.6638 37.9666 26.3201 37.5776C25.9897 37.1905 25.7464 36.745 25.605 36.2679C25.4485 35.7574 25.3705 35.2288 25.3732 34.6978V29.9796C25.3756 29.5233 25.4503 29.0698 25.5949 28.6339C25.7438 28.165 25.9971 27.7308 26.3382 27.3597C26.6794 26.9886 27.1007 26.6889 27.5746 26.4804C28.1741 26.2254 28.8284 26.1026 29.487 26.1212C30.1155 26.107 30.7395 26.2238 31.3136 26.463C31.8008 26.6729 32.2358 26.9753 32.5909 27.3508C32.9284 27.7117 33.1838 28.1327 33.3418 28.5885C33.4994 29.0376 33.5804 29.507 33.5821 29.9796L33.5764 34.9128ZM31.3465 29.9476C31.3422 29.762 31.3129 29.5776 31.2592 29.3989C31.1988 29.1834 31.0981 28.9795 30.9617 28.7968C30.8099 28.5967 30.615 28.4284 30.3895 28.3028C30.1119 28.1548 29.795 28.083 29.4755 28.0958C29.1555 28.085 28.8376 28.1483 28.5501 28.2801C28.3166 28.3926 28.1128 28.5522 27.9536 28.7474C27.809 28.9281 27.7014 29.1323 27.6361 29.3495C27.5747 29.5483 27.5424 29.754 27.5403 29.9609L27.5588 34.7432C27.5388 35.2769 27.6935 35.8036 28.0023 36.2532C28.2969 36.6609 28.7966 36.8647 29.5013 36.8647C29.984 36.8707 30.4499 36.6996 30.7986 36.3881C31.1629 36.0703 31.3455 35.636 31.3465 35.085V29.9476Z" fill="black"/>
<path d="M42.5322 34.9128C42.5405 35.4634 42.4488 36.0108 42.2617 36.5269C42.0925 36.9877 41.8306 37.4067 41.493 37.7565C41.1577 38.0991 40.7558 38.3653 40.3134 38.5376C39.2691 38.9163 38.1264 38.8935 37.0971 38.4735C36.6463 38.2736 36.2482 37.9666 35.9357 37.5776C35.6353 37.1905 35.4141 36.745 35.2855 36.2679C35.1432 35.7574 35.0722 35.2288 35.0748 34.6978V29.9796C35.0769 29.5233 35.1449 29.0698 35.2764 28.6339C35.4117 28.165 35.642 27.7308 35.9522 27.3597C36.2624 26.9886 36.6455 26.6889 37.0763 26.4804C37.6215 26.2254 38.2164 26.1026 38.8152 26.1212C39.3867 26.107 39.954 26.2238 40.476 26.463C40.919 26.6729 41.3146 26.9753 41.6374 27.3508C41.9443 27.7114 42.1762 28.1326 42.3189 28.5885C42.4628 29.0375 42.5365 29.507 42.5374 29.9796L42.5322 34.9128ZM40.5059 29.9476C40.5014 29.762 40.4748 29.5778 40.4266 29.3989C40.3717 29.1834 40.2801 28.9795 40.1561 28.7968C40.0181 28.5967 39.8409 28.4284 39.6358 28.3028C39.3834 28.1548 39.0953 28.083 38.8048 28.0958C38.5113 28.0856 38.2199 28.1502 37.9568 28.2841C37.7451 28.3969 37.5603 28.5565 37.4158 28.7514C37.289 28.9314 37.1952 29.1336 37.1388 29.3481C37.0829 29.547 37.0536 29.7527 37.0516 29.9596L37.0685 34.7419C37.0505 35.2754 37.1906 35.8019 37.4704 36.2519C37.7383 36.6595 38.1931 36.8634 38.8347 36.8634C39.2736 36.8694 39.6972 36.6982 40.0143 36.3867C40.3455 36.069 40.5116 35.6346 40.5124 35.0837L40.5059 29.9476Z" fill="black"/>
<path d="M50.0823 38.806L48.281 33.5137H46.737V38.806H44.7761V26.1195H48.649C49.1188 26.1153 49.586 26.1923 50.0322 26.3475C50.4403 26.4871 50.8148 26.7186 51.1297 27.026C51.4449 27.3457 51.69 27.7343 51.8477 28.1645C52.0287 28.6744 52.116 29.216 52.105 29.7603C52.1233 30.4865 51.9562 31.2045 51.6212 31.8392C51.2885 32.4318 50.7862 32.8978 50.1866 33.1704L52.2388 38.806H50.0823ZM50.1686 29.7617C50.1686 29.1664 50.0244 28.7259 49.7362 28.44C49.448 28.1541 49.0333 28.0112 48.492 28.0112H46.746V31.6397H48.474C48.9938 31.6397 49.406 31.4819 49.7105 31.1662C50.015 30.8504 50.1677 30.3836 50.1686 29.7658V29.7617Z" fill="black"/>
<path d="M61.1938 35.1487C61.1938 36.2837 60.8387 37.1772 60.1286 37.8293C59.4184 38.4813 58.4156 38.8068 57.1202 38.806C56.091 38.806 55.2395 38.6076 54.5659 38.2109C53.9145 37.8362 53.3708 37.307 52.9851 36.6725L54.7122 35.4529C54.9724 35.8611 55.3165 36.2123 55.7227 36.4843C56.1499 36.7514 56.65 36.8858 57.1571 36.8699C57.8299 36.8699 58.3044 36.7111 58.5806 36.3936C58.86 36.0633 59.0059 35.6447 58.9909 35.2168C58.9986 34.9621 58.9418 34.7096 58.8254 34.4816C58.7139 34.2735 58.5577 34.0915 58.3673 33.9479C58.1485 33.7856 57.9067 33.6553 57.6494 33.5609C57.3677 33.4533 57.0619 33.3514 56.7319 33.2554C56.1947 33.0941 55.672 32.8902 55.1689 32.6456C54.7771 32.4558 54.4203 32.2037 54.1132 31.8998C53.8409 31.6251 53.6365 31.2933 53.5157 30.9297C53.3872 30.526 53.3254 30.1049 53.3324 29.6822C53.327 29.1934 53.4199 28.7084 53.6059 28.2545C53.7831 27.826 54.0526 27.4396 54.3963 27.1217C54.7493 26.7994 55.165 26.5494 55.6188 26.3866C56.1273 26.2038 56.6658 26.1133 57.2077 26.1197C58.164 26.1197 58.9389 26.2754 59.5324 26.5867C60.1112 26.8845 60.6015 27.3229 60.9559 27.8596L59.3573 29.1685C59.1113 28.8173 58.7832 28.5283 58.4001 28.3253C58.0179 28.1409 57.5957 28.0494 57.1695 28.0584C56.6225 28.0584 56.1999 28.2047 55.9018 28.4974C55.7561 28.6427 55.6419 28.8152 55.566 29.0045C55.4901 29.1939 55.4541 29.3962 55.4602 29.5995C55.4546 29.8333 55.5255 30.0628 55.6625 30.2546C55.8101 30.4521 55.9959 30.6193 56.2095 30.747C56.4703 30.904 56.7477 31.0333 57.0368 31.1326C57.3554 31.2473 57.6918 31.3567 58.0473 31.4648C58.5702 31.6114 59.073 31.8193 59.5447 32.0839C59.913 32.2922 60.24 32.5634 60.5101 32.8845C60.754 33.1809 60.9323 33.5235 61.0338 33.8905C61.1444 34.3011 61.1982 34.7242 61.1938 35.1487Z" fill="black"/>
<path d="M21.7209 23.1316L19.9211 17.8416H18.3785V23.1316H16.418V10.4479H20.2875C20.7568 10.4443 21.2236 10.5213 21.6695 10.6757C22.0826 10.8155 22.4604 11.0521 22.7746 11.3678C23.0887 11.6835 23.3311 12.0702 23.4834 12.4988C23.6643 13.0084 23.7515 13.5498 23.7405 14.0939C23.7588 14.8197 23.5919 15.5374 23.2572 16.1719C22.9247 16.7642 22.4229 17.23 21.8238 17.5025L23.8807 23.1343L21.7209 23.1316ZM21.807 14.0912C21.807 13.4953 21.6631 13.0549 21.3751 12.77C21.0871 12.4852 20.671 12.3432 20.1268 12.3441H18.3875V15.9712H20.1152C20.6295 15.9712 21.0408 15.8134 21.3494 15.4978C21.6579 15.1822 21.8105 14.7142 21.807 14.0939V14.0912Z" fill="black"/>
<path d="M25.3732 23.1343V21.2764L29.8099 12.3463H25.565V10.4478H32.0896V12.2107L27.6529 21.1612H32.0896V23.1343H25.3732Z" fill="black"/>
<path d="M39.7892 23.1343V17.6492H36.3473V23.1343H34.3284V10.4478H36.3473V15.7715H39.7892V10.4478H41.7911V23.1343H39.7892Z" fill="black"/>
<path d="M44.7761 23.1343V10.4478H51.4913V12.3811H46.7545V15.7728H50.8327V17.6722H46.7545V21.1725H51.4925V23.1343H44.7761Z" fill="black"/>
<path d="M57.7365 23.1343H55.6771L52.2389 10.4478H54.5057L55.8625 16.0443L56.6992 19.8355H56.7684L57.5982 16.047L58.955 10.4505H61.1941L57.7365 23.1343Z" fill="black"/>
<path d="M18.3058 44.1005V45.9898H4.08227V4.00889H18.3058V6.35219H22.3881V0H0V50H22.3881V44.1005H18.3058Z" fill="black"/>
<path d="M5.22393 26.1194H9.70154V24.6268H5.22393V26.1194Z" fill="black"/>
</svg>
