<svg width="17" height="17" viewBox="0 0 17 17" fill="none" xmlns="http://www.w3.org/2000/svg">
<path d="M16.0087 15.3419L12.045 11.4695C12.9221 10.3654 13.4494 8.97771 13.4494 7.46784C13.4494 3.88679 10.5047 0.973633 6.88505 0.973633C3.26541 0.973633 0.321411 3.88679 0.321411 7.46784C0.321411 11.0489 3.26614 13.9621 6.88505 13.9621C8.45887 13.9621 9.90396 13.4107 11.0363 12.4934L14.9803 16.3466C15.1221 16.4851 15.3083 16.5548 15.4945 16.5548C15.6807 16.5548 15.8669 16.4851 16.0087 16.3466C16.293 16.0695 16.293 15.6197 16.0087 15.3419ZM1.77596 7.46784C1.77596 4.6705 4.06759 2.39469 6.88505 2.39469C9.7025 2.39469 11.9949 4.6705 11.9949 7.46784C11.9949 10.2652 9.7025 12.541 6.88505 12.541C4.06759 12.541 1.77596 10.2652 1.77596 7.46784Z" fill="black"/>
</svg>
