<svg width="27" height="26" viewBox="0 0 27 26" fill="none" xmlns="http://www.w3.org/2000/svg">
<path d="M25.6376 12.5724C25.6376 19.2389 20.223 24.6447 13.5417 24.6447C6.86044 24.6447 1.4458 19.2389 1.4458 12.5724C1.4458 5.90587 6.86044 0.5 13.5417 0.5C20.223 0.5 25.6376 5.90587 25.6376 12.5724Z" stroke="black" stroke-opacity="0.5"/>
<path d="M19.6786 9.60194C19.7685 9.30932 19.6786 9.09473 19.2536 9.09473H17.8458C17.4876 9.09473 17.3239 9.28037 17.234 9.48426C17.234 9.48426 16.5182 11.1953 15.5039 12.3048C15.1765 12.6276 15.027 12.7296 14.8485 12.7296C14.7593 12.7296 14.6296 12.6276 14.6296 12.335V9.60194C14.6296 9.25079 14.5262 9.09473 14.2277 9.09473H12.0155C11.7921 9.09473 11.6573 9.25709 11.6573 9.41189C11.6573 9.74416 12.1644 9.82094 12.2164 10.7573V12.7887C12.2164 13.2336 12.1349 13.3148 11.9552 13.3148C11.4782 13.3148 10.3175 11.5975 9.62868 9.63152C9.49451 9.24953 9.35906 9.09536 8.99956 9.09536H7.59238C7.18986 9.09536 7.10962 9.281 7.10962 9.48489C7.10962 9.85115 7.5866 11.6635 9.33146 14.0605C10.4947 15.6973 12.1323 16.5847 13.6243 16.5847C14.5185 16.5847 14.6289 16.3877 14.6289 16.0479V14.8107C14.6289 14.4167 14.7143 14.3374 14.9974 14.3374C15.2054 14.3374 15.5636 14.4406 16.3988 15.2291C17.3528 16.1643 17.5107 16.584 18.0468 16.584H19.4539C19.8558 16.584 20.0567 16.3871 19.9412 15.9981C19.8147 15.6111 19.3589 15.0479 18.7542 14.3815C18.4255 14.0014 17.9344 13.5923 17.7848 13.3878C17.5762 13.1241 17.6365 13.0077 17.7848 12.7736C17.7848 12.7736 19.5002 10.4068 19.6786 9.60194Z" fill="black" fill-opacity="0.5"/>
</svg>
