<svg width="81" height="82" viewBox="0 0 81 82" fill="none" xmlns="http://www.w3.org/2000/svg">
<path fill-rule="evenodd" clip-rule="evenodd" d="M40.3247 0.402588C62.5955 0.402588 80.6494 18.4565 80.6494 40.7273C80.6494 62.9981 62.5955 81.0519 40.3247 81.0519C18.0539 81.0519 0 62.9981 0 40.7273C0 18.4565 18.0539 0.402588 40.3247 0.402588ZM55.7044 33.9128C56.3346 31.3633 56.8445 28.8445 56.6673 26.4855C56.5841 25.3848 56.3478 24.3212 55.9101 23.3036C55.5293 22.4261 54.7349 21.7871 53.8574 22.0147C52.4634 22.3714 52.1943 24.8289 51.4896 25.934C50.7303 27.1223 48.4566 28.8599 48.8899 30.0963C49.0628 30.5887 49.5004 31.081 50.1241 31.5756C49.7521 31.7222 49.2006 31.7419 48.6929 31.8185C47.0188 32.0767 46.5308 33.7946 47.1655 35.2104C47.5243 36.0114 48.3406 36.5847 49.0387 36.7532C49.8637 36.9546 50.8244 36.4644 51.9733 35.6503C52.8092 35.0594 53.5029 35.4008 53.8158 35.7181C53.1878 36.3965 52.726 37.0443 52.5422 37.6417C52.2884 38.4645 52.7282 38.6308 53.1068 38.5499C53.6933 38.4251 54.3761 37.7621 54.6977 37.4601C55.3499 36.8517 55.9035 36.1405 56.3609 35.3483C57.5163 35.2695 58.6608 34.9566 59.7835 34.4489C60.6894 34.0375 61.602 33.4554 62.4795 32.812C63.0025 32.4247 63.7312 31.9411 63.7619 31.4881C63.7816 31.2014 63.5759 30.8141 62.6655 30.8272C61.2737 30.8469 59.9695 31.7704 58.5624 32.5516C57.6345 33.0659 56.7176 33.4598 55.7066 33.9128H55.7044ZM41.246 6.78162C42.106 25.91 21.4939 22.8572 16.2879 41.7142C13.5371 30.2998 14.8479 19.7651 22.3759 10.5872C12.1191 16.7102 5.24985 27.9167 5.24985 40.7295C5.24985 58.9474 19.1393 73.9245 36.9021 75.6423C39.5566 75.8984 40.6661 75.7649 43.1542 74.4519C52.2949 69.6288 61.8843 58.0721 64.4118 48.1895C56.943 61.8361 48.0802 69.0007 38.6681 73.6334C37.6483 50.9556 62.0834 54.5751 68.2567 32.219C71.4977 45.6707 69.9812 58.0896 61.195 68.9263C69.817 62.5341 75.4083 52.2839 75.4083 40.7273C75.4083 21.3538 59.7025 5.64806 40.3291 5.64806C39.4318 5.64806 38.609 5.80781 37.8343 6.08135C36.8014 6.44462 35.8539 7.01577 34.937 7.68103C27.9102 12.7908 21.7281 19.66 19.5332 28.2427C25.8313 16.732 33.311 10.6878 41.2503 6.77943L41.246 6.78162Z" fill="white"/>
</svg>
