<svg width="16" height="16" viewBox="0 0 16 16" fill="none" xmlns="http://www.w3.org/2000/svg">
<path fill-rule="evenodd" clip-rule="evenodd" d="M4.32612 8.03363C3.85205 7.35821 3.43151 6.61398 3.26839 5.85956C3.04155 4.81203 3.27349 4.27934 4.08654 3.58609C4.61922 3.12986 5.0729 2.8444 5.68459 3.33886C6.13062 3.70078 6.6684 4.28699 6.987 4.82987C7.25206 5.28099 7.10424 5.48999 6.85701 5.90289C6.55371 6.40244 6.32687 6.52733 6.72702 7.13392C7.18835 7.83483 7.96316 8.60964 8.66406 9.07096C9.27066 9.47111 9.39555 9.24428 9.8951 8.94098C10.3054 8.6912 10.517 8.54592 10.9681 8.81099C11.511 9.12958 12.0972 9.66737 12.4591 10.1134C12.9536 10.7225 12.6656 11.1788 12.2119 11.7115C11.5186 12.522 10.986 12.7564 9.93843 12.5296C9.18655 12.3665 8.43977 11.9485 7.76436 11.4719C6.55116 10.618 5.18249 9.24683 4.32866 8.03618L4.32612 8.03363Z" fill="#538C37"/>
<path d="M11.1658 12.0861C10.9032 11.8236 10.9058 11.3979 11.1683 11.138C11.4308 10.8755 11.8565 10.878 12.1164 11.1405L13.6661 12.7029C13.926 12.9654 13.926 13.3885 13.6635 13.651C12.1012 15.2159 10.052 15.9984 8.00278 15.9984C5.9536 15.9984 3.90442 15.2185 2.34459 13.6587L2.30636 13.6179C0.769474 12.0606 -0.000244141 10.0293 -0.000244141 8.00048C-0.000244141 5.95385 0.782218 3.90466 2.34204 2.34229C3.90442 0.779913 5.95105 0 8.00024 0C10.0443 0 12.0935 0.782462 13.6559 2.34484C14.4868 3.17317 15.0985 4.14424 15.4859 5.17903C15.8886 6.25205 16.0542 7.39643 15.9803 8.52297C15.9574 8.89254 15.6388 9.17545 15.2692 9.15251C14.8997 9.12957 14.6168 8.81098 14.6397 8.44141C14.7009 7.49838 14.5632 6.54515 14.2293 5.65309C13.9082 4.79672 13.3985 3.98877 12.7052 3.29551C11.4079 1.99566 9.70534 1.34573 8.00024 1.34573C6.29768 1.34573 4.59513 1.99566 3.29527 3.29551C1.99796 4.59282 1.34549 6.29792 1.34549 8.00048C1.34549 9.69029 1.98522 11.3801 3.25959 12.6749L3.29272 12.7054C4.59258 14.0053 6.29768 14.6578 8.00024 14.6552C9.4938 14.6552 10.9899 14.1506 12.2133 13.1464L11.1607 12.0836L11.1658 12.0861Z" fill="#538C37"/>
</svg>
