<svg width="22" height="22" viewBox="0 0 22 22" fill="none" xmlns="http://www.w3.org/2000/svg">
<path fill-rule="evenodd" clip-rule="evenodd" d="M5.94823 11.0462C5.29639 10.1175 4.71814 9.09421 4.49385 8.05687C4.18195 6.61652 4.50086 5.88408 5.6188 4.93085C6.35125 4.30354 6.97505 3.91104 7.81613 4.59091C8.42942 5.08855 9.16887 5.89459 9.60694 6.64105C9.97141 7.26135 9.76814 7.54872 9.42821 8.11645C9.01117 8.80334 8.69927 8.97506 9.24948 9.80913C9.88379 10.7729 10.9492 11.8382 11.9129 12.4726C12.747 13.0228 12.9187 12.7109 13.6056 12.2938C14.1698 11.9504 14.4607 11.7506 15.081 12.1151C15.8274 12.5532 16.6335 13.2926 17.1311 13.9059C17.811 14.7435 17.415 15.3708 16.7912 16.1032C15.838 17.2177 15.1055 17.5401 13.6652 17.2282C12.6313 17.0039 11.6045 16.4292 10.6758 15.7738C9.00766 14.5998 7.12574 12.7144 5.95173 11.0497L5.94823 11.0462Z" fill="white"/>
<path d="M15.353 16.6184C14.9921 16.2574 14.9956 15.6722 15.3565 15.3147C15.7175 14.9537 16.3027 14.9572 16.6602 15.3182L18.7909 17.4665C19.1484 17.8274 19.1484 18.4092 18.7874 18.7702C16.6392 20.9219 13.8215 21.9978 11.0039 21.9978C8.18629 21.9978 5.36867 20.9254 3.22391 18.7807L3.17134 18.7246C1.05812 16.5833 -0.000244141 13.7902 -0.000244141 11.0007C-0.000244141 8.18654 1.07564 5.36891 3.2204 3.22064C5.36867 1.07238 8.18279 0 11.0004 0C13.811 0 16.6287 1.07588 18.7769 3.22415C19.9194 4.36311 20.7605 5.69833 21.2932 7.12116C21.8469 8.59656 22.0747 10.1701 21.973 11.7191C21.9415 12.2272 21.5034 12.6162 20.9953 12.5847C20.4871 12.5532 20.0981 12.1151 20.1297 11.6069C20.2138 10.3103 20.0245 8.99958 19.5654 7.773C19.1239 6.59549 18.423 5.48456 17.4697 4.53133C15.6859 2.74403 13.3449 1.85038 11.0004 1.85038C8.6594 1.85038 6.31839 2.74403 4.53109 4.53133C2.74729 6.31513 1.85014 8.65965 1.85014 11.0007C1.85014 13.3241 2.72977 15.6476 4.48203 17.4279L4.52758 17.47C6.31489 19.2573 8.6594 20.1544 11.0004 20.1509C13.0541 20.1509 15.1112 19.457 16.7934 18.0763L15.346 16.6149L15.353 16.6184Z" fill="white"/>
</svg>
