<svg width="18" height="18" viewBox="0 0 18 18" fill="none" xmlns="http://www.w3.org/2000/svg">
<path fill-rule="evenodd" clip-rule="evenodd" d="M11.1706 0.60144C9.00079 0.60144 7.24183 2.40408 7.24183 4.62775C7.24183 5.78671 7.71996 6.83103 8.48481 7.56555C6.91653 9.81302 3.21992 8.2161 1.59008 6.95403C0.865944 6.39308 0.542083 6.43236 0.274515 7.36522C0.124801 7.88665 0 8.74513 0 10.1567C0 13.682 3.18639 17.2811 8.29174 17.5782C13.3969 17.875 15.3695 15.2821 16.0402 12.7169C16.5679 10.6985 14.5613 8.54825 13.6819 7.7234C13.9181 7.52185 14.1311 7.29256 14.3155 7.04044C16.1355 7.36866 17.8957 5.64261 17.9956 4.92455C18.0938 4.21999 16.5353 5.13763 15.0986 4.58061C15.0737 2.37855 13.3248 0.60144 11.1706 0.60144ZM12.673 3.4403C12.3328 3.4403 12.0573 3.72262 12.0573 4.07122C12.0573 4.41957 12.3328 4.70213 12.673 4.70213C13.0129 4.70213 13.2883 4.41957 13.2883 4.07122C13.2883 3.72262 13.0129 3.4403 12.673 3.4403ZM12.673 2.82805C12.003 2.82805 11.4599 3.38458 11.4599 4.07122C11.4599 4.75761 12.003 5.31414 12.673 5.31414C13.3427 5.31414 13.8858 4.75761 13.8858 4.07122C13.8858 3.38458 13.3427 2.82805 12.673 2.82805Z" fill="#9ABF24"/>
</svg>
