<svg width="18" height="19" viewBox="0 0 18 19" fill="none" xmlns="http://www.w3.org/2000/svg">
<path d="M3.84726 12.3727V16.3969C3.84726 16.4861 3.92107 16.5564 4.0041 16.5564H13.8713C13.959 16.5564 14.0282 16.4814 14.0282 16.3969V12.3727C14.0282 12.2836 13.9544 12.2133 13.8713 12.2133H4.00871C3.92107 12.2133 3.84726 12.2883 3.84726 12.3727ZM0.345976 11.5097H1.5592V9.31005C1.5592 8.57837 1.6653 7.85139 1.86827 7.15255L1.07945 2.30758C1.06561 2.24661 1.07022 2.18563 1.08867 2.12466C1.12096 2.01679 1.20861 1.93236 1.31471 1.89484L3.61199 1.17255C3.75039 1.13034 3.90723 1.17724 3.99487 1.29919L5.12506 2.85633C5.16658 2.82819 5.21271 2.80474 5.25423 2.7766C5.77089 1.13503 7.28857 0 9.00461 0C10.716 0 12.2383 1.13503 12.755 2.7766C12.7919 2.80005 12.8334 2.8235 12.8703 2.84695L13.9959 1.29919C14.0835 1.17724 14.2358 1.12565 14.3788 1.17255L16.6668 1.89953C16.7683 1.93236 16.8514 2.00741 16.8883 2.11059C16.9159 2.18563 16.9159 2.26537 16.8929 2.34041L16.1179 7.11972C16.3301 7.82794 16.4408 8.5643 16.4408 9.31005V11.5097H17.654C17.8432 11.5097 18 11.6692 18 11.8615V13.7376C18 14.685 17.3265 15.4777 16.4408 15.6418V16.6455C16.4408 17.9447 15.4029 19 14.1251 19H3.87494C2.59713 19 1.5592 17.9447 1.5592 16.6455V15.6418C0.673502 15.4777 0 14.685 0 13.7376V11.8615C0 11.6692 0.152229 11.5097 0.345976 11.5097ZM9 0.70822C7.84675 0.70822 6.79959 1.33202 6.22296 2.29351C7.10405 1.93236 8.0451 1.74475 9 1.74475C9.95028 1.74475 10.896 1.93236 11.777 2.29351C11.2004 1.33202 10.1533 0.70822 9 0.70822ZM14.4018 1.92298L13.4423 3.25031C13.959 3.63959 14.4203 4.09454 14.8216 4.60578L16.0533 2.44359L14.4018 1.92298ZM2.25115 9.93384L2.87852 9.34757C2.91543 7.73883 3.55664 6.22859 4.68683 5.0748C5.85392 3.88818 7.39928 3.23624 9.04152 3.23624C12.3906 3.23624 15.1261 5.96593 15.2045 9.35226L15.7535 9.90101V9.31005C15.7535 8.60652 15.6474 7.91237 15.4398 7.24636C15.2414 6.6038 14.9462 5.99876 14.5725 5.44063C14.0835 4.71834 13.4792 4.10392 12.7642 3.61614C12.612 3.51296 12.4552 3.40978 12.2937 3.32066C11.2927 2.74846 10.1533 2.44359 9.00461 2.44359C7.85597 2.44359 6.71656 2.74846 5.71553 3.32066C5.54946 3.41447 5.38801 3.51765 5.23116 3.62552C4.87596 3.86941 4.53921 4.15083 4.23475 4.46038C3.93491 4.76524 3.66274 5.09825 3.42747 5.45001C3.05382 6.00346 2.7632 6.61318 2.56484 7.25105C2.35725 7.91706 2.25115 8.60652 2.25115 9.30536V9.93384ZM3.17376 4.61985C3.35367 4.39003 3.5428 4.17428 3.74577 3.96791C3.99487 3.71464 4.26704 3.47544 4.54844 3.25969L3.5797 1.92767L1.93286 2.44828L3.17376 4.61985Z" fill="#9ABF24"/>
</svg>
