<svg width="18" height="23" viewBox="0 0 18 23" fill="none" xmlns="http://www.w3.org/2000/svg">
<path d="M17.7727 15.1036C18.0758 14.8057 18.0758 14.3242 17.7727 14.0264C17.4697 13.7285 16.98 13.7285 16.677 14.0264C15.0023 15.672 12.7767 16.5786 10.4092 16.5786C8.04101 16.5786 5.81459 15.6728 4.14072 14.0264C0.685244 10.6276 0.685244 5.09721 4.14072 1.69927C4.44372 1.40137 4.44372 0.91987 4.14072 0.621978C3.83771 0.324087 3.34795 0.324087 3.04495 0.621978C-1.01498 4.61419 -1.01498 11.1107 3.04495 15.1036C4.82809 16.8567 7.14517 17.8852 9.63429 18.065V20.8748H6.31443C5.88589 20.8748 5.53949 21.2154 5.53949 21.6367C5.53949 22.058 5.88589 22.3986 6.31443 22.3986H14.5017C14.9303 22.3986 15.2767 22.058 15.2767 21.6367C15.2767 21.2154 14.9303 20.8748 14.5017 20.8748H11.1834V18.065C13.6725 17.8852 15.9888 16.8567 17.7727 15.1036Z" fill="#9ABF24"/>
<path d="M5.14117 13.0428C8.05031 15.9028 12.7674 15.9028 15.6773 13.0428C18.588 10.1812 18.588 5.54291 15.6773 2.68284C12.7674 -0.177987 8.05108 -0.177987 5.14117 2.68284C2.23126 5.54367 2.23126 10.1812 5.14117 13.0428ZM12.0684 2.01925C14.9953 3.06987 15.7346 5.39663 15.3875 6.04117C15.0403 6.68572 15.4642 8.31765 14.5381 8.39383C13.6121 8.47002 12.531 8.09061 11.3345 7.44454C10.1372 6.8 12.569 6.7619 13.168 5.14902C13.7655 3.5369 13.2254 2.8535 10.4077 3.11863L10.2542 3.27101C10.2542 3.27101 11.3709 1.76936 12.0684 2.01925ZM5.4496 4.31477C5.4496 4.31477 3.80439 6.0785 5.69603 6.11736C7.58611 6.15469 9.65521 5.11169 9.07633 6.97066C8.49745 8.82962 7.53264 11.5251 8.72916 11.2585C9.92567 10.9933 11.894 10.044 12.5892 10.2718C13.2835 10.4996 11.9328 13.4976 11.9328 13.4976C11.9328 13.4976 9.38553 13.877 8.41995 13.0793C7.45592 12.2832 6.91501 11.676 6.93361 10.6315C6.95299 9.58845 6.37488 9.77892 5.56429 8.90505C4.75447 8.03347 2.94033 4.88389 5.4496 4.31477Z" fill="#9ABF24"/>
</svg>
