<svg width="19" height="13" viewBox="0 0 19 13" fill="none" xmlns="http://www.w3.org/2000/svg">
<path d="M9.15739 8.14126L3.06137 6.08251C2.95442 6.05578 2.84747 6.13599 2.84747 6.24293V11.5636C2.84747 11.6171 2.87421 11.6705 2.92768 11.6973C3.302 11.9379 5.14685 12.9004 9.21087 12.9004C13.4086 12.9004 15.1465 11.9379 15.4941 11.6973C15.5475 11.6705 15.5743 11.6171 15.5743 11.5636V6.24293C15.5743 6.13599 15.4673 6.05578 15.3604 6.08251L9.26434 8.14126C9.23761 8.14126 9.18413 8.14126 9.15739 8.14126Z" fill="#9ABF24"/>
<path d="M18.9966 11.1091C18.9164 10.5743 18.7025 10.0396 18.3817 9.58506C18.3549 9.53158 18.141 9.3979 18.0341 9.31769C17.9806 9.29095 17.9539 9.23748 17.9539 9.15727C17.9539 9.15727 17.9539 4.95956 17.9539 4.18419C17.9539 4.10398 18.0073 4.05051 18.0608 4.02377L18.3015 3.94356C18.4619 3.89009 18.4619 3.67619 18.3015 3.62272L9.26436 0.60144C9.23762 0.60144 9.18415 0.60144 9.15741 0.60144L0.120316 3.64945C-0.0401054 3.70293 -0.0401054 3.91682 0.120316 3.9703L9.15741 7.01831C9.18415 7.01831 9.23762 7.01831 9.26436 7.01831L17.0181 4.39809C17.0983 4.37135 17.1785 4.42483 17.1785 4.53177V9.21074C17.1785 9.29095 17.125 9.34443 17.0448 9.37116C16.8844 9.42464 16.724 9.50485 16.5903 9.63853C16.4566 9.77222 16.4031 9.93264 16.3496 10.0396C16.2427 10.3337 16.1358 10.6545 16.1358 11.0289C16.1358 11.0823 16.1358 11.0823 16.109 11.216C16.0555 11.4299 16.1892 11.6171 16.4031 11.6705C16.4299 11.6705 16.4566 11.6705 16.4833 11.6705C16.6438 11.6705 16.8042 11.5636 16.8577 11.3764C16.9111 11.1893 16.9111 11.1358 16.9111 11.0289C16.9111 10.815 16.9913 10.5476 17.0983 10.307C17.125 10.2535 17.1518 10.1733 17.1785 10.1465L17.2052 10.1198C17.2052 10.5209 17.2052 10.9219 17.2052 11.2962C17.2052 11.5101 17.3657 11.6705 17.5796 11.6705C17.7934 11.6705 17.9539 11.5101 17.9539 11.2962C17.9539 10.9754 17.9539 10.6278 17.9539 10.307C18.1143 10.6011 18.2212 10.8952 18.248 11.216C18.2747 11.4299 18.4886 11.5636 18.6758 11.5369C18.8897 11.5101 19.0233 11.323 18.9966 11.1091Z" fill="#9ABF24"/>
</svg>
