<svg width="12" height="20" viewBox="0 0 12 20" fill="none" xmlns="http://www.w3.org/2000/svg">
<path d="M5.70481 0C2.75931 0 0 2.04621 0 5.74589C0 8.83294 0.00419984 5.82707 0.00419984 5.82707L0.0303991 15.5336C0.0217994 17.7546 1.78934 20 4.13086 20C6.73898 20 8.76691 17.4912 8.76691 14.3786C8.76691 14.0518 8.75371 14.0775 8.77251 14.075C10.6968 12.7895 12 10.3352 12 7.51466C12.0002 3.3647 9.18209 0 5.70481 0ZM8.9623 9.85481C8.45832 10.5832 7.87054 11.1457 7.35175 11.6419C6.77997 12.1885 6.31319 12.6401 6.1398 13.1129C6.1432 13.1629 6.15279 13.2099 6.15279 13.2597C6.15279 14.365 5.34982 15.2599 4.35965 15.2599C3.36969 15.2599 2.56671 14.365 2.56671 13.2597C2.56671 12.1557 3.36969 11.2605 4.35965 11.2605C4.85564 11.2605 5.30482 11.4853 5.62921 11.8484C5.9222 11.4657 6.28799 11.1126 6.66598 10.7509C7.16956 10.2687 7.69054 9.77029 8.12853 9.13736C8.69651 8.31687 8.8725 6.37414 8.26153 5.36073C6.82137 2.9713 4.69804 4.18966 4.60805 4.24296C4.35145 4.39528 4.03267 4.28578 3.89607 3.9992C3.75987 3.71262 3.85807 3.35757 4.11446 3.20525C5.16383 2.58503 7.56415 2.09907 9.13509 4.7055C10.0247 6.17989 9.77227 8.68396 8.9623 9.85481Z" fill="#9ABF24"/>
</svg>
