<svg width="18" height="19" viewBox="0 0 18 19" fill="none" xmlns="http://www.w3.org/2000/svg">
<path fill-rule="evenodd" clip-rule="evenodd" d="M10.4006 11.2982C7.66964 10.5208 4.9647 9.76935 2.23374 8.99195C1.45347 9.12152 1.21938 9.71753 1.81759 11.0391C4.62658 11.8943 7.46157 12.7494 10.2706 13.6045C12.4813 10.9355 14.328 8.7069 16.5388 6.06374L17.6571 6.99662L10.8948 15.263C7.8257 14.4079 4.80864 13.4491 1.71356 12.5939C1.40145 13.1899 1.34943 13.8378 1.89562 14.5633C4.7046 15.4703 7.48758 16.3773 10.2966 17.2842L16.7468 9.56205L17.8652 10.4172L10.8167 18.9945C10.6867 19.1241 2.67589 16.9214 1.24539 15.9108C-0.211118 14.9002 -0.289145 13.2158 0.491128 11.6869C-0.211118 10.2099 -0.0550632 8.83647 0.699201 7.5408C2.96199 5.0272 5.2508 2.5136 7.5396 0C7.5396 0 17.7872 2.38403 17.9953 2.38403C18.2033 2.38403 11.493 10.0544 10.4006 11.2982ZM9.46427 2.1249L13.2096 2.98004C13.4957 3.03187 13.5737 3.31692 13.3916 3.57605L12.6894 4.53484C12.5073 4.79398 12.1172 4.94946 11.8311 4.89763L8.08579 4.04249C7.79969 3.96475 7.72166 3.70562 7.90373 3.44648L8.60597 2.48769C8.78804 2.22855 9.17817 2.04716 9.46427 2.1249Z" fill="#9ABF24"/>
</svg>
