<svg width="16" height="16" viewBox="0 0 16 16" fill="none" xmlns="http://www.w3.org/2000/svg">
<path fill-rule="evenodd" clip-rule="evenodd" d="M6.33075 2.08783C6.65043 2.2705 6.76149 2.67774 6.57882 2.99742L4.48211 6.66666H11.5179L9.42116 2.99742C9.23849 2.67774 9.34955 2.2705 9.66923 2.08783C9.98891 1.90516 10.3961 2.01622 10.5788 2.3359L13.0535 6.66666H13.7188C13.728 6.66646 13.7374 6.66646 13.7467 6.66666H14.6667C15.0348 6.66666 15.3333 6.96514 15.3333 7.33333C15.3333 7.70152 15.0348 7.99999 14.6667 7.99999H14.2642L13.2514 12.4087C13.1565 12.8637 12.906 13.2715 12.5429 13.562C12.1794 13.8528 11.7259 14.0077 11.2606 14H4.73933C4.27404 14.0077 3.82055 13.8528 3.45705 13.562C3.09274 13.2706 2.84181 12.8609 2.74763 12.4041L1.7954 7.99999H1.33332C0.965133 7.99999 0.666656 7.70152 0.666656 7.33333C0.666656 6.96514 0.965133 6.66666 1.33332 6.66666H2.32039C2.32947 6.66647 2.33853 6.66647 2.34755 6.66666H2.94644L5.42116 2.3359C5.60383 2.01622 6.01107 1.90516 6.33075 2.08783Z" fill="white"/>
</svg>
