<svg width="20" height="20" viewBox="0 0 20 20" fill="none" xmlns="http://www.w3.org/2000/svg">
<g clip-path="url(#clip0_736_533)">
<mask id="mask0_736_533" style="mask-type:luminance" maskUnits="userSpaceOnUse" x="0" y="0" width="20" height="20">
<path d="M15.2 0H4.8C2.14903 0 0 2.14903 0 4.8V15.2C0 17.851 2.14903 20 4.8 20H15.2C17.851 20 20 17.851 20 15.2V4.8C20 2.14903 17.851 0 15.2 0Z" fill="white"/>
</mask>
<g mask="url(#mask0_736_533)">
<path d="M15.2 0H4.8C2.14903 0 0 2.14903 0 4.8V15.2C0 17.851 2.14903 20 4.8 20H15.2C17.851 20 20 17.851 20 15.2V4.8C20 2.14903 17.851 0 15.2 0Z" fill="#06483A"/>
<path d="M15 7L8.925 13L6 10.3103" stroke="white" stroke-width="2" stroke-linecap="round" stroke-linejoin="round"/>
</g>
</g>
<defs>
<clipPath id="clip0_736_533">
<rect width="20" height="20" fill="white"/>
</clipPath>
</defs>
</svg>
