<svg width="185" height="56" viewBox="0 0 185 56" fill="none" xmlns="http://www.w3.org/2000/svg">
<path d="M123.531 39.7414C122.491 40.965 121.698 41.479 121.104 41.479C120.732 41.479 120.534 41.2832 120.534 40.8671C120.534 39.4721 122.243 36.9267 124.497 34.4303C125.686 33.1331 126.503 32.3255 127.222 31.787C126.701 31.2241 126.28 31.0282 125.587 31.0282C124.918 31.0282 124.101 31.5912 123.283 32.5701C122.862 33.0841 122.59 33.4268 121.971 34.2345C120.411 36.3882 115.583 41.3077 114.642 41.3077C114.494 41.3077 114.37 41.2098 114.37 41.0384C114.37 40.9895 114.395 40.9161 114.469 40.8182C114.642 40.4266 116.921 37.4651 118.481 35.2869C119.025 34.5037 120.063 33.0351 120.063 32.0807C120.063 31.4199 119.494 31.1017 118.307 31.1017C117.887 31.1017 117.59 31.1507 117.59 31.1507C117.639 31.2486 117.664 31.4444 117.664 31.6157C117.664 32.5946 116.896 34.0387 114.518 37.7099C113.453 39.3253 112.884 40.3286 112.884 40.9161C112.884 41.7218 113.379 42.0376 114.023 42.0376C115.905 42.0376 120.509 36.584 120.509 36.584C120.509 36.5818 119.002 38.6125 119.002 40.2272C119.002 40.9856 119.298 41.9887 120.707 41.9887C121.351 41.9887 121.995 41.6462 122.615 41.0835C121.029 42.8199 119.051 44.5313 116.995 44.5313C115.98 44.5313 115.063 44.0179 114.915 42.7711C114.444 43.3578 114.196 44.0422 114.196 44.6775C114.196 45.8476 115.063 46.3352 116.128 46.3352C118.63 46.3352 120.831 43.8467 122.491 41.7441C123.011 41.059 123.903 39.8112 124.769 39.0773C124.769 39.0773 124.695 38.955 124.472 38.955C124.225 38.955 124.026 39.1753 123.531 39.7379V39.7414ZM148.971 30.9278H149.269C150.457 30.9279 151.027 31.4408 151.027 32.2468C151.027 34.0786 148.699 36.6675 148.699 36.6675C149.764 35.6661 153.355 32.7597 155.114 31.7338C155.634 31.4407 156.105 31.2454 156.501 31.2454C157.045 31.2454 157.465 31.4163 157.885 32.1247C156.451 33.3703 153.653 36.5699 152.439 38.5726C155.238 35.5196 161.08 31.0988 162.64 31.0988C163.136 31.0988 163.631 31.3675 164.077 32.1247C163.73 32.4666 157.984 37.2049 157.984 40.1113C157.984 40.8196 158.355 41.1615 158.925 41.1615C160.032 41.1615 161.39 40.1727 162.584 39.0363C163.319 35.4676 167.501 30.9793 171.461 30.9793C172.227 30.9793 172.771 31.2959 172.771 32.0506C172.771 32.1241 172.746 32.1973 172.746 32.295C172.498 32.1241 172.202 32.0506 171.807 32.0506C169.156 32.0506 164.374 37.6686 164.374 40.673C164.374 41.1371 164.622 41.3813 165.117 41.3813C167.298 41.3813 171.684 35.5191 171.684 33.101C172.202 33.3208 172.498 33.6384 172.498 34.3712C172.498 36.8381 167.546 42.062 164.25 42.062C163.088 42.062 162.47 41.3325 162.47 40.0868C162.47 39.9414 162.477 39.7932 162.492 39.6427C161.198 40.771 159.674 41.7689 158.331 41.7689C157.316 41.7689 156.427 41.1127 156.427 39.6202C156.427 37.2028 159.272 33.9552 159.718 33.4913C159.916 33.2471 159.742 33.1495 159.594 33.2227C158.925 33.5646 154.618 36.5436 152.018 39.7667C151.374 40.5726 150.903 41.2806 150.656 41.7446C150.036 41.7201 149.739 41.305 149.739 40.9387C149.739 40.4748 150.061 39.7179 150.358 39.1563C151.919 36.2261 153.776 33.9309 154.049 33.4913C154.123 33.3693 153.999 33.2716 153.925 33.2716C153.529 33.2716 149.145 36.3726 146.445 39.547C145.826 40.2795 145.083 41.1097 144.587 41.9644C144.117 41.7446 143.844 41.4271 143.844 41.0853C143.844 40.5229 144.637 39.4753 145.725 37.8122C143.586 39.8744 140.564 41.8666 137.624 41.8666C136.239 41.8666 135.349 41.2103 135.349 39.867C135.349 36.1787 140.821 31.1503 144.562 31.1503C145.873 31.1503 146.244 31.782 146.244 32.4416C146.244 33.5164 144.933 35.4704 139.012 36.2032C138.219 37.4 137.624 38.7678 137.624 39.867C137.624 40.502 137.847 41.1615 138.888 41.1615C141.911 41.1615 145.947 37.1558 146.962 35.739C146.974 35.7466 146.986 35.755 146.996 35.7641C148.578 33.0615 148.726 32.4239 148.971 30.9274V30.9278ZM177.851 35.3729C181.317 35.0308 184.263 33.4921 184.263 31.6114C184.263 30.8546 183.843 30.3201 182.359 30.3201C178.297 30.3201 172.055 35.3484 172.055 39.6227C172.055 41.1615 173.069 41.8666 174.406 41.8666C177.479 41.8666 180.969 39.0122 180.969 36.9116C180.969 36.0567 180.4 35.4461 178.446 35.4461C178.198 35.4461 178.148 35.4461 177.851 35.4705V35.3729ZM131.286 35.3729C134.752 35.0308 137.699 33.4921 137.699 31.6114C137.699 30.8546 137.278 30.3201 135.794 30.3201C131.732 30.3201 125.491 35.3484 125.491 39.6227C125.491 41.1615 126.505 41.8666 127.841 41.8666C130.914 41.8666 134.404 39.0122 134.404 36.9116C134.404 36.0567 133.836 35.4461 131.881 35.4461C131.633 35.4461 131.583 35.4461 131.286 35.4705V35.3729ZM128.287 41.3325C127.519 41.3325 127.296 40.8685 127.296 40.4044C127.296 39.1832 128.188 37.4246 129.328 35.9834C129.948 35.8355 130.567 35.7866 131.187 35.7866C132.054 35.7866 132.253 36.3485 132.253 36.7394C132.253 38.2542 130.022 41.3325 128.287 41.3325ZM174.852 41.3325C174.083 41.3325 173.86 40.8685 173.86 40.4044C173.86 39.1832 174.753 37.4246 175.893 35.9834C176.512 35.8355 177.132 35.7866 177.752 35.7866C178.619 35.7866 178.817 36.3485 178.817 36.7394C178.817 38.2542 176.587 41.3325 174.852 41.3325ZM143.759 33.6311C144.232 33.1382 144.5 32.6261 144.5 32.161C144.5 31.8923 144.376 31.7702 144.128 31.7702C143.202 31.7702 141.839 32.9354 140.757 34.0695C140.124 34.7304 139.586 35.3823 139.284 35.788C141.237 35.4351 142.869 34.5664 143.759 33.6311ZM135.273 30.9274C135.571 30.9274 135.671 31.0496 135.671 31.2695C135.671 32.7593 131.955 34.9332 129.725 35.3484C131.757 32.857 134.157 30.9274 135.273 30.9274ZM181.838 30.9274C182.136 30.9274 182.235 31.0496 182.235 31.2695C182.235 32.7593 178.52 34.9332 176.289 35.3484C178.322 32.857 180.722 30.9274 181.838 30.9274ZM110.145 24.1649C111.16 22.2301 112.114 19.9806 112.024 18.5555C111.998 18.1414 111.902 17.805 111.758 17.4958C111.758 17.4958 111.981 17.482 112.178 17.4698C112.549 17.4471 112.999 17.5171 113.38 17.6648C114.144 17.9847 114.372 18.4597 114.408 19.0201C114.559 21.4076 110.448 26.5772 110.128 27.0128C110.014 27.1666 110.122 27.3066 110.271 27.2975C110.666 27.2731 112.336 25.8249 113.103 25.0194C115.828 22.2344 118.385 18.3347 119.057 17.5839C119.312 17.2992 119.667 17.0327 120.162 17.0023C120.607 16.9747 121.059 17.0692 121.755 17.4666C120.837 19.0396 119.091 22.0333 115.948 26.4827C111.899 32.2394 108.905 34.3297 106.062 34.5049C102.626 34.7168 102.278 31.1923 102.26 30.8997C102.258 30.8752 102.841 33.4098 105.758 33.23C108.799 33.0426 111.644 29.3908 113.219 27.2381C114.659 25.315 116.732 22.0075 116.933 21.6528C117.044 21.4503 116.936 21.3101 116.797 21.4655C115.324 23.2927 111.145 28.173 109.242 28.2904C108.549 28.333 108.315 28.1518 107.947 27.8321C108.111 27.6158 108.587 26.8991 109.159 25.9317C107.879 27.2604 106.279 28.5464 104.818 28.6365C103.806 28.6988 102.876 28.0986 102.782 26.609C102.629 24.1964 105.263 20.78 105.679 20.2895C105.861 20.0337 105.682 19.9469 105.538 20.0292C104.892 20.4114 100.783 23.6496 98.391 27.0266C97.7993 27.8703 97.3745 28.606 97.1566 29.0843C96.537 29.098 96.2141 28.702 96.1909 28.3364C96.1615 27.8735 96.435 27.0982 96.6961 26.5194C98.0679 23.4989 99.7766 21.0938 100.021 20.6384C100.087 20.512 99.9573 20.4222 99.8832 20.4267C99.4877 20.451 95.3085 23.8159 92.8151 27.15C92.2434 27.9193 91.5543 28.7936 91.1141 29.677C90.6304 29.4867 90.3384 29.1866 90.3168 28.8454C90.2689 28.09 91.599 26.3688 93.0761 23.4397C94.5313 20.5608 94.6394 19.9181 94.7909 18.3919V18.3923C94.7909 18.3923 94.9145 18.3847 95.0875 18.374C96.2741 18.3009 96.8751 18.7778 96.9261 19.5822C97.0421 21.4104 94.8823 24.1376 94.8823 24.1376C95.8819 23.0726 99.2823 19.9508 100.972 18.8188C101.473 18.4943 101.93 18.2704 102.326 18.2459C102.869 18.2125 103.299 18.3573 103.763 19.0384C102.411 20.3698 99.8201 23.7353 98.7356 25.8089C101.336 22.5895 106.887 17.818 108.444 17.7219C108.938 17.6915 109.45 17.9292 109.943 18.6573C109.618 19.02 104.183 24.1026 104.367 27.0034C104.412 27.7103 104.805 28.0287 105.373 27.9937C106.926 27.8979 108.853 25.8187 110.145 24.1649ZM90.4819 20.5427C91.0396 19.1625 91.7734 17.8203 93.3291 15.7423C94.199 14.5875 94.8541 13.9603 95.1678 13.4297C95.395 13.0976 95.452 12.825 95.4351 12.5569C95.3979 11.9721 95.001 11.5806 94.6378 11.3339C93.5919 12.4504 92.7576 13.3825 92.09 14.2036C92.07 13.8887 91.466 13.7558 91.0952 13.7786C90.1064 13.8395 88.2615 14.4886 86.2856 16.5925C83.4011 19.6333 80.6125 24.1365 80.829 27.5491C80.9481 29.4259 82.2471 30.3705 84.52 30.2303C87.3381 30.0566 89.8442 27.7029 89.7994 26.996C89.7885 26.8254 89.7066 26.7081 89.5274 26.6213C88.568 28.32 86.4622 29.551 85.0037 29.6408C84.0149 29.7018 83.1929 29.2631 83.1063 27.8981C82.7694 22.5843 89.1004 14.4123 91.5477 14.2615C91.696 14.2523 91.8706 14.2661 91.9309 14.4337C91.3531 15.1056 89.4651 17.4242 89.5766 19.1793C89.6198 19.8618 89.9953 20.3036 90.4819 20.5427ZM159.941 29.3403C161.972 29.3403 163.656 28.7553 163.755 27.4632C163.309 27.8539 162.12 28.0003 160.832 28.0003C158.752 27.9992 156.649 27.3654 154.049 27.3654C152.587 27.3654 151.721 28.3649 151.721 29.4136C151.721 29.6334 151.77 29.8777 151.844 30.0975C152.761 29.267 154.049 29.145 155.51 29.145C157.341 29.145 159.049 29.3403 159.941 29.3403ZM128.562 16.7517C124.365 17.9158 119.737 21.994 119.983 25.8695C120.058 27.0639 120.722 27.7539 122.03 27.6733C126.135 27.4202 131.205 20.1368 130.783 13.4825C130.534 9.55824 128.408 8.46914 125.688 8.63682C123.759 8.75567 121.892 9.84685 121.068 11.3408C122.098 10.3476 123.362 9.92708 124.648 9.84781C126.923 9.70753 128.473 11.0556 128.671 14.1756C128.727 15.0531 128.685 15.961 128.562 16.7517ZM141.754 23.8519C142.406 22.4568 143.734 20.8061 143.663 19.6875C144.395 19.9117 145.199 20.4737 145.242 21.1536C145.324 22.4461 142.965 24.3788 143.02 25.2566C143.034 25.4762 143.141 25.592 143.389 25.5768C144.675 25.4974 147.956 22.4552 149.473 20.5266C149.062 20.698 148.716 20.7436 148.171 20.7772C147.258 20.8335 146.487 20.3943 146.436 19.5901C146.3 17.444 149.205 15.1383 152.417 14.9403C153.801 14.8551 154.719 15.2364 155.215 16.0131C154.682 17.0008 153.678 18.7764 152.672 20.5242C151.532 22.504 150.85 23.8925 150.904 24.7459C150.928 25.1117 151.175 25.4882 151.669 25.4577C153.746 25.3297 156.981 21.1643 158.22 19.1819C158.348 19.2474 158.405 19.3663 158.415 19.5126C158.422 19.6342 158.404 19.7327 158.334 19.8099C156.786 22.0087 153.949 25.8034 151.304 25.9664C150.194 26.035 149.414 25.4499 149.344 24.3525L149.344 24.3503C149.234 22.62 150.66 20.502 152.718 16.5587C152.851 16.3057 152.911 16.0817 152.9 15.911C152.878 15.5695 152.599 15.4643 152.03 15.4994C150.226 15.6107 148.272 18.0569 148.369 19.5933C148.397 20.0323 148.729 20.1586 149.2 20.1297C149.57 20.1069 150.031 19.956 150.031 19.956C150.031 19.956 150.088 20.0749 150.097 20.2204C150.103 20.3173 150.085 20.4158 150.017 20.5174C148.257 22.9004 144.674 26.253 142.868 26.3643C142.053 26.4144 141.457 25.9864 141.406 25.1848C141.396 25.0266 141.414 24.8578 141.453 24.6807C140.169 25.7543 138.584 26.7751 137.191 26.861C135.833 26.9446 135.267 26.2213 135.21 25.3198C135.162 24.5646 135.312 23.7972 135.815 22.7652C134.736 24.1284 132.014 26.9599 130.283 27.0666C129.64 27.1062 129.246 26.7654 129.206 26.133C129.169 25.548 129.308 25.0013 130.476 23.0699C132.928 19.0777 133.429 17.1875 133.391 16.6025C133.385 16.5051 133.354 16.4091 133.297 16.2903C133.543 16.2507 133.788 16.2111 134.01 16.1974C135.121 16.1289 135.729 16.3361 135.774 17.0428C135.842 18.1151 134.736 19.8226 134.035 20.8933C132.704 22.9815 130.991 25.3135 130.71 25.9669C130.665 26.043 130.623 26.168 130.628 26.241C130.636 26.3629 130.714 26.4315 130.863 26.4223C131.901 26.3583 134.824 23.5603 136.352 21.4584C136.716 20.9467 137.854 18.9199 138.853 17.4641C139.579 16.3921 140.285 15.7861 141.101 15.7358C141.793 15.6931 142.323 15.8316 142.924 16.3082C142.033 17.1214 141.285 17.8523 139.589 20.0604C138.512 21.472 136.837 24.0212 136.936 25.5804C136.961 25.9702 137.157 26.325 137.701 26.2914C138.897 26.2178 140.48 25.0406 141.754 23.8519ZM122.931 22.7024C124.011 20.5559 126.344 18.1854 128.446 17.2727C127.899 20.7811 124.78 26.7974 122.925 26.9117C122.356 26.9467 122.11 26.5949 122.07 25.9611C121.996 24.7911 122.667 23.2326 122.931 22.7024ZM105.638 16.133C107.665 16.008 109.309 15.3205 109.326 14.0247C108.906 14.4422 107.729 14.6615 106.443 14.7407C104.367 14.8676 102.228 14.3645 99.633 14.5245C98.1745 14.6144 97.3725 15.6652 97.4389 16.7118C97.4528 16.9311 97.5178 17.1719 97.6058 17.3867C98.4679 16.5015 99.7456 16.3005 101.204 16.2105C103.032 16.0979 104.748 16.1877 105.638 16.133Z" fill="white"/>
<path d="M6.97173 36.2342V34.4877H9.06782V36.2342C11.2155 36.3272 12.9105 36.8546 14.151 37.8181C15.3954 38.7807 16.0157 39.9743 16.0157 41.4014C16.0157 42.7994 15.4154 43.9859 14.2102 44.9653C13.0049 45.9413 11.2936 46.4819 9.06782 46.581V48.3461H6.97173V46.581C4.9774 46.5163 3.31677 46.0209 1.99043 45.0901C0.663109 44.1619 0 42.9312 0 41.4014C0 39.869 0.66311 38.6409 1.98665 37.719C3.31007 36.7978 4.96986 36.3051 6.97258 36.2352L6.97173 36.2342ZM9.06782 37.7888V45.0255C10.5085 44.968 11.6394 44.6256 12.4675 43.9983C13.2964 43.371 13.708 42.5074 13.708 41.4067C13.708 40.3255 13.3031 39.4717 12.4912 38.8382C11.6785 38.2074 10.5399 37.8596 9.06782 37.7888ZM6.97173 37.8075C5.58147 37.8587 4.45916 38.1914 3.59969 38.8125C2.74022 39.4327 2.30768 40.2963 2.30768 41.4067C2.30768 42.5039 2.73169 43.3648 3.57972 43.9912C4.42763 44.6185 5.55871 44.9539 6.97173 45.0051V37.8075ZM19.2476 34.6018H29.7762V48.3452H27.539V36.2149H21.4848V43.2939C21.4848 44.7336 21.4029 45.7856 21.2371 46.4545C21.0722 47.126 20.7226 47.6445 20.1928 48.0187C19.6631 48.3904 18.9876 48.5753 18.1747 48.5753C17.6802 48.5753 17.0876 48.4922 16.3969 48.3258L16.797 46.7128C17.162 46.8658 17.4763 46.9437 17.7355 46.9437C18.2377 46.9437 18.6188 46.7907 18.8703 46.48C19.1219 46.1695 19.2476 45.4405 19.2476 44.2885V34.6018ZM32.7756 41.6553C32.7756 39.378 33.5293 37.5924 35.0327 36.3032C36.5363 35.0141 38.4762 34.3708 40.8544 34.3708C42.4133 34.3708 43.8139 34.6743 45.0668 35.2796C46.315 35.8839 47.2687 36.7288 47.9242 37.8136C48.5798 38.8948 48.9095 40.1229 48.9095 41.4952C48.9095 42.887 48.5646 44.1345 47.8737 45.2317C47.183 46.3324 46.2054 47.1641 44.941 47.7267C43.6729 48.293 42.3075 48.5745 40.8429 48.5745C39.2528 48.5745 37.836 48.2612 36.5839 47.6365C35.3357 47.0127 34.3858 46.1616 33.7417 45.0804C33.0977 44.0018 32.7756 42.8605 32.7756 41.6545V41.6553ZM35.0842 41.6872C35.0842 43.3408 35.6302 44.6432 36.7211 45.5936C37.8121 46.5438 39.1832 47.0207 40.8316 47.0207C42.5114 47.0207 43.8891 46.5412 44.9772 45.5812C46.0605 44.6221 46.6028 43.2586 46.6028 41.4926C46.6028 40.3759 46.3712 39.401 45.9081 38.5683C45.445 37.7366 44.7657 37.0899 43.8748 36.6333C42.9802 36.1759 41.9788 35.9458 40.8678 35.9458C39.2899 35.9458 37.9322 36.3874 36.7936 37.2704C35.6549 38.1533 35.0852 39.6248 35.0852 41.6881L35.0842 41.6872ZM51.7803 48.3444V34.6009H58.1479C59.2665 34.6009 60.1221 34.6461 60.7147 34.7319C61.5436 34.8443 62.2383 35.0584 62.7995 35.3716C63.3617 35.6884 63.8124 36.1299 64.1543 36.6962C64.4954 37.2624 64.6642 37.8861 64.6642 38.5674C64.6642 39.7318 64.2087 40.721 63.294 41.527C62.3831 42.3366 60.7299 42.7401 58.3441 42.7401H54.0175V48.3444H51.7803ZM54.0165 41.1271H58.3746C59.82 41.1271 60.8405 40.9095 61.4484 40.4715C62.0525 40.0336 62.3545 39.4186 62.3545 38.6224C62.3545 38.0498 62.1782 37.5571 61.8209 37.1473C61.4636 36.7377 60.992 36.4661 60.4117 36.3351C60.0344 36.2555 59.3398 36.2139 58.3308 36.2139H54.0165V41.1271ZM64.0676 48.3444L70.5372 34.6009H72.9907L79.8567 48.3444H77.3165L75.3651 44.1788H68.2638L66.4345 48.3444H64.0676ZM68.9194 42.7012H74.6667L72.9078 38.8913C72.378 37.7331 71.9769 36.7767 71.6987 36.0219C71.4671 36.9182 71.1566 37.7977 70.7687 38.6674L68.9194 42.7021V42.7012Z" fill="#E0E8E6"/>
<path d="M54.0873 55.9999V51.5557H52.0187V50.9646H56.9885V51.5557H54.92V55.9999H54.0873ZM57.8109 55.9999V50.9646H60.1662C60.6454 50.9646 61.0294 51.0151 61.32 51.1169C61.6096 51.2185 61.8354 51.3761 61.9994 51.5875C62.1643 51.799 62.2462 52.0203 62.2462 52.252C62.2462 52.467 62.1737 52.6687 62.0289 52.859C61.8841 53.0493 61.6649 53.2023 61.3715 53.32C61.7507 53.4085 62.0432 53.5615 62.2462 53.7765C62.451 53.9906 62.553 54.2454 62.553 54.5383C62.553 54.7754 62.49 54.9939 62.3662 55.1966C62.2414 55.4 62.0879 55.5559 61.906 55.6655C61.7231 55.7744 61.4935 55.8575 61.2191 55.9141C60.9427 55.9708 60.6054 55.9991 60.2052 55.9991H57.8109V55.9999ZM58.6436 53.081H60.0004C60.3681 53.081 60.633 53.0616 60.7921 53.0227C61.0047 52.9722 61.1638 52.8882 61.2695 52.7705C61.3762 52.6528 61.4305 52.5068 61.4305 52.3298C61.4305 52.1627 61.381 52.0149 61.2799 51.8884C61.1809 51.7601 61.0371 51.6725 60.8522 51.6256C60.6664 51.5787 60.3482 51.5557 59.8985 51.5557H58.6436V53.081ZM58.6436 55.4089H60.2072C60.4759 55.4089 60.6644 55.401 60.774 55.3842C60.9637 55.3577 61.1247 55.3117 61.2533 55.247C61.382 55.1824 61.4878 55.0886 61.5707 54.9657C61.6544 54.8426 61.6954 54.7012 61.6954 54.541C61.6954 54.3525 61.6354 54.1888 61.5144 54.0499C61.3944 53.911 61.2276 53.8128 61.0152 53.757C60.8036 53.7013 60.4968 53.673 60.0976 53.673H58.6455V55.4098L58.6436 55.4089ZM63.7096 55.9999V50.9646H68.2412V51.5557H64.5424V53.1023H68.0049V53.6933H64.5424V55.4089H68.3898V55.9999H63.7096ZM69.5389 55.9999V50.9646H71.9086C72.3249 50.9646 72.6431 50.9805 72.8642 51.0124C73.172 51.0531 73.4312 51.1319 73.6398 51.2469C73.8485 51.3628 74.0171 51.5247 74.1438 51.7317C74.2705 51.9397 74.3335 52.1679 74.3335 52.4175C74.3335 52.8439 74.1638 53.2067 73.8236 53.5014C73.4845 53.7978 72.8699 53.9455 71.9819 53.9455H70.3716V55.9991H69.5389V55.9999ZM70.3716 53.3553H71.9933C72.5308 53.3553 72.9109 53.2757 73.1377 53.1146C73.3625 52.9546 73.475 52.7289 73.475 52.4378C73.475 52.2282 73.4092 52.0477 73.2758 51.8982C73.1424 51.7486 72.9681 51.6486 72.7517 51.6008C72.6108 51.5717 72.3526 51.5566 71.9771 51.5566H70.3716V53.3563V53.3553ZM75.4206 50.9646H76.2533V53.1094H77.7483C78.4467 53.1094 78.9516 53.1749 79.2661 53.3049C79.5786 53.4367 79.8034 53.6146 79.9406 53.8385C80.077 54.0632 80.1455 54.295 80.1455 54.5331C80.1455 54.9232 79.9807 55.2656 79.6492 55.5584C79.3195 55.8523 78.7039 55.9991 77.8026 55.9991H75.4216V50.9637L75.4206 50.9646ZM76.2533 55.4302H77.7702C78.3848 55.4302 78.785 55.3426 78.9717 55.1674C79.1575 54.9931 79.2509 54.7798 79.2509 54.5331C79.2509 54.3322 79.1842 54.1614 79.0479 54.0207C78.9135 53.8801 78.7325 53.7889 78.5077 53.7483C78.2828 53.7075 77.9017 53.6863 77.3633 53.6863H76.2533V55.4302Z" fill="white"/>
<path fill-rule="evenodd" clip-rule="evenodd" d="M63.6695 24.1511L49.5136 16.4119V9.87244H46.9821V15.0272L39.8503 11.1288L39.8493 11.1297L39.8483 11.1288L16.0292 24.1511L16.9848 25.6588L21.5887 23.1415V32.2097H23.4734V22.1116L39.8493 13.1585L56.2252 22.1116V32.2097H58.1089V23.1415L62.7129 25.6588L63.6695 24.1511Z" fill="#50E928"/>
<path d="M38.6697 21.5509H35.1291V24.8388H38.6697V21.5509Z" fill="#50E928"/>
<path d="M44.5684 21.5509H41.0278V24.8388H44.5684V21.5509Z" fill="#50E928"/>
<path d="M38.6697 26.8086H35.1291V30.0965H38.6697V26.8086Z" fill="#50E928"/>
<path d="M44.5684 26.8086H41.0278V30.0965H44.5684V26.8086Z" fill="#50E928"/>
<path fill-rule="evenodd" clip-rule="evenodd" d="M49.1157 8.86887C49.1157 8.86887 51.996 3.94601 55.0536 3.30448C55.0536 3.30448 51.796 5.2085 49.1157 8.86887ZM55.7673 2.35071C48.3906 3.2116 48.2792 9.46353 48.2792 9.46353C56.4609 9.71479 55.7673 2.35071 55.7673 2.35071Z" fill="#50E928"/>
<path fill-rule="evenodd" clip-rule="evenodd" d="M40.1858 0.819264C46.3132 3.82313 47.3089 8.36654 47.3089 8.36654C44.8507 3.57978 40.1858 0.819264 40.1858 0.819264ZM39.2767 7.87871e-06C39.6875 8.65943 48.1007 9.42562 48.1007 9.42562C49.2707 -0.0565958 39.2767 7.87871e-06 39.2767 7.87871e-06Z" fill="#50E928"/>
<path d="M122.453 39.7414C121.413 40.965 120.621 41.479 120.026 41.479C119.655 41.479 119.456 41.2832 119.456 40.8671C119.456 39.4721 121.166 36.9267 123.419 34.4303C124.608 33.1331 125.426 32.3255 126.144 31.787C125.624 31.2241 125.203 31.0282 124.509 31.0282C123.84 31.0282 123.023 31.5912 122.206 32.5701C121.785 33.0841 121.512 33.4268 120.893 34.2345C119.333 36.3882 114.506 41.3077 113.565 41.3077C113.416 41.3077 113.292 41.2098 113.292 41.0384C113.292 40.9895 113.317 40.9161 113.391 40.8182C113.565 40.4266 115.843 37.4651 117.404 35.2869C117.947 34.5037 118.986 33.0351 118.986 32.0807C118.986 31.4199 118.417 31.1017 117.23 31.1017C116.809 31.1017 116.512 31.1507 116.512 31.1507C116.562 31.2486 116.586 31.4444 116.586 31.6157C116.586 32.5946 115.819 34.0387 113.441 37.7099C112.376 39.3253 111.806 40.3286 111.806 40.9161C111.806 41.7218 112.302 42.0376 112.945 42.0376C114.828 42.0376 119.432 36.584 119.432 36.584C119.432 36.5818 117.924 38.6125 117.924 40.2272C117.924 40.9856 118.221 41.9887 119.63 41.9887C120.274 41.9887 120.918 41.6462 121.537 41.0835C119.952 42.8199 117.973 44.5313 115.918 44.5313C114.902 44.5313 113.986 44.0179 113.837 42.7711C113.367 43.3578 113.119 44.0422 113.119 44.6775C113.119 45.8476 113.986 46.3352 115.051 46.3352C117.552 46.3352 119.754 43.8467 121.413 41.7441C121.933 41.059 122.825 39.8112 123.692 39.0773C123.692 39.0773 123.618 38.955 123.395 38.955C123.147 38.955 122.949 39.1753 122.453 39.7379V39.7414ZM147.894 30.9278H148.191C149.38 30.9279 149.949 31.4408 149.949 32.2468C149.949 34.0786 147.621 36.6675 147.621 36.6675C148.686 35.6661 152.278 32.7597 154.036 31.7338C154.556 31.4407 155.027 31.2454 155.423 31.2454C155.967 31.2454 156.387 31.4163 156.807 32.1247C155.374 33.3703 152.575 36.5699 151.361 38.5726C154.16 35.5196 160.002 31.0988 161.563 31.0988C162.058 31.0988 162.553 31.3675 162.999 32.1247C162.653 32.4666 156.906 37.2049 156.906 40.1113C156.906 40.8196 157.278 41.1615 157.848 41.1615C158.954 41.1615 160.312 40.1727 161.506 39.0363C162.242 35.4676 166.423 30.9793 170.383 30.9793C171.149 30.9793 171.693 31.2959 171.693 32.0506C171.693 32.1241 171.668 32.1973 171.668 32.295C171.421 32.1241 171.124 32.0506 170.73 32.0506C168.079 32.0506 163.297 37.6686 163.297 40.673C163.297 41.1371 163.544 41.3813 164.04 41.3813C166.22 41.3813 170.606 35.5191 170.606 33.101C171.124 33.3208 171.421 33.6384 171.421 34.3712C171.421 36.8381 166.468 42.062 163.173 42.062C162.011 42.062 161.393 41.3325 161.393 40.0868C161.393 39.9414 161.4 39.7932 161.414 39.6427C160.12 40.771 158.596 41.7689 157.253 41.7689C156.239 41.7689 155.349 41.1127 155.349 39.6202C155.349 37.2028 158.194 33.9552 158.64 33.4913C158.838 33.2471 158.665 33.1495 158.516 33.2227C157.848 33.5646 153.541 36.5436 150.94 39.7667C150.296 40.5726 149.826 41.2806 149.578 41.7446C148.959 41.7201 148.662 41.305 148.662 40.9387C148.662 40.4748 148.984 39.7179 149.281 39.1563C150.841 36.2261 152.699 33.9309 152.971 33.4913C153.046 33.3693 152.922 33.2716 152.847 33.2716C152.451 33.2716 148.067 36.3726 145.367 39.547C144.748 40.2795 144.005 41.1097 143.51 41.9644C143.039 41.7446 142.767 41.4271 142.767 41.0853C142.767 40.5229 143.56 39.4753 144.648 37.8122C142.508 39.8744 139.486 41.8666 136.547 41.8666C135.162 41.8666 134.271 41.2103 134.271 39.867C134.271 36.1787 139.743 31.1503 143.485 31.1503C144.795 31.1503 145.166 31.782 145.166 32.4416C145.166 33.5164 143.856 35.4704 137.934 36.2032C137.141 37.4 136.547 38.7678 136.547 39.867C136.547 40.502 136.77 41.1615 137.81 41.1615C140.834 41.1615 144.869 37.1558 145.884 35.739C145.897 35.7466 145.908 35.755 145.919 35.7641C147.501 33.0615 147.649 32.4239 147.894 30.9274V30.9278ZM176.773 35.3729C180.239 35.0308 183.186 33.4921 183.186 31.6114C183.186 30.8546 182.765 30.3201 181.281 30.3201C177.219 30.3201 170.978 35.3484 170.978 39.6227C170.978 41.1615 171.992 41.8666 173.328 41.8666C176.401 41.8666 179.891 39.0122 179.891 36.9116C179.891 36.0567 179.323 35.4461 177.368 35.4461C177.12 35.4461 177.071 35.4461 176.773 35.4705V35.3729ZM130.208 35.3729C133.674 35.0308 136.621 33.4921 136.621 31.6114C136.621 30.8546 136.201 30.3201 134.717 30.3201C130.655 30.3201 124.413 35.3484 124.413 39.6227C124.413 41.1615 125.427 41.8666 126.764 41.8666C129.837 41.8666 133.327 39.0122 133.327 36.9116C133.327 36.0567 132.758 35.4461 130.803 35.4461C130.556 35.4461 130.506 35.4461 130.208 35.4705V35.3729ZM127.21 41.3325C126.441 41.3325 126.218 40.8685 126.218 40.4044C126.218 39.1832 127.11 37.4246 128.251 35.9834C128.87 35.8355 129.49 35.7866 130.109 35.7866C130.977 35.7866 131.175 36.3485 131.175 36.7394C131.175 38.2542 128.944 41.3325 127.21 41.3325ZM173.774 41.3325C173.006 41.3325 172.783 40.8685 172.783 40.4044C172.783 39.1832 173.675 37.4246 174.815 35.9834C175.435 35.8355 176.054 35.7866 176.674 35.7866C177.541 35.7866 177.74 36.3485 177.74 36.7394C177.74 38.2542 175.509 41.3325 173.774 41.3325ZM142.682 33.6311C143.155 33.1382 143.422 32.6261 143.422 32.161C143.422 31.8923 143.298 31.7702 143.05 31.7702C142.125 31.7702 140.762 32.9354 139.679 34.0695C139.047 34.7304 138.509 35.3823 138.207 35.788C140.159 35.4351 141.791 34.5664 142.682 33.6311ZM134.196 30.9274C134.494 30.9274 134.593 31.0496 134.593 31.2695C134.593 32.7593 130.878 34.9332 128.647 35.3484C130.679 32.857 133.079 30.9274 134.196 30.9274ZM180.76 30.9274C181.058 30.9274 181.158 31.0496 181.158 31.2695C181.158 32.7593 177.442 34.9332 175.212 35.3484C177.244 32.857 179.644 30.9274 180.76 30.9274ZM109.068 24.1649C110.083 22.2301 111.037 19.9806 110.946 18.5555C110.92 18.1414 110.824 17.805 110.681 17.4958C110.681 17.4958 110.903 17.482 111.101 17.4698C111.471 17.4471 111.922 17.5171 112.303 17.6648C113.067 17.9847 113.295 18.4597 113.33 19.0201C113.482 21.4076 109.371 26.5772 109.051 27.0128C108.937 27.1666 109.045 27.3066 109.193 27.2975C109.589 27.2731 111.259 25.8249 112.026 25.0194C114.75 22.2344 117.307 18.3347 117.979 17.5839C118.234 17.2992 118.59 17.0327 119.084 17.0023C119.529 16.9747 119.982 17.0692 120.677 17.4666C119.759 19.0396 118.013 22.0333 114.871 26.4827C110.822 32.2394 107.827 34.3297 104.985 34.5049C101.549 34.7168 101.201 31.1923 101.182 30.8997C101.181 30.8752 101.763 33.4098 104.68 33.23C107.721 33.0426 110.567 29.3908 112.142 27.2381C113.581 25.315 115.654 22.0075 115.855 21.6528C115.966 21.4503 115.858 21.3101 115.719 21.4655C114.247 23.2927 110.068 28.173 108.164 28.2904C107.472 28.333 107.237 28.1518 106.869 27.8321C107.034 27.6158 107.51 26.8991 108.081 25.9317C106.801 27.2604 105.201 28.5464 103.741 28.6365C102.728 28.6988 101.799 28.0986 101.704 26.609C101.551 24.1964 104.185 20.78 104.601 20.2895C104.783 20.0337 104.604 19.9469 104.46 20.0292C103.815 20.4114 99.705 23.6496 97.3134 27.0266C96.7217 27.8703 96.2969 28.606 96.079 29.0843C95.4594 29.098 95.1366 28.702 95.1133 28.3364C95.084 27.8735 95.3574 27.0982 95.6185 26.5194C96.9903 23.4989 98.6991 21.0938 98.9431 20.6384C99.0096 20.512 98.8798 20.4222 98.8057 20.4267C98.4102 20.451 94.2309 23.8159 91.7375 27.15C91.1659 27.9193 90.4767 28.7936 90.0365 29.677C89.5528 29.4867 89.2608 29.1866 89.2392 28.8454C89.1913 28.09 90.5215 26.3688 91.9985 23.4397C93.4538 20.5608 93.5619 19.9181 93.7133 18.3919V18.3923C93.7133 18.3923 93.8369 18.3847 94.01 18.374C95.1965 18.3009 95.7975 18.7778 95.8485 19.5822C95.9645 21.4104 93.8047 24.1376 93.8047 24.1376C94.8043 23.0726 98.2048 19.9508 99.8948 18.8188C100.395 18.4943 100.853 18.2704 101.248 18.2459C101.791 18.2125 102.221 18.3573 102.685 19.0384C101.333 20.3698 98.7425 23.7353 97.6581 25.8089C100.258 22.5895 105.809 17.818 107.367 17.7219C107.861 17.6915 108.372 17.9292 108.865 18.6573C108.541 19.02 103.106 24.1026 103.29 27.0034C103.335 27.7103 103.727 28.0287 104.296 27.9937C105.849 27.8979 107.776 25.8187 109.068 24.1649ZM89.4044 20.5427C89.9621 19.1625 90.6959 17.8203 92.2516 15.7423C93.1214 14.5875 93.7765 13.9603 94.0903 13.4297C94.3174 13.0976 94.3745 12.825 94.3575 12.5569C94.3204 11.9721 93.9234 11.5806 93.5602 11.3339C92.5143 12.4504 91.6801 13.3825 91.0124 14.2036C90.9924 13.8887 90.3884 13.7558 90.0176 13.7786C89.0289 13.8395 87.1839 14.4886 85.208 16.5925C82.3235 19.6333 79.5349 24.1365 79.7515 27.5491C79.8705 29.4259 81.1696 30.3705 83.4424 30.2303C86.2605 30.0566 88.7666 27.7029 88.7218 26.996C88.7109 26.8254 88.629 26.7081 88.4498 26.6213C87.4905 28.32 85.3846 29.551 83.9261 29.6408C82.9374 29.7018 82.1153 29.2631 82.0288 27.8981C81.6918 22.5843 88.0228 14.4123 90.4701 14.2615C90.6184 14.2523 90.7931 14.2661 90.8533 14.4337C90.2755 15.1056 88.3876 17.4242 88.499 19.1793C88.5422 19.8618 88.9177 20.3036 89.4044 20.5427ZM158.863 29.3403C160.894 29.3403 162.578 28.7553 162.677 27.4632C162.232 27.8539 161.043 28.0003 159.755 28.0003C157.674 27.9992 155.572 27.3654 152.971 27.3654C151.51 27.3654 150.643 28.3649 150.643 29.4136C150.643 29.6334 150.693 29.8777 150.767 30.0975C151.683 29.267 152.971 29.145 154.433 29.145C156.264 29.145 157.971 29.3403 158.863 29.3403ZM127.484 16.7517C123.288 17.9158 118.659 21.994 118.905 25.8695C118.981 27.0639 119.644 27.7539 120.952 27.6733C125.057 27.4202 130.128 20.1368 129.706 13.4825C129.457 9.55824 127.331 8.46914 124.611 8.63682C122.682 8.75567 120.814 9.84685 119.991 11.3408C121.02 10.3476 122.284 9.92708 123.57 9.84781C125.846 9.70753 127.396 11.0556 127.594 14.1756C127.649 15.0531 127.608 15.961 127.484 16.7517ZM140.676 23.8519C141.328 22.4568 142.656 20.8061 142.585 19.6875C143.318 19.9117 144.121 20.4737 144.164 21.1536C144.246 22.4461 141.887 24.3788 141.943 25.2566C141.957 25.4762 142.064 25.592 142.312 25.5768C143.598 25.4974 146.878 22.4552 148.395 20.5266C147.985 20.698 147.639 20.7436 147.094 20.7772C146.181 20.8335 145.41 20.3943 145.359 19.5901C145.222 17.444 148.128 15.1383 151.339 14.9403C152.723 14.8551 153.641 15.2364 154.137 16.0131C153.604 17.0008 152.6 18.7764 151.594 20.5242C150.454 22.504 149.773 23.8925 149.827 24.7459C149.85 25.1117 150.097 25.4882 150.592 25.4577C152.668 25.3297 155.903 21.1643 157.142 19.1819C157.271 19.2474 157.328 19.3663 157.337 19.5126C157.345 19.6342 157.326 19.7327 157.257 19.8099C155.709 22.0087 152.872 25.8034 150.227 25.9664C149.116 26.035 148.336 25.4499 148.266 24.3525L148.266 24.3503C148.157 22.62 149.583 20.502 151.64 16.5587C151.773 16.3057 151.833 16.0817 151.823 15.911C151.801 15.5695 151.521 15.4643 150.953 15.4994C149.148 15.6107 147.194 18.0569 147.291 19.5933C147.319 20.0323 147.651 20.1586 148.122 20.1297C148.492 20.1069 148.953 19.956 148.953 19.956C148.953 19.956 149.011 20.0749 149.02 20.2204C149.026 20.3173 149.007 20.4158 148.939 20.5174C147.179 22.9004 143.596 26.253 141.79 26.3643C140.976 26.4144 140.379 25.9864 140.328 25.1848C140.318 25.0266 140.336 24.8578 140.376 24.6807C139.091 25.7543 137.506 26.7751 136.113 26.861C134.756 26.9446 134.19 26.2213 134.133 25.3198C134.085 24.5646 134.234 23.7972 134.737 22.7652C133.659 24.1284 130.936 26.9599 129.206 27.0666C128.563 27.1062 128.169 26.7654 128.129 26.133C128.092 25.548 128.231 25.0013 129.399 23.0699C131.851 19.0777 132.351 17.1875 132.314 16.6025C132.308 16.5051 132.277 16.4091 132.22 16.2903C132.465 16.2507 132.711 16.2111 132.933 16.1974C134.044 16.1289 134.652 16.3361 134.696 17.0428C134.764 18.1151 133.658 19.8226 132.958 20.8933C131.627 22.9815 129.913 25.3135 129.632 25.9669C129.587 26.043 129.546 26.168 129.55 26.241C129.558 26.3629 129.637 26.4315 129.785 26.4223C130.823 26.3583 133.747 23.5603 135.275 21.4584C135.639 20.9467 136.776 18.9199 137.776 17.4641C138.502 16.3921 139.208 15.7861 140.023 15.7358C140.716 15.6931 141.246 15.8316 141.847 16.3082C140.955 17.1214 140.207 17.8523 138.511 20.0604C137.434 21.472 135.759 24.0212 135.858 25.5804C135.883 25.9702 136.079 26.325 136.623 26.2914C137.819 26.2178 139.403 25.0406 140.676 23.8519ZM121.853 22.7024C122.934 20.5559 125.266 18.1854 127.368 17.2727C126.821 20.7811 123.702 26.7974 121.847 26.9117C121.278 26.9467 121.033 26.5949 120.992 25.9611C120.918 24.7911 121.589 23.2326 121.853 22.7024ZM104.561 16.133C106.588 16.008 108.232 15.3205 108.249 14.0247C107.829 14.4422 106.651 14.6615 105.366 14.7407C103.289 14.8676 101.151 14.3645 98.5554 14.5245C97.0969 14.6144 96.2949 15.6652 96.3614 16.7118C96.3752 16.9311 96.4402 17.1719 96.5282 17.3867C97.3903 16.5015 98.6681 16.3005 100.127 16.2105C101.954 16.0979 103.671 16.1877 104.561 16.133Z" fill="#50E928"/>
<path d="M123.531 39.7414C122.491 40.965 121.698 41.479 121.104 41.479C120.732 41.479 120.534 41.2832 120.534 40.8671C120.534 39.4721 122.243 36.9267 124.497 34.4303C125.686 33.1331 126.503 32.3255 127.222 31.787C126.701 31.2241 126.28 31.0282 125.587 31.0282C124.918 31.0282 124.101 31.5912 123.283 32.5701C122.862 33.0841 122.59 33.4268 121.971 34.2345C120.411 36.3882 115.583 41.3077 114.642 41.3077C114.494 41.3077 114.37 41.2098 114.37 41.0384C114.37 40.9895 114.395 40.9161 114.469 40.8182C114.642 40.4265 116.921 37.4651 118.481 35.2869C119.025 34.5037 120.063 33.0351 120.063 32.0807C120.063 31.4199 119.494 31.1017 118.307 31.1017C117.887 31.1017 117.59 31.1507 117.59 31.1507C117.639 31.2486 117.664 31.4444 117.664 31.6157C117.664 32.5946 116.896 34.0387 114.518 37.7099C113.453 39.3253 112.884 40.3286 112.884 40.9161C112.884 41.7218 113.379 42.0376 114.023 42.0376C115.905 42.0376 120.509 36.584 120.509 36.584C120.509 36.5818 119.002 38.6126 119.002 40.2272C119.002 40.9856 119.298 41.9887 120.707 41.9887C121.351 41.9887 121.995 41.6462 122.615 41.0835C121.029 42.8199 119.051 44.5313 116.995 44.5313C115.98 44.5313 115.063 44.0179 114.915 42.7711C114.444 43.3578 114.196 44.0422 114.196 44.6775C114.196 45.8476 115.063 46.3352 116.128 46.3352C118.63 46.3352 120.831 43.8467 122.491 41.7441C123.011 41.059 123.903 39.8112 124.769 39.0773C124.769 39.0773 124.695 38.955 124.472 38.955C124.225 38.955 124.026 39.1753 123.531 39.7379V39.7414ZM148.971 30.9278H149.269C150.457 30.9279 151.027 31.4408 151.027 32.2468C151.027 34.0786 148.699 36.6675 148.699 36.6675C149.764 35.6661 153.355 32.7597 155.114 31.7338C155.634 31.4407 156.105 31.2454 156.501 31.2454C157.045 31.2454 157.465 31.4163 157.885 32.1247C156.451 33.3702 153.653 36.5699 152.439 38.5726C155.238 35.5196 161.08 31.0988 162.64 31.0988C163.136 31.0988 163.631 31.3675 164.077 32.1247C163.73 32.4666 157.984 37.2049 157.984 40.1113C157.984 40.8196 158.355 41.1615 158.925 41.1615C160.032 41.1615 161.39 40.1727 162.584 39.0363C163.319 35.4676 167.501 30.9793 171.461 30.9793C172.227 30.9793 172.771 31.2959 172.771 32.0506C172.771 32.1241 172.746 32.1973 172.746 32.295C172.498 32.1241 172.202 32.0506 171.807 32.0506C169.156 32.0506 164.374 37.6686 164.374 40.673C164.374 41.1371 164.622 41.3813 165.117 41.3813C167.298 41.3813 171.684 35.5191 171.684 33.101C172.202 33.3208 172.498 33.6384 172.498 34.3712C172.498 36.8381 167.546 42.062 164.25 42.062C163.088 42.062 162.47 41.3325 162.47 40.0868C162.47 39.9414 162.477 39.7932 162.492 39.6427C161.198 40.771 159.674 41.7689 158.331 41.7689C157.316 41.7689 156.427 41.1127 156.427 39.6202C156.427 37.2028 159.272 33.9552 159.718 33.4913C159.916 33.2471 159.742 33.1495 159.594 33.2227C158.925 33.5646 154.618 36.5436 152.018 39.7667C151.374 40.5726 150.903 41.2806 150.656 41.7446C150.036 41.7201 149.739 41.305 149.739 40.9387C149.739 40.4748 150.061 39.7179 150.358 39.1563C151.919 36.2261 153.776 33.9309 154.049 33.4913C154.123 33.3693 153.999 33.2716 153.925 33.2716C153.529 33.2716 149.145 36.3726 146.445 39.547C145.826 40.2795 145.083 41.1097 144.587 41.9644C144.117 41.7446 143.844 41.4271 143.844 41.0853C143.844 40.5229 144.637 39.4753 145.725 37.8122C143.585 39.8744 140.564 41.8666 137.624 41.8666C136.239 41.8666 135.349 41.2103 135.349 39.867C135.349 36.1787 140.821 31.1503 144.562 31.1503C145.873 31.1503 146.244 31.782 146.244 32.4416C146.244 33.5164 144.933 35.4704 139.012 36.2032C138.219 37.4 137.624 38.7678 137.624 39.867C137.624 40.502 137.847 41.1615 138.888 41.1615C141.911 41.1615 145.947 37.1558 146.962 35.739C146.974 35.7466 146.986 35.755 146.996 35.7641C148.578 33.0615 148.726 32.4242 148.971 30.9278ZM177.851 35.3729C181.317 35.0308 184.263 33.4921 184.263 31.6114C184.263 30.8546 183.843 30.3201 182.359 30.3201C178.297 30.3201 172.055 35.3484 172.055 39.6227C172.055 41.1615 173.069 41.8666 174.406 41.8666C177.479 41.8666 180.969 39.0122 180.969 36.9116C180.969 36.0567 180.4 35.4461 178.446 35.4461C178.198 35.4461 178.148 35.4461 177.851 35.4705V35.3729ZM131.286 35.3729C134.752 35.0308 137.699 33.4921 137.699 31.6114C137.699 30.8546 137.278 30.3201 135.794 30.3201C131.732 30.3201 125.491 35.3484 125.491 39.6227C125.491 41.1615 126.505 41.8666 127.841 41.8666C130.914 41.8666 134.404 39.0122 134.404 36.9116C134.404 36.0567 133.836 35.4461 131.881 35.4461C131.633 35.4461 131.583 35.4461 131.286 35.4705V35.3729ZM128.287 41.3325C127.519 41.3325 127.296 40.8685 127.296 40.4044C127.296 39.1832 128.188 37.4246 129.328 35.9834C129.948 35.8355 130.567 35.7866 131.187 35.7866C132.054 35.7866 132.253 36.3485 132.253 36.7394C132.253 38.2542 130.022 41.3325 128.287 41.3325ZM174.852 41.3325C174.083 41.3325 173.86 40.8685 173.86 40.4044C173.86 39.1832 174.753 37.4246 175.893 35.9834C176.512 35.8355 177.132 35.7866 177.752 35.7866C178.619 35.7866 178.817 36.3485 178.817 36.7394C178.817 38.2542 176.587 41.3325 174.852 41.3325ZM143.759 33.6311C144.232 33.1382 144.5 32.6261 144.5 32.161C144.5 31.8923 144.376 31.7702 144.128 31.7702C143.202 31.7702 141.839 32.9354 140.757 34.0695C140.124 34.7304 139.586 35.3823 139.284 35.788C141.237 35.4351 142.869 34.5664 143.759 33.6311ZM135.273 30.9274C135.571 30.9274 135.671 31.0496 135.671 31.2695C135.671 32.7593 131.955 34.9332 129.725 35.3484C131.757 32.857 134.157 30.9274 135.273 30.9274ZM181.838 30.9274C182.136 30.9274 182.235 31.0496 182.235 31.2695C182.235 32.7593 178.52 34.9332 176.289 35.3484C178.322 32.857 180.722 30.9274 181.838 30.9274ZM110.145 24.1649C111.16 22.2301 112.114 19.9806 112.024 18.5555C111.998 18.1414 111.902 17.805 111.758 17.4958C111.758 17.4958 111.981 17.482 112.178 17.4698C112.549 17.4471 112.999 17.5171 113.38 17.6648C114.144 17.9847 114.372 18.4597 114.408 19.0201C114.559 21.4076 110.448 26.5772 110.128 27.0128C110.014 27.1666 110.122 27.3066 110.271 27.2975C110.666 27.2731 112.336 25.8249 113.103 25.0194C115.828 22.2344 118.385 18.3347 119.057 17.5839C119.312 17.2992 119.667 17.0327 120.162 17.0023C120.607 16.9747 121.059 17.0692 121.755 17.4666C120.837 19.0396 119.091 22.0333 115.948 26.4827C111.899 32.2394 108.905 34.3297 106.062 34.5049C102.626 34.7168 102.278 31.1923 102.26 30.8997C102.258 30.8752 102.841 33.4098 105.758 33.23C108.799 33.0426 111.644 29.3908 113.219 27.2381C114.659 25.315 116.732 22.0075 116.933 21.6528C117.044 21.4503 116.936 21.3101 116.797 21.4655C115.324 23.2927 111.145 28.173 109.242 28.2904C108.549 28.333 108.315 28.1518 107.947 27.8321C108.111 27.6158 108.587 26.8991 109.159 25.9317C107.879 27.2604 106.279 28.5464 104.818 28.6365C103.806 28.6988 102.876 28.0986 102.782 26.609C102.629 24.1964 105.263 20.78 105.679 20.2895C105.861 20.0337 105.682 19.9469 105.538 20.0292C104.892 20.4114 100.783 23.6496 98.391 27.0266C97.7993 27.8703 97.3745 28.606 97.1566 29.0843C96.537 29.098 96.2141 28.702 96.1909 28.3364C96.1615 27.8735 96.435 27.0982 96.6961 26.5194C98.0679 23.4989 99.7766 21.0938 100.021 20.6384C100.087 20.512 99.9573 20.4222 99.8832 20.4267C99.4877 20.451 95.3085 23.8159 92.8151 27.15C92.2434 27.9193 91.5543 28.7936 91.1141 29.677C90.6304 29.4867 90.3384 29.1866 90.3168 28.8454C90.2689 28.09 91.599 26.3688 93.0761 23.4397C94.5313 20.5608 94.6394 19.9181 94.7909 18.3919C94.7909 18.3919 94.9145 18.3847 95.0875 18.374C96.2741 18.3009 96.8751 18.7778 96.9261 19.5822C97.0421 21.4104 94.8823 24.1376 94.8823 24.1376C95.8819 23.0726 99.2823 19.9508 100.972 18.8188C101.473 18.4943 101.93 18.2704 102.326 18.2459C102.869 18.2125 103.299 18.3573 103.763 19.0384C102.411 20.3698 99.8201 23.7353 98.7356 25.8089C101.336 22.5895 106.887 17.818 108.444 17.7219C108.938 17.6915 109.45 17.9292 109.943 18.6573C109.618 19.02 104.183 24.1026 104.367 27.0034C104.412 27.7103 104.805 28.0287 105.373 27.9937C106.926 27.8979 108.853 25.8187 110.145 24.1649ZM90.4819 20.5427C91.0396 19.1625 91.7734 17.8203 93.3291 15.7423C94.199 14.5875 94.8541 13.9603 95.1678 13.4297C95.395 13.0976 95.452 12.825 95.4351 12.5569C95.3979 11.9721 95.001 11.5806 94.6378 11.3339C93.5919 12.4504 92.7576 13.3825 92.09 14.2036C92.07 13.8887 91.466 13.7558 91.0952 13.7786C90.1064 13.8395 88.2615 14.4886 86.2856 16.5925C83.4011 19.6333 80.6125 24.1365 80.829 27.5491C80.9481 29.4259 82.2471 30.3705 84.52 30.2303C87.3381 30.0566 89.8442 27.7029 89.7994 26.996C89.7885 26.8254 89.7066 26.7081 89.5274 26.6213C88.568 28.32 86.4622 29.551 85.0037 29.6408C84.0149 29.7018 83.1929 29.2631 83.1063 27.8981C82.7694 22.5843 89.1004 14.4123 91.5477 14.2615C91.696 14.2523 91.8706 14.2661 91.9309 14.4337C91.3531 15.1056 89.4651 17.4242 89.5766 19.1793C89.6198 19.8618 89.9953 20.3036 90.4819 20.5427ZM159.941 29.3403C161.972 29.3403 163.656 28.7553 163.755 27.4632C163.309 27.8539 162.12 28.0003 160.832 28.0003C158.752 27.9992 156.649 27.3654 154.049 27.3654C152.587 27.3654 151.721 28.3649 151.721 29.4136C151.721 29.6334 151.77 29.8777 151.844 30.0975C152.761 29.267 154.049 29.145 155.51 29.145C157.341 29.145 159.049 29.3403 159.941 29.3403ZM128.562 16.7517C124.365 17.9158 119.737 21.994 119.983 25.8695C120.058 27.0639 120.722 27.7539 122.03 27.6733C126.135 27.4202 131.205 20.1368 130.783 13.4825C130.534 9.55824 128.408 8.46914 125.688 8.63682C123.759 8.75567 121.892 9.84685 121.068 11.3408C122.098 10.3476 123.362 9.92708 124.648 9.84781C126.923 9.70753 128.473 11.0556 128.671 14.1756C128.727 15.0531 128.685 15.961 128.562 16.7517ZM141.754 23.8519C142.406 22.4568 143.734 20.8061 143.663 19.6875C144.395 19.9117 145.199 20.4737 145.242 21.1536C145.324 22.4461 142.965 24.3788 143.02 25.2566C143.034 25.4762 143.141 25.592 143.389 25.5768C144.675 25.4974 147.956 22.4552 149.473 20.5266C149.062 20.698 148.716 20.7436 148.171 20.7772C147.258 20.8335 146.487 20.3943 146.436 19.5901C146.3 17.444 149.205 15.1383 152.417 14.9403C153.801 14.8551 154.719 15.2364 155.215 16.0131C154.682 17.0008 153.678 18.7764 152.672 20.5242C151.532 22.504 150.85 23.8925 150.904 24.7459C150.928 25.1117 151.175 25.4882 151.669 25.4577C153.746 25.3297 156.981 21.1643 158.22 19.1819C158.348 19.2474 158.405 19.3663 158.415 19.5126C158.422 19.6342 158.404 19.7327 158.334 19.8099C156.786 22.0087 153.949 25.8034 151.304 25.9664C150.194 26.035 149.414 25.4499 149.344 24.3525L149.344 24.3503C149.234 22.62 150.66 20.502 152.718 16.5587C152.851 16.3057 152.911 16.0817 152.9 15.911C152.878 15.5695 152.599 15.4643 152.03 15.4994C150.226 15.6107 148.272 18.0569 148.369 19.5933C148.397 20.0323 148.729 20.1586 149.2 20.1297C149.57 20.1069 150.031 19.956 150.031 19.956C150.031 19.956 150.088 20.0749 150.097 20.2204C150.103 20.3173 150.085 20.4158 150.017 20.5174C148.257 22.9004 144.674 26.253 142.868 26.3643C142.053 26.4144 141.457 25.9864 141.406 25.1848C141.396 25.0266 141.414 24.8578 141.453 24.6807C140.169 25.7543 138.584 26.7751 137.191 26.861C135.833 26.9446 135.267 26.2213 135.21 25.3198C135.162 24.5646 135.312 23.7972 135.815 22.7652C134.736 24.1284 132.014 26.9599 130.283 27.0666C129.64 27.1062 129.246 26.7654 129.206 26.133C129.169 25.548 129.308 25.0013 130.476 23.0699C132.928 19.0777 133.429 17.1875 133.391 16.6025C133.385 16.5051 133.354 16.4091 133.297 16.2903C133.543 16.2507 133.788 16.2111 134.01 16.1974C135.121 16.1289 135.729 16.3361 135.774 17.0428C135.842 18.1151 134.736 19.8226 134.035 20.8933C132.704 22.9815 130.991 25.3135 130.71 25.9669C130.665 26.043 130.623 26.168 130.628 26.241C130.636 26.3629 130.714 26.4315 130.863 26.4223C131.901 26.3583 134.824 23.5603 136.352 21.4584C136.716 20.9467 137.854 18.9199 138.853 17.4641C139.579 16.3921 140.285 15.7861 141.101 15.7358C141.793 15.6931 142.323 15.8316 142.924 16.3082C142.033 17.1214 141.285 17.8523 139.589 20.0604C138.512 21.472 136.837 24.0212 136.936 25.5804C136.961 25.9702 137.157 26.325 137.701 26.2914C138.897 26.2178 140.48 25.0406 141.754 23.8519ZM122.931 22.7024C124.011 20.5559 126.344 18.1854 128.446 17.2727C127.899 20.7811 124.78 26.7974 122.925 26.9117C122.356 26.9467 122.11 26.5949 122.07 25.9611C121.996 24.7911 122.667 23.2326 122.931 22.7024ZM105.638 16.133C107.665 16.008 109.309 15.3205 109.326 14.0247C108.906 14.4422 107.729 14.6615 106.443 14.7407C104.367 14.8676 102.228 14.3645 99.633 14.5245C98.1745 14.6144 97.3725 15.6652 97.4389 16.7118C97.4528 16.9311 97.5178 17.1719 97.6058 17.3867C98.4679 16.5015 99.7456 16.3005 101.204 16.2105C103.032 16.0979 104.748 16.1877 105.638 16.133Z" fill="#E0E8E6"/>
</svg>
