<svg width="24" height="24" viewBox="0 0 24 24" fill="none" xmlns="http://www.w3.org/2000/svg">
<g clip-path="url(#clip0_3_194)">
<mask id="mask0_3_194" style="mask-type:luminance" maskUnits="userSpaceOnUse" x="0" y="0" width="24" height="24">
<path d="M24 0H0V24H24V0Z" fill="white"/>
</mask>
<g mask="url(#mask0_3_194)">
<path fill-rule="evenodd" clip-rule="evenodd" d="M5 24H19C21.762 24 24 21.761 24 19V5C24 2.239 21.762 0 19 0H5C2.239 0 0 2.239 0 5V19C0 21.761 2.239 24 5 24ZM15.8946 18.5518C15.6723 18.6406 15.4239 18.6047 15.2305 18.4601C14.0146 17.552 11.8717 15.902 11.8717 15.902C11.8717 15.902 10.744 17.02 10.0141 17.7429C9.88452 17.8714 9.70092 17.9206 9.52722 17.8733C9.35442 17.8261 9.22212 17.6871 9.16542 17.5104C8.71092 16.1061 7.84068 13.3429 7.84068 13.3429C7.84068 13.3429 5.97589 12.722 4.55571 12.277C4.35052 12.2117 4.20742 12.018 4.20022 11.7959C4.19392 11.5729 4.32442 11.3698 4.52511 11.2922C6.16476 10.6547 9.03228 9.52914 11.7658 8.45616C14.3122 7.45656 16.7425 6.50262 17.9556 6.03138C18.1185 5.96808 18.3021 6.0021 18.4344 6.11928C18.5658 6.23742 18.6252 6.42072 18.5901 6.59748C18.3573 7.7457 17.9341 9.89904 17.5017 12.0984C17.0531 14.3807 16.5947 16.7126 16.3293 18.0226C16.2798 18.2645 16.116 18.4639 15.8946 18.5518ZM9.63162 16.4832L8.62452 12.9942C8.62452 12.9942 13.1893 9.93336 15.7605 8.20872C15.8343 8.15958 15.9324 8.17656 15.9864 8.24934C16.0404 8.32212 16.0314 8.42508 15.9666 8.48652C13.7473 10.5882 9.85572 14.2738 9.85572 14.2738L9.63162 16.4832Z" fill="white"/>
</g>
</g>
<defs>
<clipPath id="clip0_3_194">
<rect width="24" height="24" fill="white"/>
</clipPath>
</defs>
</svg>
