<svg width="24" height="24" viewBox="0 0 24 24" fill="none" xmlns="http://www.w3.org/2000/svg">
<path fill-rule="evenodd" clip-rule="evenodd" d="M4.8 0H19.2C21.851 0 24 2.14903 24 4.8V19.2C24 21.851 21.851 24 19.2 24H4.8C2.14903 24 0 21.851 0 19.2V4.8C0 2.14903 2.14903 0 4.8 0ZM4.8 7.8C4.91693 13.4216 7.72314 16.8 12.6431 16.8H12.922V13.5838C14.7298 13.7639 16.0969 15.0883 16.6455 16.8H19.2C18.4984 14.2414 16.6545 12.827 15.5032 12.2865C16.6545 11.6198 18.2735 9.99822 18.6602 7.8H16.3397C15.836 9.5838 14.3431 11.2054 12.922 11.3585V7.8H10.6013V14.0342C9.16224 13.6739 7.34538 11.9261 7.26444 7.8H4.8Z" fill="white"/>
</svg>
