<svg width="24" height="24" viewBox="0 0 24 24" fill="none" xmlns="http://www.w3.org/2000/svg">
<g clip-path="url(#clip0_3_200)">
<mask id="mask0_3_200" style="mask-type:luminance" maskUnits="userSpaceOnUse" x="0" y="0" width="24" height="24">
<path d="M24 0H0V24H24V0Z" fill="white"/>
</mask>
<g mask="url(#mask0_3_200)">
<path fill-rule="evenodd" clip-rule="evenodd" d="M5 24H19C21.762 24 24 21.761 24 19V5C24 2.239 21.762 0 19 0H5C2.239 0 0 2.239 0 5V19C0 21.761 2.239 24 5 24ZM5.40004 11.7C5.40004 7.8954 8.49546 4.8 12.3 4.8C16.1046 4.8 19.2 7.8954 19.2 11.7C19.2 15.5046 16.1046 18.6 12.3 18.6C11.163 18.6 10.039 18.3174 9.04086 17.7816L5.77204 18.5913C5.74834 18.597 5.72404 18.6 5.70004 18.6C5.61994 18.6 5.54194 18.5679 5.48464 18.5088C5.41024 18.4323 5.38234 18.3219 5.41114 18.219L6.28896 15.087C5.70694 14.0562 5.40004 12.888 5.40004 11.7ZM14.5752 14.9664C14.9154 14.9163 15.6234 14.5434 15.771 14.1348C15.9186 13.7265 15.9186 13.3761 15.8742 13.3035C15.8386 13.2449 15.7552 13.2051 15.632 13.1463C15.6019 13.1319 15.5694 13.1164 15.5346 13.0992C15.3576 13.0116 14.4867 12.5886 14.3241 12.5304C14.1615 12.4719 14.0433 12.4431 13.9254 12.618C13.8075 12.7929 13.4679 13.1868 13.3647 13.3038C13.2615 13.4205 13.158 13.4352 12.981 13.3476C12.952 13.3333 12.9125 13.3163 12.8636 13.2953C12.6142 13.1884 12.1223 12.9776 11.5566 12.4794C11.0298 12.0156 10.6743 11.4429 10.5711 11.2677C10.4679 11.0925 10.56 10.998 10.6488 10.9107C10.7017 10.8586 10.7623 10.7857 10.823 10.7128C10.8538 10.6757 10.8847 10.6385 10.9146 10.6041C10.9903 10.5169 11.0228 10.451 11.0672 10.3612C11.0749 10.3457 11.083 10.3294 11.0916 10.3122C11.1504 10.1955 11.121 10.0932 11.0766 10.0056C11.0476 9.94728 10.8818 9.54888 10.7305 9.18492C10.6537 9.0003 10.5806 8.82456 10.5309 8.7066C10.4041 8.40534 10.2754 8.40612 10.1721 8.40678C10.1584 8.40684 10.145 8.40696 10.1322 8.4063C10.0288 8.4015 9.91086 8.4 9.79266 8.4C9.67446 8.4 9.48276 8.4438 9.32016 8.619C9.30978 8.63016 9.29826 8.64228 9.28572 8.65548C9.10116 8.84982 8.70006 9.27228 8.70006 10.0782C8.70006 10.9337 9.32718 11.7604 9.42168 11.885L9.42336 11.8872C9.42924 11.8949 9.43992 11.9101 9.45516 11.9316C9.6693 12.2345 10.7908 13.821 12.4494 14.5284C12.8721 14.7087 13.2021 14.8161 13.4592 14.8971C13.8834 15.0303 14.2698 15.0111 14.5752 14.9664Z" fill="white"/>
</g>
</g>
<defs>
<clipPath id="clip0_3_200">
<rect width="24" height="24" fill="white"/>
</clipPath>
</defs>
</svg>
