<svg width="45" height="45" viewBox="0 0 45 45" fill="none" xmlns="http://www.w3.org/2000/svg">
<path d="M23.1645 44.986C23.1889 44.9876 23.2088 45.0002 23.2334 44.9999C23.2598 44.9998 23.2813 44.9879 23.3059 44.9857C26.3043 44.9824 29.3026 44.398 32.1191 43.2395C32.1306 43.2364 32.1418 43.2391 32.1534 43.2341C32.1613 43.229 32.1656 43.2198 32.1773 43.2148C34.9205 42.0819 37.4895 40.4058 39.7208 38.1778C39.8034 38.0961 39.8645 37.9978 39.9125 37.8967C39.959 37.7899 39.9885 37.6821 39.9959 37.5689C39.9972 37.5482 39.9984 37.5294 39.9959 37.5103C39.9965 37.4421 39.9703 37.3799 39.9577 37.3128C39.9495 37.2649 39.949 37.2138 39.9294 37.1671C39.8826 37.0448 39.8162 36.9345 39.7223 36.8413L26.8615 23.8854L26.8616 23.8835L21.0421 18.0195L21.0422 18.0177C21.0422 18.0177 21.0403 18.0175 21.0386 18.0155L13.0786 9.99527C13.0768 9.99326 13.0769 9.99137 13.0752 9.98937C13.0734 9.98736 13.0715 9.98724 13.0698 9.98523L9.92716 6.81955C9.92201 6.81165 9.91486 6.80551 9.90772 6.79937L8.18329 5.06182C7.99029 4.86761 7.73239 4.77334 7.47881 4.78726L7.47318 4.78689C7.24801 4.79886 7.02737 4.88684 6.85582 5.06129C4.63228 7.28601 2.95976 9.8549 1.81929 12.5944C1.81256 12.611 1.79681 12.6214 1.7902 12.6361C1.78572 12.6472 1.78874 12.6587 1.78425 12.6698C0.621404 15.4931 0.0313064 18.4991 0.0142591 21.5081C0.0125547 21.5345 -5.16532e-05 21.5545 1.5926e-07 21.5829C0.000173647 21.6094 0.0121004 21.6291 0.0142735 21.6539C0.015761 24.6679 0.596421 27.6776 1.74879 30.5065C1.75206 30.5143 1.74957 30.5236 1.75284 30.5313C1.75775 30.543 1.76853 30.5513 1.77343 30.563C2.90263 33.3128 4.56701 35.8927 6.78552 38.1259C9.00029 40.359 11.562 42.037 14.2959 43.1809C14.3087 43.1874 14.3173 43.1993 14.332 43.206C14.3411 43.2104 14.3508 43.2072 14.3599 43.2116C17.1657 44.381 20.1633 44.974 23.1645 44.986ZM13.0231 31.88C7.61614 26.4308 7.43366 17.722 12.4325 12.0284L19.1017 18.7499C18.5291 19.5876 18.2144 20.5763 18.2136 21.6118C18.2107 22.9709 18.7354 24.2485 19.6896 25.2113C20.6438 26.174 21.9144 26.7048 23.2681 26.707C24.3013 26.7093 25.2869 26.3981 26.1215 25.8254L32.7908 32.545C27.1052 37.5449 18.4335 37.3333 13.0231 31.88ZM24.7513 24.442C24.3002 24.6817 23.7992 24.8197 23.2749 24.82C22.4246 24.8181 21.6259 24.4844 21.0239 23.8795C20.4237 23.2747 20.0928 22.4715 20.0951 21.6178C20.1026 21.092 20.2425 20.5899 20.4773 20.1374L24.7513 24.442ZM3.88193 30.6745L5.23429 30.1144C5.57726 29.9718 5.79234 29.6487 5.81474 29.3018C5.82375 29.1623 5.80284 29.019 5.74576 28.8809C5.54685 28.3986 4.99792 28.1681 4.51737 28.3681L3.15338 28.9331C2.41384 26.8654 1.99696 24.7068 1.90725 22.5334L3.37604 22.5355C3.87574 22.5355 4.2836 22.1473 4.31561 21.6515C4.31683 21.6326 4.31817 21.6119 4.31751 21.5929C4.31731 21.0704 3.89771 20.6476 3.37736 20.6462L1.92359 20.6451C1.93047 20.5092 1.92058 20.3704 1.92947 20.2328C2.06058 18.2023 2.49602 16.1897 3.1961 14.2547L4.54375 14.8187C5.0229 15.0201 5.57325 14.7906 5.77403 14.3094C5.8144 14.2098 5.83787 14.1091 5.84445 14.0073C5.86977 13.6151 5.64927 13.2336 5.26733 13.0746L3.9178 12.5104C4.8219 10.5696 6.00958 8.73422 7.52268 7.08646L11.1045 10.6932C5.37359 17.1233 5.55061 27.0263 11.6904 33.2157C17.8322 39.4034 27.6955 39.6163 34.1222 33.8862L37.7058 37.4949C36.0583 39.0052 34.2236 40.2006 32.2912 41.1L31.7306 39.7367C31.5317 39.2544 30.9827 39.0239 30.5022 39.2239C30.0216 39.4238 29.7915 39.9807 29.9907 40.4574L30.553 41.8245C28.4929 42.5699 26.3436 42.9726 24.1805 43.0638L24.184 41.6083C24.1837 41.0876 23.7642 40.663 23.2457 40.6617C22.7271 40.6623 22.3158 41.0465 22.3024 41.6041L22.2987 43.0635C20.1385 42.9638 17.9939 42.5356 15.9379 41.7857L16.4965 40.436C16.5332 40.3343 16.5567 40.2335 16.5632 40.1317C16.5886 39.7396 16.3681 39.3581 15.9861 39.199C15.5051 38.9976 14.9547 39.2271 14.7558 39.7083L14.1953 41.0598C12.2662 40.1553 10.4492 38.9456 8.80844 37.4312L9.8405 36.3998C10.0099 36.229 10.1012 36.0134 10.1156 35.789C10.1326 35.527 10.0422 35.2618 9.84394 35.0616C9.47751 34.6915 8.88168 34.6909 8.51284 35.0589L7.48479 36.0868C5.98282 34.4374 4.77695 32.6122 3.88193 30.6745Z" fill="#231F20"/>
<path fill-rule="evenodd" clip-rule="evenodd" d="M11.217 0.669797C11.5869 0.299846 12.1867 0.299846 12.5567 0.669797L13.8423 1.95542C14.2122 2.32537 14.2122 2.92518 13.8423 3.29513C13.4723 3.66508 12.8725 3.66508 12.5026 3.29513L11.217 2.00951C10.847 1.63956 10.847 1.03975 11.217 0.669797ZM16.3594 5.81228C16.7294 5.44233 17.3292 5.44233 17.6991 5.81228L20.2704 8.38353C20.6403 8.75348 20.6403 9.35329 20.2704 9.72324C19.9004 10.0932 19.3006 10.0932 18.9307 9.72324L16.3594 7.15199C15.9895 6.78204 15.9895 6.18223 16.3594 5.81228ZM22.7875 12.2404C23.1575 11.8704 23.7573 11.8704 24.1273 12.2404L26.6985 14.8116C27.0684 15.1816 27.0684 15.7814 26.6985 16.1513C26.3285 16.5213 25.7287 16.5213 25.3588 16.1513L22.7875 13.5801C22.4176 13.2101 22.4176 12.6103 22.7875 12.2404ZM29.2157 18.6685C29.5856 18.2985 30.1854 18.2985 30.5554 18.6685L33.1266 21.2397C33.4966 21.6097 33.4966 22.2095 33.1266 22.5795C32.7567 22.9494 32.1568 22.9494 31.7869 22.5795L29.2157 20.0082C28.8457 19.6383 28.8457 19.0384 29.2157 18.6685ZM35.6438 25.0966C36.0137 24.7267 36.6135 24.7267 36.9835 25.0966L39.5547 27.6678C39.9247 28.0378 39.9247 28.6376 39.5547 29.0076C39.1848 29.3775 38.5849 29.3775 38.215 29.0076L35.6438 26.4363C35.2738 26.0664 35.2738 25.4666 35.6438 25.0966ZM42.0719 31.5247C42.4418 31.1548 43.0416 31.1548 43.4116 31.5247L44.6972 32.8103C45.0671 33.1803 45.0671 33.7801 44.6972 34.15C44.3272 34.52 43.7274 34.52 43.3575 34.15L42.0719 32.8644C41.7019 32.4945 41.7019 31.8947 42.0719 31.5247Z" fill="#231F20"/>
</svg>
