<svg width="45" height="45" viewBox="0 0 45 45" fill="none" xmlns="http://www.w3.org/2000/svg">
<path fill-rule="evenodd" clip-rule="evenodd" d="M4.75068 33.5877C4.89919 33.2678 4.87706 32.896 4.70286 32.5894C3.0114 29.6122 2.04545 26.1689 2.04545 22.5C2.04545 11.2033 11.2033 2.04545 22.5 2.04545C26.2541 2.04545 29.7719 3.05678 32.796 4.82185C33.1088 5.00439 33.4918 5.02671 33.8179 4.86927C34.5436 4.51894 34.6209 3.52343 33.927 3.11359C30.5779 1.13522 26.6715 0 22.5 0C10.0736 0 0 10.0736 0 22.5C0 26.5784 1.0851 30.4033 2.98235 33.7019C3.39079 34.412 4.40571 34.3307 4.75068 33.5877ZM12.5986 40.4026C12.2975 40.2358 11.9355 40.2139 11.6214 40.3547C10.8628 40.6947 10.778 41.7271 11.5029 42.134C14.7546 43.9592 18.5057 45 22.5 45C34.9264 45 45 34.9264 45 22.5C45 18.5057 43.9592 14.7546 42.134 11.5029C41.7271 10.778 40.6947 10.8628 40.3547 11.6214C40.2139 11.9355 40.2358 12.2975 40.4026 12.5986C42.0287 15.5324 42.9545 18.9081 42.9545 22.5C42.9545 33.7967 33.7967 42.9545 22.5 42.9545C18.9081 42.9545 15.5324 42.0287 12.5986 40.4026Z" fill="#231F20"/>
<path d="M16.4601 16.8629L40.9242 3.21579C41.804 2.72499 42.7754 3.69618 42.2848 4.5761L28.9261 28.534C28.8344 28.6985 28.6981 28.8337 28.5329 28.9241L4.06941 42.3193C3.1873 42.8023 2.22422 41.8274 2.71793 40.9513L16.0761 17.2453C16.1665 17.0849 16.2994 16.9525 16.4601 16.8629Z" stroke="#231F20" stroke-width="2" stroke-linecap="round"/>
<circle cx="23" cy="23" r="3" stroke="#231F20" stroke-width="2" stroke-linecap="round"/>
</svg>
