<svg width="45" height="39" viewBox="0 0 45 39" fill="none" xmlns="http://www.w3.org/2000/svg">
<path d="M0 38.7238V36.2932L15.558 15.5779C16.166 14.7677 16.6667 13.7918 17.0602 12.6501C17.4536 11.4717 17.6503 10.4037 17.6503 9.44618C17.6503 8.48867 17.4893 7.5864 17.1674 6.73938C16.8456 5.85552 16.3627 5.10057 15.7189 4.47451C15.1109 3.81162 14.342 3.29604 13.4121 2.92776C12.5179 2.55949 11.4628 2.37535 10.2468 2.37535C8.49431 2.37535 6.93851 2.92776 5.57942 4.03258C4.22033 5.13739 3.30831 6.57365 2.84336 8.34136L0.429186 7.95467C0.71531 6.73938 1.16238 5.65297 1.77039 4.69547C2.41417 3.73796 3.16525 2.92776 4.02362 2.26487C4.91776 1.56516 5.88343 1.03116 6.92063 0.662891C7.99359 0.294617 9.10232 0.11048 10.2468 0.11048C11.7847 0.11048 13.1617 0.349857 14.3777 0.828611C15.6295 1.27054 16.6846 1.91501 17.543 2.76204C18.4014 3.57224 19.0451 4.52975 19.4743 5.63456C19.9393 6.73938 20.1718 7.95467 20.1718 9.28045C20.1718 10.4589 19.9572 11.711 19.528 13.0368C19.1346 14.3258 18.4908 15.5411 17.5966 16.6827L2.89701 36.3484H19.9035V38.7238H0Z" fill="#231F20"/>
<path d="M45 28.8357C45 30.4929 44.7318 31.9476 44.1953 33.1997C43.6588 34.4518 42.9256 35.5198 41.9957 36.4037C41.1016 37.2507 40.0465 37.8952 38.8304 38.3371C37.6502 38.779 36.4163 39 35.1287 39C33.8412 39 32.5894 38.779 31.3733 38.3371C30.1931 37.8952 29.138 37.2507 28.2081 36.4037C27.314 35.5198 26.5986 34.4518 26.0622 33.1997C25.5257 31.9476 25.2574 30.4929 25.2574 28.8357V10.2195C25.2574 8.56232 25.5257 7.10765 26.0622 5.85552C26.5986 4.56657 27.314 3.49858 28.2081 2.65156C29.138 1.7677 30.1931 1.10482 31.3733 0.662891C32.5894 0.220964 33.8412 0 35.1287 0C36.4163 0 37.6502 0.220964 38.8304 0.662891C40.0465 1.10482 41.1016 1.7677 41.9957 2.65156C42.9256 3.49858 43.6588 4.56657 44.1953 5.85552C44.7318 7.10765 45 8.56232 45 10.2195V28.8357ZM42.7468 10.551C42.7468 8.04674 42.0493 6.03966 40.6545 4.52975C39.2596 3.01983 37.4177 2.26487 35.1287 2.26487C32.8397 2.26487 30.9978 3.01983 29.6029 4.52975C28.2439 6.03966 27.5643 8.04674 27.5643 10.551V28.449C27.5643 30.9533 28.2439 32.9788 29.6029 34.5255C30.9978 36.0354 32.8397 36.7904 35.1287 36.7904C37.4177 36.7904 39.2596 36.0354 40.6545 34.5255C42.0493 32.9788 42.7468 30.9533 42.7468 28.449V10.551Z" fill="#231F20"/>
</svg>
