<svg width="40" height="46" viewBox="0 0 40 46" fill="none" xmlns="http://www.w3.org/2000/svg">
<path d="M25.9552 13.7368H13.9104C13.3582 13.7368 12.9104 14.1846 12.9104 14.7368V19.7833C12.9104 19.9926 12.9762 20.1967 13.0983 20.3667L18.9614 28.528C19.0835 28.698 19.1493 28.9021 19.1493 29.1114V34.5789M25.9552 13.7368H32.4776M25.9552 13.7368V18.9474M32.4776 13.7368H38C38.5523 13.7368 39 13.2891 39 12.7368V6.63158C39 6.07929 38.5523 5.63158 38 5.63158H13.9104C13.3582 5.63158 12.9104 5.18386 12.9104 4.63158V2C12.9104 1.44772 12.4627 1 11.9104 1H2C1.44772 1 1 1.44771 1 2V44C1 44.5523 1.44772 45 2 45H18.1493C18.7015 45 19.1493 44.5523 19.1493 44V42.6842M32.4776 13.7368V18.9474M32.4776 18.9474H25.9552M32.4776 18.9474H34.597C35.1493 18.9474 35.597 19.3951 35.597 19.9474V20.2632C35.597 20.8154 35.1493 21.2632 34.597 21.2632H33.1872C32.7622 21.2632 32.3836 21.5318 32.2433 21.9329L31.294 24.646C31.1537 25.0472 30.7751 25.3158 30.3501 25.3158H29.3582M25.9552 18.9474H23.5522C23 18.9474 22.5522 19.3951 22.5522 19.9474V20.2632C22.5522 20.8154 23 21.2632 23.5522 21.2632H25.2905C25.6932 21.2632 26.0566 21.5047 26.2125 21.876L27.3994 24.7029C27.5553 25.0742 27.9187 25.3158 28.3214 25.3158H29.3582M29.3582 25.3158V30.5263M19.1493 34.5789H38C38.5523 34.5789 39 35.0267 39 35.5789V41.6842C39 42.2365 38.5523 42.6842 38 42.6842H19.1493M19.1493 34.5789V42.6842" stroke="#231F20" stroke-width="2" stroke-linecap="round"/>
</svg>
