<svg width="100" height="100" viewBox="0 0 100 100" fill="none" xmlns="http://www.w3.org/2000/svg">
<path d="M85 5H15C10.858 5 7.5 8.358 7.5 12.5V30C7.5 34.142 10.858 37.5 15 37.5V75C10.858 75 7.5 78.358 7.5 82.5V87.5C7.5 91.642 10.858 95 15 95H85C89.142 95 92.5 91.642 92.5 87.5V82.5C92.5 78.358 89.142 75 85 75V37.5C89.142 37.5 92.5 34.142 92.5 30V12.5C92.5 8.358 89.142 5 85 5ZM56.25 21.25C56.25 24.696 53.446 27.5 50 27.5C49.195 27.5 48.428 27.342 47.721 27.064L55.813 18.972C56.092 19.678 56.25 20.445 56.25 21.25ZM40 60L42.143 75H22.5V37.5H35V45H40V47.5H27.5V52.5H40V55H47.5V57.5H52.5V55H60V45H65V37.5H77.5V75H57.857L60 60H40ZM54.235 65L53.164 72.5H46.837L45.765 65H54.235ZM45 50V45H55V50H45ZM60 40H40V37.5H60V40ZM50 15C50.805 15 51.572 15.158 52.279 15.436L44.187 23.528C43.909 22.821 43.751 22.054 43.751 21.249C43.75 17.804 46.554 15 50 15ZM15 12.5H42.945C40.39 14.564 38.75 17.718 38.75 21.25C38.75 24.782 40.39 27.936 42.945 30H15V12.5ZM85 87.5H15V82.5H85V87.5ZM85 30H57.055C59.61 27.936 61.25 24.782 61.25 21.25C61.25 17.718 59.61 14.564 57.055 12.5H85V30Z" fill="#F7A200"/>
<path d="M27.5 18.75H22.5V23.75H27.5V18.75Z" fill="#F7A200"/>
<path d="M80 18.75H75V23.75H80V18.75Z" fill="#F7A200"/>
<path d="M72.5 18.75H67.5V23.75H72.5V18.75Z" fill="#F7A200"/>
</svg>
