<svg width="90" height="56" viewBox="0 0 90 56" fill="none" xmlns="http://www.w3.org/2000/svg">
<path d="M88.815 25.811L81.52 14.951C80.202 12.983 77.991 12 75.623 12H63.947C63.141 12 62 11.75 62 12.027V6.75C62 2.826 58.398 0 54.474 0H2.369C1.059 0 0 0.692 0 2C0 3.308 1.059 4 2.369 4H54.474C55.783 4 57 5.442 57 6.75V45H47.013C45.641 39 40.434 36.972 35.388 38.341C32.145 39.225 29.61 41 28.729 45H28.421C27.112 45 26 43.47 26 42.163V30.434C26 29.126 24.809 28.066 23.5 28.066C22.19 28.066 21 29.127 21 30.434V42.163C21 46.088 24.496 49 28.421 49H28.752C30.124 54 35.33 57.028 40.379 55.659C43.622 54.775 46.156 53 47.038 49H64.278C65.649 54 70.856 57.028 75.905 55.659C79.147 54.775 81.683 53 82.564 49H82.894C86.819 49 90 46.088 90 42.163V29.623C89.977 28.266 89.567 26.941 88.815 25.811ZM37.895 51.637C35.279 51.637 33.158 49.516 33.158 46.9C33.158 44.284 35.279 42.164 37.895 42.164C40.511 42.164 42.632 44.284 42.632 46.9C42.632 49.516 40.511 51.637 37.895 51.637ZM73.421 51.637C70.805 51.637 68.685 49.516 68.685 46.9C68.685 44.284 70.805 42.164 73.421 42.164C76.037 42.164 78.158 44.284 78.158 46.9C78.158 49.516 76.037 51.637 73.421 51.637ZM85.263 42.397C85.263 43.704 84.204 45 82.895 45H82.539C81.168 39 75.962 36.972 70.915 38.341C67.671 39.225 65.136 41 64.255 45H62V18.705C62 17.397 62.639 16 63.947 16H75.623C76.412 16 77.147 16.558 77.589 17.21L84.884 28.237C85.139 28.615 85.28 29.218 85.286 29.675L85.263 42.397Z" fill="#F7A200"/>
<path d="M37.895 11.5C37.895 10.192 36.836 9 35.527 9H9.474C8.165 9 7.106 10.192 7.106 11.5C7.106 12.808 8.165 14 9.474 14H35.527C36.835 14 37.895 12.808 37.895 11.5Z" fill="#F7A200"/>
<path d="M37.895 21C37.895 19.692 36.836 19 35.527 19H16.579C15.27 19 14.21 19.692 14.21 21C14.21 22.308 15.27 23 16.579 23H35.526C36.835 23 37.895 22.308 37.895 21Z" fill="#F7A200"/>
</svg>
