<svg width="100" height="100" viewBox="0 0 100 100" fill="none" xmlns="http://www.w3.org/2000/svg">
<g clip-path="url(#clip0)">
<path d="M47.647 0.029997C46.514 0.220997 45.611 1.085 45.375 2.207C45.323 2.394 45.292 2.584 45.28 2.775L42.724 12.053C41.687 12.248 40.615 12.445 39.6 12.716C38.38 13.045 37.255 13.519 36.097 13.947L28.24 6.941C27.357 6.142 26.064 5.99 25.021 6.563C21.796 8.388 18.811 10.57 16.122 13.001C15.226 13.817 14.957 15.118 15.459 16.22L19.909 25.687C18.465 27.43 17.155 29.301 16.028 31.273L5.425 30.894C4.191 30.85 3.076 31.621 2.679 32.788C1.399 36.201 0.54 39.743 0.028 43.391C-0.146 44.619 0.508999 45.814 1.637 46.326L11.01 50.68C11.038 52.917 11.246 55.159 11.673 57.402L3.342 64.029C2.386 64.76 2.007 66.017 2.395 67.153C3.642 70.676 5.319 73.863 7.223 76.904C7.862 77.925 9.082 78.419 10.253 78.135L20.288 75.484C21.756 77.188 23.402 78.714 25.117 80.123L22.939 90.632C22.716 91.792 23.247 92.969 24.265 93.567C27.407 95.417 30.797 96.975 34.3 98.111C35.457 98.481 36.72 98.058 37.424 97.07L43.387 88.547C45.622 88.92 47.899 89.044 50.203 89.021L55.124 98.393C55.698 99.447 56.879 100.02 58.06 99.813C59.604 99.55 61.133 99.287 62.699 98.867C64.722 98.326 66.68 97.642 68.568 96.879C69.734 96.441 70.467 95.281 70.367 94.039L69.325 82.204C69.194 80.663 67.84 79.517 66.296 79.648C64.754 79.778 63.609 81.133 63.739 82.677L64.592 92.333C63.491 92.724 62.42 93.164 61.279 93.469C60.556 93.664 59.82 93.788 59.101 93.943L54.368 85.044C53.836 84.098 52.803 83.541 51.717 83.624C48.614 83.811 45.579 83.518 42.631 82.867C41.511 82.606 40.347 83.056 39.696 84.003L34.111 91.955C32.322 91.277 30.593 90.491 28.904 89.589L30.892 79.838C31.092 78.799 30.689 77.737 29.851 77.092C27.394 75.27 25.196 73.089 23.319 70.654C22.619 69.779 21.464 69.406 20.384 69.708L11.107 72.169C10.154 70.501 9.286 68.773 8.551 66.962L16.314 60.809C17.153 60.125 17.521 59.019 17.261 57.969C16.529 54.886 16.189 51.857 16.314 48.881C16.324 47.788 15.694 46.789 14.705 46.325L5.996 42.159C6.351 40.262 6.916 38.397 7.511 36.574L17.357 36.858C18.429 36.886 19.422 36.297 19.913 35.343C21.277 32.63 23.04 30.051 25.12 27.769C25.867 26.943 26.053 25.754 25.593 24.74L21.522 16.03C23.022 14.789 24.584 13.668 26.255 12.622L33.545 19.154C34.371 19.903 35.56 20.089 36.575 19.628C38.042 19.001 39.51 18.545 41.119 18.113C42.542 17.733 43.994 17.351 45.379 17.166C46.46 17.006 47.348 16.228 47.651 15.178L50.207 5.806C52.116 5.837 53.995 5.91 55.886 6.184L57.306 16.03C57.469 17.112 58.246 18 59.294 18.302C62.22 19.181 65.033 20.446 67.625 22.089C68.571 22.727 69.805 22.727 70.749 22.089L78.606 16.504C80.091 17.761 81.467 19.138 82.771 20.575L77.66 28.906C77.065 29.829 77.065 31.014 77.66 31.936C79.31 34.445 80.683 37.18 81.636 40.172C81.955 41.252 82.888 42.034 84.003 42.16L93.565 42.917C93.887 44.849 94.16 46.778 94.227 48.692L84.855 51.817C83.814 52.166 83.075 53.091 82.961 54.183C82.604 57.251 81.754 60.278 80.595 63.082C80.187 64.135 80.447 65.33 81.257 66.111L89.683 74.537C90.784 75.638 92.562 75.638 93.66 74.537C94.761 73.439 94.761 71.661 93.66 70.56L86.275 63.271C87.039 61.128 87.601 58.907 87.979 56.644L98.014 53.331C99.157 52.987 99.952 51.964 100.002 50.774C100.034 47.171 99.647 43.445 98.866 39.793C98.605 38.611 97.611 37.731 96.404 37.616L86.081 36.668C85.273 34.523 84.283 32.532 83.146 30.609L88.732 21.521C89.359 20.517 89.282 19.228 88.543 18.302C86.186 15.45 83.454 12.956 80.591 10.729C79.626 9.976 78.283 9.937 77.278 10.636L68.757 16.599C66.825 15.507 64.805 14.516 62.698 13.759L61.183 3.251C61.017 2.054 60.1 1.099 58.911 0.883997C55.385 0.229997 51.669 -0.104004 47.931 0.031996C47.836 0.025996 47.742 0.025997 47.647 0.029997Z" fill="#F7A200"/>
<path d="M52.474 32.407C50.072 32.07 47.574 32.122 45.091 32.786C35.158 35.449 29.27 45.765 31.932 55.696C34.593 65.631 44.815 71.613 54.746 68.95C56.255 68.631 57.222 67.151 56.905 65.642C56.586 64.13 55.1 63.166 53.592 63.483C53.503 63.504 53.414 63.527 53.325 63.554C46.317 65.432 39.205 61.284 37.328 54.276C35.449 47.271 39.596 40.061 46.605 38.182C53.615 36.305 60.727 40.453 62.603 47.46C63.514 50.85 63.023 54.258 61.467 57.116C60.709 58.477 61.197 60.193 62.555 60.951C63.916 61.708 65.632 61.222 66.39 59.862C68.606 55.8 69.288 50.846 67.999 46.04C66.006 38.591 59.686 33.422 52.474 32.407Z" fill="#F7A200"/>
</g>
<defs>
<clipPath id="clip0">
<rect width="100" height="99.854" fill="white"/>
</clipPath>
</defs>
</svg>
