<svg width="85" height="41" viewBox="0 0 85 41" fill="none" xmlns="http://www.w3.org/2000/svg">
<path d="M24.3506 18.2836V9.28931H27.047L29.7849 12.3565L32.2739 9.28931H34.8873V18.2836H31.9005V13.8486L29.7019 16.3769H29.6604L27.3789 13.8486V18.2836H24.3506Z" fill="#552110"/>
<path d="M36.1733 13.7657C36.1733 12.398 36.6297 11.2789 37.5423 10.367C38.4549 9.45513 39.6994 9.04065 41.1928 9.04065C42.6862 9.04065 43.9307 9.49658 44.8433 10.367C45.7559 11.2789 46.2122 12.398 46.2122 13.7657C46.2122 15.1335 45.7559 16.2526 44.8433 17.1645C43.9307 18.0764 42.7277 18.4908 41.1928 18.4908C39.6994 18.4908 38.4549 18.0349 37.5423 17.1645C36.6297 16.2941 36.1733 15.175 36.1733 13.7657ZM41.1928 15.7138C42.2299 15.7138 43.018 14.9677 43.018 13.7657C43.018 12.6052 42.2299 11.8177 41.1928 11.8177C40.1557 11.8177 39.3675 12.5637 39.3675 13.7657C39.3675 14.8848 40.1557 15.7138 41.1928 15.7138Z" fill="#552110"/>
<path d="M50.4848 18.2836H47.4565V9.28933H50.4848V14.0144L53.679 9.28933H56.7073V18.325H53.679V13.5999L50.4848 18.2836ZM51.3145 4.85437C51.3145 5.64189 51.6048 6.01492 52.1441 6.01492C52.6419 6.01492 52.8908 5.64189 52.8908 4.85437H55.5043C55.5043 6.84388 54.3012 8.25312 52.1441 8.25312C49.7796 8.25312 48.701 6.88533 48.701 4.85437H51.3145Z" fill="#552110"/>
<path d="M8.50403 17.3302C8.17216 17.7861 7.79882 18.0762 7.3425 18.242C6.88619 18.4078 6.30543 18.5322 5.6417 18.6565C4.97797 18.7394 4.39721 18.9467 3.89941 19.1539C2.53047 19.7756 1.78377 21.2263 1.61784 23.506H1.65932C2.24009 22.2625 3.69199 21.3921 5.22687 21.3921C7.79882 21.3921 9.41666 23.1744 9.41666 25.8685C9.41666 27.1534 8.96034 28.2725 8.13068 29.1429C7.25954 30.0548 6.13949 30.4693 4.81204 30.4693C3.36013 30.4693 2.1986 29.9719 1.32746 28.9771C0.414831 28.0238 0 26.656 0 24.9152C0 21.0191 1.12004 18.5736 3.36013 17.6203C3.89941 17.3716 4.52165 17.2058 5.1439 17.1229C6.38839 16.9157 7.09361 16.7914 7.63288 16.0867L8.50403 17.3302ZM4.72907 29.0186C5.60021 29.0186 6.30543 28.7284 6.84471 28.1482C7.38399 27.5679 7.67437 26.8633 7.67437 25.9929C7.67437 24.1691 6.59581 22.9257 4.77055 22.9257C3.98237 22.9257 3.27716 23.1329 2.73788 23.5889C2.15712 24.0448 1.82526 24.5836 1.65932 25.2053C1.70081 27.5264 2.9453 29.0186 4.72907 29.0186Z" fill="#552110"/>
<path d="M12.445 30.3037H10.8687V21.3094H12.445V28.0241L17.6719 21.3094H19.2897V30.3037H17.6719V23.5891L12.445 30.3037Z" fill="#552110"/>
<path d="M22.152 30.1794C21.4053 29.9307 20.9075 29.6406 20.5757 29.309L21.4053 28.107C22.1106 28.6873 23.2306 29.1017 24.0603 29.1017C25.4292 29.1017 26.4248 28.48 26.4248 27.6096C26.4248 26.8635 25.7611 26.449 24.641 26.449H23.1062V25.1642H24.5166C25.4292 25.1642 26.0929 24.5839 26.0929 23.8793C26.0929 23.0917 25.3462 22.5944 24.1847 22.5944C23.2306 22.5944 22.318 22.9259 21.4883 23.5891L20.8661 22.3457C21.5713 21.5996 22.9817 21.1437 24.4336 21.1437C26.5907 21.1437 27.8352 22.0555 27.8352 23.5891C27.8352 24.6253 27.2959 25.3299 26.2589 25.703C27.4619 25.8273 28.1256 26.7392 28.1256 27.8168C28.1256 29.4748 26.5492 30.511 24.3092 30.511C23.6039 30.511 22.8987 30.3866 22.152 30.1794Z" fill="#552110"/>
<path d="M36.3392 30.3037V26.4905H31.3198V30.3037H29.7434V21.3094H31.3198V24.9983H36.3392V21.3094H37.9571V30.3037H36.3392Z" fill="#552110"/>
<path d="M47.6226 29.3504C46.7514 30.1379 45.6314 30.5524 44.221 30.5524C42.7691 30.5524 41.6075 30.1379 40.6949 29.2675C39.8238 28.3557 39.4089 27.2366 39.4089 25.8273C39.4089 24.4595 39.8238 23.3404 40.6534 22.47C41.4831 21.5582 42.6031 21.1437 44.055 21.1437C45.258 21.1437 46.2536 21.5167 47.0418 22.3042C47.83 23.0503 48.2448 24.0451 48.2448 25.2885C48.2448 25.703 48.2033 26.076 48.1619 26.3661H41.1927C41.3172 28.0655 42.5616 29.0603 44.3454 29.0603C45.5484 29.0603 46.4611 28.7287 47.1248 28.107L47.6226 29.3504ZM41.1097 24.9984H46.5855C46.5025 23.5062 45.5069 22.5944 43.9721 22.5944C42.3542 22.5944 41.2757 23.5891 41.1097 24.9984Z" fill="#552110"/>
<path d="M57.1638 29.0187C56.4171 29.972 55.1311 30.5108 53.6792 30.5108C52.2273 30.5108 51.0658 30.0963 50.1531 29.2259C49.282 28.3555 48.8257 27.2364 48.8257 25.7857C48.8257 24.4594 49.282 23.3403 50.1117 22.4284C50.9828 21.5165 52.0614 21.0606 53.3888 21.0606C54.9652 21.0606 56.1682 21.4751 56.9564 22.2626L56.2097 23.5061C55.5459 22.8843 54.6748 22.5527 53.6377 22.5527C52.8081 22.5527 52.0614 22.8429 51.4391 23.4646C50.8169 24.0863 50.5265 24.8324 50.5265 25.7443C50.5265 26.6976 50.8169 27.4851 51.4391 28.0654C52.0614 28.6456 52.8495 28.9358 53.7622 28.9358C54.7993 28.9358 55.6704 28.5627 56.3341 27.7752L57.1638 29.0187Z" fill="#552110"/>
<path d="M75.8725 33.1636L72.8442 30.1793L69.8574 33.1636L72.8442 39.4637L75.8725 33.1636Z" fill="#ED5337"/>
<path d="M72.8444 12.854C71.6829 12.854 70.7703 13.8073 70.7703 14.9264C70.7703 16.087 71.7244 16.9988 72.8444 16.9988C74.0059 16.9988 74.9186 16.0455 74.9186 14.9264C74.9186 13.8073 74.0059 12.854 72.8444 12.854Z" fill="#C49368"/>
<path d="M72.8444 3.48663C72.2221 3.81822 63.884 8.21173 63.884 15.2165C63.884 21.2265 68.779 30.3451 68.779 30.3451L72.8444 26.2832L76.9097 30.3451C76.9097 30.3451 81.8047 21.2265 81.8047 15.2165C81.8462 8.21173 73.5081 3.81822 72.8444 3.48663ZM75.5408 23.5476L72.8444 20.8534L70.148 23.5476C70.0235 23.1745 68.1983 18.3251 68.1983 15.1336C68.1983 10.8644 72.5125 8.46042 72.8029 8.29463C73.1348 8.46042 77.4075 10.8644 77.4075 15.1336C77.4905 18.3251 75.6652 23.1745 75.5408 23.5476Z" fill="#C49368"/>
<path d="M75.8725 33.1636L72.8442 30.1793L69.8574 33.1636L72.8442 39.4637L75.8725 33.1636Z" fill="#ED5337"/>
<path d="M72.8444 12.854C71.6829 12.854 70.7703 13.8073 70.7703 14.9264C70.7703 16.087 71.7244 16.9988 72.8444 16.9988C74.0059 16.9988 74.9186 16.0455 74.9186 14.9264C74.9186 13.8073 74.0059 12.854 72.8444 12.854Z" fill="#C49368"/>
<path d="M72.8444 3.48663C72.2221 3.81822 63.884 8.21173 63.884 15.2165C63.884 21.2265 68.779 30.3451 68.779 30.3451L72.8444 26.2832L76.9097 30.3451C76.9097 30.3451 81.8047 21.2265 81.8047 15.2165C81.8462 8.21173 73.5081 3.81822 72.8444 3.48663ZM75.5408 23.5476L72.8444 20.8534L70.148 23.5476C70.0235 23.1745 68.1983 18.3251 68.1983 15.1336C68.1983 10.8644 72.5125 8.46042 72.8029 8.29463C73.1348 8.46042 77.4075 10.8644 77.4075 15.1336C77.4905 18.3251 75.6652 23.1745 75.5408 23.5476Z" fill="#C49368"/>
<path d="M1.78333 34.7817H0.0825195V33.9113H4.43824V34.7817H2.69595V39.1752H1.78333V34.7817Z" fill="#552110"/>
<path d="M4.06543 39.1735V35.7748C4.10691 35.7748 4.31433 35.7748 4.64619 35.7748C4.97806 35.7748 5.22696 35.7748 5.39289 35.7748C6.42996 35.7748 6.92776 36.0649 6.92776 36.6452C6.92776 36.8524 6.88628 37.0182 6.76183 37.1426C6.63738 37.2669 6.47145 37.3498 6.30551 37.3913C6.80331 37.5156 7.01073 37.7643 7.01073 38.1788C7.01073 38.8419 6.47145 39.215 5.39289 39.215C5.22696 39.215 4.97806 39.215 4.68768 39.1735C4.60471 39.1735 4.52174 39.1735 4.39729 39.1735C4.27285 39.1735 4.23136 39.1735 4.1484 39.1735C4.1484 39.1735 4.10691 39.1735 4.06543 39.1735ZM5.47585 36.438C5.26844 36.438 5.10251 36.438 4.93657 36.438V37.184H5.51734C5.68327 37.184 5.80772 37.1426 5.89068 37.0597C5.97365 36.9768 6.01513 36.8939 6.01513 36.7695C6.01513 36.5623 5.8492 36.438 5.47585 36.438ZM5.47585 37.7228H4.93657V38.4689C5.22696 38.4689 5.43437 38.5104 5.51734 38.5104C5.72475 38.5104 5.8492 38.4689 5.97365 38.386C6.0981 38.3031 6.13958 38.2202 6.13958 38.0959C6.0981 37.8886 5.89068 37.7228 5.47585 37.7228Z" fill="#552110"/>
<path d="M10.4954 38.2202L10.7443 38.842C10.4124 39.1321 9.95611 39.2564 9.45831 39.2564C8.91903 39.2564 8.46272 39.0906 8.13085 38.7591C7.79899 38.4275 7.63306 38.013 7.63306 37.4742C7.63306 36.9768 7.79899 36.5623 8.13085 36.2307C8.46272 35.8991 8.87755 35.7333 9.41683 35.7333C9.87314 35.7333 10.2465 35.8991 10.5369 36.1893C10.8687 36.4794 10.9932 36.8524 10.9932 37.3084C10.9932 37.5156 10.9932 37.6814 10.9517 37.7643H8.5042C8.54569 38.013 8.62865 38.2202 8.83607 38.3446C9.002 38.4689 9.2509 38.5518 9.54128 38.5518C9.91463 38.5518 10.2465 38.4275 10.4954 38.2202ZM9.37535 36.438C8.87755 36.438 8.58717 36.6866 8.5042 37.184H10.1635C10.1635 36.9768 10.0806 36.811 9.95611 36.6452C9.83166 36.4794 9.62425 36.438 9.37535 36.438Z" fill="#552110"/>
<path d="M12.6111 40.6657H11.74V35.7748H12.6111V36.1064C12.7356 35.982 12.86 35.8991 13.0674 35.8162C13.2749 35.7333 13.4408 35.6919 13.6482 35.6919C14.1045 35.6919 14.4779 35.8577 14.7683 36.1893C15.0586 36.5209 15.1831 36.9353 15.1831 37.4327C15.1831 37.9715 15.0172 38.386 14.6853 38.7591C14.3534 39.1321 13.9386 39.2979 13.3993 39.2979C13.0674 39.2979 12.7771 39.2564 12.6111 39.1321V40.6657ZM13.3578 36.5209C13.0674 36.5209 12.8186 36.6452 12.5697 36.8939V38.2617C12.7771 38.386 13.026 38.4689 13.2749 38.4689C13.5652 38.4689 13.7727 38.386 13.9801 38.1788C14.146 38.013 14.229 37.7643 14.229 37.4742C14.229 37.184 14.146 36.9768 13.9801 36.811C13.8556 36.6038 13.6482 36.5209 13.3578 36.5209Z" fill="#552110"/>
<path d="M18.5016 38.0544L18.9164 38.6762C18.626 39.0492 18.1697 39.2564 17.5889 39.2564C17.0496 39.2564 16.5933 39.0906 16.2615 38.7591C15.9296 38.4275 15.7637 38.013 15.7637 37.4742C15.7637 36.9768 15.9296 36.5623 16.2615 36.2307C16.5933 35.8991 17.0082 35.7333 17.506 35.7333C18.1282 35.7333 18.543 35.8991 18.8749 36.1893L18.4601 36.8939C18.2112 36.6866 17.9623 36.5623 17.6304 36.5623C17.3815 36.5623 17.1741 36.6452 16.9667 36.8524C16.8007 37.0182 16.6763 37.2669 16.6763 37.5571C16.6763 37.8472 16.7593 38.0959 16.9667 38.2617C17.1741 38.4275 17.3815 38.5104 17.6719 38.5104C17.9623 38.4689 18.2527 38.3031 18.5016 38.0544Z" fill="#552110"/>
<path d="M20.4512 39.1735H19.5801V35.7748H20.4512V39.1735ZM21.6957 35.7748H22.8158L21.5298 37.3913L22.9817 39.1735H21.8616L20.5342 37.4742L21.6957 35.7748Z" fill="#552110"/>
<path d="M23.7285 36.6452L23.5211 36.0235C23.8944 35.8162 24.2678 35.6919 24.7241 35.6919C25.1804 35.6919 25.5538 35.8162 25.7612 36.0235C25.9686 36.2307 26.093 36.6038 26.093 37.1011V39.1735H25.3049V38.8005C25.0974 39.0906 24.7656 39.2564 24.3093 39.2564C23.9774 39.2564 23.7285 39.1735 23.5211 38.9663C23.3137 38.7591 23.2307 38.5104 23.2307 38.2202C23.2307 37.8886 23.3552 37.5985 23.5626 37.3913C23.77 37.184 24.1019 37.1011 24.4752 37.1011C24.7656 37.1011 25.056 37.184 25.2634 37.3084C25.2634 37.0182 25.2219 36.7695 25.1389 36.6452C25.056 36.5209 24.89 36.438 24.6411 36.438C24.3508 36.438 24.0604 36.5209 23.7285 36.6452ZM24.5997 38.5104C24.89 38.5104 25.0974 38.4275 25.2634 38.2202V37.8886C25.1389 37.7643 24.9315 37.7229 24.6826 37.7229C24.5167 37.7229 24.3922 37.7643 24.3093 37.8472C24.2263 37.9301 24.1433 38.013 24.1433 38.1373C24.1433 38.2617 24.1848 38.3446 24.2678 38.4275C24.3508 38.4689 24.4752 38.5104 24.5997 38.5104Z" fill="#552110"/>
<path d="M28.6235 35.7748H29.7436V39.1735H28.8724V38.1373H28.3746L27.6694 39.1735H26.6738L27.5865 37.9715C27.4205 37.8886 27.2546 37.8057 27.1301 37.5985C27.0057 37.4327 26.9227 37.2255 26.9227 36.9768C26.9227 36.6037 27.0472 36.3136 27.3376 36.1064C27.6279 35.8991 28.0843 35.7748 28.6235 35.7748ZM27.8768 37.0597C27.8768 37.184 27.9183 37.3084 28.0428 37.3913C28.1672 37.4742 28.2917 37.5156 28.4161 37.5156H28.8724V36.5208H28.4991C28.2917 36.5208 28.1672 36.5623 28.0428 36.6866C27.9183 36.7695 27.8768 36.8939 27.8768 37.0597Z" fill="#552110"/>
<path d="M32.5644 38.7591C32.2326 38.4275 32.0667 38.013 32.0667 37.4742C32.0667 36.9768 32.2326 36.5209 32.5644 36.1893C32.8963 35.8577 33.3526 35.6919 33.8919 35.6919C34.4312 35.6919 34.8875 35.8577 35.2194 36.1893C35.5512 36.5209 35.7172 36.9353 35.7172 37.4742C35.7172 37.9715 35.5512 38.4275 35.2194 38.7591C34.8875 39.0906 34.4312 39.2564 33.8919 39.2564C33.3526 39.2564 32.9378 39.0906 32.5644 38.7591ZM33.2697 36.811C33.1037 36.9768 33.0208 37.2255 33.0208 37.5156C33.0208 37.8058 33.1037 38.013 33.2697 38.2202C33.4356 38.386 33.643 38.5104 33.9334 38.5104C34.2238 38.5104 34.4312 38.4275 34.5971 38.2202C34.7631 38.0544 34.846 37.8058 34.846 37.5156C34.846 37.2255 34.7631 37.0182 34.5971 36.811C34.4312 36.6452 34.1823 36.5209 33.9334 36.5209C33.643 36.5209 33.4356 36.6038 33.2697 36.811Z" fill="#552110"/>
<path d="M39.0772 33.8267L39.5335 34.5313C39.4091 34.6971 39.2431 34.78 39.0772 34.8629C38.9113 34.9043 38.7039 34.9872 38.455 35.0287C38.2061 35.0701 38.0401 35.153 37.8742 35.2359C37.4594 35.4431 37.2105 35.8576 37.1275 36.4793C37.2519 36.3136 37.3764 36.1478 37.6253 36.0234C37.8327 35.8991 38.0816 35.8576 38.3305 35.8576C38.7868 35.8576 39.1602 36.0234 39.4505 36.3136C39.7409 36.6037 39.8654 37.0182 39.8654 37.5156C39.8654 38.0129 39.6994 38.4274 39.3676 38.759C39.0357 39.0906 38.6209 39.2564 38.0816 39.2564C37.5008 39.2564 37.0445 39.0491 36.7541 38.6761C36.4223 38.3031 36.2563 37.7642 36.2563 37.1011C36.2563 35.6504 36.6712 34.7385 37.5423 34.3655C37.7083 34.2826 37.9157 34.2411 38.1646 34.1997C38.4135 34.1582 38.6209 34.1168 38.7453 34.0339C38.8698 34.0339 38.9527 33.951 39.0772 33.8267ZM37.2105 37.3083C37.2105 37.6399 37.2934 37.93 37.4594 38.1373C37.6253 38.3445 37.8327 38.4689 38.0816 38.4689C38.3305 38.4689 38.5379 38.386 38.7039 38.2202C38.8698 38.0544 38.9528 37.8471 38.9528 37.557C38.9528 37.3083 38.8698 37.0596 38.7453 36.8938C38.5794 36.728 38.372 36.6451 38.1231 36.6451C37.9157 36.6451 37.7083 36.6866 37.5423 36.8109C37.3764 36.9353 37.2519 37.1011 37.2105 37.3083Z" fill="#552110"/>
<path d="M43.6404 39.1735H42.7692V36.6452H41.8566L41.8151 37.0182C41.7321 37.6399 41.6492 38.0959 41.5247 38.4275C41.4003 38.759 41.2343 38.9663 41.0684 39.0906C40.861 39.215 40.6121 39.2564 40.2802 39.2564L40.1973 38.4275C40.3217 38.4275 40.4047 38.386 40.4876 38.3446C40.6121 38.2617 40.6951 38.0959 40.778 37.8472C40.861 37.5985 40.9025 37.2669 40.944 36.8939L40.9854 35.8577H43.5574V39.1735H43.6404Z" fill="#552110"/>
<path d="M44.8433 36.6452L44.6359 36.0235C45.0092 35.8162 45.3826 35.6919 45.8389 35.6919C46.2952 35.6919 46.6685 35.8162 46.876 36.0235C47.0834 36.2307 47.2078 36.6038 47.2078 37.1011V39.1735H46.4611V38.8005C46.2537 39.0906 45.9218 39.2564 45.4655 39.2564C45.1337 39.2564 44.8848 39.1735 44.6773 38.9663C44.4699 38.7591 44.387 38.5104 44.387 38.2202C44.387 37.8886 44.5114 37.5985 44.7188 37.3913C44.9262 37.184 45.2581 37.1011 45.6315 37.1011C45.9218 37.1011 46.2122 37.184 46.4196 37.3084C46.4196 37.0182 46.3782 36.7695 46.2952 36.6452C46.2122 36.5209 46.0463 36.438 45.7974 36.438C45.4655 36.438 45.1751 36.5209 44.8433 36.6452ZM45.7144 38.5104C46.0048 38.5104 46.2122 38.4275 46.3782 38.2202V37.8886C46.2537 37.7643 46.0463 37.7229 45.7974 37.7229C45.6315 37.7229 45.507 37.7643 45.424 37.8472C45.3411 37.9301 45.2581 38.013 45.2581 38.1373C45.2581 38.2617 45.2996 38.3446 45.3826 38.4275C45.4655 38.4689 45.59 38.5104 45.7144 38.5104Z" fill="#552110"/>
<path d="M50.6507 38.0544L51.0656 38.6762C50.7752 39.0492 50.3189 39.2564 49.7381 39.2564C49.1988 39.2564 48.7425 39.0906 48.4106 38.7591C48.0788 38.4275 47.9128 38.013 47.9128 37.4742C47.9128 36.9768 48.0788 36.5623 48.4106 36.2307C48.7425 35.8991 49.1573 35.7333 49.6551 35.7333C50.2774 35.7333 50.6922 35.8991 51.0241 36.1893L50.6092 36.8939C50.3603 36.6866 50.1115 36.5623 49.7796 36.5623C49.5307 36.5623 49.3233 36.6452 49.1159 36.8524C48.9499 37.0182 48.8255 37.2669 48.8255 37.5571C48.8255 37.8472 48.9084 38.0959 49.1159 38.2617C49.3233 38.4275 49.5307 38.5104 49.8211 38.5104C50.1114 38.4689 50.4018 38.3031 50.6507 38.0544Z" fill="#552110"/>
<path d="M52.4347 36.6452H51.3147V35.7748H54.3845V36.6452H53.2644V39.1735H52.3933V36.6452H52.4347Z" fill="#552110"/>
<path d="M56.2928 39.1735H55.0483V35.7748H55.9195V36.6866H56.3758C56.8736 36.6866 57.2469 36.811 57.4958 37.0182C57.7447 37.2255 57.8692 37.5156 57.8692 37.8886C57.8692 38.2617 57.7447 38.5933 57.4958 38.842C57.2055 39.0492 56.7906 39.1735 56.2928 39.1735ZM56.2928 37.3913H55.9195V38.4275H56.2928C56.7491 38.4275 56.9566 38.2617 56.9566 37.9301C56.9151 37.5985 56.7077 37.3913 56.2928 37.3913Z" fill="#552110"/>
<path d="M81.8905 0.0111491L78.7812 3.1178L81.8905 6.22445L84.9998 3.1178L81.8905 0.0111491Z" fill="#C49368"/>
</svg>
