<svg width="15" height="15" viewBox="0 0 15 15" fill="none" xmlns="http://www.w3.org/2000/svg">
<g clip-path="url(#clip0)">
<path d="M12.6516 6.0246C12.6516 10.2418 7.22949 13.8565 7.22949 13.8565C7.22949 13.8565 1.80737 10.2418 1.80737 6.0246C1.80737 4.58656 2.37863 3.20742 3.39547 2.19058C4.41232 1.17374 5.79146 0.602478 7.22949 0.602478C8.66753 0.602478 10.0467 1.17374 11.0635 2.19058C12.0804 3.20742 12.6516 4.58656 12.6516 6.0246Z" stroke="#E04E39" stroke-width="1.20492" stroke-linecap="round" stroke-linejoin="round"/>
<path d="M7.22949 7.83197C8.22768 7.83197 9.03687 7.02278 9.03687 6.0246C9.03687 5.02641 8.22768 4.21722 7.22949 4.21722C6.23131 4.21722 5.42212 5.02641 5.42212 6.0246C5.42212 7.02278 6.23131 7.83197 7.22949 7.83197Z" stroke="#E04E39" stroke-width="1.20492" stroke-linecap="round" stroke-linejoin="round"/>
</g>
<defs>
<clipPath id="clip0">
<rect width="14.459" height="14.459" fill="white"/>
</clipPath>
</defs>
</svg>
