<svg width="16" height="17" viewBox="0 0 16 17" fill="none" xmlns="http://www.w3.org/2000/svg">
<path fill-rule="evenodd" clip-rule="evenodd" d="M2.66659 6.69616C3.20569 6.9763 3.88618 7.2009 4.66658 7.36417V12.6563C3.44709 12.3772 2.66667 11.9853 2.66667 11.6777H2.66659V6.69616ZM1.33333 11.6777H1.33325V5.01103C1.33325 3.33986 4.31974 2.34436 7.99992 2.34436C11.6801 2.34436 14.6666 3.33986 14.6666 5.01103V11.6625L14.6667 11.6777C14.6667 13.0325 12.7039 13.9432 10 14.2395V13.011H9.99992V10.4673C9.38243 10.3902 8.70738 10.3444 8 10.3444C7.29256 10.3444 6.61746 10.3902 5.99992 10.4673V12.8881C5.99995 12.8881 5.99997 12.8881 6 12.8881V14.2395C3.2961 13.9432 1.33336 13.0325 1.33333 11.6777ZM13.3333 11.6777C13.3333 11.9854 12.5528 12.3772 11.3333 12.6563V10.699L11.3333 10.699V9.32455L11.3333 9.32453V7.36417C12.1137 7.2009 12.7941 6.9763 13.3333 6.69616V11.6777H13.3333ZM9.99992 9.11588V6.22145C11.9551 5.97738 13.3333 5.41987 13.3333 5.01103C13.3333 4.47306 10.9472 3.67769 7.99992 3.67769C5.05268 3.67769 2.66659 4.47306 2.66659 5.01103C2.66659 5.41987 4.04471 5.97738 5.99992 6.22145V9.1159C6.63138 9.04671 7.30326 9.01103 8 9.01103C8.69668 9.01103 9.36851 9.0467 9.99992 9.11588Z" fill="#E04E39"/>
</svg>
