<svg width="18" height="18" viewBox="0 0 18 18" fill="none" xmlns="http://www.w3.org/2000/svg">
<path d="M10.6235 4.5883C11.313 4.72282 11.9466 5.06001 12.4433 5.55672C12.94 6.05344 13.2772 6.68708 13.4117 7.37654M10.6235 1.76477C12.0559 1.9239 13.3917 2.56536 14.4114 3.58383C15.4312 4.6023 16.0743 5.93725 16.2353 7.36948M15.5294 13.0024V15.1201C15.5302 15.3167 15.4899 15.5112 15.4112 15.6914C15.3324 15.8715 15.2169 16.0332 15.072 16.1661C14.9272 16.299 14.7562 16.4002 14.5699 16.4632C14.3837 16.5261 14.1864 16.5495 13.9906 16.5318C11.8185 16.2958 9.73198 15.5536 7.8988 14.3648C6.19327 13.281 4.74728 11.835 3.66351 10.1295C2.47055 8.28797 1.72815 6.19135 1.49645 4.00948C1.47881 3.81428 1.50201 3.61754 1.56457 3.4318C1.62713 3.24606 1.72768 3.07537 1.85982 2.93062C1.99195 2.78587 2.15278 2.67021 2.33207 2.59102C2.51135 2.51183 2.70516 2.47084 2.90116 2.47065H5.01881C5.36137 2.46728 5.69348 2.58859 5.95322 2.81197C6.21297 3.03535 6.38262 3.34556 6.43057 3.68477C6.51995 4.36246 6.68571 5.02787 6.92469 5.6683C7.01966 5.92095 7.04021 6.19553 6.98392 6.45951C6.92762 6.72349 6.79683 6.96579 6.60704 7.15771L5.71057 8.05418C6.71543 9.82139 8.17865 11.2846 9.94586 12.2895L10.8423 11.393C11.0343 11.2032 11.2766 11.0724 11.5405 11.0161C11.8045 10.9598 12.0791 10.9804 12.3317 11.0754C12.9722 11.3143 13.6376 11.4801 14.3153 11.5695C14.6582 11.6179 14.9713 11.7906 15.1952 12.0548C15.419 12.319 15.538 12.6562 15.5294 13.0024Z" stroke="#E04E39" stroke-width="2" stroke-linecap="round" stroke-linejoin="round"/>
</svg>
