<svg width="12" height="12" viewBox="0 0 12 12" fill="none" xmlns="http://www.w3.org/2000/svg">
<path d="M10 6V11H2V6" stroke="white" stroke-linecap="round" stroke-linejoin="round"/>
<path d="M11 3.49988H1V5.99988H11V3.49988Z" stroke="white" stroke-linecap="round" stroke-linejoin="round"/>
<path d="M6 10.9999V3.49988" stroke="white" stroke-linecap="round" stroke-linejoin="round"/>
<path d="M6 3.50012H3.75C3.41848 3.50012 3.10054 3.36843 2.86612 3.13401C2.6317 2.89959 2.5 2.58164 2.5 2.25012C2.5 1.9186 2.6317 1.60066 2.86612 1.36624C3.10054 1.13182 3.41848 1.00012 3.75 1.00012C5.5 1.00012 6 3.50012 6 3.50012Z" stroke="white" stroke-linecap="round" stroke-linejoin="round"/>
<path d="M6 3.50012H8.25C8.58152 3.50012 8.89946 3.36843 9.13388 3.13401C9.3683 2.89959 9.5 2.58164 9.5 2.25012C9.5 1.9186 9.3683 1.60066 9.13388 1.36624C8.89946 1.13182 8.58152 1.00012 8.25 1.00012C6.5 1.00012 6 3.50012 6 3.50012Z" stroke="white" stroke-linecap="round" stroke-linejoin="round"/>
</svg>
