<svg width="24" height="24" viewBox="0 0 24 24" fill="none" xmlns="http://www.w3.org/2000/svg">
<path d="M20.8401 4.60995C20.3293 4.09895 19.7229 3.6936 19.0554 3.41703C18.388 3.14047 17.6725 2.99812 16.9501 2.99812C16.2276 2.99812 15.5122 3.14047 14.8447 3.41703C14.1772 3.6936 13.5708 4.09895 13.0601 4.60995L12.0001 5.66995L10.9401 4.60995C9.90836 3.57826 8.50909 2.99866 7.05006 2.99866C5.59102 2.99866 4.19175 3.57826 3.16006 4.60995C2.12837 5.64164 1.54877 7.04092 1.54877 8.49995C1.54877 9.95898 2.12837 11.3583 3.16006 12.3899L4.22006 13.4499L12.0001 21.2299L19.7801 13.4499L20.8401 12.3899C21.3511 11.8792 21.7564 11.2728 22.033 10.6053C22.3095 9.93784 22.4519 9.22244 22.4519 8.49995C22.4519 7.77746 22.3095 7.06205 22.033 6.39459C21.7564 5.72713 21.3511 5.1207 20.8401 4.60995V4.60995Z" stroke="#232630" stroke-width="2" stroke-linecap="round" stroke-linejoin="round"/>
</svg>
