<?xml version="1.0" encoding="UTF-8"?>
<!DOCTYPE svg PUBLIC "-//W3C//DTD SVG 1.1//EN" "http://www.w3.org/Graphics/SVG/1.1/DTD/svg11.dtd">
<!-- Creator: CorelDRAW X8 -->
<svg xmlns="http://www.w3.org/2000/svg" xml:space="preserve" width="297mm" height="210mm" version="1.1" style="shape-rendering:geometricPrecision; text-rendering:geometricPrecision; image-rendering:optimizeQuality; fill-rule:evenodd; clip-rule:evenodd"
viewBox="0 0 29700 21000"
 xmlns:xlink="http://www.w3.org/1999/xlink">
 <defs>
  <style type="text/css">
   <![CDATA[
    .fil2 {fill:#EF7F1A}
    .fil4 {fill:#DF4324;fill-rule:nonzero}
    .fil0 {fill:url(#id0)}
    .fil3 {fill:url(#id1)}
    .fil1 {fill:url(#id2)}
   ]]>
  </style>
  <linearGradient id="id0" gradientUnits="userSpaceOnUse" x1="5622.58" y1="5638.74" x2="5628.29" y2="8141.04">
   <stop offset="0" style="stop-opacity:1; stop-color:#727271"/>
   <stop offset="1" style="stop-opacity:1; stop-color:#B2B3B3"/>
  </linearGradient>
  <linearGradient id="id1" gradientUnits="userSpaceOnUse" x1="8506.57" y1="5668.24" x2="548.59" y2="12031.9">
   <stop offset="0" style="stop-opacity:1; stop-color:#DC3025"/>
   <stop offset="1" style="stop-opacity:1; stop-color:#EF7F1A"/>
  </linearGradient>
  <linearGradient id="id2" gradientUnits="userSpaceOnUse" xlink:href="#id0" x1="15518.5" y1="9477.9" x2="15543.7" y2="12992.8">
  </linearGradient>
 </defs>
 <g id="Слой_x0020_1">
  <metadata id="CorelCorpID_0Corel-Layer"/>
  <path class="fil0" d="M5853 5541l2654 0 0 63c0,0 -30,75 -84,192l-2570 0 0 -255zm-523 485l2983 0c-50,99 -108,209 -173,319l-2810 0 0 -319zm-637 562l3294 0c-73,106 -152,207 -233,294l-3061 0 0 -294zm-574 575l3313 0c-165,120 -350,225 -548,319l-2765 0 0 -319zm-727 562l2878 0c-392,131 -811,235 -1227,332l-1651 0 0 -332z"/>
  <path class="fil1" d="M5642 12763l1237 -3378 446 0 1225 3378 -485 0 -969 -2791 -944 2791 -510 0zm18660 -3365l-1371 1705 1237 1705 568 6 -1314 -1711 1371 -1705 -491 0zm3537 1682l6 0c-9,-694 -574,-1255 -1271,-1255 -701,0 -1271,570 -1271,1271 0,702 570,1271 1271,1271 661,0 1204,-504 1265,-1149l0 -138zm446 0l1 0 0 16 0 1737 -447 0 0 -584c-313,343 -764,559 -1265,559 -945,0 -1711,-767 -1711,-1712 0,-945 766,-1711 1711,-1711 940,0 1703,758 1711,1695zm-5852 -1682l447 0 0 3435 -447 0 0 -3435zm-1352 0l447 0 0 3435 -447 0 0 -1507 -1467 0 0 1507 -446 0 0 -3435 446 0 0 1505 1467 0 0 -1505zm-4967 2209c-343,-911 240,-1826 1225,-1826 701,0 956,408 956,562 0,153 77,319 -548,485 -568,151 -1237,309 -1633,779zm1767 728l-7 409c0,0 -688,268 -1377,-102 -689,-371 -957,-1009 -931,-1661 25,-651 633,-1643 1696,-1622 1063,22 1318,609 1403,677 85,68 306,600 -178,933 -485,332 -1097,332 -1608,600 -510,268 -561,421 -561,421 0,0 281,396 817,435 535,38 746,-90 746,-90zm-2457 -332c0,0 -319,926 -1569,869 -1250,-58 -1671,-1271 -1645,-1833 25,-562 546,-1684 1734,-1699 1189,-15 1505,901 1505,901l-503 12c0,0 -287,-511 -957,-485 -670,26 -1320,607 -1301,1322 19,715 497,1354 1301,1354 804,0 944,-435 944,-435 0,0 497,0 491,-6zm-6027 -409c-343,-910 239,-1826 1225,-1826 701,0 956,409 956,562 0,153 77,319 -548,485 -568,151 -1237,309 -1633,779zm1767 728l-7 409c0,0 -689,268 -1377,-102 -689,-370 -957,-1009 -931,-1660 25,-652 633,-1644 1696,-1622 1063,21 1318,608 1403,676 85,69 306,601 -178,933 -485,332 -1097,332 -1608,600 -510,268 -561,422 -561,422 0,0 281,395 816,434 536,38 747,-90 747,-90z"/>
  <path class="fil2" d="M8507 5604l0 1022c0,0 -277,807 -1110,1303 -1642,976 -4373,1262 -5472,2848 -273,393 -447,817 -447,817l0 -1864c0,0 306,-690 1684,-1188 1365,-494 3601,-608 4592,-1660 421,-447 753,-1278 753,-1278zm-7029 3602l-64 -1494c0,0 345,-1814 1072,-2491 727,-677 1479,-804 2219,-702 740,102 1365,600 1365,600l26 217c0,0 -653,-485 -1671,-498 -1018,-13 -1939,728 -2347,1788 -409,1060 -600,2580 -600,2580z"/>
  <path class="fil3" d="M8507 5604l0 1022c0,0 -277,807 -1110,1303 -1642,976 -4373,1262 -5472,2848 -273,393 -447,817 -447,817l0 -1864c0,0 306,-690 1684,-1188 1365,-494 3601,-608 4592,-1660 421,-447 753,-1278 753,-1278zm-7029 3602l-64 -1494c0,0 345,-1814 1072,-2491 727,-677 1479,-804 2219,-702 740,102 1365,600 1365,600l26 217c0,0 -653,-485 -1671,-498 -1018,-13 -1939,728 -2347,1788 -409,1060 -600,2580 -600,2580z"/>
  <path class="fil4" d="M6274 14927l140 0 178 -1138 -880 0 -179 1138 140 0 164 -1040 599 0 -162 1040zm335 349l135 0 79 -499c38,101 124,156 242,156 215,0 387,-152 430,-412 40,-260 -83,-413 -298,-413 -119,0 -224,58 -292,166l16 -160 -127 0 -185 1162zm255 -755c34,-207 148,-324 291,-324 153,0 237,117 205,324 -34,206 -155,323 -308,323 -143,0 -221,-117 -188,-323l0 0zm800 0c-41,260 95,412 328,412 234,0 419,-152 460,-412 42,-260 -94,-413 -328,-413 -234,0 -420,153 -460,413zm134 0c33,-207 157,-324 311,-324 156,0 240,117 208,324 -33,206 -154,323 -310,323 -156,0 -241,-117 -209,-323zm1369 406l132 0 128 -813 -125 0 -548 621 99 -621 -133 0 -128 813 126 0 547 -621 -98 621zm689 -83c-120,0 -197,-60 -182,-154l-120 0c-23,143 99,243 301,243 183,0 338,-79 360,-226 17,-95 -35,-169 -128,-201 80,-31 138,-98 153,-184 21,-136 -91,-214 -264,-214 -195,0 -346,101 -369,244l119 0c15,-93 109,-155 224,-155 108,0 173,51 158,137 -13,86 -88,136 -184,136l-134 0 -12 80 137 0c115,0 185,53 170,146 -14,94 -107,148 -229,148zm528 83l371 0c175,0 312,-81 335,-221 14,-99 -38,-169 -129,-200 80,-31 137,-94 150,-182 21,-132 -73,-210 -228,-210l-370 0 -129 813zm194 -374l214 0c112,0 181,52 166,143 -15,91 -97,143 -210,143l-214 0 44 -286zm57 -351l211 0c93,0 148,49 135,132 -13,83 -85,131 -177,131l-212 0 43 -263zm651 319c-40,260 96,412 329,412 234,0 419,-152 460,-412 42,-260 -95,-413 -329,-413 -234,0 -419,153 -460,413zm135 0c33,-207 156,-324 311,-324 156,0 240,117 208,324 -33,206 -155,323 -311,323 -156,0 -240,-117 -208,-323zm641 650l122 0 39 -244 700 0 -39 245 124 0 52 -330 -143 0 115 -728 -590 0c-110,696 -176,728 -294,728l-36 0 -50 329zm491 -969l331 0 -102 640 -424 0c74,-74 130,-239 195,-640zm1119 -5c116,0 187,73 169,187l132 0c26,-169 -96,-276 -284,-276 -234,0 -420,153 -460,413 -41,260 96,412 328,412 189,0 346,-107 372,-276l-131 0c-17,114 -113,187 -228,187 -154,0 -239,-117 -206,-323 32,-207 156,-324 308,-324zm442 5l301 0 -114 725 135 0 114 -725 302 0 13 -88 -736 0 -15 88zm808 725l371 0c175,0 312,-81 335,-221 14,-99 -38,-169 -129,-200 80,-31 137,-94 150,-182 21,-132 -73,-210 -228,-210l-370 0 -129 813zm194 -374l214 0c112,0 181,52 166,143 -15,91 -98,143 -210,143l-214 0 44 -286zm57 -351l211 0c93,0 148,49 135,132 -13,83 -85,131 -177,131l-212 0 43 -263zm1111 -94c-239,0 -419,153 -460,413 -40,260 96,412 329,412 198,0 359,-100 383,-260l-130 0c-16,103 -118,171 -240,171 -150,0 -236,-107 -210,-291l603 0c62,-301 -67,-445 -275,-445zm-16 89c122,0 200,99 172,275l-471 0c28,-174 154,-275 299,-275zm1014 730l135 0 129 -813 -135 0 -57 355 -429 0 57 -355 -135 0 -129 813 135 0 59 -371 427 0 -57 371zm936 0l135 0 129 -813 -135 0 -57 355 -429 0 57 -355 -135 0 -129 813 135 0 59 -371 427 0 -57 371zm1231 -813l-125 0 -34 155c-38,-104 -122,-161 -243,-161 -214,0 -386,153 -427,413 -41,260 83,412 296,412 120,0 226,-58 294,-165l-15 159 125 0 129 -813zm-200 407c-33,206 -148,323 -291,323 -151,0 -236,-117 -203,-323 32,-207 154,-324 305,-324 143,0 221,117 189,324l0 0zm257 406l141 0 286 -327 155 0 -51 327 135 0 128 -813 -344 0c-181,0 -320,90 -345,242 -21,132 56,217 190,239l-295 332zm645 -725l-49 310 -197 0c-112,0 -178,-55 -162,-156 16,-99 99,-154 211,-154l197 0zm1198 725l148 0 -281 -473 367 -340 -158 0 -429 395 62 -395 -135 0 -128 813 134 0 39 -255 152 -134 229 389zm294 -406c-41,260 96,412 328,412 234,0 420,-152 460,-412 43,-260 -94,-413 -328,-413 -234,0 -419,153 -460,413zm135 0c32,-207 156,-324 310,-324 156,0 241,117 208,324 -32,206 -154,323 -310,323 -156,0 -241,-117 -208,-323zm793 406l130 0 104 -662 179 662 117 0 385 -662 -102 662 128 0 128 -813 -190 0 -387 665 -173 -665 -191 0 -128 813zm1750 0l135 0 129 -813 -707 0 -129 813 135 0 116 -725 435 0 -114 725zm1231 -813l-125 0 -34 155c-38,-104 -122,-161 -243,-161 -214,0 -386,153 -427,413 -41,260 83,412 296,412 120,0 226,-58 294,-165l-15 159 125 0 129 -813zm-200 407c-33,206 -148,323 -291,323 -151,0 -236,-117 -203,-323 32,-207 154,-324 305,-324 143,0 221,117 189,324l0 0zm868 406l135 0 128 -813 -135 0 -57 355 -429 0 57 -355 -135 0 -128 813 135 0 58 -371 428 0 -57 371zm947 0l132 0 128 -813 -125 0 -547 621 99 -621 -134 0 -128 813 127 0 546 -621 -98 621zm324 0l141 0 286 -327 155 0 -51 327 135 0 129 -813 -345 0c-180,0 -320,90 -344,242 -22,132 55,217 190,239l-296 332zm645 -725l-49 310 -196 0c-112,0 -179,-55 -163,-156 16,-99 99,-154 211,-154l197 0z"/>
 </g>
</svg>
