<svg width="50" height="50" viewBox="0 0 50 50" fill="none" xmlns="http://www.w3.org/2000/svg">
<path d="M18.0558 35.6625C7.3875 25.3808 9.6125 18.8417 10.66 17.45L18.3583 24.6817C17.325 25.7783 18.4033 27.2633 19.6083 28.6683C21.3333 30.6767 23.3083 32.4433 25.0117 33.7517C27.5917 35.7242 28.93 36.5883 29.92 35.5433L37.425 42.6058C36.2517 43.8975 29.2917 46.4975 18.0558 35.6625V35.6625ZM40.0617 39.9233L40.0242 39.9292C40.0275 39.9292 37.9867 42.0442 37.9867 42.0442L30.4725 34.9642L32.4933 32.8392C32.7094 32.6187 33.0022 32.4902 33.3107 32.4804C33.6192 32.4706 33.9196 32.5803 34.1492 32.7867C34.1517 32.7925 40.0892 38.2925 40.0892 38.2925V38.3008C40.0892 38.7217 40.5192 39.4392 40.0592 39.9258L40.0617 39.9233ZM28.3783 14.9317L22.6133 18.0533L22.58 18.0733C22.3975 18.1516 22.1921 18.1576 22.0053 18.0901C21.8185 18.0227 21.6643 17.8868 21.5739 17.71C21.4835 17.5332 21.4636 17.3287 21.5183 17.1378C21.5729 16.9469 21.6981 16.7838 21.8683 16.6817L27.6325 13.5567C27.7223 13.507 27.8212 13.4756 27.9232 13.4645C28.0253 13.4533 28.1286 13.4625 28.227 13.4916C28.3255 13.5207 28.4172 13.569 28.4968 13.6338C28.5764 13.6987 28.6424 13.7786 28.6908 13.8692C28.7898 14.0517 28.8122 14.2661 28.7531 14.4652C28.694 14.6643 28.5583 14.8318 28.3758 14.9308L28.3783 14.9317ZM20.1925 15.6933C20.1167 15.798 20.0166 15.8826 19.9008 15.94C19.7737 16.0015 19.6324 16.0277 19.4917 16.016C19.351 16.0043 19.216 15.955 19.1008 15.8733C18.9332 15.7515 18.8207 15.5682 18.7879 15.3636C18.7551 15.159 18.8047 14.9498 18.9258 14.7817L22.7392 9.45C22.8593 9.28202 23.0412 9.16855 23.2449 9.1345C23.4487 9.10044 23.6576 9.14857 23.8258 9.26833C24.1758 9.52083 24.2592 10.01 24.0092 10.36L20.1925 15.6933V15.6933ZM17.0458 13.5083C17.0233 13.6083 16.9813 13.7029 16.9221 13.7866C16.863 13.8704 16.788 13.9417 16.7013 13.9964C16.6146 14.0511 16.518 14.0882 16.417 14.1055C16.3159 14.1229 16.2125 14.1202 16.1125 14.0975C16.0124 14.0755 15.9176 14.034 15.8336 13.9752C15.7496 13.9165 15.678 13.8417 15.623 13.7552C15.568 13.6686 15.5307 13.5721 15.5132 13.4711C15.4956 13.3701 15.4982 13.2667 15.5208 13.1667L16.96 6.77C16.9813 6.66861 17.0225 6.57247 17.0813 6.48716C17.1401 6.40185 17.2152 6.32908 17.3024 6.27307C17.3896 6.21707 17.487 6.17894 17.589 6.16092C17.691 6.1429 17.7956 6.14534 17.8967 6.16809C17.9977 6.19084 18.0933 6.23346 18.1777 6.29347C18.2622 6.35347 18.3339 6.42966 18.3886 6.51762C18.4433 6.60557 18.4801 6.70353 18.4966 6.8058C18.5132 6.90807 18.5092 7.0126 18.485 7.11333L17.0467 13.5083H17.0458ZM20.44 20.3583C21.2125 20.775 21.595 21.4942 21.2125 21.9808V21.9867L19.0325 24.1017L11.1617 16.8642L13.1117 14.7392C13.545 14.285 14.1567 14.2508 14.6233 14.6908L20.44 20.3508V20.3575V20.3583Z" fill="white"/>
</svg>
