<svg width="19" height="20" viewBox="0 0 19 20" fill="none" xmlns="http://www.w3.org/2000/svg">
<path fill-rule="evenodd" clip-rule="evenodd" d="M18.0213 19.7126H0V16.9226C0 13.688 2.01002 10.8715 4.87301 9.79473C4.0215 8.80355 3.51064 7.50923 3.51064 6.1135C3.51064 3.07737 5.92801 0.521118 9.01064 0.521118C12.0933 0.521118 14.5106 3.07737 14.5106 6.1135C14.5106 7.50928 13.9997 8.80363 13.1482 9.79483C16.0108 10.8716 18.0213 13.688 18.0213 16.9226V19.7126ZM10.9888 11.3341C10.8509 11.3234 10.7115 11.3179 10.5709 11.3179H7.45035C7.30975 11.3179 7.17038 11.3233 7.03242 11.3341C4.60551 11.5235 2.617 13.3484 2.11299 15.7339C2.03202 16.1171 1.98936 16.5148 1.98936 16.9226V17.7232H16.0319V16.9226C16.0319 16.5148 15.9892 16.1171 15.9082 15.7339C15.4041 13.3485 13.4152 11.5236 10.9888 11.3341ZM10.5944 9.32854C11.7366 8.73337 12.5213 7.51557 12.5213 6.1135C12.5213 4.12704 10.9462 2.51048 9.01064 2.51048C7.0751 2.51048 5.5 4.12704 5.5 6.1135C5.5 7.51557 6.28467 8.73337 7.42691 9.32854C7.43471 9.33261 7.44252 9.33664 7.45035 9.34064C7.92064 9.58116 8.45055 9.71652 9.01064 9.71652C9.57072 9.71652 10.1006 9.58116 10.5709 9.34064C10.5787 9.33664 10.5866 9.33261 10.5944 9.32854Z" fill="#111111"/>
</svg>
