<svg width="16" height="21" viewBox="0 0 16 21" fill="none" xmlns="http://www.w3.org/2000/svg">
<path d="M7.42009 19.9846C7.58934 20.1055 7.79211 20.1704 8.00009 20.1704C8.20806 20.1704 8.41084 20.1055 8.58009 19.9846C8.88409 19.7696 16.0291 14.6106 16.0001 8.17059C16.0001 3.75959 12.4111 0.170593 8.00009 0.170593C3.58909 0.170593 8.80377e-05 3.75959 8.80377e-05 8.16559C-0.028912 14.6106 7.11609 19.7696 7.42009 19.9846ZM8.00009 2.17059C11.3091 2.17059 14.0001 4.86159 14.0001 8.17559C14.0211 12.6136 9.61209 16.5986 8.00009 17.9056C6.38909 16.5976 1.97909 12.6116 2.00009 8.17059C2.00009 4.86159 4.69109 2.17059 8.00009 2.17059Z" fill="#AEADB2"/>
</svg>
