<svg width="94" height="94" viewBox="0 0 94 94" fill="none" xmlns="http://www.w3.org/2000/svg">
<g filter="url(#filter0_d)">
<path d="M47 75C64.6731 75 79 60.6731 79 43C79 25.3269 64.6731 11 47 11C29.3269 11 15 25.3269 15 43C15 60.6731 29.3269 75 47 75Z" fill="white"/>
<path d="M47 73.5C63.8447 73.5 77.5 59.8447 77.5 43C77.5 26.1553 63.8447 12.5 47 12.5C30.1553 12.5 16.5 26.1553 16.5 43C16.5 59.8447 30.1553 73.5 47 73.5Z" stroke="#F9800F" stroke-width="3"/>
</g>
<path d="M37.332 34.9521C37.9062 34.3428 38.2959 33.7393 38.501 33.1416C38.7061 32.5439 38.8203 31.6973 38.8438 30.6016L38.9141 27.4902H45.9102V34.9521H47.2812V39.8564H44.7412V37H39.1074V39.8564H36.5146V34.9521H37.332ZM40.3291 34.9521H43.3789V29.5908H41.4014L41.3838 30.7334C41.3311 32.4795 40.9795 33.8857 40.3291 34.9521ZM48.1777 32.1572C48.1777 31.2139 48.3594 30.373 48.7227 29.6348C49.0859 28.8965 49.6074 28.3252 50.2871 27.9209C50.9727 27.5166 51.7666 27.3145 52.6689 27.3145C53.9521 27.3145 54.998 27.707 55.8066 28.4922C56.6211 29.2773 57.0752 30.3438 57.1689 31.6914L57.1865 32.3418C57.1865 33.8008 56.7793 34.9727 55.9648 35.8574C55.1504 36.7363 54.0576 37.1758 52.6865 37.1758C51.3154 37.1758 50.2197 36.7363 49.3994 35.8574C48.585 34.9785 48.1777 33.7832 48.1777 32.2715V32.1572ZM50.7178 32.3418C50.7178 33.2441 50.8877 33.9355 51.2275 34.416C51.5674 34.8906 52.0537 35.1279 52.6865 35.1279C53.3018 35.1279 53.7822 34.8936 54.1279 34.4248C54.4736 33.9502 54.6465 33.1943 54.6465 32.1572C54.6465 31.2725 54.4736 30.5869 54.1279 30.1006C53.7822 29.6143 53.2959 29.3711 52.6689 29.3711C52.0479 29.3711 51.5674 29.6143 51.2275 30.1006C50.8877 30.5811 50.7178 31.3281 50.7178 32.3418ZM33.3242 50.707L34.0625 44.2031H41.2344V46.3213H36.1455L35.8291 49.0723C36.4326 48.75 37.0742 48.5889 37.7539 48.5889C38.9727 48.5889 39.9277 48.9668 40.6191 49.7227C41.3105 50.4785 41.6562 51.5361 41.6562 52.8955C41.6562 53.7217 41.4805 54.4629 41.1289 55.1191C40.7832 55.7695 40.2852 56.2764 39.6348 56.6396C38.9844 56.9971 38.2168 57.1758 37.332 57.1758C36.5586 57.1758 35.8408 57.0205 35.1787 56.71C34.5166 56.3936 33.9922 55.9512 33.6055 55.3828C33.2246 54.8145 33.0225 54.167 32.999 53.4404H35.5127C35.5654 53.9736 35.75 54.3896 36.0664 54.6885C36.3887 54.9814 36.8076 55.1279 37.3232 55.1279C37.8975 55.1279 38.3398 54.9229 38.6504 54.5127C38.9609 54.0967 39.1162 53.5107 39.1162 52.7549C39.1162 52.0283 38.9375 51.4717 38.5801 51.085C38.2227 50.6982 37.7158 50.5049 37.0596 50.5049C36.4561 50.5049 35.9668 50.6631 35.5918 50.9795L35.3457 51.208L33.3242 50.707ZM51.8955 51.709C51.8955 53.4785 51.5293 54.832 50.7969 55.7695C50.0645 56.707 48.9922 57.1758 47.5801 57.1758C46.1855 57.1758 45.1191 56.7158 44.3809 55.7959C43.6426 54.876 43.2646 53.5576 43.2471 51.8408V49.4854C43.2471 47.6982 43.6162 46.3418 44.3545 45.416C45.0986 44.4902 46.168 44.0273 47.5625 44.0273C48.957 44.0273 50.0234 44.4873 50.7617 45.4072C51.5 46.3213 51.8779 47.6367 51.8955 49.3535V51.709ZM49.3555 49.125C49.3555 48.0645 49.209 47.2939 48.916 46.8135C48.6289 46.3271 48.1777 46.084 47.5625 46.084C46.9648 46.084 46.5225 46.3154 46.2354 46.7783C45.9541 47.2354 45.8047 47.9531 45.7871 48.9316V52.043C45.7871 53.0859 45.9277 53.8623 46.209 54.3721C46.4961 54.876 46.9531 55.1279 47.5801 55.1279C48.2012 55.1279 48.6494 54.8848 48.9248 54.3984C49.2002 53.9121 49.3438 53.168 49.3555 52.166V49.125ZM61.6162 49.5293H58.5664V57H56.0176V49.5293H53.0205V47.4902H61.6162V49.5293Z" fill="#F9800F"/>
<defs>
<filter id="filter0_d" x="0" y="0" width="94" height="94" filterUnits="userSpaceOnUse" color-interpolation-filters="sRGB">
<feFlood flood-opacity="0" result="BackgroundImageFix"/>
<feColorMatrix in="SourceAlpha" type="matrix" values="0 0 0 0 0 0 0 0 0 0 0 0 0 0 0 0 0 0 127 0"/>
<feOffset dy="4"/>
<feGaussianBlur stdDeviation="7.5"/>
<feColorMatrix type="matrix" values="0 0 0 0 0 0 0 0 0 0 0 0 0 0 0 0 0 0 0.3 0"/>
<feBlend mode="normal" in2="BackgroundImageFix" result="effect1_dropShadow"/>
<feBlend mode="normal" in="SourceGraphic" in2="effect1_dropShadow" result="shape"/>
</filter>
</defs>
</svg>
