<svg width="94" height="94" viewBox="0 0 94 94" fill="none" xmlns="http://www.w3.org/2000/svg">
<g filter="url(#filter0_d)">
<path d="M47 75C64.6731 75 79 60.6731 79 43C79 25.3269 64.6731 11 47 11C29.3269 11 15 25.3269 15 43C15 60.6731 29.3269 75 47 75Z" fill="white"/>
<path d="M47 73.5C63.8447 73.5 77.5 59.8447 77.5 43C77.5 26.1553 63.8447 12.5 47 12.5C30.1553 12.5 16.5 26.1553 16.5 43C16.5 59.8447 30.1553 73.5 47 73.5Z" stroke="#F9800F" stroke-width="3"/>
</g>
<path d="M30.3438 31.0156C31.4271 31.0156 32.2917 31.375 32.9375 32.0938C33.5833 32.8125 33.9062 33.7891 33.9062 35.0234V35.1328C33.9062 36.3516 33.5469 37.3281 32.8281 38.0625C32.1094 38.7969 31.1432 39.1641 29.9297 39.1641C28.7109 39.1641 27.7396 38.7682 27.0156 37.9766C26.2969 37.1797 25.9375 36.099 25.9375 34.7344V34.3594C25.9479 32.4583 26.2682 30.9714 26.8984 29.8984C27.5339 28.8203 28.487 28.1406 29.7578 27.8594C30.4245 27.7135 30.8542 27.5703 31.0469 27.4297C31.2396 27.2839 31.3359 27.0833 31.3359 26.8281H33.1641C33.1641 27.6458 32.9427 28.2604 32.5 28.6719C32.0625 29.0833 31.2812 29.401 30.1562 29.625C29.4896 29.7604 28.9635 30.0234 28.5781 30.4141C28.1927 30.8047 27.9323 31.3542 27.7969 32.0625C28.5156 31.3646 29.3646 31.0156 30.3438 31.0156ZM29.9141 32.8438C29.3776 32.8438 28.9557 33.0234 28.6484 33.3828C28.3464 33.7422 28.1953 34.3255 28.1953 35.1328C28.1953 35.8516 28.3438 36.401 28.6406 36.7812C28.9375 37.1562 29.3672 37.3438 29.9297 37.3438C30.4766 37.3438 30.8984 37.1589 31.1953 36.7891C31.4922 36.4193 31.6432 35.875 31.6484 35.1562V34.9688C31.6484 34.276 31.4948 33.75 31.1875 33.3906C30.8854 33.026 30.4609 32.8438 29.9141 32.8438ZM34.9062 34.6953C34.9062 33.8568 35.0677 33.1094 35.3906 32.4531C35.7135 31.7969 36.1771 31.2891 36.7812 30.9297C37.3906 30.5703 38.0964 30.3906 38.8984 30.3906C40.0391 30.3906 40.9688 30.7396 41.6875 31.4375C42.4115 32.1354 42.8151 33.0833 42.8984 34.2812L42.9141 34.8594C42.9141 36.1562 42.5521 37.1979 41.8281 37.9844C41.1042 38.7656 40.1328 39.1562 38.9141 39.1562C37.6953 39.1562 36.7214 38.7656 35.9922 37.9844C35.2682 37.2031 34.9062 36.1406 34.9062 34.7969V34.6953ZM37.1641 34.8594C37.1641 35.6615 37.3151 36.276 37.6172 36.7031C37.9193 37.125 38.3516 37.3359 38.9141 37.3359C39.4609 37.3359 39.888 37.1276 40.1953 36.7109C40.5026 36.2891 40.6562 35.6172 40.6562 34.6953C40.6562 33.9089 40.5026 33.2995 40.1953 32.8672C39.888 32.4349 39.4557 32.2188 38.8984 32.2188C38.3464 32.2188 37.9193 32.4349 37.6172 32.8672C37.3151 33.2943 37.1641 33.9583 37.1641 34.8594ZM51.5312 30.5469V39H49.2734V32.375H47.2812L47.1406 34.9844C47.0521 36.375 46.7786 37.388 46.3203 38.0234C45.862 38.6589 45.1797 38.9844 44.2734 39H43.5078L43.4844 37.1641L43.7656 37.1406C44.1719 37.1094 44.4688 36.8698 44.6562 36.4219C44.8438 35.974 44.9609 35.2109 45.0078 34.1328L45.1641 30.5469H51.5312ZM57.1641 39.1562C55.9245 39.1562 54.9141 38.776 54.1328 38.0156C53.3568 37.2552 52.9688 36.2422 52.9688 34.9766V34.7578C52.9688 33.9089 53.1328 33.151 53.4609 32.4844C53.7891 31.8125 54.2526 31.2969 54.8516 30.9375C55.4557 30.5729 56.1432 30.3906 56.9141 30.3906C58.0703 30.3906 58.9792 30.7552 59.6406 31.4844C60.3073 32.2135 60.6406 33.2474 60.6406 34.5859V35.5078H55.2578C55.3307 36.0599 55.5495 36.5026 55.9141 36.8359C56.2839 37.1693 56.75 37.3359 57.3125 37.3359C58.1823 37.3359 58.862 37.0208 59.3516 36.3906L60.4609 37.6328C60.1224 38.112 59.6641 38.487 59.0859 38.7578C58.5078 39.0234 57.8672 39.1562 57.1641 39.1562ZM56.9062 32.2188C56.4583 32.2188 56.0938 32.3698 55.8125 32.6719C55.5365 32.974 55.3594 33.4062 55.2812 33.9688H58.4219V33.7891C58.4115 33.2891 58.276 32.9036 58.0156 32.6328C57.7552 32.3568 57.3854 32.2188 56.9062 32.2188ZM65.8203 39.1562C64.5807 39.1562 63.5703 38.776 62.7891 38.0156C62.013 37.2552 61.625 36.2422 61.625 34.9766V34.7578C61.625 33.9089 61.7891 33.151 62.1172 32.4844C62.4453 31.8125 62.9089 31.2969 63.5078 30.9375C64.112 30.5729 64.7995 30.3906 65.5703 30.3906C66.7266 30.3906 67.6354 30.7552 68.2969 31.4844C68.9635 32.2135 69.2969 33.2474 69.2969 34.5859V35.5078H63.9141C63.987 36.0599 64.2057 36.5026 64.5703 36.8359C64.9401 37.1693 65.4062 37.3359 65.9688 37.3359C66.8385 37.3359 67.5182 37.0208 68.0078 36.3906L69.1172 37.6328C68.7786 38.112 68.3203 38.487 67.7422 38.7578C67.1641 39.0234 66.5234 39.1562 65.8203 39.1562ZM65.5625 32.2188C65.1146 32.2188 64.75 32.3698 64.4688 32.6719C64.1927 32.974 64.0156 33.4062 63.9375 33.9688H67.0781V33.7891C67.0677 33.2891 66.9323 32.9036 66.6719 32.6328C66.4115 32.3568 66.0417 32.2188 65.5625 32.2188ZM33.8242 52.707L34.5625 46.2031H41.7344V48.3213H36.6455L36.3291 51.0723C36.9326 50.75 37.5742 50.5889 38.2539 50.5889C39.4727 50.5889 40.4277 50.9668 41.1191 51.7227C41.8105 52.4785 42.1562 53.5361 42.1562 54.8955C42.1562 55.7217 41.9805 56.4629 41.6289 57.1191C41.2832 57.7695 40.7852 58.2764 40.1348 58.6396C39.4844 58.9971 38.7168 59.1758 37.832 59.1758C37.0586 59.1758 36.3408 59.0205 35.6787 58.71C35.0166 58.3936 34.4922 57.9512 34.1055 57.3828C33.7246 56.8145 33.5225 56.167 33.499 55.4404H36.0127C36.0654 55.9736 36.25 56.3896 36.5664 56.6885C36.8887 56.9814 37.3076 57.1279 37.8232 57.1279C38.3975 57.1279 38.8398 56.9229 39.1504 56.5127C39.4609 56.0967 39.6162 55.5107 39.6162 54.7549C39.6162 54.0283 39.4375 53.4717 39.0801 53.085C38.7227 52.6982 38.2158 52.5049 37.5596 52.5049C36.9561 52.5049 36.4668 52.6631 36.0918 52.9795L35.8457 53.208L33.8242 52.707ZM52.3955 53.709C52.3955 55.4785 52.0293 56.832 51.2969 57.7695C50.5645 58.707 49.4922 59.1758 48.0801 59.1758C46.6855 59.1758 45.6191 58.7158 44.8809 57.7959C44.1426 56.876 43.7646 55.5576 43.7471 53.8408V51.4854C43.7471 49.6982 44.1162 48.3418 44.8545 47.416C45.5986 46.4902 46.668 46.0273 48.0625 46.0273C49.457 46.0273 50.5234 46.4873 51.2617 47.4072C52 48.3213 52.3779 49.6367 52.3955 51.3535V53.709ZM49.8555 51.125C49.8555 50.0645 49.709 49.2939 49.416 48.8135C49.1289 48.3271 48.6777 48.084 48.0625 48.084C47.4648 48.084 47.0225 48.3154 46.7354 48.7783C46.4541 49.2354 46.3047 49.9531 46.2871 50.9316V54.043C46.2871 55.0859 46.4277 55.8623 46.709 56.3721C46.9961 56.876 47.4531 57.1279 48.0801 57.1279C48.7012 57.1279 49.1494 56.8848 49.4248 56.3984C49.7002 55.9121 49.8438 55.168 49.8555 54.166V51.125ZM62.1162 51.5293H59.0664V59H56.5176V51.5293H53.5205V49.4902H62.1162V51.5293Z" fill="#F9800F"/>
<defs>
<filter id="filter0_d" x="0" y="0" width="94" height="94" filterUnits="userSpaceOnUse" color-interpolation-filters="sRGB">
<feFlood flood-opacity="0" result="BackgroundImageFix"/>
<feColorMatrix in="SourceAlpha" type="matrix" values="0 0 0 0 0 0 0 0 0 0 0 0 0 0 0 0 0 0 127 0"/>
<feOffset dy="4"/>
<feGaussianBlur stdDeviation="7.5"/>
<feColorMatrix type="matrix" values="0 0 0 0 0 0 0 0 0 0 0 0 0 0 0 0 0 0 0.3 0"/>
<feBlend mode="normal" in2="BackgroundImageFix" result="effect1_dropShadow"/>
<feBlend mode="normal" in="SourceGraphic" in2="effect1_dropShadow" result="shape"/>
</filter>
</defs>
</svg>
