<svg width="94" height="94" viewBox="0 0 94 94" fill="none" xmlns="http://www.w3.org/2000/svg">
<g filter="url(#filter0_d)">
<path d="M47 75C64.6731 75 79 60.6731 79 43C79 25.3269 64.6731 11 47 11C29.3269 11 15 25.3269 15 43C15 60.6731 29.3269 75 47 75Z" fill="white"/>
<path d="M47 73.5C63.8447 73.5 77.5 59.8447 77.5 43C77.5 26.1553 63.8447 12.5 47 12.5C30.1553 12.5 16.5 26.1553 16.5 43C16.5 59.8447 30.1553 73.5 47 73.5Z" stroke="#F9800F" stroke-width="3"/>
</g>
<path d="M44.8874 30.0466H50.1129V31H52V29.9131C52.0002 28.8583 51.2092 28 50.2369 28H44.7633C43.791 28 43 28.8583 43 29.9131V31H44.8874V30.0466Z" fill="#F9800F"/>
<path d="M56.1852 38H38.815C38.339 38 37.9643 38.394 38.0027 38.8544L39.4549 56.2782C39.5358 57.2509 40.372 58 41.3765 58H53.6235C54.628 58 55.4641 57.2509 55.5451 56.278L56.9973 38.8544C57.0359 38.394 56.6612 38 56.1852 38ZM43.021 56.1416C43.0015 56.1427 42.9821 56.1434 42.963 56.1434C42.4779 56.1434 42.0707 55.7769 42.0405 55.3007L41.1305 40.9968C41.0991 40.5018 41.4871 40.0758 41.997 40.0454C42.5052 40.0155 42.9461 40.3911 42.9775 40.8863L43.8873 55.1902C43.9188 55.6852 43.5308 56.1109 43.021 56.1416ZM48.4356 55.2456C48.4356 55.7412 48.0214 56.1432 47.5104 56.1432C46.9994 56.1432 46.5851 55.7412 46.5851 55.2456V40.9414C46.5851 40.4455 46.9994 40.0436 47.5104 40.0436C48.0212 40.0436 48.4356 40.4455 48.4356 40.9414V55.2456ZM53.8697 40.9943L53.0009 55.2982C52.9721 55.7753 52.5642 56.1432 52.0782 56.1432C52.0599 56.1432 52.0415 56.1427 52.023 56.1418C51.5129 56.1125 51.1237 55.6877 51.1539 55.1927L52.0225 40.8885C52.0525 40.3936 52.4889 40.0159 53.0004 40.0452C53.5105 40.0743 53.8997 40.4993 53.8697 40.9943Z" fill="#F9800F"/>
<path d="M58.9617 35.1697L58.3757 33.6645C58.2212 33.2677 57.7876 33 57.2993 33H37.7005C37.2124 33 36.7786 33.2677 36.6243 33.6645L36.0383 35.1697C35.9253 35.46 36.0724 35.7561 36.3469 35.9037C36.4588 35.9639 36.5912 36 36.7367 36H58.2633C58.4088 36 58.5415 35.9639 58.6531 35.9036C58.9276 35.7559 59.0747 35.4598 58.9617 35.1697Z" fill="#F9800F"/>
<defs>
<filter id="filter0_d" x="0" y="0" width="94" height="94" filterUnits="userSpaceOnUse" color-interpolation-filters="sRGB">
<feFlood flood-opacity="0" result="BackgroundImageFix"/>
<feColorMatrix in="SourceAlpha" type="matrix" values="0 0 0 0 0 0 0 0 0 0 0 0 0 0 0 0 0 0 127 0"/>
<feOffset dy="4"/>
<feGaussianBlur stdDeviation="7.5"/>
<feColorMatrix type="matrix" values="0 0 0 0 0 0 0 0 0 0 0 0 0 0 0 0 0 0 0.3 0"/>
<feBlend mode="normal" in2="BackgroundImageFix" result="effect1_dropShadow"/>
<feBlend mode="normal" in="SourceGraphic" in2="effect1_dropShadow" result="shape"/>
</filter>
</defs>
</svg>
