<svg width="26" height="31" viewBox="0 0 26 31" fill="none" xmlns="http://www.w3.org/2000/svg">
<path d="M7.79348 3.61533L7.81286 1.3461C7.81442 1.16347 7.97743 1.0246 8.15799 1.05208L24.7451 3.57654C24.8917 3.59885 25 3.72488 25 3.87313V27.1544C25 27.3031 24.8911 27.4293 24.744 27.4512L7.91515 29.9485C7.73289 29.9755 7.56955 29.8334 7.57113 29.6492L7.59023 27.4132M7.79348 3.61533H1.3C1.13432 3.61533 1 3.74965 1 3.91533V27.1132C1 27.2789 1.13431 27.4132 1.3 27.4132H7.59023M7.79348 3.61533L7.59023 27.4132M15.0095 15.8926L11.3697 16.4705C11.1876 16.4994 11.0227 16.3586 11.0227 16.1742V14.0131C11.0227 13.8262 11.1916 13.6848 11.3756 13.7178L15.0154 14.3697C15.1584 14.3953 15.2625 14.5197 15.2625 14.665V15.5964C15.2625 15.7439 15.1552 15.8695 15.0095 15.8926Z" stroke="black" stroke-width="1.2"/>
</svg>
