<svg width="32" height="26" viewBox="0 0 32 26" fill="none" xmlns="http://www.w3.org/2000/svg">
<path d="M27.4311 10.8646L27.651 11.4229C27.8568 11.3418 28.0013 11.1541 28.0271 10.9344L27.4311 10.8646ZM31 8.86568H31.6C31.6 8.64657 31.4806 8.44489 31.2884 8.33956L31 8.86568ZM16.7135 1.03355L17.0019 0.507427C16.9379 0.472325 16.868 0.449205 16.7957 0.439205L16.7135 1.03355ZM22.9443 17.2213L23.3391 17.6732L23.3391 17.6732L22.9443 17.2213ZM11.3614 5.52459L10.7621 5.49573C10.7613 5.51333 10.7612 5.53096 10.7619 5.54857L11.3614 5.52459ZM5.14401 11.3905L5.07862 10.7941C5.06518 10.7956 5.0518 10.7975 5.03849 10.7999L5.14401 11.3905ZM16.7134 21.4163L16.8265 22.0055C16.9958 21.973 17.1429 21.8693 17.2304 21.7208L16.7134 21.4163ZM15.1294 25L14.8448 25.5282C14.9323 25.5753 15.0301 25.6 15.1294 25.6V25ZM1.366 17.5842L0.827446 17.8487C0.882556 17.9609 0.971342 18.0531 1.0814 18.1124L1.366 17.5842ZM13.2522 3.86972L27.1455 11.3922L27.7168 10.337L13.8236 2.81447L13.2522 3.86972ZM28.0271 10.9344C28.0868 10.4251 28.3127 9.78663 28.7219 9.41736C28.9136 9.24434 29.1479 9.12677 29.4491 9.10011C29.7575 9.0728 30.1791 9.1375 30.7406 9.4067L31.2594 8.32466C30.558 7.98835 29.9193 7.85378 29.3432 7.90478C28.7599 7.95643 28.2856 8.19473 27.918 8.52646C27.2085 9.16668 26.9128 10.1332 26.8352 10.7947L28.0271 10.9344ZM31.2884 8.33956L17.0019 0.507427L16.4251 1.55968L30.7116 9.39181L31.2884 8.33956ZM16.7957 0.439205C16.1922 0.355778 15.2689 0.380101 14.467 0.768749C14.0569 0.967543 13.6672 1.26777 13.3821 1.70657C13.0956 2.14742 12.9379 2.69259 12.9379 3.3421H14.1379C14.1379 2.89257 14.2448 2.58136 14.3883 2.36042C14.5332 2.13744 14.739 1.97047 14.9904 1.84859C15.5118 1.5959 16.1762 1.56498 16.6313 1.6279L16.7957 0.439205ZM27.2113 10.3063C27.0735 10.3606 26.8254 10.4973 26.5659 10.653C26.2904 10.8183 25.9563 11.033 25.6312 11.2667C25.3098 11.4978 24.9797 11.76 24.7236 12.021C24.5959 12.1512 24.4722 12.2956 24.3769 12.4486C24.2871 12.5927 24.1864 12.8015 24.1864 13.0472H25.3864C25.3864 13.1248 25.3578 13.1434 25.3954 13.083C25.4275 13.0315 25.4865 12.957 25.5802 12.8614C25.767 12.671 26.0344 12.4547 26.3317 12.241C26.6254 12.0298 26.9312 11.8333 27.1834 11.6819C27.3093 11.6063 27.4195 11.5435 27.5058 11.4967C27.549 11.4733 27.5844 11.455 27.6117 11.4415C27.6413 11.4268 27.6528 11.4221 27.651 11.4229L27.2113 10.3063ZM24.1864 13.0472C24.1864 13.4987 24.2182 14.0083 24.0362 14.6283C23.8589 15.2322 23.465 15.9697 22.5496 16.7695L23.3391 17.6732C24.4143 16.7337 24.9415 15.8044 25.1876 14.9663C25.429 14.1441 25.3864 13.4363 25.3864 13.0472H24.1864ZM22.5496 16.7695C21.1207 18.0179 19.1226 18.2199 18.3251 18.1594L18.2343 19.3559C19.2195 19.4307 21.583 19.2075 23.3391 17.6732L22.5496 16.7695ZM25.0797 12.5237L11.6547 5.00117L11.0681 6.04802L24.4931 13.5706L25.0797 12.5237ZM11.9607 5.55346C11.9585 5.59941 11.9506 5.63277 11.9466 5.64786C11.9422 5.66453 11.9382 5.67455 11.9375 5.67639C11.9364 5.67929 11.94 5.66993 11.9532 5.64588C11.9795 5.59831 12.0244 5.52721 12.0897 5.43544C12.2189 5.25367 12.4035 5.02487 12.6131 4.79608C12.8233 4.56663 13.0475 4.34929 13.2544 4.18405C13.4791 4.00472 13.6199 3.93866 13.6697 3.92743L13.406 2.75677C13.077 2.83088 12.7581 3.04478 12.5057 3.24628C12.2357 3.46187 11.9657 3.72622 11.7282 3.98555C11.4901 4.24553 11.2735 4.5126 11.1117 4.74C11.0315 4.85283 10.9585 4.96465 10.9023 5.06661C10.8744 5.11733 10.8457 5.17438 10.8221 5.23388C10.8024 5.28342 10.7677 5.37946 10.7621 5.49573L11.9607 5.55346ZM18.5732 18.2343L5.43751 10.8672L4.85051 11.9138L17.9862 19.281L18.5732 18.2343ZM5.03849 10.7999C4.89521 10.8255 4.78732 10.8909 4.72581 10.9339C4.65803 10.9813 4.59946 11.0351 4.55167 11.0837C4.45608 11.181 4.36247 11.3001 4.27593 11.4214C4.10075 11.6668 3.91202 11.9812 3.73814 12.3007C3.56322 12.6221 3.3958 12.9626 3.26487 13.2652C3.1426 13.5479 3.02566 13.8566 2.99101 14.0897L4.17797 14.2661C4.18696 14.2056 4.24284 14.0269 4.36623 13.7417C4.48097 13.4764 4.63205 13.1685 4.79216 12.8743C4.9533 12.5782 5.11611 12.3098 5.25266 12.1185C5.32198 12.0214 5.37429 11.9587 5.40761 11.9247C5.42429 11.9078 5.42593 11.9086 5.41322 11.9175C5.40679 11.922 5.34886 11.9634 5.24953 11.9812L5.03849 10.7999ZM3.29232 14.702C5.33091 15.8385 12.8976 20.0029 16.4243 21.9421L17.0025 20.8905C13.4739 18.9503 5.91132 14.7882 3.87666 13.6538L3.29232 14.702ZM17.2304 21.7208L18.7967 19.0622L17.7628 18.4531L16.1965 21.1117L17.2304 21.7208ZM16.6003 20.827C16.1788 20.9079 15.5488 21.1034 15.0072 21.4443C14.4789 21.7769 13.895 22.3432 13.895 23.1904H15.095C15.095 22.959 15.2505 22.7091 15.6465 22.4598C16.0293 22.2189 16.5086 22.0666 16.8265 22.0055L16.6003 20.827ZM13.895 23.1904C13.895 24.41 14.3727 25.1916 14.7766 25.4853L15.4822 24.5147C15.4847 24.5165 15.3839 24.4302 15.2815 24.199C15.1848 23.9809 15.095 23.6502 15.095 23.1904H13.895ZM15.414 24.4718L1.6506 17.056L1.0814 18.1124L14.8448 25.5282L15.414 24.4718ZM1.90456 17.3197C1.65473 16.811 1.50534 16.1356 1.66825 15.644C1.74179 15.4221 1.88211 15.2233 2.14721 15.0694C2.42492 14.9083 2.8736 14.7779 3.58449 14.7779V13.5779C2.73882 13.5779 2.0622 13.7314 1.54496 14.0315C1.01511 14.339 0.690824 14.7788 0.529175 15.2665C0.22171 16.1942 0.519635 17.2219 0.827446 17.8487L1.90456 17.3197ZM10.7619 5.54857C10.7912 6.28116 10.5575 7.46416 9.73245 8.52262C8.92156 9.56289 7.50407 10.5282 5.07862 10.7941L5.20939 11.9869C7.92303 11.6894 9.64864 10.582 10.6789 9.26036C11.695 7.95684 12.0004 6.48858 11.9609 5.50062L10.7619 5.54857ZM30.4 8.86568V16.6049H31.6V8.86568H30.4ZM24.3926 24.4H15.1294V25.6H24.3926V24.4ZM24.1864 24.2483V24.6062H25.3864V24.2483H24.1864ZM30.5816 16.3815C26.856 17.1586 24.1864 20.4425 24.1864 24.2483H25.3864C25.3864 21.0108 27.6574 18.2173 30.8266 17.5563L30.5816 16.3815ZM24.3926 25.6C24.9415 25.6 25.3864 25.1551 25.3864 24.6062H24.1864C24.1864 24.4923 24.2787 24.4 24.3926 24.4V25.6ZM30.4 16.6049C30.4 16.4969 30.4758 16.4036 30.5816 16.3815L30.8266 17.5563C31.2772 17.4623 31.6 17.0652 31.6 16.6049H30.4Z" fill="black"/>
</svg>
