<svg width="26" height="28" viewBox="0 0 26 28" fill="none" xmlns="http://www.w3.org/2000/svg">
<path d="M1 6.87549L0.736015 6.33669C0.530362 6.43745 0.4 6.64648 0.4 6.87549H1ZM25 6.8701H25.6C25.6 6.6409 25.4694 6.43172 25.2635 6.33106L25 6.8701ZM13.0026 27L12.7388 27.5389C12.9054 27.6205 13.1004 27.6204 13.2669 27.5387L13.0026 27ZM1.28016 21.2615L1.54397 20.7226L1.28016 21.2615ZM24.7202 21.251L24.456 20.7123L24.7202 21.251ZM12.7724 1.10766L12.5085 0.568855L12.7724 1.10766ZM13.212 1.10747L12.9485 1.64651L13.212 1.10747ZM1.26398 7.4143L13.0364 1.64647L12.5085 0.568855L0.736015 6.33669L1.26398 7.4143ZM12.9485 1.64651L24.7365 7.40914L25.2635 6.33106L13.4755 0.568431L12.9485 1.64651ZM24.4 6.8701V20.8021H25.6V6.8701H24.4ZM24.456 20.7123L12.7383 26.4613L13.2669 27.5387L24.9845 21.7896L24.456 20.7123ZM13.2664 26.4611L1.54397 20.7226L1.01636 21.8004L12.7388 27.5389L13.2664 26.4611ZM1.6 20.8125V6.87549H0.4V20.8125H1.6ZM0.735699 7.41414L12.7279 13.2984L13.2565 12.2211L1.2643 6.33684L0.735699 7.41414ZM13.2564 13.2984L25.2642 7.40879L24.7358 6.33141L12.728 12.221L13.2564 13.2984ZM12.3922 12.7602L12.4026 27.0004L13.6026 26.9996L13.5922 12.7593L12.3922 12.7602ZM1.54397 20.7226C1.57826 20.7394 1.6 20.7743 1.6 20.8125H0.4C0.4 21.2324 0.639146 21.6158 1.01636 21.8004L1.54397 20.7226ZM24.4 20.8021C24.4 20.7639 24.4217 20.7291 24.456 20.7123L24.9845 21.7896C25.3613 21.6048 25.6 21.2217 25.6 20.8021H24.4ZM13.0364 1.64647C13.0087 1.66005 12.9762 1.66007 12.9485 1.64651L13.4755 0.568431C13.1704 0.419264 12.8135 0.419419 12.5085 0.568855L13.0364 1.64647Z" fill="black"/>
</svg>
