<svg width="30" height="29" viewBox="0 0 30 29" fill="none" xmlns="http://www.w3.org/2000/svg">
<path d="M10.5882 5.70798L10.2772 5.19493L10.2413 5.21668L10.2088 5.2432L10.5882 5.70798ZM29 9.91755H29.6V9.63743L29.3853 9.45757L29 9.91755ZM29 20.9664L29.4113 21.4032L29.6 21.2256V20.9664H29ZM21.5294 28L21.4717 28.5972C21.6438 28.6139 21.8148 28.5554 21.9407 28.4368L21.5294 28ZM1 26.0147H0.4C0.4 26.3237 0.634681 26.5822 0.942247 26.6119L1 26.0147ZM18.1694 1.11131L17.8583 0.598254L18.1694 1.11131ZM18.5175 1.13785L18.9028 0.677877L18.5175 1.13785ZM1.11028 13.4458L0.730832 12.981L1.11028 13.4458ZM1.48972 13.9105L10.9677 6.17277L10.2088 5.2432L0.730832 12.981L1.48972 13.9105ZM10.8993 6.22104L18.4805 1.62437L17.8583 0.598254L10.2772 5.19493L10.8993 6.22104ZM18.1323 1.59783L28.6147 10.3775L29.3853 9.45757L18.9028 0.677877L18.1323 1.59783ZM28.4 9.91755V20.9664H29.6V9.91755H28.4ZM28.5887 20.5295L21.1181 27.5632L21.9407 28.4368L29.4113 21.4032L28.5887 20.5295ZM21.5872 27.4028L1.05775 25.4175L0.942247 26.6119L21.4717 28.5972L21.5872 27.4028ZM1.6 26.0147V13.6781H0.4V26.0147H1.6ZM1.3375 26.5108L10.9257 19.9877L10.2507 18.9955L0.662504 25.5186L1.3375 26.5108ZM10.5403 20.0897L28.9521 21.5645L29.0479 20.3683L10.6361 18.8935L10.5403 20.0897ZM9.98824 5.70798V19.4916H11.1882V5.70798H9.98824ZM22.1294 28V15.4076H20.9294V28H22.1294ZM21.9274 14.9586L10.9863 5.25901L10.1902 6.15696L21.1314 15.8566L21.9274 14.9586ZM28.6447 9.43406L21.1741 14.9241L21.8847 15.8911L29.3553 10.401L28.6447 9.43406ZM18.4805 1.62437C18.3707 1.69093 18.2307 1.68026 18.1323 1.59783L18.9028 0.677877C18.6075 0.430575 18.1876 0.398564 17.8583 0.598254L18.4805 1.62437ZM0.730832 12.981C0.521465 13.1519 0.4 13.4079 0.4 13.6781H1.6C1.6 13.7682 1.55951 13.8536 1.48972 13.9105L0.730832 12.981Z" fill="black"/>
</svg>
