<svg width="15" height="15" viewBox="0 0 15 15" fill="none" xmlns="http://www.w3.org/2000/svg">
<path fill-rule="evenodd" clip-rule="evenodd" d="M4.41577 1.57101H10.7921C12.3467 1.57101 13.6205 2.82977 13.6205 4.36601V10.6671C13.6205 12.2034 12.3467 13.4603 10.7921 13.4603H4.41577C2.86119 13.4603 1.58927 12.2034 1.58927 10.6671V4.36601C1.58927 2.82977 2.86119 1.57101 4.41577 1.57101ZM7.45984 0.209351H6.57842H4.41577H4.41391L4.30792 0.211188H4.30606L4.20007 0.214863H4.19821L4.09221 0.222214L3.98622 0.231402H3.98435L3.88022 0.244265H3.87837L3.77609 0.258966H3.77423L3.67195 0.275504L3.56968 0.295718L3.46741 0.317769L3.367 0.341658H3.36514L3.26471 0.369222L3.16616 0.398624L3.06946 0.429863H3.0676L2.97091 0.46294L2.87421 0.499692L2.77938 0.538281L2.6864 0.578709L2.59528 0.622811H2.59342C2.53206 0.652213 2.47256 0.683452 2.41305 0.714691L2.32379 0.764306L2.23453 0.815759L2.14899 0.870887L2.06346 0.926015L1.97978 0.982981L1.89796 1.04362L1.818 1.10426V1.1061L1.7399 1.16858L1.66179 1.23289L1.58742 1.29905L1.51303 1.36704L1.44051 1.43687L1.36984 1.50853L1.30104 1.58204L1.2341 1.65738L1.16716 1.73456L1.10393 1.81174L1.04257 1.89076L0.983066 1.97161L0.92542 2.0543L0.869625 2.13699L0.813841 2.22152L0.76178 2.30789L0.711569 2.3961C0.679957 2.4549 0.648344 2.5137 0.618592 2.57618L0.573965 2.66622V2.66806L0.533049 2.75994L0.494006 2.85366L0.456813 2.94738V2.94921L0.423342 3.04293V3.04477L0.391733 3.14033L0.361974 3.23956L0.335938 3.33879L0.309913 3.43802L0.287588 3.53908V3.54092L0.268997 3.64199L0.250407 3.74306V3.7449L0.235527 3.84596V3.8478L0.222509 3.95255L0.213213 4.05729V4.05913L0.205779 4.16387L0.202057 4.26861V4.27045L0.200195 4.37703V10.6763V10.6782L0.202057 10.7829V10.7847L0.205779 10.8895V10.8913L0.213213 10.9961V10.9979L0.222509 11.1027V11.1045L0.235527 11.2074V11.2092L0.250407 11.3103V11.3121L0.268997 11.4132L0.287588 11.5143L0.309913 11.6153L0.335938 11.7146V11.7164L0.361974 11.8156L0.391733 11.913L0.423342 12.0086V12.0104L0.456813 12.106L0.494006 12.2015L0.533049 12.2953L0.573965 12.3871L0.618592 12.4772V12.479C0.648344 12.5397 0.679957 12.5985 0.711569 12.6573L0.76178 12.7455L0.813841 12.8337L0.869625 12.9182L0.92542 13.0027L0.983066 13.0854L1.04257 13.1663L1.10393 13.2453L1.16716 13.3225L1.2341 13.3978L1.30104 13.4732L1.36984 13.5467L1.44051 13.6183L1.51303 13.6863L1.58742 13.7543L1.66179 13.8205L1.7399 13.8848L1.818 13.9473L1.89796 14.0079L1.97978 14.0667L2.06346 14.1237L2.14899 14.1788L2.23453 14.2339L2.32379 14.2854L2.41305 14.335C2.47256 14.3662 2.53206 14.3975 2.59342 14.4269H2.59528L2.6864 14.471L2.77938 14.5114L2.87421 14.5482L2.97091 14.5849L3.0676 14.6198H3.06946L3.16616 14.6511L3.26471 14.6805L3.36514 14.7062H3.367L3.46741 14.7319L3.56968 14.7521L3.67195 14.7723L3.77423 14.7889H3.77609L3.87837 14.8036H3.88022L3.98435 14.8164H3.98622L4.09221 14.8256L4.19821 14.833H4.20007L4.30606 14.8367H4.30792L4.41391 14.8385H4.41577H10.7903L10.8981 14.8367H10.9L11.006 14.833L11.112 14.8256H11.1138L11.2198 14.8164L11.3258 14.8036L11.43 14.7889H11.4318L11.5341 14.7723L11.6364 14.7521H11.6382L11.7405 14.7319L11.8409 14.7062L11.9413 14.6805L12.0399 14.6511H12.0417L12.1384 14.6198H12.1403L12.2351 14.5849H12.237L12.3318 14.5482L12.4267 14.5114L12.5196 14.471H12.5215L12.6126 14.4269C12.674 14.3975 12.7354 14.3662 12.7949 14.335L12.8841 14.2854L12.9715 14.2339L13.0571 14.1788L13.1407 14.1237L13.2244 14.0667L13.3062 14.0079L13.3862 13.9473L13.4643 13.8848L13.5424 13.8205L13.6186 13.7543L13.693 13.6863L13.7655 13.6183L13.8362 13.5467L13.905 13.4732L13.9719 13.3978L14.037 13.3225L14.1003 13.2453H14.1021L14.1635 13.1663L14.2248 13.0854L14.2825 13.0027L14.3383 12.9182L14.3922 12.8337L14.4443 12.7455L14.4945 12.6573C14.5261 12.5985 14.5577 12.5397 14.5875 12.479V12.4772L14.6321 12.3871L14.673 12.2953L14.712 12.2015L14.7492 12.106L14.7827 12.0104V12.0086L14.8143 11.913L14.8441 11.8156L14.872 11.7164V11.7146L14.8961 11.6153L14.9185 11.5143L14.9389 11.4132L14.9556 11.3121V11.3103L14.9705 11.2092V11.2074L14.9835 11.1045V11.1027L14.9928 10.9979V10.9961L15.0003 10.8913V10.8895L15.004 10.7847V10.7829L15.0059 10.6782V10.6763V4.37703L15.004 4.27045V4.26861L15.0003 4.16387L14.9928 4.05913V4.05729L14.9835 3.95255L14.9705 3.8478V3.84596L14.9556 3.7449V3.74306L14.9389 3.64199L14.9185 3.54092V3.53908L14.8961 3.43802L14.872 3.33879L14.8441 3.23956L14.8143 3.14033L14.7827 3.04477V3.04293L14.7492 2.94921V2.94738L14.712 2.85366L14.673 2.75994L14.6321 2.66806V2.66622L14.5875 2.57618C14.5577 2.5137 14.5261 2.45674 14.4945 2.3961L14.4443 2.30789L14.3922 2.22152L14.3383 2.13699L14.2825 2.0543L14.2248 1.97161L14.1635 1.89076L14.1021 1.81174H14.1003L14.037 1.73456L13.9719 1.65738L13.905 1.58204L13.8362 1.50853L13.7655 1.43687L13.693 1.36704L13.6186 1.29905L13.5424 1.23289L13.4643 1.16858L13.3862 1.1061V1.10426L13.3062 1.04362L13.2244 0.982981L13.1407 0.926015L13.0571 0.870887L12.9715 0.815759L12.8841 0.764306L12.7949 0.714691C12.7354 0.683452 12.6758 0.652213 12.6126 0.622811L12.5215 0.578709H12.5196L12.4267 0.538281L12.3318 0.499692L12.237 0.46294H12.2351L12.1403 0.429863H12.1384L12.0417 0.398624H12.0399L11.9413 0.369222L11.8409 0.341658L11.7405 0.317769L11.6382 0.295718H11.6364L11.5341 0.275504L11.4318 0.258966H11.43L11.3258 0.244265L11.2198 0.231402L11.1138 0.222214H11.112L11.006 0.214863L10.9 0.211188H10.8981L10.7903 0.209351H9.57413H8.12183H7.45799H7.45984ZM7.60489 5.09921C8.95491 5.09921 10.0502 6.18156 10.0502 7.51566C10.0502 8.84975 8.95491 9.93394 7.60489 9.93394C6.25486 9.93394 5.15772 8.85159 5.15772 7.51566C5.15772 6.18156 6.253 5.09921 7.60489 5.09921ZM7.60489 3.73571C9.71732 3.73571 11.43 5.42814 11.43 7.51566C11.43 9.60317 9.71918 11.2956 7.60489 11.2956C5.49245 11.2956 3.77981 9.60317 3.77981 7.51566C3.77981 5.42814 5.49245 3.73571 7.60489 3.73571ZM11.5304 2.76362C12.0176 2.76362 12.4118 3.15319 12.4118 3.63464C12.4118 4.11609 12.0176 4.50566 11.5304 4.50566C11.0432 4.50566 10.649 4.11609 10.649 3.63464C10.649 3.15319 11.0432 2.76362 11.5304 2.76362Z" fill="#538C37"/>
</svg>
