<svg width="16" height="15" viewBox="0 0 16 15" fill="none" xmlns="http://www.w3.org/2000/svg">
<path d="M14.7287 8.81506C14.7975 8.42365 14.8347 8.01938 14.8347 7.60775C14.8347 3.76717 11.7014 0.654268 7.83913 0.654268C7.42445 0.654268 7.01907 0.689183 6.62485 0.759012C6.02794 0.419055 5.33991 0.222432 4.60539 0.216919H4.54402C2.25493 0.226107 0.402832 2.0729 0.402832 4.34969C0.402832 5.09575 0.601803 5.79588 0.949537 6.40045C0.880734 6.79186 0.843542 7.19613 0.843542 7.60775C0.843542 11.4483 3.97687 14.5612 7.83913 14.5612C8.25381 14.5612 8.65919 14.5245 9.05341 14.4565C9.66148 14.8038 10.3662 15.0004 11.1156 15.0004C13.4122 15.0004 15.2754 13.15 15.2754 10.8658C15.2754 10.1198 15.0765 9.41963 14.7287 8.81506ZM7.86516 12.0548C5.38082 12.0548 4.24464 10.8052 4.24464 9.88638C4.24464 9.41596 4.61841 9.0907 5.09445 9.0907C6.15625 9.0907 5.88104 10.6674 7.86331 10.6674C8.87862 10.6674 9.47366 10.0628 9.47366 9.49681C9.47366 9.15502 9.27656 8.77647 8.60712 8.61109L6.39613 8.05797C4.61655 7.60959 4.30415 6.63199 4.30415 5.72421C4.30415 3.84067 6.04653 3.16076 7.70896 3.16076C9.2375 3.16076 11.0561 3.99319 11.0561 5.12515C11.0561 5.60844 10.6452 5.87306 10.1673 5.87306C9.25982 5.87306 9.41044 4.61063 7.58251 4.61063C6.67506 4.61063 6.1953 5.0296 6.1953 5.62131C6.1953 6.20934 6.89635 6.40964 7.51929 6.55113L9.15568 6.91498C10.9464 7.31558 11.4262 8.35382 11.4262 9.34245C11.4262 10.875 10.2268 12.0548 7.86145 12.0548H7.86516Z" fill="#538C37"/>
</svg>
