<svg width="17" height="13" viewBox="0 0 17 13" fill="none" xmlns="http://www.w3.org/2000/svg">
<path d="M5.36671 12.9766C11.2856 12.9766 14.5212 8.13273 14.5212 3.93013C14.5212 3.79231 14.5194 3.65633 14.5119 3.51851C15.1404 3.07013 15.6872 2.50966 16.1167 1.87202C15.5402 2.1256 14.9192 2.2965 14.2702 2.37184C14.934 1.9786 15.4436 1.35565 15.6853 0.613258C15.0624 0.977104 14.3743 1.24172 13.6417 1.38505C13.054 0.767617 12.2191 0.379883 11.2931 0.379883C9.5172 0.379883 8.0742 1.80402 8.0742 3.56077C8.0742 3.81069 8.10209 4.05325 8.15788 4.28479C5.48386 4.15248 3.11109 2.88637 1.5249 0.962403C1.24783 1.43283 1.08977 1.9786 1.08977 2.56112C1.08977 3.66368 1.65879 4.63761 2.52161 5.20726C1.99351 5.19256 1.49887 5.04923 1.06374 4.81034C1.06188 4.8232 1.06187 4.83607 1.06187 4.85077C1.06187 6.39068 2.17202 7.677 3.64292 7.96918C3.37328 8.04085 3.08877 8.07943 2.79497 8.07943C2.5867 8.07943 2.38773 8.05922 2.19062 8.02247C2.59972 9.2849 3.78796 10.2037 5.19749 10.2313C4.09478 11.0839 2.70757 11.5929 1.20134 11.5929C0.941005 11.5929 0.686247 11.5782 0.43335 11.5488C1.85776 12.4511 3.54808 12.9766 5.36671 12.9766Z" fill="#538C37"/>
</svg>
