<svg width="20" height="11" viewBox="0 0 20 11" fill="none" xmlns="http://www.w3.org/2000/svg">
<path d="M9.74861 10.8389H10.8588C10.8588 10.8389 11.1953 10.8021 11.3683 10.6202C11.5245 10.4548 11.5208 10.1369 11.5208 10.1369C11.5208 10.1369 11.5003 8.665 12.1902 8.44816C12.8726 8.235 13.7466 9.8723 14.6782 10.5026C15.3793 10.9804 15.913 10.8738 15.913 10.8738L18.3955 10.8407C18.3955 10.8407 19.6953 10.7617 19.0798 9.75286C19.0296 9.67017 18.7209 9.00679 17.2333 7.64146C15.6768 6.21364 15.8851 6.44334 17.7614 3.9736C18.9031 2.47045 19.3606 1.55164 19.2174 1.1584C19.0798 0.783527 18.2411 0.884595 18.2411 0.884595L15.4462 0.901134C15.4462 0.901134 15.238 0.875407 15.0836 0.963612C14.933 1.05365 14.8363 1.2613 14.8363 1.2613C14.8363 1.2613 14.3956 2.42451 13.8043 3.41497C12.5584 5.50433 12.0619 5.61274 11.8592 5.48595C11.385 5.18275 11.5059 4.2713 11.5059 3.62262C11.5059 1.59942 11.8183 0.754126 10.9015 0.535451C10.5984 0.463785 10.3716 0.416007 9.59613 0.406819C8.59941 0.397631 7.75332 0.410494 7.27542 0.642032C6.95744 0.794553 6.71198 1.14002 6.8626 1.1584C7.0467 1.18412 7.46509 1.27049 7.68638 1.57002C7.97461 1.95408 7.96345 2.81959 7.96345 2.81959C7.96345 2.81959 8.12895 5.20296 7.57853 5.49698C7.20104 5.69911 6.68595 5.28565 5.5758 3.39108C5.00492 2.42083 4.57723 1.34951 4.57723 1.34951C4.57723 1.34951 4.49355 1.14921 4.34665 1.04079C4.16813 0.910322 3.91523 0.869895 3.91523 0.869895L1.25981 0.886433C1.25981 0.886433 0.860008 0.895621 0.713105 1.06836C0.584796 1.22271 0.703808 1.53511 0.703808 1.53511C0.703808 1.53511 2.78277 6.34411 5.13881 8.76607C7.2996 10.9877 9.74861 10.8426 9.74861 10.8426V10.8389Z" fill="#538C37"/>
</svg>
