<svg width="19" height="13" viewBox="0 0 19 13" fill="none" xmlns="http://www.w3.org/2000/svg">
<path d="M5.84374 0.665483C4.821 0.715099 3.80011 0.7445 2.78295 0.87497C1.50544 1.03484 0.783941 1.71292 0.566375 2.96616C0.190749 5.15658 0.14426 8.6223 0.624021 10.7778C0.836008 11.7334 1.50731 12.3692 2.47612 12.5437C2.92241 12.6264 3.37242 12.6742 3.82243 12.7018C7.51361 12.9462 11.9746 13.027 15.6361 12.597C16.8132 12.4592 17.5402 11.7811 17.756 10.6308C17.8917 9.92883 17.9512 9.21217 17.9884 8.49918C18.0851 6.6873 18.0739 4.88278 17.8043 3.08928C17.5942 1.7074 16.8838 1.0477 15.4873 0.87497C14.4534 0.748176 13.4121 0.713261 12.3707 0.665483C10.2192 0.569928 8.01197 0.56074 5.84374 0.667321V0.665483ZM7.42807 4.12936C8.96405 5.00222 10.4703 5.85671 12.0249 6.73692C10.4814 7.61529 8.96777 8.47345 7.42807 9.34999C7.42807 7.59692 7.42807 5.88427 7.42807 4.12936Z" fill="#538C37"/>
</svg>
