<svg width="16" height="16" viewBox="0 0 16 16" fill="none" xmlns="http://www.w3.org/2000/svg">
<g clip-path="url(#clip0)">
<path d="M11.083 2.04187H4.78061C3.04024 2.04187 1.62939 3.45272 1.62939 5.19309V11.4955C1.62939 13.2359 3.04024 14.6467 4.78061 14.6467H11.083C12.8234 14.6467 14.2343 13.2359 14.2343 11.4955V5.19309C14.2343 3.45272 12.8234 2.04187 11.083 2.04187Z" stroke="#737373" stroke-width="1.26049" stroke-linecap="round" stroke-linejoin="round"/>
<path d="M10.4527 7.94727C10.5305 8.47179 10.4409 9.00748 10.1966 9.47814C9.95242 9.94881 9.56601 10.3305 9.09237 10.5689C8.61873 10.8073 8.08198 10.8903 7.55846 10.806C7.03494 10.7218 6.55131 10.4746 6.17637 10.0997C5.80142 9.72471 5.55425 9.24108 5.47001 8.71757C5.38577 8.19405 5.46875 7.65729 5.70714 7.18365C5.94554 6.71001 6.32721 6.3236 6.79788 6.07938C7.26854 5.83516 7.80423 5.74557 8.32875 5.82335C8.86378 5.90269 9.3591 6.152 9.74156 6.53446C10.124 6.91692 10.3733 7.41225 10.4527 7.94727Z" stroke="#737373" stroke-width="1.26049" stroke-linecap="round" stroke-linejoin="round"/>
<path d="M11.3979 4.87793H11.4048" stroke="#737373" stroke-width="1.26049" stroke-linecap="round" stroke-linejoin="round"/>
</g>
<defs>
<clipPath id="clip0">
<rect width="15.1258" height="15.1258" fill="white" transform="translate(0.368652 0.781433)"/>
</clipPath>
</defs>
</svg>
