<svg width="17" height="16" viewBox="0 0 17 16" fill="none" xmlns="http://www.w3.org/2000/svg">
<path d="M14.79 11.393C14.7747 11.3584 14.7605 11.3297 14.7473 11.3067C14.5286 10.8925 14.1107 10.3841 13.4938 9.7813L13.4807 9.7675L13.4742 9.76073L13.4676 9.75379H13.461C13.181 9.47311 13.0037 9.28439 12.9295 9.18777C12.7936 9.00372 12.7632 8.81741 12.8374 8.62864C12.8899 8.48602 13.0869 8.18482 13.4281 7.72464C13.6075 7.48075 13.7497 7.28529 13.8546 7.13802C14.6116 6.07972 14.9398 5.40345 14.8391 5.10894L14.8 5.04012C14.7737 4.99869 14.7059 4.96078 14.5967 4.92622C14.4871 4.89172 14.3472 4.88602 14.1765 4.90901L12.2865 4.92274C12.2558 4.91133 12.2121 4.91239 12.1552 4.92622C12.0983 4.94004 12.0698 4.94698 12.0698 4.94698L12.0369 4.96427L12.0108 4.98503C11.9889 4.99876 11.9649 5.02291 11.9386 5.05743C11.9125 5.09183 11.8906 5.1322 11.8731 5.1782C11.6673 5.73493 11.4334 6.25256 11.1708 6.73104C11.0089 7.01636 10.8602 7.26363 10.7245 7.47299C10.5889 7.68228 10.4751 7.83649 10.3833 7.93533C10.2914 8.03427 10.2084 8.11354 10.1338 8.17341C10.0594 8.23331 10.0026 8.25862 9.96331 8.24937C9.92389 8.24011 9.88677 8.23092 9.85162 8.22174C9.79041 8.1803 9.74117 8.12395 9.70404 8.05264C9.66676 7.98133 9.64166 7.89158 9.62853 7.78345C9.61548 7.67525 9.60775 7.58218 9.60555 7.50393C9.6035 7.42578 9.60444 7.31524 9.60888 7.17262C9.61343 7.02992 9.61548 6.93337 9.61548 6.88275C9.61548 6.70788 9.61872 6.5181 9.62522 6.31335C9.63184 6.1086 9.6372 5.94638 9.64168 5.82686C9.64614 5.70723 9.64821 5.58066 9.64821 5.44722C9.64821 5.31379 9.64049 5.20914 9.62522 5.13319C9.61015 5.05733 9.587 4.9837 9.55649 4.91232C9.52581 4.84101 9.48089 4.78584 9.42195 4.74668C9.3629 4.70757 9.28948 4.67653 9.20211 4.65347C8.9702 4.59828 8.67489 4.56843 8.31605 4.56379C7.5023 4.5546 6.97943 4.60986 6.74754 4.72949C6.65566 4.78004 6.57252 4.8491 6.49818 4.93647C6.41941 5.03773 6.40842 5.09299 6.46529 5.10208C6.72784 5.14344 6.91371 5.24238 7.0231 5.3988L7.06253 5.48169C7.09319 5.5415 7.12381 5.64738 7.15445 5.79919C7.18504 5.95099 7.20479 6.11893 7.21348 6.30288C7.23532 6.63882 7.23532 6.92639 7.21348 7.16561C7.19157 7.40492 7.17088 7.59122 7.15114 7.72466C7.13139 7.8581 7.10188 7.96622 7.06253 8.04902C7.0231 8.13184 6.99688 8.18245 6.98373 8.20083C6.9706 8.2192 6.95966 8.23078 6.95097 8.23532C6.8941 8.25824 6.83496 8.26991 6.77375 8.26991C6.71244 8.26991 6.6381 8.23767 6.55062 8.17322C6.46315 8.10877 6.37238 8.02025 6.27829 7.90751C6.18421 7.79474 6.07811 7.63715 5.95993 7.43473C5.84185 7.2323 5.71933 6.99306 5.59245 6.717L5.48747 6.51679C5.42184 6.388 5.33219 6.20046 5.21843 5.95435C5.1046 5.70815 5.00399 5.46999 4.91653 5.23994C4.88156 5.14332 4.82904 5.06976 4.75905 5.01914L4.7262 4.99837C4.70436 4.98 4.66931 4.96049 4.62122 4.93971C4.57306 4.91894 4.52281 4.90405 4.47027 4.89489L2.67205 4.90862C2.4883 4.90862 2.36362 4.9524 2.29797 5.03983L2.2717 5.08119C2.25857 5.10423 2.25195 5.14102 2.25195 5.19166C2.25195 5.24228 2.26508 5.30441 2.29135 5.37797C2.55386 6.02678 2.83933 6.6525 3.14776 7.25524C3.45619 7.85798 3.72422 8.3435 3.95167 8.71136C4.17917 9.0795 4.41105 9.42694 4.64733 9.75352C4.88361 10.0802 5.04001 10.2896 5.11653 10.3816C5.19315 10.4737 5.25333 10.5426 5.29707 10.5886L5.46117 10.7542C5.56617 10.8647 5.72037 10.9969 5.92382 11.1511C6.12732 11.3053 6.35261 11.4571 6.59981 11.6067C6.84705 11.7561 7.13468 11.8781 7.46286 11.9724C7.79099 12.0668 8.11037 12.1046 8.42103 12.0864H9.17577C9.32884 12.0725 9.4448 12.0218 9.52362 11.9345L9.54974 11.8999C9.5673 11.8724 9.58373 11.8298 9.5989 11.7724C9.61426 11.7148 9.62189 11.6515 9.62189 11.5826C9.61741 11.3848 9.63173 11.2065 9.66446 11.0478C9.69717 10.8891 9.73446 10.7695 9.77615 10.6889C9.81783 10.6084 9.86486 10.5405 9.9172 10.4854C9.96965 10.4302 10.007 10.3968 10.029 10.3853C10.0508 10.3737 10.0682 10.3658 10.0813 10.3611C10.1863 10.3243 10.3099 10.36 10.4522 10.4682C10.5944 10.5763 10.7278 10.7098 10.8526 10.8685C10.9773 11.0273 11.1271 11.2055 11.3021 11.4033C11.4772 11.6012 11.6302 11.7483 11.7615 11.845L11.8927 11.9279C11.9803 11.9831 12.094 12.0337 12.2341 12.0797C12.3739 12.1257 12.4963 12.1372 12.6015 12.1142L14.2815 12.0867C14.4477 12.0867 14.577 12.0577 14.6687 12.0003C14.7606 11.9428 14.8152 11.8795 14.8328 11.8105C14.8504 11.7416 14.8513 11.6633 14.8361 11.5758C14.8206 11.4885 14.8052 11.4274 14.79 11.393Z" stroke="#737373" stroke-width="1.26049"/>
</svg>
