<svg width="16" height="16" viewBox="0 0 16 16" fill="none" xmlns="http://www.w3.org/2000/svg">
<g clip-path="url(#clip0)">
<path d="M14.6095 4.8275C14.5346 4.52839 14.3822 4.25434 14.1675 4.03302C13.9528 3.8117 13.6835 3.65095 13.3868 3.56701C12.3028 3.30231 7.96673 3.30231 7.96673 3.30231C7.96673 3.30231 3.63066 3.30231 2.54664 3.59222C2.24995 3.67616 1.98066 3.83691 1.76598 4.05823C1.5513 4.27954 1.39883 4.5536 1.32396 4.85271C1.12557 5.95283 1.02853 7.06884 1.03405 8.18669C1.02698 9.31297 1.12403 10.4375 1.32396 11.5459C1.4065 11.8357 1.56239 12.0993 1.77657 12.3113C1.99075 12.5233 2.25598 12.6764 2.54664 12.756C3.63066 13.0459 7.96673 13.0459 7.96673 13.0459C7.96673 13.0459 12.3028 13.0459 13.3868 12.756C13.6835 12.672 13.9528 12.5113 14.1675 12.29C14.3822 12.0686 14.5346 11.7946 14.6095 11.4955C14.8064 10.4036 14.9034 9.29613 14.8994 8.18669C14.9065 7.06042 14.8094 5.9359 14.6095 4.8275V4.8275Z" stroke="#737373" stroke-width="1.26049" stroke-linecap="round" stroke-linejoin="round"/>
<path d="M6.54883 10.2476L10.1727 8.18669L6.54883 6.12579V10.2476Z" stroke="#737373" stroke-width="1.26049" stroke-linecap="round" stroke-linejoin="round"/>
</g>
<defs>
<clipPath id="clip0">
<rect width="15.1258" height="15.1258" fill="white" transform="translate(0.403809 0.781433)"/>
</clipPath>
</defs>
</svg>
