<?xml version="1.0" encoding="UTF-8"?>
<!DOCTYPE svg PUBLIC "-//W3C//DTD SVG 1.1//EN" "http://www.w3.org/Graphics/SVG/1.1/DTD/svg11.dtd">
<!-- Creator: CorelDRAW 2019 (64-Bit) -->
<svg xmlns="http://www.w3.org/2000/svg" xml:space="preserve" width="183.658mm" height="67.687mm" version="1.1" style="shape-rendering:geometricPrecision; text-rendering:geometricPrecision; image-rendering:optimizeQuality; fill-rule:evenodd; clip-rule:evenodd"
viewBox="0 0 18365.78 6768.7"
 xmlns:xlink="http://www.w3.org/1999/xlink"
 xmlns:xodm="http://www.corel.com/coreldraw/odm/2003">
 <defs>
  <style type="text/css">
   <![CDATA[
    .fil1 {fill:#FEFEFE;fill-rule:nonzero}
    .fil0 {fill:url(#id0)}
   ]]>
  </style>
  <linearGradient id="id0" gradientUnits="userSpaceOnUse" x1="-0.02" y1="2553.14" x2="5119.55" y2="2553.14">
   <stop offset="0" style="stop-opacity:1; stop-color:#A5D2AF"/>
   <stop offset="1" style="stop-opacity:1; stop-color:#008DD2"/>
  </linearGradient>
 </defs>
 <g id="Слой_x0020_1">
  <metadata id="CorelCorpID_0Corel-Layer"/>
  <g id="_2778160309824">
   <path class="fil0" d="M-0.02 -0.02l1369.03 0c265.17,0 493.37,109.32 659.56,315.93l2209.25 2746.81 -1477.67 1744.25c-166.51,196.54 -388.21,299.3 -645.79,299.3l-704.14 0 1379.99 -2043.55 -721.98 0 -2068.25 -3062.74zm3736.07 2435.96l929.25 0 441.4 -1083.03c21.52,-52.8 15.85,-108.05 -15.96,-155.36 -31.81,-47.3 -80.82,-73.42 -137.84,-73.42l-331.01 0 -885.84 1311.81z"/>
   <g>
    <path class="fil1" d="M6843.37 3950.68l-888.15 0 0 896.41 888.15 0 0 -235.76 328.97 0 0 167.23c0,129.29 -24.24,217.46 -73.13,264.07 -48.41,47.06 -140.69,70.35 -277.3,70.35l-845.23 0c-137.53,0 -230.26,-23.29 -278.23,-70.35 -47.99,-46.61 -72.19,-134.78 -72.19,-264.07l0 -746.07c0,-127.93 24.2,-216.13 72.19,-263.18 47.97,-47.06 140.7,-70.8 278.23,-70.8l845.23 0c136.61,0 228.89,23.74 277.3,70.8 48.89,47.05 73.13,135.25 73.13,263.18l0 134.31 -328.97 0 0 -216.12zm10820.29 -251.99l187.45 0 327.21 0 0 1177.91 187.49 0 0 229.09 -187.49 0 -327.21 0 0 -1177.93 -187.45 0 0 -229.07zm-2279.41 0l187.46 0 1202.49 0c112.26,0 193.46,21.67 243.6,64.54 50.15,42.89 75.42,111.91 75.42,207.66l0 330.84c0,94.88 -25.14,163.98 -75.42,207.25 -50,42.99 -131.47,64.98 -243.6,64.98l-183.6 0 650.33 531.73 -469.92 0 -567.14 -531.73 -310.4 0 0 531.73 -321.76 0 0 -1177.93 -187.46 0 0 -229.07zm1245 242.65l-735.78 0 0 392.66 735.78 0c56.82,0 95.57,-8.1 116.31,-24.53 20.94,-16.64 31.38,-45.91 31.38,-87.71l0 -169.51c0,-40.91 -10.44,-69.75 -31.38,-86.35 -20.74,-16.44 -59.63,-24.56 -116.31,-24.56zm-3502 -242.65l187.48 0 1205.67 0c110.9,0 191.38,21.9 241.32,65.44 49.45,43.11 74.53,112.8 74.53,207.67l0 171.35c0,67.56 -21.1,121.71 -62.7,161.76 -41.87,40.27 -101.8,65.44 -179.95,75.47 80.89,10.44 143.66,39.57 187.67,86.34 44.04,46.72 65.91,108.28 65.91,183.61l0 179.03c0,93.49 -34.08,162.7 -102.7,208.15 -68.66,45.44 -172.35,68.18 -312.23,68.18l-1117.52 0 0 -1177.93 -187.48 0 0 -229.07zm1255.9 796.22l-746.66 0 0 357.19 746.66 0c62.29,0 104.1,-9.12 125.89,-27.72 21.81,-18.63 32.72,-51.35 32.72,-98.63l0 -105.88c0,-47.27 -10.94,-79.59 -32.72,-97.73 -21.73,-18.11 -63.73,-27.23 -125.89,-27.23zm0 -567.18l-746.66 0 0 335.4 746.66 0c56.82,0 95.91,-7.82 117.7,-22.74 21.81,-14.96 32.72,-41.37 32.72,-78.63l0 -132.69c0,-36.79 -10.94,-62.74 -32.72,-78.16 -21.75,-15.41 -61.01,-23.18 -117.7,-23.18zm-1896.52 948.87l187.45 0 0 229.09 -187.45 0 -327.22 0 0 -1177.93 -187.48 0 0 -229.07 187.48 0 327.22 0 0 1177.91zm-2441.25 -1177.91l187.49 0 327.21 0 0 1142.5 1055.24 0 0 264.5 -1382.45 0 0 -1177.93 -187.49 0 0 -229.07zm-2277.11 332.19c0,-127.68 24.1,-214.97 71.78,-261.77 47.7,-46.79 139.99,-70.42 276.79,-70.42l1035.69 0c137.25,0 229.91,23.76 277.68,70.42 48.07,46.93 72.27,134.1 72.27,261.77l0 742.15c0,128.56 -24.36,216.11 -72.27,262.66 -47.91,46.55 -140.44,70 -277.68,70l-1035.69 0c-136.75,0 -228.95,-23.31 -276.79,-70 -47.55,-46.41 -71.78,-134.07 -71.78,-262.66l0 -742.15zm327.21 810.31l1079.79 0 0 -891.66 -1079.79 0 0 891.66z"/>
    <path class="fil1" d="M5971.67 6759.65l-326.31 0 0 -126.89 81.58 0 0 -380.68 -81.58 0 0 -126.89 326.31 0 0 126.89 -81.58 0 0 380.68 81.58 0 0 126.89zm824.8 0l-172.22 0 -217.52 -380.69 0 380.69 -163.14 0 0 -634.46 172.2 0 217.53 380.66 0 -380.66 163.15 0 0 634.46zm852.01 0l-172.22 0 -217.52 -380.69 0 380.69 -163.14 0 0 -634.46 172.2 0 217.53 380.66 0 -380.66 163.15 0 0 634.46zm707 -462.26c0,-36.25 -18.14,-54.38 -54.39,-54.38l-154.08 0c-36.26,0 -54.39,18.13 -54.39,54.38l0 290.04c0,36.27 18.13,54.39 54.39,54.39l154.08 0c36.25,0 54.39,-18.12 54.39,-54.39l0 -290.04zm163.14 290.04c0,63.46 -14.35,109.53 -43.05,138.23 -28.71,28.71 -74.78,43.05 -138.23,43.05l-226.59 0c-63.44,0 -109.53,-14.34 -138.22,-43.05 -28.7,-28.7 -43.06,-74.77 -43.06,-138.23l0 -290.04c0,-63.44 14.36,-109.51 43.06,-138.21 28.69,-28.71 74.78,-43.05 138.22,-43.05l226.59 0c63.45,0 109.52,14.34 138.23,43.05 28.7,28.7 43.05,74.77 43.05,138.21l0 290.04zm530.25 -18.12l154.08 -444.12 176.74 0 -240.18 634.46 -181.28 0 -240.19 -634.46 176.74 0 154.09 444.12zm616.32 190.34l-176.74 0 240.2 -634.46 181.28 0 240.17 634.46 -176.74 0 -40.79 -113.31 -226.59 0 -40.79 113.31zm81.58 -231.13l145.01 0 -72.49 -212.99 -72.52 212.99zm883.72 231.13l-163.16 0 0 -507.57 -190.34 0 0 -126.89 543.82 0 0 126.89 -190.32 0 0 507.57zm743.24 0l-326.31 0 0 -126.89 81.58 0 0 -380.68 -81.58 0 0 -126.89 326.31 0 0 126.89 -81.58 0 0 380.68 81.58 0 0 126.89zm679.79 -462.26c0,-36.25 -18.14,-54.38 -54.39,-54.38l-154.07 0c-36.27,0 -54.4,18.13 -54.4,54.38l0 290.04c0,36.27 18.13,54.39 54.4,54.39l154.07 0c36.25,0 54.39,-18.12 54.39,-54.39l0 -290.04zm163.14 290.04c0,63.46 -14.34,109.53 -43.05,138.23 -28.71,28.71 -74.78,43.05 -138.23,43.05l-226.59 0c-63.44,0 -109.53,-14.34 -138.21,-43.05 -28.71,-28.7 -43.07,-74.77 -43.07,-138.23l0 -290.04c0,-63.44 14.36,-109.51 43.07,-138.21 28.68,-28.71 74.77,-43.05 138.21,-43.05l226.59 0c63.45,0 109.52,14.34 138.23,43.05 28.71,28.7 43.05,74.77 43.05,138.21l0 290.04zm833.88 172.22l-172.21 0 -217.53 -380.69 0 380.69 -163.14 0 0 -634.46 172.2 0 217.53 380.66 0 -380.66 163.15 0 0 634.46zm961.7 2.72c-59.21,0 -102.72,-13.74 -130.51,-41.25 -27.81,-27.49 -41.71,-70.7 -41.71,-129.31l0 -287.16c0,-62.86 14.36,-108.47 43.07,-136.87 28.69,-28.39 74.78,-42.59 138.21,-42.59l326.29 0 0 126.89 -290.02 0c-36.27,0 -54.39,17.98 -54.39,54.07l0 288.68c0,13.91 4.08,24.93 12.24,32.95 8.14,8.14 19.18,12.22 33.07,12.22 11.48,0 24.78,0 39.89,0 15.1,0 30.82,0 47.13,0 16.32,0 32.78,0 49.39,0 16.62,0 32.78,-2.56 48.49,-7.7 36.87,0 74.93,0 114.2,0l0 118.43c-40.47,7.72 -80.65,11.64 -120.54,11.64 -34.43,0 -70.84,0 -109.21,0 -38.39,0 -73.57,0 -105.6,0zm1101.26 -2.72l-503.03 0 0 -634.46 503.03 0 0 126.89 -339.89 0 0 122.36 267.38 0 0 126.89 -267.38 0 0 131.43 339.89 0 0 126.89zm815.75 0l-172.22 0 -217.53 -380.69 0 380.69 -163.14 0 0 -634.46 172.2 0 217.53 380.66 0 -380.66 163.16 0 0 634.46zm607.29 0l-163.16 0 0 -507.57 -190.34 0 0 -126.89 543.82 0 0 126.89 -190.32 0 0 507.57zm947.17 0l-503.03 0 0 -634.46 503.03 0 0 126.89 -339.89 0 0 122.36 267.38 0 0 126.89 -267.38 0 0 131.43 339.89 0 0 126.89zm262.86 -634.46l380.66 0c63.46,0 109.53,14.34 138.24,43.05 28.7,28.7 43.04,74.77 43.04,138.23l0 81.56c0,50.15 -8.3,89.14 -24.92,116.92 -16.62,27.81 -43.05,46.23 -79.3,55.29l113.29 199.41 -176.74 0 -104.25 -190.34 -126.88 0 0 190.34 -163.14 0 0 -634.46zm398.79 181.28c0,-36.27 -18.13,-54.39 -54.37,-54.39l-181.28 0 0 190.34 181.28 0c36.24,0 54.37,-18.13 54.37,-54.39l0 -81.56z"/>
   </g>
  </g>
 </g>
</svg>
