<svg width="16" height="17" viewBox="0 0 16 17" fill="none" xmlns="http://www.w3.org/2000/svg">
<path d="M10.667 2.5H0.666992V11.1667H10.667V2.5Z" stroke="#232630" stroke-width="1.33333" stroke-linecap="round" stroke-linejoin="round"/>
<path d="M10.667 5.83331H13.3337L15.3337 7.83331V11.1666H10.667V5.83331Z" stroke="#232630" stroke-width="1.33333" stroke-linecap="round" stroke-linejoin="round"/>
<path d="M3.66667 14.5C4.58714 14.5 5.33333 13.7538 5.33333 12.8334C5.33333 11.9129 4.58714 11.1667 3.66667 11.1667C2.74619 11.1667 2 11.9129 2 12.8334C2 13.7538 2.74619 14.5 3.66667 14.5Z" stroke="#232630" stroke-width="1.33333" stroke-linecap="round" stroke-linejoin="round"/>
<path d="M12.3337 14.5C13.2541 14.5 14.0003 13.7538 14.0003 12.8334C14.0003 11.9129 13.2541 11.1667 12.3337 11.1667C11.4132 11.1667 10.667 11.9129 10.667 12.8334C10.667 13.7538 11.4132 14.5 12.3337 14.5Z" stroke="#232630" stroke-width="1.33333" stroke-linecap="round" stroke-linejoin="round"/>
</svg>
