<svg width="37" height="37" viewBox="0 0 37 37" fill="none" xmlns="http://www.w3.org/2000/svg">
<path d="M15.8637 5.95084L2.80577 27.75C2.53655 28.2162 2.3941 28.7448 2.39259 29.2832C2.39108 29.8216 2.53057 30.351 2.79718 30.8187C3.06379 31.2865 3.44823 31.6762 3.91224 31.9493C4.37625 32.2223 4.90367 32.3691 5.44202 32.375H31.5579C32.0962 32.3691 32.6236 32.2223 33.0876 31.9493C33.5517 31.6762 33.9361 31.2865 34.2027 30.8187C34.4693 30.351 34.6088 29.8216 34.6073 29.2832C34.6058 28.7448 34.4633 28.2162 34.1941 27.75L21.1362 5.95084C20.8614 5.49776 20.4744 5.12315 20.0126 4.86317C19.5508 4.60319 19.0299 4.46661 18.4999 4.46661C17.97 4.46661 17.449 4.60319 16.9873 4.86317C16.5255 5.12315 16.1385 5.49776 15.8637 5.95084V5.95084Z" stroke="#F9670F" stroke-width="3.08333" stroke-linecap="round" stroke-linejoin="round"/>
<path d="M18.5 13.875V20.0417" stroke="#F9670F" stroke-width="3.08333" stroke-linecap="round" stroke-linejoin="round"/>
<path d="M18.5 26.2083H18.515" stroke="#F9670F" stroke-width="3.08333" stroke-linecap="round" stroke-linejoin="round"/>
</svg>
