<svg width="512" height="512" viewBox="0 0 512 512" fill="none" xmlns="http://www.w3.org/2000/svg">
<g clip-path="url(#clip0_1001_76)">
<path d="M510.426 238.815L493.78 197.78C498.282 192.468 501.009 185.586 501.009 178.072C501.009 163.912 491.348 151.981 478.315 148.614C478.313 146.641 478.317 97.2184 478.315 95.1224C478.315 88.3093 474.155 82.4671 467.717 80.2381L256.856 7.24184C248.157 4.22878 238.576 4.22978 229.876 7.24184L177.376 25.4162C173.462 26.7702 171.387 31.0423 172.742 34.9563C174.097 38.8724 178.368 40.9444 182.283 39.5904L234.783 21.4161C240.316 19.4991 246.412 19.4991 251.948 21.4161L462.809 94.4114C463.034 94.4894 463.314 94.5874 463.314 95.1214C463.314 95.6554 463.034 95.7534 462.809 95.8314L390.221 120.961V118.715C390.221 109.628 383.729 101.867 374.784 100.264C287.581 84.6242 199.149 84.6242 111.947 100.264C103.003 101.868 96.5097 109.628 96.5097 118.715V120.961L23.9224 95.8314C23.6974 95.7534 23.4174 95.6554 23.4174 95.1214C23.4174 94.5874 23.6974 94.4894 23.9224 94.4114L148.601 51.2506C152.515 49.8966 154.59 45.6245 153.235 41.7104C151.88 37.7954 147.608 35.7223 143.694 37.0764L19.0153 80.2381C12.5772 82.4671 8.41715 88.3083 8.41715 95.1224C8.41715 101.936 12.5772 107.778 19.0153 110.007L96.5107 136.834V211.061C57.225 214.972 26.4425 248.212 26.4425 288.51C26.4425 315.438 40.1927 339.212 61.0361 353.192C26.1685 360.896 0 392.032 0 429.182C0 472.101 34.9176 507.019 77.8364 507.019H463.366C476.25 507.019 486.732 496.537 486.732 483.653C486.732 470.928 476.505 460.554 463.84 460.3C456.004 440.161 455.944 418.236 463.659 398.07C476.408 397.912 486.732 387.497 486.732 374.711C486.732 361.827 476.25 351.346 463.366 351.346H458.735C459.735 348.747 460.289 345.928 460.289 342.981C460.289 330.096 449.808 319.615 436.924 319.615H436.722C429.456 300.776 428.984 280.39 435.307 261.348C439.276 265.644 444.86 268.141 450.792 268.141H490.837C497.864 268.141 504.412 264.648 508.352 258.796C512.331 252.889 513.106 245.419 510.426 238.815ZM486.009 178.072C486.009 186.567 479.192 193.478 470.815 193.478C462.438 193.478 455.622 186.567 455.622 178.072C455.622 169.577 462.438 162.665 470.815 162.665C479.192 162.665 486.009 169.576 486.009 178.072ZM463.315 111.53V148.614C450.283 151.981 440.622 163.912 440.622 178.072C440.622 185.587 443.349 192.468 447.851 197.78L442.621 210.671H390.222V136.834L463.315 111.53ZM114.595 115.029C200.041 99.7065 286.691 99.7065 372.137 115.029C373.924 115.35 375.221 116.9 375.221 118.716V169.834H329.006C324.864 169.834 321.506 173.191 321.506 177.334C321.506 181.477 324.864 184.834 329.006 184.834H375.221V210.672H111.511V184.834H294.005C298.147 184.834 301.505 181.477 301.505 177.334C301.505 173.191 298.147 169.834 294.005 169.834H111.511V118.716C111.511 116.9 112.808 115.35 114.595 115.029ZM471.732 374.71C471.732 379.322 467.98 383.075 463.367 383.075H77.8364C52.4139 383.075 31.7306 403.759 31.7306 429.181C31.7306 454.604 52.4139 475.286 77.8364 475.286H374.007C378.149 475.286 381.507 471.929 381.507 467.786C381.507 463.643 378.149 460.286 374.007 460.286H77.8364C60.6851 460.286 46.7308 446.333 46.7308 429.181C46.7308 412.03 60.6851 398.076 77.8364 398.076H314.376V440.118C314.376 442.597 315.601 444.917 317.649 446.314C319.696 447.711 322.302 448.008 324.611 447.102L344.86 439.172L365.109 447.102C365.993 447.449 366.92 447.619 367.843 447.619C369.331 447.619 370.807 447.177 372.072 446.314C374.12 444.917 375.345 442.597 375.345 440.118V398.076H447.743C441.225 418.397 441.272 439.985 447.891 460.287H409.007C404.865 460.287 401.507 463.644 401.507 467.787C401.507 471.93 404.865 475.287 409.007 475.287H463.366C467.979 475.287 471.731 479.04 471.731 483.652C471.731 488.264 467.979 492.017 463.366 492.017H77.8364C43.1888 492.018 15.0003 463.83 15.0003 429.181C15.0003 394.533 43.1888 366.345 77.8364 366.345H463.366C467.979 366.345 471.732 370.098 471.732 374.71ZM329.376 398.077H360.344V429.128L347.595 424.136C345.836 423.447 343.884 423.447 342.125 424.136L329.376 429.128V398.077ZM201.004 334.615H436.925C441.538 334.615 445.29 338.368 445.29 342.98C445.29 347.592 441.538 351.345 436.925 351.345H104.279C69.6312 351.345 41.4427 323.156 41.4427 288.508C41.4427 253.859 69.6312 225.672 104.279 225.672H436.535C434.682 230.646 431.258 237.697 430.106 242.402H104.279C78.8564 242.402 58.173 263.085 58.173 288.508C58.173 313.93 78.8564 334.613 104.279 334.613H166.003C170.145 334.613 173.503 331.255 173.503 327.112C173.503 322.969 170.145 319.612 166.003 319.612H104.279C87.1275 319.612 73.1733 305.659 73.1733 288.508C73.1733 271.356 87.1275 257.402 104.279 257.402H131.7V299.085C131.7 301.564 132.925 303.883 134.973 305.28C137.02 306.677 139.627 306.973 141.935 306.068L162.185 298.139L182.434 306.068C183.318 306.415 184.245 306.585 185.168 306.585C186.656 306.585 188.132 306.143 189.396 305.28C191.444 303.883 192.669 301.564 192.669 299.085V257.402H420.791C414.223 277.714 414.223 299.302 420.791 319.613H201.004C196.861 319.613 193.503 322.97 193.503 327.113C193.503 331.257 196.861 334.615 201.004 334.615ZM146.701 257.403H177.669V288.094L164.92 283.102C163.161 282.413 161.209 282.413 159.45 283.102L146.701 288.094V257.403ZM495.911 250.416C495.36 251.235 493.761 253.14 490.837 253.14H450.792C447.868 253.14 446.27 251.235 445.718 250.416C444.514 248.629 444.29 246.455 445.102 244.453L460.446 206.63C463.681 207.825 467.173 208.477 470.814 208.477C474.455 208.477 477.947 207.825 481.182 206.63L496.526 244.453C497.339 246.456 497.115 248.629 495.911 250.416Z" fill="#5FA67D"/>
</g>
<defs>
<clipPath id="clip0_1001_76">
<rect width="512" height="512" fill="white"/>
</clipPath>
</defs>
</svg>
