<svg width="512" height="512" viewBox="0 0 512 512" fill="none" xmlns="http://www.w3.org/2000/svg">
<path d="M472 344H352C350.472 344 348.976 344.438 347.688 345.261C346.401 346.085 345.377 347.26 344.736 348.647L317.124 408.473L287.015 416H227.791L174.996 351.474C169.17 344.332 161.865 338.539 153.584 334.494C145.303 330.449 136.243 328.248 127.029 328.043V326.678C131.972 325 136.266 321.818 139.31 317.577C142.353 313.336 143.993 308.249 144 303.029V254.624C149.338 252.737 153.836 249.024 156.701 244.141C159.566 239.258 160.612 233.519 159.654 227.939C158.697 222.36 155.798 217.298 151.469 213.649C147.141 210 141.661 207.999 136 208H77.5884C69.5209 208 61.5979 210.141 54.6283 214.204C47.6587 218.267 41.8922 224.107 37.9174 231.127C33.9425 238.148 31.9018 246.097 32.0036 254.164C32.1054 262.231 34.3459 270.126 38.4966 277.044L56 306.216V330.341C44.4518 333.8 34.3251 340.886 27.1203 350.551C19.9155 360.216 16.0162 371.945 16 384V496H32V384C32.012 373.395 36.2302 363.228 43.729 355.729C51.2279 348.23 61.395 344.012 72 344H125.463C132.575 343.988 139.6 345.562 146.026 348.607C152.453 351.653 158.119 356.093 162.613 361.605L217.809 429.066C218.559 429.983 219.504 430.722 220.574 431.229C221.645 431.737 222.815 432 224 432H264V464H206.251C202.888 463.998 199.562 463.29 196.489 461.921C193.416 460.553 190.665 458.554 188.413 456.056L125.946 386.648L114.054 397.352L144 430.625V496H160V448.403L176.52 466.759C180.273 470.924 184.859 474.254 189.98 476.535C195.102 478.816 200.645 479.996 206.251 480H233.376C235.035 484.676 238.1 488.723 242.151 491.588C246.201 494.452 251.039 495.994 256 496H408C414.363 495.993 420.463 493.462 424.963 488.963C429.462 484.463 431.993 478.363 432 472V457.757L479.264 355.353C479.826 354.134 480.073 352.793 479.981 351.453C479.89 350.114 479.462 348.819 478.739 347.688C478.015 346.558 477.019 345.627 475.841 344.982C474.663 344.338 473.342 344 472 344ZM119.029 312C117.851 312.003 116.683 311.772 115.594 311.321C114.506 310.87 113.517 310.208 112.686 309.372L104 300.686V274.422L116.281 256H128V303.029C127.997 305.408 127.051 307.688 125.37 309.37C123.688 311.051 121.408 311.997 119.029 312ZM48 253.589C48.0088 245.744 51.129 238.223 56.6759 232.676C62.2229 227.129 69.7437 224.009 77.5884 224H136C138.122 224 140.157 224.843 141.657 226.343C143.157 227.843 144 229.878 144 232C144 234.122 143.157 236.157 141.657 237.657C140.157 239.157 138.122 240 136 240H112C110.683 240 109.386 240.325 108.225 240.947C107.064 241.568 106.074 242.467 105.344 243.562L89.3438 267.562C88.4675 268.877 88 270.421 88 272V296H68.5293L52.2163 268.812C49.4577 264.213 48.0004 258.951 48 253.589ZM72 312H92.686L101.373 320.687C104.084 323.407 107.39 325.462 111.029 326.69V328H72V312ZM280 432H288C288.654 432 289.306 431.92 289.94 431.761L318.726 424.564L351.535 444.251C351.676 444.336 351.794 444.457 351.875 444.601C351.957 444.744 352 444.907 352 445.072C352 445.214 351.969 445.354 351.908 445.482C351.847 445.611 351.759 445.724 351.649 445.814C351.54 445.903 351.411 445.968 351.274 446.002C351.136 446.036 350.993 446.04 350.854 446.012L321.569 440.155C320.465 439.935 319.328 439.949 318.23 440.198C317.133 440.447 316.101 440.925 315.2 441.6L287.467 462.399C286.08 463.435 284.397 463.996 282.667 464H280V432ZM297.066 475.2L312 464H328V472C327.999 474.726 328.464 477.431 329.376 480H282.667C287.858 479.989 292.907 478.306 297.066 475.2ZM416 472C415.998 474.121 415.154 476.154 413.654 477.654C412.154 479.154 410.121 479.998 408 480H352C349.879 479.998 347.846 479.154 346.346 477.654C344.846 476.154 344.002 474.121 344 472V464H416V472ZM418.881 448H367.722C368.345 444.624 367.916 441.138 366.493 438.013C365.07 434.889 362.722 432.277 359.767 430.53L332.2 413.99L357.119 360H459.497L418.881 448Z" fill="#5FA67D"/>
<path d="M472 16H96C89.637 16.0072 83.5367 18.5381 79.0374 23.0374C74.5381 27.5367 72.0072 33.637 72 40V192H88V40C88.0024 37.879 88.8461 35.8456 90.3458 34.3458C91.8456 32.8461 93.879 32.0024 96 32H472C474.121 32.0024 476.154 32.8461 477.654 34.3458C479.154 35.8456 479.998 37.879 480 40V304C479.998 306.121 479.154 308.154 477.654 309.654C476.154 311.154 474.121 311.998 472 312H160V328H472C478.363 327.993 484.463 325.462 488.963 320.963C493.462 316.463 495.993 310.363 496 304V40C495.993 33.637 493.462 27.5367 488.963 23.0374C484.463 18.5381 478.363 16.0072 472 16Z" fill="#5FA67D"/>
<path d="M104 56C108.418 56 112 52.4183 112 48C112 43.5817 108.418 40 104 40C99.5817 40 96 43.5817 96 48C96 52.4183 99.5817 56 104 56Z" fill="#5FA67D"/>
<path d="M128 56C132.418 56 136 52.4183 136 48C136 43.5817 132.418 40 128 40C123.582 40 120 43.5817 120 48C120 52.4183 123.582 56 128 56Z" fill="#5FA67D"/>
<path d="M152 56C156.418 56 160 52.4183 160 48C160 43.5817 156.418 40 152 40C147.582 40 144 43.5817 144 48C144 52.4183 147.582 56 152 56Z" fill="#5FA67D"/>
<path d="M432 96H384C381.878 96 379.843 96.8429 378.343 98.3432C376.843 99.8435 376 101.878 376 104V128H336C333.878 128 331.843 128.843 330.343 130.343C328.843 131.843 328 133.878 328 136V168H288C285.878 168 283.843 168.843 282.343 170.343C280.843 171.843 280 173.878 280 176V208H240C237.878 208 235.843 208.843 234.343 210.343C232.843 211.843 232 213.878 232 216V240H192C189.878 240 187.843 240.843 186.343 242.343C184.843 243.843 184 245.878 184 248V280H168V296H456V280H440V104C440 101.878 439.157 99.8435 437.657 98.3432C436.157 96.8429 434.122 96 432 96ZM200 256H232V280H200V256ZM248 224H280V280H248V224ZM296 184H328V280H296V184ZM344 144H376V280H344V144ZM424 280H392V112H424V280Z" fill="#5FA67D"/>
<path d="M144 191.999H177.376C179.466 197.913 183.789 202.774 189.418 205.54C195.048 208.306 201.536 208.759 207.495 206.8C213.454 204.842 218.409 200.629 221.3 195.062C224.191 189.495 224.787 183.018 222.961 177.017L264.568 146.36C268.689 149.826 273.857 151.805 279.239 151.978C284.621 152.151 289.905 150.508 294.24 147.313C298.576 144.119 301.71 139.559 303.14 134.367C304.569 129.175 304.21 123.653 302.12 118.69L338.537 91.8565C341.573 93.918 345.041 95.2555 348.674 95.7659C352.308 96.2764 356.01 95.9462 359.496 94.8008C362.982 93.6553 366.158 91.7253 368.781 89.1591C371.404 86.593 373.403 83.4592 374.624 79.9991H424V63.9991H374.624C372.534 58.0852 368.211 53.2247 362.582 50.4583C356.952 47.6918 350.464 47.2394 344.505 49.1978C338.546 51.1561 333.591 55.3697 330.7 60.9363C327.809 66.5029 327.213 72.98 329.039 78.9808L291.264 106.815C287.27 104.686 282.756 103.731 278.242 104.06C273.729 104.389 269.4 105.988 265.757 108.672C262.113 111.357 259.304 115.017 257.653 119.231C256.002 123.445 255.577 128.039 256.427 132.484L213.463 164.142C210.427 162.08 206.959 160.743 203.326 160.232C199.692 159.722 195.99 160.052 192.504 161.197C189.018 162.343 185.842 164.273 183.219 166.839C180.596 169.405 178.597 172.539 177.376 175.999H144V191.999ZM352 63.9991C353.582 63.9991 355.129 64.4683 356.445 65.3474C357.76 66.2264 358.786 67.4758 359.391 68.9376C359.997 70.3995 360.155 72.008 359.846 73.5598C359.538 75.1117 358.776 76.5371 357.657 77.656C356.538 78.7748 355.113 79.5367 353.561 79.8454C352.009 80.1541 350.4 79.9957 348.939 79.3902C347.477 78.7846 346.227 77.7593 345.348 76.4437C344.469 75.1281 344 73.5814 344 71.9991C344.002 69.8781 344.846 67.8447 346.346 66.3449C347.846 64.8452 349.879 64.0015 352 63.9991ZM280 119.999C281.582 119.999 283.129 120.468 284.445 121.347C285.76 122.226 286.786 123.476 287.391 124.938C287.997 126.399 288.155 128.008 287.846 129.56C287.538 131.112 286.776 132.537 285.657 133.656C284.538 134.775 283.113 135.537 281.561 135.845C280.009 136.154 278.4 135.996 276.939 135.39C275.477 134.785 274.227 133.759 273.348 132.444C272.469 131.128 272 129.581 272 127.999C272.002 125.878 272.846 123.845 274.346 122.345C275.846 120.845 277.879 120.002 280 119.999ZM200 175.999C201.582 175.999 203.129 176.468 204.445 177.347C205.76 178.226 206.786 179.476 207.391 180.938C207.997 182.399 208.155 184.008 207.846 185.56C207.538 187.112 206.776 188.537 205.657 189.656C204.538 190.775 203.113 191.537 201.561 191.845C200.009 192.154 198.4 191.996 196.939 191.39C195.477 190.785 194.227 189.759 193.348 188.444C192.469 187.128 192 185.581 192 183.999C192.002 181.878 192.846 179.845 194.346 178.345C195.846 176.845 197.879 176.002 200 175.999Z" fill="#5FA67D"/>
<path d="M456 64H440V80H456V64Z" fill="#5FA67D"/>
<path d="M128 176H112V192H128V176Z" fill="#5FA67D"/>
</svg>
