<svg width="512" height="512" viewBox="0 0 512 512" fill="none" xmlns="http://www.w3.org/2000/svg">
<path d="M503.471 2.23409e-07C503.47 2.23409e-07 503.468 2.23409e-07 503.467 2.23409e-07H8.53333C3.82187 -0.00106644 0.00106667 3.8176 0 8.52907C0 8.53013 0 8.53227 0 8.53333V179.2H17.0667V17.0667H494.933V204.8H196.267V221.867H503.467C508.178 221.868 511.999 218.049 512 213.338C512 213.337 512 213.334 512 213.333V8.53333C512.001 3.82187 508.182 0.00106689 503.471 2.23409e-07Z" fill="#5FA67D"/>
<path d="M452.267 42.666H281.6V59.7327H452.267V42.666Z" fill="#5FA67D"/>
<path d="M477.867 93.8672H307.2V110.934H477.867V93.8672Z" fill="#5FA67D"/>
<path d="M443.733 145.066H273.067V162.133H443.733V145.066Z" fill="#5FA67D"/>
<path d="M272.386 73.5717C266.544 59.5291 250.425 52.8816 236.383 58.7237C236.143 58.824 235.904 58.9264 235.667 59.0331L166.475 94.9264C169.203 89.271 170.636 83.0779 170.667 76.7995C170.667 53.2357 151.564 34.1328 128 34.1328C104.436 34.1328 85.3333 53.2357 85.3333 76.7995C85.3653 86.0613 88.4405 95.0565 94.0853 102.399H93.7301C69.5083 102.562 47.8859 117.62 39.3344 140.283L16.5547 218.799C11.1317 232.886 18.1547 248.702 32.2421 254.125C38.6656 256.598 45.7856 256.556 52.1803 254.008C59.5275 251.048 65.2448 245.07 67.8763 237.599L76.8 209.199V332.701C69.4571 327.058 60.4619 323.982 51.2 323.949C27.6715 323.914 8.56853 342.96 8.53333 366.489C8.51627 378.012 13.1669 389.05 21.4261 397.086C8.31893 403.783 0.0512002 417.24 2.23409e-07 431.958V503.466C-0.00106644 508.178 3.8176 511.998 8.52907 512C8.53013 512 8.53227 512 8.53333 512H93.8667C98.5781 512.001 102.399 508.182 102.4 503.47C102.4 503.469 102.4 503.467 102.4 503.466V431.958C102.358 419.863 96.7392 408.465 87.1723 401.066H151.762C142.194 408.465 136.575 419.863 136.534 431.958V503.466C136.533 508.178 140.352 511.998 145.063 512C145.065 512 145.067 512 145.068 512H230.401C235.113 512.001 238.933 508.182 238.934 503.47C238.934 503.469 238.934 503.467 238.934 503.466V431.958C238.883 417.24 230.615 403.783 217.508 397.086C234.356 380.642 234.684 353.652 218.239 336.804C208.112 326.428 193.406 321.911 179.201 324.812V150.249L257.538 109.574C271.58 103.733 278.227 87.6133 272.386 73.5717ZM128 51.1995C142.139 51.1995 153.6 62.6608 153.6 76.7995C153.6 90.9381 142.139 102.399 128 102.399C113.868 102.385 102.415 90.9317 102.4 76.7995C102.4 62.6608 113.861 51.1995 128 51.1995ZM51.2 341.016C65.3387 341.016 76.8 352.477 76.8 366.616C76.8 380.755 65.3387 392.216 51.2 392.216C37.0613 392.216 25.6 380.755 25.6 366.616C25.6149 352.484 37.0677 341.032 51.2 341.016ZM85.3333 494.933H17.0667V431.958C17.0837 419.616 27.0859 409.614 39.4293 409.599H62.9707C75.3131 409.614 85.3163 419.616 85.3333 431.958V494.933ZM221.867 431.958V494.933H153.6V431.958C153.617 419.616 163.619 409.614 175.963 409.599H199.504C211.847 409.614 221.85 419.616 221.867 431.958ZM187.733 341.016C201.866 341.031 213.318 352.484 213.333 366.616C213.333 380.755 201.872 392.216 187.733 392.216C173.595 392.216 162.133 380.755 162.133 366.616C162.133 352.477 173.595 341.016 187.733 341.016ZM256.771 87.8075C255.629 90.7387 253.283 93.0395 250.33 94.1243L166.738 137.491C163.909 138.958 162.133 141.88 162.133 145.066V332.701C146.149 344.52 140.612 365.91 148.855 384H136.533V238.933H119.467V384H90.0779C92.5056 378.634 93.7845 372.821 93.8347 366.933H93.8667V153.599C93.8656 148.886 90.0437 145.066 85.3312 145.067C81.6053 145.068 78.3104 147.486 77.1925 151.042L51.712 232.124C49.7813 237.449 43.8987 240.201 38.5739 238.269C38.2005 238.134 37.8347 237.977 37.4784 237.799C32.5557 235.255 30.4661 229.316 32.7125 224.249L55.4912 145.733C61.6341 129.957 76.7989 119.54 93.7291 119.466H154.15C155.518 119.468 156.866 119.139 158.08 118.508L242.893 74.4837C247.981 72.3611 253.845 74.5328 256.322 79.4587C257.635 82.0549 257.798 85.0843 256.771 87.8075Z" fill="#5FA67D"/>
<path d="M354.041 397.087C370.918 380.643 371.27 353.63 354.827 336.752C338.383 319.874 311.37 319.522 294.492 335.966C277.614 352.409 277.262 379.423 293.706 396.301C293.965 396.566 294.227 396.829 294.493 397.087C281.387 403.783 273.118 417.24 273.067 431.958V503.466C273.066 508.178 276.884 511.999 281.596 512C281.597 512 281.599 512 281.6 512H366.933C371.645 512.001 375.466 508.182 375.467 503.471C375.467 503.47 375.467 503.467 375.467 503.466V431.958C375.415 417.24 367.148 403.783 354.041 397.087ZM324.267 341.016C338.405 341.016 349.867 352.478 349.867 366.616C349.867 380.755 338.405 392.216 324.267 392.216C310.128 392.216 298.667 380.755 298.667 366.616C298.682 352.484 310.134 341.032 324.267 341.016ZM358.4 494.933H290.133V431.958C290.15 419.616 300.153 409.615 312.496 409.6H336.037C348.38 409.615 358.383 419.616 358.4 431.958V494.933Z" fill="#5FA67D"/>
<path d="M490.574 397.087C507.452 380.643 507.804 353.63 491.36 336.752C474.916 319.874 447.903 319.522 431.025 335.966C414.147 352.409 413.795 379.423 430.239 396.301C430.498 396.566 430.761 396.829 431.026 397.087C417.92 403.783 409.651 417.24 409.6 431.958V503.466C409.599 508.178 413.418 511.999 418.129 512C418.13 512 418.132 512 418.133 512H503.467C508.178 512.001 511.999 508.182 512 503.471C512 503.47 512 503.467 512 503.466V431.958C511.949 417.24 503.681 403.783 490.574 397.087ZM460.8 341.016C474.939 341.016 486.4 352.478 486.4 366.616C486.4 380.755 474.939 392.216 460.8 392.216C446.661 392.216 435.2 380.755 435.2 366.616C435.215 352.484 446.668 341.032 460.8 341.016ZM494.933 494.933H426.667V431.958C426.684 419.616 436.686 409.615 449.029 409.6H472.571C484.913 409.615 494.916 419.616 494.933 431.958V494.933Z" fill="#5FA67D"/>
</svg>
