<svg width="512" height="512" viewBox="0 0 512 512" fill="none" xmlns="http://www.w3.org/2000/svg">
<path d="M504 96C504 47.48 464.52 8 416 8C376.184 8 342.504 34.6 331.68 70.952C321.168 66.648 310.368 63.144 299.28 60.696L216 19.056V43.768C201.936 46.432 188.008 50.664 174.4 56.24C159.848 27.664 130.208 8 96 8C47.48 8 8 47.48 8 96C8 135.816 34.6 169.496 70.944 180.32C66.648 190.816 63.16 201.608 60.712 212.688L19.056 296H43.76C51.776 338.872 72.264 377.736 103.264 408.736L108.92 414.392L120.392 402.92C139.136 420.2 161.216 433.888 184.912 442.912C190.208 477.44 220.016 504 256 504C292 504 321.824 477.416 327.088 442.864C339.744 438.04 351.912 432.048 363.344 424.76L451.824 395.272L434.36 377.8C459.008 341.816 472 299.848 472 256V248H455.784C454.872 224.552 449.984 201.848 441.144 180.296C477.448 169.44 504 135.784 504 96ZM416 24C455.696 24 488 56.304 488 96C488 135.696 455.696 168 416 168C376.304 168 344 135.696 344 96C344 56.304 376.304 24 416 24ZM225.224 58.416L232 57.36V44.944L270.112 64L232 83.056V73.336L222.552 75.072C209.144 77.536 196.072 81.528 183.528 86.904C182.968 81.472 181.864 76.208 180.36 71.112C195.024 65.096 210.072 60.76 225.224 58.416ZM24 96C24 56.304 56.304 24 96 24C135.696 24 168 56.304 168 96C168 135.696 135.696 168 96 168C56.304 168 24 135.696 24 96ZM58.416 286.776L57.36 280H44.944L64 241.888L83.056 280H73.336L75.072 289.448C81.352 323.576 96.952 354.832 120.36 380.328L109.032 391.656C81.992 362.408 64.536 326.312 58.416 286.776ZM256 488C225.12 488 200 462.872 200 432C200 401.128 225.12 376 256 376C286.88 376 312 401.128 312 432C312 462.872 286.88 488 256 488ZM417.48 373.952L413.432 379.488L422.216 388.264L381.792 401.744L395.272 361.32L402.144 368.184L407.592 360.28C427.28 331.72 438.352 298.576 439.832 264H455.848C454.288 303.808 441.104 341.672 417.48 373.952ZM439.784 248H424V256C424 286.96 415.616 316.872 399.664 343.096L388.264 331.696L363.824 405.024C352.536 413.2 340.424 420.04 327.664 425.44C324.336 388.8 293.488 360 256 360C218.496 360 187.64 388.832 184.328 425.488C165.096 417.328 147.184 405.784 131.704 391.608L142.856 380.456L137.2 374.8C115.304 352.904 100.08 325.824 92.816 296H108.936L74.352 226.84C76.728 211.912 80.984 197.392 86.936 183.528C89.928 183.84 92.944 184 96 184C141.656 184 179.28 149.04 183.568 104.488C193.992 99.504 204.832 95.56 216 92.824V108.944L285.152 74.368C300.08 76.744 314.592 80.992 328.464 86.944C328.16 89.92 328 92.944 328 96C328 144.52 367.48 184 416 184C419.072 184 422.112 183.832 425.112 183.528C433.904 203.992 438.84 225.616 439.784 248Z" fill="#5FA67D"/>
<path d="M322.472 228.464L333.984 209.536L302.464 178.016L283.536 189.528H283.528L278.288 168H233.72L228.48 189.528H228.472L209.544 178.016L178.024 209.536L189.536 228.464V228.472L168 233.712V278.288L189.528 283.528C189.528 283.528 189.528 283.536 189.536 283.536L178.016 302.464L209.536 333.976L228.464 322.464H228.472L233.712 344H278.28L283.52 322.472H283.528L302.456 333.984L333.976 302.472L322.456 283.544L322.464 283.536L344 278.288V233.712L322.472 228.472V228.464ZM328 265.712L310.336 270.016L308.92 274.168C308.168 276.368 307.264 278.504 306.256 280.576L304.328 284.512L313.784 300.048L300.048 313.784L284.504 304.32L280.568 306.256C278.496 307.272 276.36 308.168 274.152 308.928L270.016 310.352L265.712 328H246.28L241.984 310.352L237.848 308.928C235.64 308.168 233.504 307.272 231.432 306.256L227.496 304.32L211.952 313.784L198.216 300.048L207.672 284.512L205.744 280.576C204.728 278.504 203.832 276.376 203.08 274.168L201.664 270.016L184 265.712V246.288L201.664 241.984L203.08 237.84C203.832 235.64 204.728 233.504 205.744 231.44L207.68 227.504L198.224 211.96L211.96 198.224L227.504 207.68L231.44 205.744C233.504 204.728 235.64 203.832 237.84 203.08L241.984 201.664L246.288 184H265.72L270.024 201.664L274.168 203.08C276.368 203.832 278.504 204.728 280.568 205.744L284.504 207.68L300.048 198.224L313.784 211.96L304.328 227.504L306.264 231.44C307.28 233.504 308.176 235.64 308.928 237.84L310.344 241.984L328 246.288V265.712Z" fill="#5FA67D"/>
<path d="M256 216C233.944 216 216 233.944 216 256C216 278.056 233.944 296 256 296C278.056 296 296 278.056 296 256C296 233.944 278.056 216 256 216ZM256 280C242.768 280 232 269.232 232 256C232 242.768 242.768 232 256 232C269.232 232 280 242.768 280 256C280 269.232 269.232 280 256 280Z" fill="#5FA67D"/>
<path d="M424 88H440V104H424V88Z" fill="#5FA67D"/>
<path d="M456 88H472V104H456V88Z" fill="#5FA67D"/>
<path d="M392 88H408V104H392V88Z" fill="#5FA67D"/>
<path d="M360 88H376V104H360V88Z" fill="#5FA67D"/>
<path d="M144 120H128V80H112V120H96V64H80V120H64V48H48V136H144V120Z" fill="#5FA67D"/>
<path d="M266.344 413.656L284.688 432L266.344 450.344L277.656 461.656L307.312 432L277.656 402.344L266.344 413.656Z" fill="#5FA67D"/>
<path d="M234.344 402.344L204.688 432L234.344 461.656L245.656 450.344L227.312 432L245.656 413.656L234.344 402.344Z" fill="#5FA67D"/>
</svg>
