<svg width="512" height="512" viewBox="0 0 512 512" fill="none" xmlns="http://www.w3.org/2000/svg">
<g clip-path="url(#clip0_1005_76)">
<path d="M291.055 242.809C292.565 245.762 295.569 247.468 298.675 247.468C299.972 247.468 301.303 247.169 302.541 246.538C303.044 246.282 353.272 220.767 378.044 212.942C382.533 211.517 385.024 206.721 383.599 202.233C382.182 197.744 377.421 195.244 372.89 196.661C346.795 204.913 296.909 230.257 294.793 231.332C290.594 233.465 288.922 238.603 291.055 242.809Z" fill="#5FA67D"/>
<path d="M298.675 145.07C299.972 145.07 301.303 144.771 302.541 144.14C303.044 143.884 353.272 118.369 378.044 110.544C382.533 109.119 385.024 104.323 383.599 99.8349C382.182 95.3459 377.421 92.8459 372.89 94.2629C346.795 102.515 296.909 127.859 294.793 128.934C290.595 131.067 288.922 136.204 291.055 140.411C292.565 143.363 295.569 145.07 298.675 145.07Z" fill="#5FA67D"/>
<path d="M503.465 128.003C498.746 128.003 494.932 131.826 494.932 136.536V469.333C494.932 483.447 483.446 494.933 469.332 494.933H264.534V475.298C276.976 470.946 309.385 460.8 341.333 460.8C415.667 460.8 466.141 477.261 466.644 477.431C469.212 478.284 472.08 477.858 474.324 476.253C476.551 474.649 477.865 472.072 477.865 469.332V93.8703C477.865 89.8684 475.092 86.4034 471.183 85.5414C471.183 85.5414 464.493 84.0484 453.058 81.9484C448.441 81.0954 443.979 84.1674 443.125 88.7924C442.272 93.4343 445.335 97.8803 449.969 98.7333C454.33 99.5353 457.982 100.243 460.798 100.807V457.992C441.461 452.923 398.523 443.734 341.332 443.734C304.153 443.734 267.631 455.944 256.332 460.083C246.288 455.646 215.927 443.734 179.2 443.734C120.422 443.734 72.0044 453.428 51.2006 458.351V100.474C68.2414 96.2843 118.571 85.3364 179.2 85.3364C210.312 85.3364 236.995 95.0213 247.466 99.3993V435.201C247.466 438.273 249.121 441.115 251.792 442.625C254.463 444.144 257.757 444.101 260.394 442.514C261.239 442.011 345.786 391.51 420.828 366.499C424.318 365.33 426.665 362.079 426.665 358.401V8.537C426.665 5.73802 425.291 3.11804 422.987 1.52305C420.7 -0.0729354 417.765 -0.439932 415.128 0.54206C346.853 26.1499 277.769 69.1405 277.077 69.5675C273.083 72.0675 271.863 77.3325 274.363 81.3264C276.855 85.3204 282.12 86.5404 286.122 84.0404C286.753 83.6394 346.853 46.2467 409.598 21.0139V352.292C351.349 372.533 290.533 405.583 264.532 420.379V93.8703C264.532 90.6364 262.706 87.6834 259.813 86.2334C258.345 85.5084 223.376 68.2705 179.2 68.2705C102.093 68.2705 42.8126 84.9534 40.3206 85.6694C36.6597 86.7104 34.1337 90.0644 34.1337 93.8703V469.334C34.1337 472.005 35.3967 474.531 37.5217 476.144C39.0236 477.279 40.8326 477.868 42.6676 477.868C43.4526 477.868 44.2376 477.757 45.0056 477.535C45.5946 477.373 104.602 460.801 179.2 460.801C210.397 460.801 237.055 470.512 247.466 474.872V494.934H42.6676C28.5537 494.934 17.0678 483.448 17.0678 469.334V136.537C17.0678 131.827 13.2448 128.004 8.53489 128.004C3.82492 128.004 0.00195312 131.827 0.00195312 136.537V469.334C0.00195312 492.86 19.1418 512.001 42.6686 512.001H469.332C492.858 512.001 511.999 492.861 511.999 469.334V136.537C511.998 131.826 508.184 128.003 503.465 128.003Z" fill="#5FA67D"/>
<path d="M291.055 191.61C292.565 194.563 295.569 196.269 298.675 196.269C299.972 196.269 301.303 195.97 302.541 195.339C303.044 195.083 353.272 169.568 378.044 161.743C382.533 160.318 385.024 155.522 383.599 151.034C382.182 146.545 377.421 144.045 372.89 145.462C346.795 153.714 296.909 179.058 294.793 180.133C290.594 182.266 288.922 187.404 291.055 191.61Z" fill="#5FA67D"/>
<path d="M291.055 294.01C292.565 296.963 295.569 298.669 298.675 298.669C299.972 298.669 301.303 298.37 302.541 297.739C303.044 297.483 353.272 271.968 378.044 264.143C382.533 262.718 385.024 257.922 383.599 253.434C382.182 248.945 377.421 246.445 372.89 247.862C346.795 256.114 296.909 281.458 294.793 282.533C290.594 284.666 288.922 289.804 291.055 294.01Z" fill="#5FA67D"/>
<path d="M206.747 158.365C154.054 146 94.1753 161.753 91.6583 162.427C87.1103 163.647 84.4053 168.323 85.6253 172.88C86.6493 176.694 90.0963 179.203 93.8603 179.203C94.5943 179.203 95.3363 179.109 96.0793 178.913C96.6513 178.751 154.302 163.587 202.857 174.979C207.422 176.046 212.039 173.204 213.114 168.613C214.188 164.031 211.338 159.44 206.747 158.365Z" fill="#5FA67D"/>
<path d="M206.747 209.564C154.054 197.208 94.1753 212.952 91.6583 213.626C87.1103 214.846 84.4053 219.523 85.6253 224.079C86.6493 227.893 90.0963 230.402 93.8603 230.402C94.5943 230.402 95.3363 230.308 96.0793 230.112C96.6513 229.95 154.302 214.786 202.857 226.178C207.422 227.245 212.039 224.403 213.114 219.812C214.188 215.23 211.338 210.639 206.747 209.564Z" fill="#5FA67D"/>
<path d="M291.055 345.209C292.565 348.162 295.569 349.868 298.675 349.868C299.972 349.868 301.303 349.569 302.541 348.938C303.044 348.682 353.272 323.167 378.044 315.342C382.533 313.917 385.024 309.121 383.599 304.633C382.182 300.145 377.421 297.644 372.89 299.061C346.795 307.313 296.909 332.657 294.793 333.732C290.594 335.865 288.922 341.003 291.055 345.209Z" fill="#5FA67D"/>
<path d="M206.747 260.764C154.054 248.408 94.1753 264.143 91.6583 264.826C87.1103 266.046 84.4053 270.723 85.6253 275.279C86.6493 279.093 90.0963 281.611 93.8603 281.611C94.5943 281.611 95.3363 281.509 96.0793 281.312C96.6513 281.15 154.302 265.986 202.857 277.378C207.422 278.445 212.039 275.603 213.114 271.012C214.188 266.43 211.338 261.839 206.747 260.764Z" fill="#5FA67D"/>
<path d="M206.747 363.163C154.054 350.798 94.1753 366.551 91.6583 367.225C87.1103 368.445 84.4053 373.122 85.6253 377.678C86.6493 381.492 90.0963 384.01 93.8603 384.01C94.5943 384.01 95.3363 383.908 96.0793 383.711C96.6513 383.549 154.302 368.385 202.857 379.777C207.422 380.835 212.039 378.002 213.114 373.411C214.188 368.829 211.338 364.238 206.747 363.163Z" fill="#5FA67D"/>
<path d="M206.747 311.963C154.054 299.598 94.1753 315.342 91.6583 316.025C87.1103 317.245 84.4053 321.922 85.6253 326.478C86.6493 330.292 90.0963 332.81 93.8603 332.81C94.5943 332.81 95.3363 332.708 96.0793 332.511C96.6513 332.349 154.302 317.185 202.857 328.577C207.422 329.644 212.039 326.802 213.114 322.211C214.188 317.629 211.338 313.038 206.747 311.963Z" fill="#5FA67D"/>
</g>
<defs>
<clipPath id="clip0_1005_76">
<rect width="512" height="512" fill="white"/>
</clipPath>
</defs>
</svg>
