<svg width="512" height="512" viewBox="0 0 512 512" fill="none" xmlns="http://www.w3.org/2000/svg">
<g clip-path="url(#clip0_1005_92)">
<path d="M503.467 454.639V256C503.443 254.68 503.107 253.384 502.485 252.219H502.571L481.681 210.449C477.38 201.74 468.499 196.239 458.786 196.266H401.067V187.733C401.066 185.47 400.167 183.3 398.566 181.7L352.367 135.5C349.296 132.461 345.497 130.261 341.333 129.109V71.5516L358.4 66.9692V87.6369V87.6966C358.391 96.4594 362.77 104.645 370.065 109.499C372.602 111.191 375.848 111.402 378.582 110.051C381.315 108.7 383.121 105.994 383.318 102.951C383.515 99.9085 382.074 96.9919 379.537 95.2998C376.991 93.6084 375.463 90.7533 375.467 87.6966V87.6369V61.6358C381.44 58.1858 384.749 51.4792 383.853 44.6398C382.956 37.8003 378.031 32.1728 371.371 30.3782L260.386 0.579834C257.512 -0.18807 254.488 -0.18807 251.614 0.579834L140.629 30.3782C133.166 32.4159 127.988 39.196 127.988 46.9329C127.988 54.6698 133.166 61.4499 140.629 63.4876L170.667 71.5516V128H170.129C162.543 128.003 155.35 131.38 150.502 137.216L112.956 182.272C111.662 183.799 110.946 185.732 110.933 187.733V196.266H53.2139C43.5092 196.232 34.6296 201.72 30.3189 210.415L9.42933 252.185H9.51467C8.88792 253.36 8.55144 254.668 8.53333 256V454.639C3.27039 457.663 0.018304 463.263 0 469.333V486.4C0 495.825 7.64101 503.466 17.0667 503.466H130.372C133.397 508.729 138.997 511.981 145.067 512H366.933C373.003 511.981 378.603 508.729 381.628 503.466H494.933C504.359 503.466 512 495.825 512 486.4V469.333C511.982 463.263 508.73 457.663 503.467 454.639V454.639ZM375.467 452.266H366.933V264.533H486.4V452.266H375.467ZM281.6 452.266H230.4V358.4H281.6V452.266ZM290.133 341.333H221.867C217.154 341.333 213.333 345.153 213.333 349.866V452.266H162.133V264.533H349.867V452.266H298.667V349.866C298.667 345.153 294.846 341.333 290.133 341.333ZM384 196.266V213.333H128V196.266H384ZM366.933 230.4V247.466H145.067V230.4H366.933ZM458.786 213.333C462.021 213.323 464.98 215.153 466.415 218.052L481.126 247.466H384V230.4C393.426 230.4 401.067 222.759 401.067 213.333H458.786ZM256 17.0662L367.053 46.9329H366.942L256.043 76.7996L145.067 46.8646L256 17.0662ZM187.733 76.134L251.614 93.286C254.487 94.0595 257.513 94.0595 260.386 93.286L324.267 76.134V128H187.733V76.134ZM163.575 148.138C165.196 146.193 167.597 145.067 170.129 145.066H334.259C336.525 145.064 338.699 145.964 340.301 147.566L371.934 179.2H137.685L163.575 148.138ZM45.5851 218.052C47.0202 215.153 49.9792 213.323 53.2139 213.333H110.933C110.933 222.759 118.574 230.4 128 230.4V247.466H30.8736L45.5851 218.052ZM17.0667 469.333H128V486.4H17.0667V469.333ZM136.533 452.266H25.6V264.533H145.067V452.266H136.533ZM145.067 494.933V469.333H366.933V494.933H145.067ZM494.933 486.4H384V469.333H494.933V486.4Z" fill="#5FA67D"/>
<path d="M230.4 281.6C225.687 281.6 221.867 285.42 221.867 290.133V307.2C221.867 311.912 225.687 315.733 230.4 315.733C235.113 315.733 238.933 311.912 238.933 307.2V290.133C238.933 285.42 235.113 281.6 230.4 281.6Z" fill="#5FA67D"/>
<path d="M110.933 290.133C106.22 290.133 102.4 293.953 102.4 298.666V315.733C102.4 320.446 106.22 324.266 110.933 324.266C115.646 324.266 119.467 320.446 119.467 315.733V298.666C119.467 293.953 115.646 290.133 110.933 290.133Z" fill="#5FA67D"/>
<path d="M59.7333 290.133C55.0205 290.133 51.2 293.953 51.2 298.666V315.733C51.2 320.446 55.0205 324.266 59.7333 324.266C64.4461 324.266 68.2666 320.446 68.2666 315.733V298.666C68.2666 293.953 64.4461 290.133 59.7333 290.133Z" fill="#5FA67D"/>
<path d="M110.933 341.333C106.22 341.333 102.4 345.154 102.4 349.866V366.933C102.4 371.646 106.22 375.466 110.933 375.466C115.646 375.466 119.467 371.646 119.467 366.933V349.866C119.467 345.154 115.646 341.333 110.933 341.333Z" fill="#5FA67D"/>
<path d="M59.7333 341.333C55.0205 341.333 51.2 345.154 51.2 349.866V366.933C51.2 371.646 55.0205 375.466 59.7333 375.466C64.4461 375.466 68.2666 371.646 68.2666 366.933V349.866C68.2666 345.154 64.4461 341.333 59.7333 341.333Z" fill="#5FA67D"/>
<path d="M110.933 392.533C106.22 392.533 102.4 396.354 102.4 401.067V418.133C102.4 422.846 106.22 426.667 110.933 426.667C115.646 426.667 119.467 422.846 119.467 418.133V401.067C119.467 396.354 115.646 392.533 110.933 392.533Z" fill="#5FA67D"/>
<path d="M59.7333 392.533C55.0205 392.533 51.2 396.354 51.2 401.067V418.133C51.2 422.846 55.0205 426.667 59.7333 426.667C64.4461 426.667 68.2666 422.846 68.2666 418.133V401.067C68.2666 396.354 64.4461 392.533 59.7333 392.533Z" fill="#5FA67D"/>
<path d="M452.267 290.133C447.554 290.133 443.733 293.953 443.733 298.666V315.733C443.733 320.446 447.554 324.266 452.267 324.266C456.98 324.266 460.8 320.446 460.8 315.733V298.666C460.8 293.953 456.98 290.133 452.267 290.133Z" fill="#5FA67D"/>
<path d="M401.067 290.133C396.354 290.133 392.533 293.953 392.533 298.666V315.733C392.533 320.446 396.354 324.266 401.067 324.266C405.779 324.266 409.6 320.446 409.6 315.733V298.666C409.6 293.953 405.779 290.133 401.067 290.133Z" fill="#5FA67D"/>
<path d="M452.267 341.333C447.554 341.333 443.733 345.154 443.733 349.866V366.933C443.733 371.646 447.554 375.466 452.267 375.466C456.98 375.466 460.8 371.646 460.8 366.933V349.866C460.8 345.154 456.98 341.333 452.267 341.333Z" fill="#5FA67D"/>
<path d="M401.067 341.333C396.354 341.333 392.533 345.154 392.533 349.866V366.933C392.533 371.646 396.354 375.466 401.067 375.466C405.779 375.466 409.6 371.646 409.6 366.933V349.866C409.6 345.154 405.779 341.333 401.067 341.333Z" fill="#5FA67D"/>
<path d="M452.267 392.533C447.554 392.533 443.733 396.354 443.733 401.067V418.133C443.733 422.846 447.554 426.667 452.267 426.667C456.98 426.667 460.8 422.846 460.8 418.133V401.067C460.8 396.354 456.98 392.533 452.267 392.533Z" fill="#5FA67D"/>
<path d="M401.067 392.533C396.354 392.533 392.533 396.354 392.533 401.067V418.133C392.533 422.846 396.354 426.667 401.067 426.667C405.779 426.667 409.6 422.846 409.6 418.133V401.067C409.6 396.354 405.779 392.533 401.067 392.533Z" fill="#5FA67D"/>
<path d="M281.6 281.6C276.887 281.6 273.067 285.42 273.067 290.133V307.2C273.067 311.912 276.887 315.733 281.6 315.733C286.313 315.733 290.133 311.912 290.133 307.2V290.133C290.133 285.42 286.313 281.6 281.6 281.6Z" fill="#5FA67D"/>
</g>
<defs>
<clipPath id="clip0_1005_92">
<rect width="512" height="512" fill="white"/>
</clipPath>
</defs>
</svg>
