<svg width="512" height="512" viewBox="0 0 512 512" fill="none" xmlns="http://www.w3.org/2000/svg">
<path d="M446.32 408.32L440.68 385.76L452.8 369.6C460.024 359.976 464 348.048 464 336V320C464 289.128 438.872 264 408 264C377.128 264 352 289.128 352 320V336C352 348.048 355.976 359.976 363.2 369.592L375.312 385.752L369.632 408.48C360.536 409.384 351.848 412.208 343.944 416.8C341.4 415.312 338.752 414.016 335.992 412.888V320C335.992 289.128 310.864 264 279.992 264C266.456 264 254.032 268.832 244.344 276.848C233.704 235.64 200.584 202.832 158.536 193.176L157.472 188.92C168.384 183.816 176 172.816 176 160C193.648 160 208 145.648 208 128V88C208 43.888 172.112 8 128 8C83.888 8 48 43.888 48 88V128C48 145.648 62.352 160 80 160C80 172.816 87.616 183.816 98.528 188.92L97.464 193.176C45.32 205.088 8 251.496 8 305.448V312H24V305.448C24 260.68 53.856 221.96 96.208 210.032C97.272 226.712 111.048 240 128 240C144.944 240 158.704 226.728 159.792 210.056C197.592 220.792 226.064 253.44 231.12 292.752C226.6 300.832 224 310.112 224 320V412.88C221.232 414.008 218.584 415.312 216.04 416.8C208.152 412.2 199.464 409.376 190.368 408.48L184.688 385.76L196.8 369.6C204.024 359.976 208 348.048 208 336V320C208 289.128 182.872 264 152 264C121.128 264 96 289.128 96 320V336C96 348.048 99.976 359.976 107.2 369.592L119.312 385.752L113.68 408.32C81.344 411.504 56 438.848 56 472V504H504V472C504 438.848 478.656 411.504 446.32 408.32ZM176 144V112C184.824 112 192 119.176 192 128C192 136.824 184.824 144 176 144ZM64 128C64 119.176 71.176 112 80 112V144C71.176 144 64 136.824 64 128ZM88 96H80C74.144 96 68.728 97.696 64 100.448V88C64 52.712 92.712 24 128 24C163.288 24 192 52.712 192 88V100.448C187.272 97.696 181.856 96 176 96H168H165.984C153.944 96 142.624 91.312 133.656 82.344L127.544 77.144L121.888 82.8C113.376 91.312 102.056 96 90.016 96H88ZM96 111.712C107.624 110.584 118.576 106.168 127.96 98.736C137.184 106.096 148.232 110.576 160 111.712V160C160 168.824 152.824 176 144 176H112C103.176 176 96 168.824 96 160V111.712ZM128 224C119.176 224 112 216.824 112 208V200.976L114.24 192H141.76L144 200.976V208C144 216.824 136.824 224 128 224ZM425.76 392L429.76 408H386.24L390.24 392H425.76ZM368 320C368 297.944 385.944 280 408 280C430.056 280 448 297.944 448 320V336C448 344.6 445.16 353.128 440 360L428 376H388L376 359.992C370.84 353.128 368 344.6 368 336V320ZM280 280C302.056 280 320 297.944 320 320V432C320 436.416 316.416 440 312 440H248C243.584 440 240 436.416 240 432V320C240 297.944 257.944 280 280 280ZM248 456H312C325.232 456 336 445.232 336 432V430.608C350.48 439.072 360 454.752 360 472V488H344V456H328V488H232V456H216V488H200V472C200 454.752 209.52 439.08 224 430.616V432C224 445.232 234.768 456 248 456ZM169.76 392L173.76 408H130.24L134.24 392H169.76ZM112 320C112 297.944 129.944 280 152 280C174.056 280 192 297.944 192 320V336C192 344.6 189.16 353.128 184 360L172 376H132L120 359.992C114.84 353.128 112 344.6 112 336V320ZM72 472C72 445.528 93.528 424 120 424H184C190.304 424 196.4 425.336 202.112 427.672C190.872 439.376 184 455.128 184 472V488H104V456H88V488H72V472ZM488 488H472V456H456V488H376V472C376 455.128 369.128 439.376 357.896 427.68C363.608 425.336 369.704 424 376 424H440C466.472 424 488 445.528 488 472V488Z" fill="#5FA67D"/>
<path d="M244.768 182.608C247.144 201.648 263.408 216 282.6 216H288V227.72C288 238.904 297.104 248 308.28 248C312.296 248 316.184 246.824 319.528 244.592L362.424 216H453.408C472.592 216 488.864 201.648 491.24 182.608L503.712 82.864C503.896 81.288 504 79.712 504 78.128C504 57.104 486.896 40 465.872 40H270.128C249.104 40 232 57.104 232 78.128C232 79.712 232.104 81.296 232.296 82.856L244.768 182.608ZM270.128 56H465.88C478.08 56 488 65.928 488 78.128C488 79.04 487.944 79.96 487.832 80.872L475.36 180.624C473.976 191.664 464.536 200 453.408 200H357.576L310.656 231.28C308 233.056 304 230.928 304 227.72V200H282.592C271.456 200 262.024 191.664 260.64 180.624L248.168 80.864C248.056 79.952 248 79.04 248 78.128C248 65.928 257.92 56 270.128 56Z" fill="#5FA67D"/>
<path d="M456 72H408V184H456V72ZM440 168H424V88H440V168Z" fill="#5FA67D"/>
<path d="M392 88H344V184H392V88ZM376 168H360V104H376V168Z" fill="#5FA67D"/>
<path d="M328 104H280V184H328V104ZM312 168H296V120H312V168Z" fill="#5FA67D"/>
</svg>
