<svg width="512" height="512" viewBox="0 0 512 512" fill="none" xmlns="http://www.w3.org/2000/svg">
<g clip-path="url(#clip0_1005_111)">
<path d="M488.776 466.915C486.465 458.03 486.467 448.656 488.776 439.783C515.36 436.143 515.46 398.663 488.926 394.859C501.012 384.218 508.715 368.777 508.881 351.621C509.1 328.778 495.524 307.343 474.775 297.756C485.551 282.433 473.162 261.056 454.674 262.168C452.415 253.384 452.412 244.116 454.674 235.319C484.56 236.884 486.525 190.092 456.272 190.092H401.599L380.202 118.049L482.776 91.1065C500.46 86.4614 500.484 60.5011 482.776 55.849L283.763 3.5783C265.601 -1.19277 246.401 -1.19277 228.239 3.5783L154.238 23.0166C145.16 25.4006 148.557 40.0138 158.049 37.5248L232.05 18.0865C247.719 13.9714 264.284 13.9714 279.953 18.0865L478.965 70.3592C482.168 71.2002 482.167 75.7593 478.965 76.6003L325.804 116.83L277.598 73.1193V55.756C276.372 26.1356 234.164 26.1426 232.941 55.756V77.0753C232.941 79.6813 234.294 82.1014 236.515 83.4654C246.671 89.7005 258.582 90.5825 269.359 85.8964L308.488 121.377L279.952 128.872C264.283 132.987 247.718 132.987 232.049 128.872L33.0374 76.6003C29.8344 75.7583 29.8334 71.2002 33.0374 70.3592L120.095 47.4929C129.173 45.1089 125.775 30.4927 116.284 32.9847L29.2264 55.851C11.5421 60.4961 11.5171 86.4564 29.2264 91.1085L131.799 118.05L110.401 190.093H92.3272C59.9918 190.093 33.4304 216.145 33.1194 248.169C32.9574 264.933 40.1705 281.19 52.6257 292.395H25.7293C-2.77707 293.372 -4.83309 333.45 23.2273 337.48C25.5413 346.365 25.5413 355.726 23.2273 364.611C-3.35807 368.249 -3.45907 405.732 23.0753 409.536C10.9891 420.177 3.28602 435.616 3.11901 452.772C2.96701 468.533 9.0001 483.388 20.1062 494.604C31.2154 505.822 46.0096 512 61.7628 512H486.271C514.686 511.065 516.916 470.985 488.776 466.915ZM262.597 72.4662C257.804 74.3373 252.72 74.3403 247.94 72.4712V55.756C248.285 46.0559 262.255 46.0619 262.597 55.756V72.4662ZM450.237 337.623C468.019 338.349 468.061 363.726 450.237 364.471H136.173V337.623H450.237ZM121.172 427.89L100.498 438.736V337.623H121.172V427.89ZM85.4981 364.471H38.6425C40.4015 355.615 40.4015 346.479 38.6425 337.623H85.4981V364.471ZM89.1172 457.559C91.5522 458.923 94.0073 458.997 96.4823 457.783L130.52 439.925H473.36C471.606 448.774 471.607 457.917 473.362 466.774H61.7628C54.3627 466.774 48.3416 460.752 48.3416 453.349C48.3416 445.947 54.3627 439.925 61.7628 439.925H85.4971V451.141C85.4981 453.766 86.8712 456.201 89.1172 457.559V457.559ZM439.295 262.169H91.7632C84.3631 262.169 78.342 256.147 78.342 248.745C78.342 241.343 84.3631 235.32 91.7632 235.32H294.926C294.737 240.663 294.765 248.496 302.304 248.496H345.469C353.031 248.496 353.036 240.666 352.847 235.32H439.297C437.542 244.179 437.541 253.32 439.295 262.169ZM323.887 183.358C330.496 183.358 336.788 206.811 337.822 233.496H309.953C310.986 206.811 317.278 183.358 323.887 183.358V183.358ZM463.883 212.707C463.883 216.905 460.468 220.32 456.271 220.32H351.863C351.37 215.221 350.714 210.135 349.804 205.093H456.271C460.468 205.094 463.883 208.51 463.883 212.707ZM385.951 190.094H346.057C342.488 179.59 337.583 172.873 331.387 169.989V130.872L365.687 121.863L385.951 190.094ZM146.314 121.863L228.238 143.381C246.331 148.133 265.67 148.133 283.762 143.381L316.386 134.812V169.989C310.19 172.873 305.286 179.59 301.717 190.094H126.05L146.314 121.863ZM60.7648 279.445C52.4967 271.096 48.0056 260.04 48.1186 248.315C48.3506 224.482 68.1819 205.094 92.3272 205.094H297.97C297.06 210.136 296.404 215.222 295.911 220.321H91.7632C76.091 220.321 63.3418 233.072 63.3418 248.746C63.3418 264.419 76.092 277.17 91.7632 277.17H456.27C465.793 277.17 466.229 292.397 456.27 292.397H91.7632C80.0451 292.396 69.0359 287.797 60.7648 279.445V279.445ZM18.1172 315.01C18.1172 310.812 21.5323 307.396 25.7293 307.396H450.238C474.167 307.396 494.111 327.537 493.882 351.477C493.65 375.309 473.818 394.698 449.673 394.698H410.336C400.95 394.698 400.522 409.698 410.336 409.698H486.272C490.469 409.698 493.884 413.113 493.884 417.311C493.884 421.509 490.469 424.924 486.272 424.924H136.172V409.697H370.807C380.192 409.697 380.62 394.697 370.807 394.697H136.172V379.469H450.237C465.909 379.469 478.66 366.718 478.66 351.045C478.66 335.372 465.909 322.621 450.237 322.621H25.7293C21.5313 322.623 18.1172 319.207 18.1172 315.01V315.01ZM25.7293 394.698C15.6522 394.339 15.6602 379.826 25.7293 379.47H85.4981V394.698H25.7293ZM486.272 497H61.7628C50.0437 497 39.0345 492.401 30.7644 484.049C22.4963 475.699 18.0052 464.644 18.1182 452.918C18.3502 429.086 38.1815 409.698 62.3268 409.698H85.4981V424.925H61.7628C24.0483 426.491 24.0773 480.222 61.7628 481.774H486.271C496.349 482.132 496.342 496.645 486.272 497Z" fill="#5FA67D"/>
</g>
<defs>
<clipPath id="clip0_1005_111">
<rect width="512" height="512" fill="white"/>
</clipPath>
</defs>
</svg>
