<svg width="16" height="17" viewBox="0 0 16 17" fill="none" xmlns="http://www.w3.org/2000/svg">
<path d="M13.3333 8.5V15.1667H2.66663V8.5" stroke="#F9670F" stroke-width="1.33333" stroke-linecap="round" stroke-linejoin="round"/>
<path d="M14.6667 5.16666H1.33337V8.5H14.6667V5.16666Z" stroke="#F9670F" stroke-width="1.33333" stroke-linecap="round" stroke-linejoin="round"/>
<path d="M8 15.1667V5.16666" stroke="#F9670F" stroke-width="1.33333" stroke-linecap="round" stroke-linejoin="round"/>
<path d="M8.00004 5.16667H5.00004C4.55801 5.16667 4.13409 4.99107 3.82153 4.67851C3.50897 4.36595 3.33337 3.94203 3.33337 3.5C3.33337 3.05797 3.50897 2.63405 3.82153 2.32149C4.13409 2.00893 4.55801 1.83334 5.00004 1.83334C7.33337 1.83334 8.00004 5.16667 8.00004 5.16667Z" stroke="#F9670F" stroke-width="1.33333" stroke-linecap="round" stroke-linejoin="round"/>
<path d="M8 5.16667H11C11.442 5.16667 11.866 4.99107 12.1785 4.67851C12.4911 4.36595 12.6667 3.94203 12.6667 3.5C12.6667 3.05797 12.4911 2.63405 12.1785 2.32149C11.866 2.00893 11.442 1.83334 11 1.83334C8.66667 1.83334 8 5.16667 8 5.16667Z" stroke="#F9670F" stroke-width="1.33333" stroke-linecap="round" stroke-linejoin="round"/>
</svg>
