<svg width="16" height="17" viewBox="0 0 16 17" fill="none" xmlns="http://www.w3.org/2000/svg">
<path d="M14.6667 11.7801V13.7801C14.6675 13.9657 14.6294 14.1495 14.555 14.3196C14.4807 14.4898 14.3716 14.6425 14.2348 14.768C14.0979 14.8935 13.9364 14.9891 13.7605 15.0485C13.5847 15.108 13.3983 15.1301 13.2134 15.1134C11.1619 14.8905 9.19137 14.1895 7.46004 13.0667C5.84926 12.0432 4.48359 10.6775 3.46004 9.06673C2.33336 7.32754 1.6322 5.3474 1.41337 3.28673C1.39671 3.10238 1.41862 2.91657 1.4777 2.74115C1.53679 2.56573 1.63175 2.40453 1.75655 2.26781C1.88134 2.1311 2.03324 2.02187 2.20256 1.94708C2.37189 1.87229 2.55493 1.83357 2.74004 1.8334H4.74004C5.06357 1.83022 5.37723 1.94479 5.62254 2.15576C5.86786 2.36673 6.02809 2.6597 6.07337 2.98007C6.15779 3.62011 6.31434 4.24855 6.54004 4.8534C6.62973 5.09202 6.64915 5.35134 6.59597 5.60065C6.5428 5.84996 6.41928 6.07881 6.24004 6.26007L5.39337 7.10673C6.34241 8.77576 7.72434 10.1577 9.39337 11.1067L10.24 10.2601C10.4213 10.0808 10.6501 9.9573 10.8994 9.90413C11.1488 9.85096 11.4081 9.87037 11.6467 9.96007C12.2516 10.1858 12.88 10.3423 13.52 10.4267C13.8439 10.4724 14.1396 10.6355 14.3511 10.8851C14.5625 11.1346 14.6748 11.4531 14.6667 11.7801Z" stroke="#232630" stroke-width="1.33333" stroke-linecap="round" stroke-linejoin="round"/>
</svg>
