<svg width="16" height="17" viewBox="0 0 16 17" fill="none" xmlns="http://www.w3.org/2000/svg">
<path d="M10.6666 2.5H0.666626V11.1667H10.6666V2.5Z" stroke="#232630" stroke-width="1.33333" stroke-linecap="round" stroke-linejoin="round"/>
<path d="M10.6666 5.83334H13.3333L15.3333 7.83334V11.1667H10.6666V5.83334Z" stroke="#232630" stroke-width="1.33333" stroke-linecap="round" stroke-linejoin="round"/>
<path d="M3.66667 14.5C4.58714 14.5 5.33333 13.7538 5.33333 12.8333C5.33333 11.9129 4.58714 11.1667 3.66667 11.1667C2.74619 11.1667 2 11.9129 2 12.8333C2 13.7538 2.74619 14.5 3.66667 14.5Z" stroke="#232630" stroke-width="1.33333" stroke-linecap="round" stroke-linejoin="round"/>
<path d="M12.3333 14.5C13.2538 14.5 14 13.7538 14 12.8333C14 11.9129 13.2538 11.1667 12.3333 11.1667C11.4128 11.1667 10.6666 11.9129 10.6666 12.8333C10.6666 13.7538 11.4128 14.5 12.3333 14.5Z" stroke="#232630" stroke-width="1.33333" stroke-linecap="round" stroke-linejoin="round"/>
</svg>
