<svg width="16" height="17" viewBox="0 0 16 17" fill="none" xmlns="http://www.w3.org/2000/svg">
<path d="M15.0266 4.78C14.9474 4.4636 14.7862 4.17371 14.5591 3.9396C14.332 3.70549 14.0471 3.53545 13.7333 3.44666C12.5866 3.16666 7.99997 3.16666 7.99997 3.16666C7.99997 3.16666 3.41331 3.16666 2.26664 3.47333C1.95281 3.56212 1.66796 3.73216 1.44087 3.96627C1.21378 4.20038 1.0525 4.49027 0.973308 4.80666C0.763451 5.97037 0.660798 7.15087 0.666641 8.33333C0.65916 9.52469 0.761819 10.7142 0.973308 11.8867C1.06061 12.1932 1.22551 12.4721 1.45207 12.6963C1.67863 12.9205 1.95919 13.0825 2.26664 13.1667C3.41331 13.4733 7.99997 13.4733 7.99997 13.4733C7.99997 13.4733 12.5866 13.4733 13.7333 13.1667C14.0471 13.0779 14.332 12.9078 14.5591 12.6737C14.7862 12.4396 14.9474 12.1497 15.0266 11.8333C15.2349 10.6784 15.3375 9.50689 15.3333 8.33333C15.3408 7.14197 15.2381 5.95246 15.0266 4.78V4.78Z" stroke="#232630" stroke-width="1.33333" stroke-linecap="round" stroke-linejoin="round"/>
<path d="M6.5 10.5133L10.3333 8.33332L6.5 6.15332V10.5133Z" stroke="#232630" stroke-width="1.33333" stroke-linecap="round" stroke-linejoin="round"/>
</svg>
