<svg width="17" height="17" viewBox="0 0 17 17" fill="none" xmlns="http://www.w3.org/2000/svg">
<path d="M16.387 4.6841C16.2336 4.4586 15.9819 4.32414 15.7129 4.32414H4.50626L3.56 2.01068C3.30417 1.38596 2.7105 0.983398 2.04632 0.983398H0.133301V2.65377H2.04632L5.9363 12.1624C6.0634 12.473 6.36187 12.676 6.69315 12.676H13.253C13.5949 12.676 13.9008 12.4597 14.0213 12.1348L16.4813 5.45331C16.5756 5.19607 16.5403 4.90877 16.387 4.6841ZM12.6847 11.0056H7.24007L5.19012 5.99451H14.5297L12.6847 11.0056Z" fill="white"/>
<path d="M7.10314 16.0167C7.78243 16.0167 8.33311 15.4558 8.33311 14.764C8.33311 14.0721 7.78243 13.5112 7.10314 13.5112C6.42384 13.5112 5.87317 14.0721 5.87317 14.764C5.87317 15.4558 6.42384 16.0167 7.10314 16.0167Z" fill="white"/>
<path d="M12.843 16.0167C13.5223 16.0167 14.073 15.4558 14.073 14.764C14.073 14.0721 13.5223 13.5112 12.843 13.5112C12.1637 13.5112 11.613 14.0721 11.613 14.764C11.613 15.4558 12.1637 16.0167 12.843 16.0167Z" fill="white"/>
</svg>
