<svg width="20" height="21" viewBox="0 0 20 21" fill="none" xmlns="http://www.w3.org/2000/svg">
<path d="M10 0.397461C4.486 0.397461 0 4.88346 0 10.3975C0 15.9115 4.486 20.3975 10 20.3975C15.514 20.3975 20 15.9115 20 10.3975C20 4.88346 15.514 0.397461 10 0.397461ZM10 18.3975C5.589 18.3975 2 14.8085 2 10.3975C2 5.98646 5.589 2.39746 10 2.39746C14.411 2.39746 18 5.98646 18 10.3975C18 14.8085 14.411 18.3975 10 18.3975Z" fill="#231F20"/>
<path d="M8.999 11.9845L6.7 9.68946L5.288 11.1055L9.001 14.8105L12.354 11.4575L15.707 8.10446L14.293 6.69046L8.999 11.9845Z" fill="#231F20"/>
</svg>
