<svg width="20" height="21" viewBox="0 0 20 21" fill="none" xmlns="http://www.w3.org/2000/svg">
<path d="M19.406 4.48371L10.406 0.483711C10.146 0.368711 9.853 0.368711 9.593 0.483711L0.593 4.48371C0.573 4.49271 0.559 4.50771 0.539 4.51871C0.511 4.53271 0.481 4.54171 0.455 4.55871C0.433 4.57371 0.416 4.59271 0.395 4.60871C0.367 4.62971 0.34 4.65271 0.315 4.67671C0.274 4.71571 0.238 4.75771 0.205 4.80271C0.185 4.83071 0.164 4.85571 0.146 4.88371C0.115 4.93671 0.0919999 4.99171 0.0699999 5.04871C0.0609999 5.07571 0.047 5.10071 0.039 5.12771C0.015 5.21471 0 5.30471 0 5.39771V15.3977C0 15.7937 0.232 16.1507 0.594 16.3117L9.594 20.3117C9.724 20.3697 9.862 20.3977 10 20.3977C10.139 20.3977 10.273 20.3587 10.402 20.3017L10.406 20.3117L19.406 16.3117C19.768 16.1507 20 15.7937 20 15.3977V5.39771C20 5.00171 19.768 4.64471 19.406 4.48371ZM10 2.49271L16.538 5.39771L10 8.30271L8.692 7.72171L3.463 5.39771L10 2.49271ZM2 14.7487V6.93671L9 10.0477V17.8587L2 14.7487ZM11 17.8587V10.0477L18 6.93671V14.7487L11 17.8587Z" fill="black"/>
</svg>
