<svg width="31" height="29" viewBox="0 0 31 29" fill="none" xmlns="http://www.w3.org/2000/svg">
<path d="M5.32993 21.1973C5.52569 21.3938 5.6757 21.6311 5.76925 21.8922C5.86281 22.1533 5.89763 22.4318 5.87121 22.7079C5.73866 23.9858 5.48737 25.2486 5.12059 26.4799C7.75152 25.8707 9.35837 25.1654 10.0882 24.7957C10.5022 24.586 10.979 24.5364 11.4273 24.6562C12.7125 24.9988 14.037 25.1712 15.3671 25.1691C22.9034 25.1691 28.5689 19.8752 28.5689 13.8533C28.5689 7.83328 22.9034 2.53746 15.3671 2.53746C7.83073 2.53746 2.16527 7.83328 2.16527 13.8533C2.16527 16.6219 3.32892 19.1906 5.32993 21.1973ZM4.40015 28.562C3.9533 28.6506 3.50501 28.7317 3.05545 28.8053C2.67825 28.8657 2.39159 28.4734 2.54058 28.1226C2.70804 27.7277 2.86153 27.3269 3.00076 26.9212L3.00641 26.9024C3.47414 25.5445 3.8551 23.9829 3.99466 22.5288C1.68058 20.209 0.279297 17.1726 0.279297 13.8533C0.279297 6.56213 7.03485 0.651489 15.3671 0.651489C23.6993 0.651489 30.4549 6.56213 30.4549 13.8533C30.4549 21.1445 23.6993 27.0551 15.3671 27.0551C13.8727 27.0571 12.3846 26.8631 10.9407 26.478C9.96 26.974 7.84959 27.8774 4.40015 28.562Z" fill="white"/>
<path d="M7.82422 9.13842C7.82422 8.88833 7.92357 8.64847 8.10041 8.47163C8.27726 8.29478 8.51711 8.19543 8.76721 8.19543H21.969C22.2191 8.19543 22.459 8.29478 22.6358 8.47163C22.8127 8.64847 22.912 8.88833 22.912 9.13842C22.912 9.38852 22.8127 9.62837 22.6358 9.80521C22.459 9.98206 22.2191 10.0814 21.969 10.0814H8.76721C8.51711 10.0814 8.27726 9.98206 8.10041 9.80521C7.92357 9.62837 7.82422 9.38852 7.82422 9.13842ZM7.82422 13.8534C7.82422 13.6033 7.92357 13.3634 8.10041 13.1866C8.27726 13.0097 8.51711 12.9104 8.76721 12.9104H21.969C22.2191 12.9104 22.459 13.0097 22.6358 13.1866C22.8127 13.3634 22.912 13.6033 22.912 13.8534C22.912 14.1034 22.8127 14.3433 22.6358 14.5201C22.459 14.697 22.2191 14.7963 21.969 14.7963H8.76721C8.51711 14.7963 8.27726 14.697 8.10041 14.5201C7.92357 14.3433 7.82422 14.1034 7.82422 13.8534ZM7.82422 18.5683C7.82422 18.3182 7.92357 18.0783 8.10041 17.9015C8.27726 17.7246 8.51711 17.6253 8.76721 17.6253H16.3111C16.5612 17.6253 16.801 17.7246 16.9779 17.9015C17.1547 18.0783 17.2541 18.3182 17.2541 18.5683C17.2541 18.8184 17.1547 19.0582 16.9779 19.2351C16.801 19.4119 16.5612 19.5113 16.3111 19.5113H8.76721C8.51711 19.5113 8.27726 19.4119 8.10041 19.2351C7.92357 19.0582 7.82422 18.8184 7.82422 18.5683Z" fill="white"/>
</svg>
