<svg width="30" height="29" viewBox="0 0 30 29" fill="none" xmlns="http://www.w3.org/2000/svg">
<path d="M0 1.73145C0 1.46623 0.105357 1.21188 0.292893 1.02434C0.48043 0.836802 0.734784 0.731445 1 0.731445H4C4.22306 0.731507 4.4397 0.806147 4.61546 0.943495C4.79122 1.08084 4.91602 1.27301 4.97 1.48945L5.78 4.73145H29C29.1519 4.73149 29.3018 4.76613 29.4383 4.83275C29.5748 4.89937 29.6943 4.99621 29.7878 5.11592C29.8813 5.23564 29.9463 5.37508 29.9779 5.52366C30.0095 5.67224 30.0068 5.82606 29.97 5.97344L26.97 17.9734C26.916 18.1899 26.7912 18.382 26.6155 18.5194C26.4397 18.6567 26.2231 18.7314 26 18.7314H8C7.77694 18.7314 7.5603 18.6567 7.38454 18.5194C7.20878 18.382 7.08398 18.1899 7.03 17.9734L3.22 2.73145H1C0.734784 2.73145 0.48043 2.62609 0.292893 2.43855C0.105357 2.25102 0 1.99666 0 1.73145ZM6.28 6.73145L8.78 16.7314H25.22L27.72 6.73145H6.28ZM10 22.7314C9.46957 22.7314 8.96086 22.9422 8.58579 23.3172C8.21071 23.6923 8 24.201 8 24.7314C8 25.2619 8.21071 25.7706 8.58579 26.1457C8.96086 26.5207 9.46957 26.7314 10 26.7314C10.5304 26.7314 11.0391 26.5207 11.4142 26.1457C11.7893 25.7706 12 25.2619 12 24.7314C12 24.201 11.7893 23.6923 11.4142 23.3172C11.0391 22.9422 10.5304 22.7314 10 22.7314ZM6 24.7314C6 23.6706 6.42143 22.6532 7.17157 21.903C7.92172 21.1529 8.93913 20.7314 10 20.7314C11.0609 20.7314 12.0783 21.1529 12.8284 21.903C13.5786 22.6532 14 23.6706 14 24.7314C14 25.7923 13.5786 26.8097 12.8284 27.5599C12.0783 28.31 11.0609 28.7314 10 28.7314C8.93913 28.7314 7.92172 28.31 7.17157 27.5599C6.42143 26.8097 6 25.7923 6 24.7314ZM24 22.7314C23.4696 22.7314 22.9609 22.9422 22.5858 23.3172C22.2107 23.6923 22 24.201 22 24.7314C22 25.2619 22.2107 25.7706 22.5858 26.1457C22.9609 26.5207 23.4696 26.7314 24 26.7314C24.5304 26.7314 25.0391 26.5207 25.4142 26.1457C25.7893 25.7706 26 25.2619 26 24.7314C26 24.201 25.7893 23.6923 25.4142 23.3172C25.0391 22.9422 24.5304 22.7314 24 22.7314ZM20 24.7314C20 23.6706 20.4214 22.6532 21.1716 21.903C21.9217 21.1529 22.9391 20.7314 24 20.7314C25.0609 20.7314 26.0783 21.1529 26.8284 21.903C27.5786 22.6532 28 23.6706 28 24.7314C28 25.7923 27.5786 26.8097 26.8284 27.5599C26.0783 28.31 25.0609 28.7314 24 28.7314C22.9391 28.7314 21.9217 28.31 21.1716 27.5599C20.4214 26.8097 20 25.7923 20 24.7314Z" fill="black"/>
</svg>
