<svg width="19" height="20" viewBox="0 0 19 20" fill="none" xmlns="http://www.w3.org/2000/svg">
<path d="M17.7256 10.128L11.186 16.6675C10.2432 17.6104 9.01041 18.2085 7.68627 18.3656V18.3656C3.87086 18.8183 0.636303 15.5837 1.08898 11.7683V11.7683C1.24608 10.4442 1.84422 9.21144 2.78709 8.26857L8.23496 2.8207C8.94211 2.11355 9.86667 1.66494 10.8598 1.54712V1.54712C13.7213 1.20761 16.1473 3.63353 15.8077 6.49509V6.49509C15.6899 7.48819 15.2413 8.41275 14.5342 9.11991L8.67439 14.9797C8.04176 15.6123 7.09198 15.805 6.26285 15.4688V15.4688C4.78524 14.8698 4.39736 12.9575 5.52479 11.8301L12.4762 4.87862" stroke="#845747" stroke-width="2"/>
</svg>
