<svg width="23" height="23" viewBox="0 0 23 23" fill="none" xmlns="http://www.w3.org/2000/svg">
<g clip-path="url(#clip0)">
<path d="M13.7461 11.7967C13.7461 10.5957 12.7645 9.61847 11.5581 9.61847C10.3517 9.61847 9.37019 10.5957 9.37019 11.7967C9.37019 12.998 10.3517 13.9751 11.5581 13.9751C12.7645 13.9751 13.7461 12.998 13.7461 11.7967ZM16.9968 0.457764H5.89208C2.83259 0.457764 0.343506 2.93603 0.343506 5.98214V7.52139H8.50824C9.36977 6.91036 10.422 6.54941 11.5581 6.54941C12.6942 6.54941 13.7465 6.91036 14.6081 7.52139H22.5454V5.98214C22.5454 2.93601 20.0563 0.457764 16.9968 0.457764ZM19.2439 5.71187C19.2439 6.04945 18.9666 6.3257 18.6274 6.3257H16.7225C16.3834 6.3257 16.106 6.04945 16.106 5.71187V3.81516C16.106 3.47761 16.3834 3.20134 16.7225 3.20134H18.6274C18.9666 3.20134 19.2439 3.47756 19.2439 3.81516V5.71187ZM16.8286 11.7967C16.8286 14.6904 14.4641 17.0441 11.5581 17.0441C8.65188 17.0441 6.28762 14.6904 6.28762 11.7967C6.28762 11.0001 6.46784 10.2446 6.78833 9.56741H0.343506V17.1288C0.343506 20.1751 2.83259 22.6532 5.89208 22.6532H16.9968C20.0563 22.6532 22.5454 20.1751 22.5454 17.1288V9.56741H16.3279C16.6484 10.2446 16.8286 11.0001 16.8286 11.7967Z" fill="white"/>
</g>
<defs>
<clipPath id="clip0">
<rect width="22.2222" height="22.2222" fill="white" transform="translate(0.333252 0.444336)"/>
</clipPath>
</defs>
</svg>
