<svg width="29" height="29" viewBox="0 0 29 29" fill="none" xmlns="http://www.w3.org/2000/svg">
<g clip-path="url(#clip0)">
<path fill-rule="evenodd" clip-rule="evenodd" d="M25.3052 17.4999C25.3052 17.4999 27.533 19.7002 28.0841 20.7184C28.0949 20.7331 28.1032 20.7494 28.1089 20.7666C28.3335 21.1428 28.3886 21.4376 28.2784 21.6553C28.0924 22.0149 27.4628 22.1954 27.2492 22.2105H23.3115C23.0373 22.2105 22.4669 22.1389 21.7725 21.6594C21.2421 21.2888 20.7144 20.6785 20.2032 20.0819C19.44 19.196 18.78 18.4272 18.1118 18.4272C18.0274 18.427 17.9436 18.441 17.8638 18.4685C17.3581 18.6283 16.7161 19.3489 16.7161 21.2681C16.7161 21.8689 16.2421 22.2105 15.9101 22.2105H14.1066C13.4921 22.2105 10.2929 21.9956 7.45605 19.0045C3.97991 15.3423 0.857867 7.99601 0.827556 7.93125C0.633289 7.45592 1.04111 7.1969 1.482 7.1969H5.45827C5.99147 7.1969 6.16507 7.5193 6.28631 7.80863C6.42685 8.14068 6.94765 9.46885 7.80187 10.961C9.18516 13.3886 10.0352 14.3765 10.7145 14.3765C10.8421 14.3769 10.9676 14.3436 11.0782 14.2801C11.9655 13.7923 11.8002 10.6234 11.7588 9.97036C11.7588 9.84361 11.7575 8.55539 11.3028 7.93263C10.9776 7.48623 10.4238 7.31263 10.089 7.24925C10.1785 7.11974 10.3687 6.92134 10.6125 6.80423C11.2201 6.50112 12.3182 6.45703 13.408 6.45703H14.0129C15.195 6.47356 15.5009 6.54934 15.9308 6.65819C16.796 6.86485 16.8125 7.42561 16.7368 9.33521C16.7147 9.88081 16.6913 10.4953 16.6913 11.2186C16.6913 11.3729 16.6844 11.5452 16.6844 11.7201C16.6582 12.6997 16.6238 13.8033 17.3154 14.2566C17.4051 14.3125 17.5087 14.3421 17.6144 14.3421C17.8541 14.3421 18.572 14.3421 20.5188 11.0009C21.373 9.52534 22.0343 7.78521 22.0798 7.65432C22.1184 7.5813 22.2341 7.37601 22.3746 7.29334C22.4746 7.24015 22.5866 7.21358 22.6998 7.21619H27.3773C27.8871 7.21619 28.2329 7.29334 28.3004 7.48623C28.4134 7.79899 28.2784 8.75379 26.1428 11.6416C25.7832 12.1225 25.4677 12.5385 25.1908 12.9023C23.255 15.4429 23.255 15.571 25.3052 17.4999Z" fill="white"/>
</g>
<defs>
<clipPath id="clip0">
<rect width="27.5556" height="27.5556" fill="white" transform="translate(0.777832 0.555664)"/>
</clipPath>
</defs>
</svg>
