<svg width="40" height="44" viewBox="0 0 40 44" fill="none" xmlns="http://www.w3.org/2000/svg">
<path d="M36.4607 14.5127C35.745 9.53333 34.4709 6.336 32.6171 4.97933C32.2045 4.67844 31.729 4.4801 31.2286 4.4C30.2122 1.85533 25.5957 0 19.9985 0C14.4014 0 9.72037 1.85533 8.72548 4.4C5.33999 4.972 4.03017 11 3.54346 14.5053C2.69441 20.5444 1.52844 26.5322 0.0506131 32.4427C-0.0492076 32.806 -9.50598e-05 33.1953 0.186605 33.5207C1.27247 35.3987 3.35088 36.4273 5.46167 36.1313C5.15389 37.2753 4.84612 37.9207 5.18968 38.7787C5.7766 40.2453 7.86658 44 13.8359 44C16.4357 43.9272 19.0042 43.399 21.43 42.438C24.4791 43.7653 28.2081 44.6967 31.064 42.944C33.9198 41.1913 34.3135 37.488 34.3135 37.4C34.3135 37.0993 34.4065 37.5247 34.02 36.102C36.7613 36.498 38.8084 35.3687 39.8104 33.572C39.9969 33.2387 40.0483 32.8438 39.9536 32.472C38.4758 26.5541 37.3098 20.5589 36.4607 14.5127ZM19.9985 1.46667C25.5098 1.46667 29.5394 3.35867 29.9617 5.13333C29.5108 7.90533 28.3083 9.95133 24.8155 11C23.57 11.3585 22.5082 12.1969 21.8523 13.3393C21.5977 12.4561 21.2522 11.6031 20.8216 10.7947C22.0087 8.83782 23.4139 7.029 25.0087 5.40467C25.4001 4.97819 25.5065 4.3541 25.2793 3.81695C25.0522 3.27981 24.5351 2.93248 23.9637 2.93333H16.0333C15.4649 2.9352 14.9515 3.2814 14.7249 3.81549C14.4984 4.34957 14.6018 4.97037 14.9883 5.39733C16.4198 6.93 19.5261 10.45 20.4423 13.6547C19.0537 12.5351 16.8063 11.6502 13.6999 11C11.975 10.6333 10.7868 9.9 10.1928 8.8C9.67466 7.68497 9.59772 6.40781 9.97803 5.236C10.2643 3.41 14.3656 1.46667 19.9985 1.46667ZM19.9985 9.372C18.8324 7.59047 17.5048 5.92575 16.0333 4.4H23.9637C22.487 5.91826 21.1589 7.5811 19.9985 9.36467V9.372ZM6.51382 38.2287C6.36351 37.8547 6.57823 37.6933 7.12936 35.42C11.1232 19.888 8.59664 13.838 8.48212 13.5887C8.30196 13.2568 7.90426 13.1207 7.56561 13.2752C7.22696 13.4296 7.05937 13.8233 7.17946 14.1827C7.17946 14.2413 9.54143 20.0053 5.85533 34.6133C2.99234 35.0533 1.82567 33.5133 1.43201 32.8167C2.93134 26.8542 4.11169 20.8124 4.9678 14.718C5.81954 8.624 7.38703 6.70267 8.33897 6.10133C8.00973 9.03467 9.54143 11.5867 13.4208 12.408C15.8686 12.9287 20.7214 14.256 20.7214 16.808V41.1473C10.1427 44.946 7.17946 39.8933 6.51382 38.2287ZM33.5977 34.5033C29.8329 19.58 32.746 14.3147 32.7746 14.2707C32.98 13.9281 32.8778 13.4799 32.5456 13.266C32.3843 13.1626 32.1895 13.1292 32.0042 13.1732C31.8188 13.2173 31.6582 13.3351 31.5578 13.5007C31.4218 13.728 28.201 19.3087 32.3165 35.2953C32.4883 35.9627 32.6672 36.6373 32.8676 37.3413C32.7961 37.9207 32.3452 40.4433 30.2981 41.6973C28.4085 42.8487 25.6672 42.658 22.1457 41.1693V18.2747H23.7061C24.0547 19.2849 25.0629 19.8908 26.0936 19.7096C27.1243 19.5285 27.8778 18.6128 27.8778 17.5413C27.8778 16.4698 27.1243 15.5542 26.0936 15.373C25.0629 15.1918 24.0547 15.7978 23.7061 16.808H22.1457C22.5466 14.3587 23.5772 12.87 25.1877 12.408C28.6447 11.4033 30.6918 9.22533 31.2787 5.94C32.1376 6.26267 34.0486 7.77333 35.022 14.74C35.8797 20.833 37.0552 26.8745 38.5435 32.8387C38.1284 33.5867 36.7971 35.2367 33.5977 34.5033ZM25.0087 17.5413C25.0087 17.1363 25.3292 16.808 25.7245 16.808C26.1198 16.808 26.4402 17.1363 26.4402 17.5413C26.4402 17.9463 26.1198 18.2747 25.7245 18.2747C25.3292 18.2747 25.0087 17.9463 25.0087 17.5413Z" fill="#A40000"/>
</svg>
