<svg width="42" height="49" viewBox="0 0 42 49" fill="none" xmlns="http://www.w3.org/2000/svg">
<path d="M15.188 1H21H26.2992C26.5841 2.09175 27.5983 4.43903 29.3761 5.09408C31.1538 5.74913 33.6496 4.82114 34.6752 4.27526L41 11.4809C39.2906 13.7735 35.8718 19.8 35.8718 25.5644C35.8718 31.329 39.2906 37.2463 41 39.4843L34.6752 46.6899C33.7635 45.1614 31.188 42.1045 28.1795 42.1045C24.4188 42.1045 22.8804 48 21 48C19.1196 48 17.4103 42.1045 14.1624 42.1045C11.5641 42.1045 8.4074 45.1614 7.15381 46.6899L1 39.4843C2.65242 37.7375 5.95727 32.4097 5.95727 25.0732C5.95727 17.7366 2.65242 12.9547 1 11.4809L7.15381 4.27526C8.29343 4.82114 10.9488 5.74913 12.453 5.09408C13.9573 4.43903 14.9032 2.09175 15.188 1Z" stroke="#A40000" stroke-width="2" stroke-linejoin="round"/>
<path d="M15.717 17.6307C17.5927 17.6307 19.1133 16.1739 19.1133 14.3769C19.1133 12.5798 17.5927 11.123 15.717 11.123C13.8413 11.123 12.3208 12.5798 12.3208 14.3769C12.3208 16.1739 13.8413 17.6307 15.717 17.6307Z" stroke="#A40000" stroke-width="2"/>
<path d="M26.6605 26.3076C28.3277 26.3076 29.6793 25.0126 29.6793 23.4153C29.6793 21.8179 28.3277 20.5229 26.6605 20.5229C24.9932 20.5229 23.6416 21.8179 23.6416 23.4153C23.6416 25.0126 24.9932 26.3076 26.6605 26.3076Z" stroke="#A40000" stroke-width="2"/>
<path d="M15.717 35.7079C17.5927 35.7079 19.1133 34.2511 19.1133 32.454C19.1133 30.657 17.5927 29.2002 15.717 29.2002C13.8413 29.2002 12.3208 30.657 12.3208 32.454C12.3208 34.2511 13.8413 35.7079 15.717 35.7079Z" stroke="#A40000" stroke-width="2"/>
<path d="M15.3395 24.8615C16.1731 24.8615 16.8489 24.2141 16.8489 23.4154C16.8489 22.6167 16.1731 21.9692 15.3395 21.9692C14.5059 21.9692 13.8301 22.6167 13.8301 23.4154C13.8301 24.2141 14.5059 24.8615 15.3395 24.8615Z" fill="#A40000"/>
<path d="M26.6603 15.4616C27.494 15.4616 28.1697 14.8142 28.1697 14.0155C28.1697 13.2168 27.494 12.5693 26.6603 12.5693C25.8267 12.5693 25.1509 13.2168 25.1509 14.0155C25.1509 14.8142 25.8267 15.4616 26.6603 15.4616Z" fill="#A40000"/>
<path d="M26.6603 34.2614C27.494 34.2614 28.1697 33.614 28.1697 32.8153C28.1697 32.0166 27.494 31.3691 26.6603 31.3691C25.8267 31.3691 25.1509 32.0166 25.1509 32.8153C25.1509 33.614 25.8267 34.2614 26.6603 34.2614Z" fill="#A40000"/>
</svg>
