<svg width="40" height="45" viewBox="0 0 40 45" fill="none" xmlns="http://www.w3.org/2000/svg">
<path d="M39.8813 39.6961L33.2218 28.2484C33.461 27.9719 33.7861 27.7673 34.1654 27.6785C35.2145 27.4332 36.0843 26.7397 36.5519 25.7761C37.0195 24.8124 37.0234 23.7051 36.5626 22.7382C36.2099 21.9982 36.4115 21.1217 37.0528 20.6068C37.8907 19.934 38.3713 18.9348 38.3713 17.8652C38.3713 16.7956 37.8907 15.7962 37.0528 15.1235C36.4115 14.6086 36.2099 13.7322 36.5626 12.9921C37.0235 12.0252 37.0195 10.9179 36.5519 9.95423C36.0843 8.99052 35.2145 8.29709 34.1653 8.05176C33.3625 7.86406 32.7977 7.16119 32.792 6.34251C32.7845 5.27294 32.2968 4.27699 31.4542 3.61009C30.6116 2.9432 29.5246 2.69299 28.4724 2.92378C27.6668 3.10026 26.8508 2.7103 26.4877 1.9752C26.0133 1.01476 25.1387 0.327392 24.0878 0.0893917C23.0369 -0.148697 21.9485 0.0940495 21.1011 0.755058C20.4527 1.26103 19.5469 1.26103 18.8985 0.755058C18.0511 0.0940495 16.9626 -0.148521 15.9118 0.0893917C14.861 0.327392 13.9864 1.01476 13.512 1.9752C13.1489 2.7103 12.3325 3.10052 11.5274 2.92378C10.475 2.69316 9.38807 2.9432 8.54553 3.61009C7.70294 4.27699 7.21533 5.27294 7.20784 6.34251C7.20205 7.16113 6.63725 7.86406 5.83432 8.05176C4.78529 8.29709 3.91544 8.99052 3.44787 9.95423C2.9802 10.9179 2.97638 12.0252 3.43717 12.9921C3.78985 13.7321 3.58832 14.6086 2.94699 15.1234C2.10908 15.7962 1.62849 16.7955 1.62849 17.8651C1.62849 18.9347 2.10908 19.934 2.94699 20.6068C3.58832 21.1216 3.78985 21.9981 3.43717 22.7381C2.97632 23.7051 2.9802 24.8124 3.44787 25.7761C3.91544 26.7397 4.78529 27.4332 5.83443 27.6785C6.21377 27.7671 6.53886 27.9719 6.77808 28.2484L0.118628 39.6961C-0.0606954 40.0044 -0.0349272 40.3897 0.183805 40.6716C0.402625 40.9537 0.771193 41.0768 1.11735 40.9838L5.7556 39.7349L6.98501 44.3459C7.07674 44.6901 7.36862 44.9452 7.72419 44.9922C7.76342 44.9975 7.80258 45 7.84143 45C8.15466 45 8.44846 44.8347 8.60808 44.5605L14.2905 34.7926C14.7405 35.206 15.2955 35.5013 15.912 35.641C16.9626 35.8788 18.0513 35.6363 18.8987 34.9753C19.5471 34.4693 20.4529 34.4693 21.1014 34.9753C21.7355 35.4699 22.5045 35.7304 23.2918 35.7304C23.5566 35.7304 23.8236 35.7009 24.0881 35.641C24.7045 35.5013 25.2596 35.206 25.7096 34.7926L31.392 44.5605C31.5516 44.8349 31.8454 45 32.1586 45C32.1974 45 32.2366 44.9975 32.2758 44.9922C32.6314 44.9452 32.9233 44.69 33.015 44.3459L34.2444 39.7349L38.8827 40.9838C39.2288 41.0771 39.5975 40.9537 39.8162 40.6716C40.0349 40.3897 40.0607 40.0044 39.8813 39.6961ZM8.14795 41.836L7.23986 38.4304C7.17949 38.2041 7.03079 38.0111 6.82659 37.8941C6.62228 37.777 6.37957 37.7457 6.15198 37.807L2.72613 38.7293L7.44204 30.6228C7.66519 31.2031 8.0412 31.7209 8.5457 32.1203C9.38834 32.7871 10.4753 33.0374 11.5275 32.8066C12.1218 32.6763 12.7214 32.8552 13.1411 33.253L8.14795 41.836ZM23.6939 33.9273C23.1666 34.0466 22.6208 33.9249 22.1959 33.5935C21.5494 33.089 20.7748 32.8369 20 32.8369C19.2253 32.8369 18.4503 33.0891 17.804 33.5935C17.3791 33.9251 16.8333 34.0468 16.3061 33.9273C15.7791 33.8079 15.3404 33.4632 15.1024 32.9815C14.3786 31.5159 12.7512 30.7381 11.1454 31.0902C10.6175 31.206 10.0725 31.0805 9.6499 30.7459C9.2273 30.4115 8.98273 29.912 8.9789 29.3755C8.96748 27.7433 7.84143 26.3419 6.24065 25.9676C5.71441 25.8446 5.2782 25.4969 5.04363 25.0135C4.80911 24.5301 4.8072 23.9748 5.03833 23.4898C5.74145 22.0143 5.33955 20.2668 4.06092 19.2403C3.64066 18.9028 3.39969 18.4017 3.39969 17.8652C3.39969 17.3287 3.64071 16.8275 4.06103 16.4901C5.33955 15.4635 5.74151 13.7161 5.03833 12.2405C4.8072 11.7555 4.80911 11.2002 5.04374 10.7169C5.2782 10.2335 5.71452 9.88575 6.24065 9.76268C7.84143 9.38837 8.96748 7.98702 8.9789 6.35482C8.98273 5.81834 9.22724 5.31882 9.6499 4.9844C10.0725 4.6499 10.6175 4.52431 11.1455 4.64015C12.7511 4.99196 14.3786 4.2145 15.1024 2.74888C15.3404 2.26717 15.7791 1.92239 16.3061 1.80303C16.8332 1.68377 17.3791 1.80532 17.804 2.13683C19.097 3.1457 20.903 3.1457 22.1959 2.13683C22.6209 1.80532 23.1667 1.68377 23.6939 1.80303C24.2209 1.92239 24.6596 2.26717 24.8975 2.74888C25.6214 4.2145 27.2486 4.99196 28.8545 4.64015C29.3822 4.52422 29.9275 4.6499 30.35 4.9844C30.7726 5.3189 31.0172 5.81834 31.021 6.35482C31.0324 7.98702 32.1585 9.38837 33.7593 9.76268C34.2855 9.88575 34.7217 10.2335 34.9563 10.7169C35.1908 11.2003 35.1928 11.7555 34.9616 12.2406C34.2585 13.7161 34.6604 15.4635 35.939 16.4901C36.3593 16.8275 36.6003 17.3287 36.6003 17.8652C36.6003 18.4017 36.3592 18.9028 35.9389 19.2403C34.6604 20.2668 34.2584 22.0143 34.9616 23.4898C35.1928 23.9748 35.1908 24.5302 34.9562 25.0135C34.7217 25.4969 34.2854 25.8446 33.7593 25.9676C32.1585 26.3419 31.0324 27.7433 31.021 29.3755C31.0172 29.912 30.7727 30.4115 30.35 30.7459C29.9275 31.0805 29.3824 31.2059 28.8544 31.0902C27.2486 30.738 25.6214 31.5159 24.8975 32.9815C24.6596 33.4632 24.2209 33.8079 23.6939 33.9273ZM33.848 37.807C33.6203 37.7457 33.3776 37.7771 33.1734 37.8941C32.9691 38.0111 32.8204 38.2041 32.7601 38.4304L31.852 41.836L26.8589 33.253C27.2787 32.8552 27.8783 32.6762 28.4724 32.8066C29.5249 33.0373 30.6116 32.7871 31.4542 32.1203C31.9587 31.721 32.3347 31.2031 32.5579 30.6228L37.2738 38.7293L33.848 37.807Z" fill="#A40000"/>
<path d="M24.2132 24.5118C24.3959 24.5118 24.5786 24.4558 24.7337 24.3439C25.0433 24.1207 25.1734 23.7253 25.0563 23.3638L23.6603 19.0566L27.3415 16.3722C27.65 16.1473 27.7779 15.7511 27.6587 15.3902C27.5394 15.0292 27.2 14.7851 26.8173 14.7851H22.262L20.8414 10.4896C20.7221 10.1287 20.3827 9.88477 20.0001 9.88477C19.6174 9.88477 19.278 10.1287 19.1587 10.4896L17.7382 14.7851H13.183C12.8002 14.7851 12.4607 15.0292 12.3415 15.3902C12.2222 15.7511 12.3502 16.1473 12.6587 16.3722L16.3398 19.0566L14.944 23.3638C14.8268 23.7254 14.9569 24.1207 15.2665 24.3439C15.5761 24.5671 15.9952 24.5677 16.3054 24.3454L20.0003 21.6977L23.6951 24.3454C23.8496 24.4563 24.0313 24.5118 24.2132 24.5118ZM20.5183 19.9012C20.3636 19.7903 20.1818 19.7348 19.9999 19.7348C19.8181 19.7348 19.6363 19.7903 19.4815 19.9012L17.4559 21.3527L18.2209 18.9921C18.3376 18.6322 18.2093 18.2386 17.9022 18.0148L15.8836 16.5427H18.3794C18.7621 16.5427 19.1015 16.2987 19.2208 15.9379L19.9999 13.5819L20.7791 15.9379C20.8984 16.2987 21.2378 16.5427 21.6204 16.5427H24.1163L22.0976 18.0148C21.7906 18.2386 21.6623 18.6322 21.7789 18.9921L22.5439 21.3527L20.5183 19.9012Z" fill="#A40000"/>
<path d="M32.3975 17.8654C32.3975 11.0808 26.8359 5.56104 19.9998 5.56104C13.1637 5.56104 7.60205 11.0808 7.60205 17.8654C7.60205 23.0268 10.8854 27.6764 15.7723 29.4356C16.232 29.6009 16.74 29.3653 16.9068 28.909C17.0735 28.4527 16.8361 27.9487 16.3763 27.7831C12.1875 26.2754 9.37327 22.2897 9.37327 17.8654C9.37327 12.05 14.1404 7.3188 19.9999 7.3188C25.8594 7.3188 30.6265 12.05 30.6265 17.8654C30.6265 22.29 27.8119 26.2757 23.6229 27.7834C23.1631 27.9488 22.9256 28.4529 23.0923 28.9092C23.2229 29.2665 23.5627 29.4887 23.9248 29.4887C24.0251 29.4887 24.127 29.4717 24.2267 29.4358C29.1139 27.6769 32.3975 23.0271 32.3975 17.8654Z" fill="#A40000"/>
<path d="M19.9998 28.4116C19.7669 28.4116 19.5384 28.5057 19.3737 28.6692C19.209 28.8326 19.1143 29.0594 19.1143 29.2905C19.1143 29.5217 19.209 29.7484 19.3737 29.9119C19.5384 30.0754 19.7669 30.1694 19.9998 30.1694C20.2327 30.1694 20.4612 30.0754 20.6259 29.9119C20.7906 29.7484 20.8854 29.5217 20.8854 29.2905C20.8854 29.0594 20.7906 28.8326 20.6259 28.6692C20.4612 28.5057 20.2327 28.4116 19.9998 28.4116Z" fill="#A40000"/>
</svg>
