<svg width="40" height="50" viewBox="0 0 40 50" fill="none" xmlns="http://www.w3.org/2000/svg">
<path d="M23.2752 8.71887L12.3501 4.51556C10.4939 3.80584 8.4238 3.81074 6.57143 4.5245L4.1944 0.535929C3.88959 0.0245782 3.20837 -0.152217 2.68052 0.143005C2.15267 0.438226 1.97017 1.09816 2.27492 1.60951L4.65202 5.59808C3.08219 6.78598 2.04277 8.52021 1.76428 10.4362L0.0457018 21.7236C-0.0968168 22.7083 0.094726 23.7168 0.610038 24.5815L14.457 47.8157C15.7189 49.9112 18.4988 50.6248 20.6622 49.4024C20.6718 49.397 20.6718 49.397 20.6814 49.3916L37.6973 39.8747C39.8774 38.6802 40.6444 35.995 39.4114 33.8831C39.4059 33.8738 39.4059 33.8739 39.4003 33.8646L25.5534 10.6306C25.038 9.76593 24.2323 9.10092 23.2752 8.71887ZM11.0142 14.1262C12.5593 13.2619 14.5273 13.7727 15.4194 15.2696C16.3115 16.7665 15.7842 18.673 14.2391 19.5372C12.6939 20.4014 10.7259 19.8906 9.83383 18.3937C8.94722 16.9061 9.46902 14.9904 11.0142 14.1262ZM37.4904 34.9328C38.1387 36.0205 37.7216 37.3819 36.5988 38.0099L19.5732 47.5324C18.4503 48.1601 17.0248 47.8296 16.3765 46.7419L2.52952 23.5079C2.26357 23.0617 2.15666 22.5388 2.23961 22.0338L3.94853 10.7517C4.14344 9.48986 4.78137 8.32728 5.77682 7.48542L9.00167 12.8964C6.75356 14.8356 6.5627 18.1655 8.56445 20.3433C10.5662 22.5212 14.0034 22.7061 16.2515 20.7669C18.4997 18.8277 18.6906 15.4979 16.6888 13.32C15.2466 11.7589 12.9855 11.1642 10.9212 11.8229L7.6963 6.41184C8.13409 6.26617 8.59557 6.18158 9.05999 6.14496C9.89545 6.08677 10.7373 6.211 11.5208 6.51655L22.4651 10.7091C22.9636 10.9014 23.3775 11.2525 23.6435 11.6988L37.4904 34.9328Z" fill="#A40000"/>
<path d="M25.9501 32.3379C24.7576 31.2817 22.9932 31.091 21.592 31.8746C20.8818 32.2719 19.9735 32.0361 19.5635 31.3481C19.1534 30.6601 19.3968 29.7802 20.107 29.383C20.8172 28.9857 21.7255 29.2215 22.1355 29.9095C22.4403 30.4209 23.1215 30.5977 23.6493 30.3025C24.1772 30.0072 24.3597 29.3473 24.0549 28.836C23.246 27.4786 21.6195 26.7892 20.0417 27.1262L19.7978 26.7171C19.4931 26.2057 18.8119 26.0289 18.284 26.3242C17.7562 26.6194 17.5736 27.2793 17.8784 27.7907L18.1222 28.1997C16.7378 29.6558 16.839 31.9297 18.342 33.2709C19.5345 34.327 21.299 34.5178 22.7002 33.7341C23.4104 33.3369 24.3186 33.5727 24.7287 34.2606C25.1387 34.9487 24.8953 35.8285 24.1852 36.2258C23.4749 36.623 22.5666 36.3873 22.1566 35.6992C21.8519 35.1879 21.1706 35.011 20.6428 35.3062C20.1149 35.6015 19.9324 36.2615 20.2372 36.7728C21.0461 38.1302 22.6727 38.8196 24.2505 38.4826L24.5276 38.9475C24.8323 39.4588 25.5136 39.6356 26.0414 39.3404C26.5693 39.0452 26.7518 38.3852 26.447 37.8739L26.17 37.409C27.5543 35.9529 27.4532 33.679 25.9501 32.3379Z" fill="#A40000"/>
</svg>
