<svg width="42" height="38" viewBox="0 0 42 38" fill="none" xmlns="http://www.w3.org/2000/svg">
<path d="M33.3898 29.6746C33.0175 29.4145 32.5063 29.5081 32.2484 29.883C31.9983 30.2465 31.715 30.5999 31.4058 30.9336C31.1987 31.1573 30.9137 31.4271 30.6037 31.6928C30.2586 31.9885 30.2169 32.5099 30.5105 32.8574C30.6728 33.0494 30.9036 33.148 31.1357 33.148C31.3236 33.148 31.5126 33.0834 31.667 32.951C32.0288 32.6409 32.3536 32.3329 32.6057 32.0602C32.9684 31.6689 33.302 31.2529 33.5969 30.824C33.8549 30.449 33.7622 29.9344 33.3898 29.6746Z" fill="#A40000"/>
<path d="M29.8164 33.3788C29.624 32.9657 29.1357 32.788 28.7254 32.9817L28.6997 32.9933C28.2852 33.1774 28.0976 33.6652 28.2805 34.0826C28.4159 34.3916 28.7163 34.5754 29.0314 34.5754C29.1421 34.5754 29.2545 34.5526 29.3622 34.5048C29.3822 34.496 29.402 34.4869 29.4219 34.4776C29.8321 34.2838 30.0087 33.792 29.8164 33.3788Z" fill="#A40000"/>
<path d="M39.5493 0H2.45068C1.0993 0 0 1.10721 0 2.46794V25.6193C0 26.9799 1.0993 28.087 2.45068 28.087H19.7253C20.4576 31.2071 22.1135 33.417 23.5608 34.8327C25.6733 36.8994 28.0948 38 29.0307 38C29.9665 38 32.3881 36.8995 34.5006 34.8328C35.9479 33.417 37.6039 31.2071 38.3361 28.0871H39.5493C40.9006 28.0871 42 26.9799 42 25.6193V2.46794C42 1.10721 40.9006 0 39.5493 0ZM37.0781 24.7016C37.0781 29.054 35.0831 31.9411 33.4093 33.5967C31.4239 35.5605 29.3873 36.3244 29.0307 36.3476C28.674 36.3244 26.6374 35.5606 24.652 33.5967C22.9784 31.9411 20.9833 29.054 20.9833 24.7016V20.6334C23.8076 19.8109 26.4504 18.6852 29.031 17.2058C31.5534 18.6476 34.3146 19.8233 37.0781 20.6329V24.7016ZM40.3594 25.6193C40.3594 26.0689 39.9959 26.4349 39.5493 26.4349H38.6214C38.6843 25.8813 38.7188 25.304 38.7188 24.7016V20.007C38.7188 19.6342 38.4707 19.3076 38.1134 19.2099C35.1346 18.3953 32.1372 17.1259 29.445 15.5391C29.1891 15.3882 28.8723 15.3884 28.6162 15.5392C25.8478 17.1711 23.0124 18.3716 19.948 19.2099C19.5907 19.3077 19.3427 19.6342 19.3427 20.007V24.7016C19.3427 25.304 19.377 25.8813 19.44 26.4349H2.45068C2.00402 26.4349 1.64062 26.0689 1.64062 25.6193V11.5651H40.3594V25.6193ZM40.3594 9.913H1.64062V6.60882H40.3594V9.913ZM40.3594 4.95652H1.64062V2.46794C1.64062 2.01814 2.00402 1.65218 2.45068 1.65218H39.5493C39.9959 1.65218 40.3594 2.01814 40.3594 2.46794V4.95652Z" fill="#A40000"/>
<path d="M9.84344 17.3481C9.34883 17.3481 8.86052 17.4488 8.40849 17.6408C7.96697 17.4524 7.48164 17.3481 6.97274 17.3481C4.93729 17.3481 3.28125 19.0157 3.28125 21.0654C3.28125 23.1151 4.93721 24.7827 6.97274 24.7827C7.48164 24.7827 7.96697 24.6785 8.40843 24.4901C8.86052 24.6821 9.34883 24.7827 9.84344 24.7827C11.8789 24.7827 13.5349 23.1151 13.5349 21.0654C13.5349 19.0157 11.8789 17.3481 9.84344 17.3481ZM6.97274 23.1306C5.84183 23.1306 4.92188 22.2042 4.92188 21.0654C4.92188 19.9266 5.84183 19.0003 6.97274 19.0003C8.10347 19.0003 9.02344 19.9266 9.02344 21.0654C9.02344 22.2041 8.10347 23.1306 6.97274 23.1306ZM10.0468 23.1205C10.4364 22.5314 10.6641 21.8247 10.6641 21.0654C10.6641 20.3062 10.4364 19.5996 10.0468 19.0105C11.0825 19.1136 11.8943 19.9959 11.8943 21.0654C11.8943 22.135 11.0825 23.0173 10.0468 23.1205Z" fill="#A40000"/>
<path d="M8.32098 13.6304H4.10156C3.6485 13.6304 3.28125 14.0002 3.28125 14.4564C3.28125 14.9126 3.6485 15.2826 4.10156 15.2826H8.32098C8.77406 15.2826 9.14132 14.9125 9.14132 14.4564C9.14132 14.0002 8.77406 13.6304 8.32098 13.6304Z" fill="#A40000"/>
<path d="M10.7459 13.6304H10.707C10.254 13.6304 9.88672 14.0002 9.88672 14.4564C9.88672 14.9126 10.254 15.2826 10.707 15.2826H10.7459C11.1989 15.2826 11.5662 14.9125 11.5662 14.4564C11.5662 14.0002 11.1989 13.6304 10.7459 13.6304Z" fill="#A40000"/>
<path d="M33.5336 22.8019C33.2134 22.4795 32.6941 22.4794 32.3736 22.8019L27.9868 27.2192L25.688 24.9041C25.3676 24.5818 24.8482 24.5816 24.5279 24.9041C24.2075 25.2268 24.2075 25.7498 24.5279 26.0724L27.4068 28.9716C27.567 29.133 27.7769 29.2137 27.9868 29.2137C28.1967 29.2137 28.4067 29.133 28.5667 28.9716L33.5335 23.9703C33.8539 23.6478 33.8539 23.1247 33.5336 22.8019Z" fill="#A40000"/>
</svg>
