<svg width="20" height="16" viewBox="0 0 20 16" fill="none" xmlns="http://www.w3.org/2000/svg">
<path d="M19.294 3.63644H4.0104L3.44536 0.581955C3.41314 0.415212 3.32654 0.265672 3.20064 0.159365C3.07473 0.0530583 2.91749 -0.00328321 2.75629 0.000147953H0.727259C0.325605 0.000147953 0 0.325753 0 0.727407C0 1.12906 0.325605 1.45467 0.727259 1.45467H2.19125L4.8235 15.418C4.85571 15.5848 4.94231 15.7343 5.06822 15.8406C5.19412 15.9469 5.35137 16.0033 5.51257 15.9999H17.1886C17.5903 15.9999 17.9159 15.6742 17.9159 15.2726C17.9159 14.8709 17.5903 14.5453 17.1886 14.5453H6.07761L5.51257 11.6363H17.9159C18.0751 11.6404 18.2309 11.5861 18.3565 11.4827C18.4821 11.3793 18.5699 11.2331 18.6049 11.069L19.9831 4.5237C20.0062 4.41579 20.0056 4.30375 19.9815 4.19609C19.9574 4.08844 19.9103 3.98801 19.8439 3.90245C19.7774 3.8169 19.6933 3.74847 19.5981 3.70237C19.5028 3.65627 19.3988 3.63373 19.294 3.63644ZM17.3646 10.1818H5.25072L4.28602 5.09096H18.4327L17.3646 10.1818Z" fill="white"/>
</svg>
