<svg width="16" height="17" viewBox="0 0 16 17" fill="none" xmlns="http://www.w3.org/2000/svg">
<path d="M15.6873 15.342L11.7236 11.4696C12.6007 10.3654 13.128 8.97777 13.128 7.4679C13.128 3.88685 10.1833 0.973694 6.56364 0.973694C2.944 0.973694 0 3.88685 0 7.4679C0 11.049 2.94473 13.9621 6.56364 13.9621C8.13745 13.9621 9.58255 13.4107 10.7149 12.4935L14.6589 16.3466C14.8007 16.4852 14.9869 16.5548 15.1731 16.5548C15.3593 16.5548 15.5455 16.4852 15.6873 16.3466C15.9716 16.0695 15.9716 15.6198 15.6873 15.342ZM1.45455 7.4679C1.45455 4.67056 3.74618 2.39475 6.56364 2.39475C9.38109 2.39475 11.6735 4.67056 11.6735 7.4679C11.6735 10.2652 9.38109 12.5411 6.56364 12.5411C3.74618 12.5411 1.45455 10.2652 1.45455 7.4679Z" fill="white"/>
</svg>
