<svg width="105" height="105" viewBox="0 0 105 105" fill="none" xmlns="http://www.w3.org/2000/svg">
<g filter="url(#filter0_d)">
<circle cx="52.5" cy="35.5" r="28.5" fill="white"/>
<circle cx="52.5" cy="35.5" r="26" stroke="#2FA4EA" stroke-width="5"/>
</g>
<path d="M54.25 27.5L60.5 33.75L48.6163 45.6337C48.2047 45.2225 47.9723 44.6654 47.9694 44.0837C47.9666 43.5019 48.1937 42.9426 48.6012 42.5275L48.5988 42.5237C47.7362 43.3687 46.3488 43.365 45.4925 42.5075C45.0876 42.1022 44.8564 41.5551 44.848 40.9822C44.8396 40.4093 45.0546 39.8557 45.4475 39.4387L45.4375 39.4287C44.57 40.2412 43.2125 40.2287 42.3675 39.3837L54.25 27.5ZM63.7325 26.9825L61.0175 24.2675C60.5485 23.7991 59.9128 23.536 59.25 23.536C58.5872 23.536 57.9515 23.7991 57.4825 24.2675L55.5 26.25L61.75 32.5L63.7325 30.5175C64.7075 29.5425 64.7075 27.9587 63.7325 26.9825ZM41.75 42.5V46.25H45.5C45.5 45.2554 45.1049 44.3016 44.4017 43.5983C43.6984 42.895 42.7446 42.5 41.75 42.5Z" fill="#2FA4EA"/>
<defs>
<filter id="filter0_d" x="0" y="0" width="105" height="105" filterUnits="userSpaceOnUse" color-interpolation-filters="sRGB">
<feFlood flood-opacity="0" result="BackgroundImageFix"/>
<feColorMatrix in="SourceAlpha" type="matrix" values="0 0 0 0 0 0 0 0 0 0 0 0 0 0 0 0 0 0 127 0"/>
<feOffset dy="17"/>
<feGaussianBlur stdDeviation="12"/>
<feColorMatrix type="matrix" values="0 0 0 0 0 0 0 0 0 0 0 0 0 0 0 0 0 0 0.25 0"/>
<feBlend mode="normal" in2="BackgroundImageFix" result="effect1_dropShadow"/>
<feBlend mode="normal" in="SourceGraphic" in2="effect1_dropShadow" result="shape"/>
</filter>
</defs>
</svg>
