<svg width="16" height="17" viewBox="0 0 16 17" fill="none" xmlns="http://www.w3.org/2000/svg">
<path d="M8 0.833313C9.98912 0.833313 11.8968 1.62349 13.3033 3.03001C14.7098 4.43653 15.5 6.34419 15.5 8.33331V14.1666C15.5 14.8297 15.2366 15.4656 14.7678 15.9344C14.2989 16.4033 13.663 16.6666 13 16.6666H10.5V9.99998H13.8333V8.33331C13.8333 6.78622 13.2188 5.30249 12.1248 4.20852C11.0308 3.11456 9.5471 2.49998 8 2.49998C6.4529 2.49998 4.96917 3.11456 3.87521 4.20852C2.78125 5.30249 2.16667 6.78622 2.16667 8.33331V9.99998H5.5V16.6666H3C2.33696 16.6666 1.70107 16.4033 1.23223 15.9344C0.763392 15.4656 0.5 14.8297 0.5 14.1666V8.33331C0.5 6.34419 1.29018 4.43653 2.6967 3.03001C4.10322 1.62349 6.01088 0.833313 8 0.833313Z" fill="black"/>
</svg>
