<svg width="33" height="32" viewBox="0 0 33 32" fill="none" xmlns="http://www.w3.org/2000/svg">
<circle cx="16.3999" cy="16" r="15.2643" stroke="black" stroke-opacity="0.5" stroke-width="1.47148"/>
<path d="M22.6248 12.8524C22.635 12.99 22.635 13.1268 22.635 13.2636C22.635 17.4508 19.448 22.2757 13.6237 22.2757C11.8293 22.2757 10.1623 21.7559 8.75952 20.8532C9.01429 20.8823 9.25962 20.8925 9.52461 20.8925C11.0053 20.8925 12.368 20.3924 13.457 19.5393C12.0644 19.5102 10.8975 18.598 10.4949 17.3431C10.6907 17.3722 10.8873 17.3918 11.0933 17.3918C11.3772 17.3918 11.6626 17.3525 11.9276 17.2841C10.4753 16.99 9.38779 15.7154 9.38779 14.1757V14.1364C9.81005 14.3715 10.2999 14.5186 10.8189 14.5382C9.96574 13.9705 9.40667 12.9994 9.40667 11.9009C9.40667 11.3127 9.56314 10.7733 9.83757 10.3031C11.3968 12.2241 13.7409 13.4799 16.3688 13.6175C16.32 13.3816 16.2901 13.137 16.2901 12.8917C16.2901 11.146 17.7024 9.72437 19.4574 9.72437C20.3696 9.72437 21.1929 10.1065 21.7716 10.7246C22.4872 10.587 23.1728 10.322 23.7814 9.95948C23.5463 10.6947 23.0454 11.3127 22.3889 11.7051C23.0266 11.6359 23.6446 11.4598 24.2123 11.2145C23.7814 11.8419 23.2428 12.401 22.6248 12.8524Z" fill="black" fill-opacity="0.5"/>
</svg>
