<svg width="32" height="32" viewBox="0 0 32 32" fill="none" xmlns="http://www.w3.org/2000/svg">
<circle cx="16" cy="16" r="15.2643" stroke="black" stroke-opacity="0.5" stroke-width="1.47148"/>
<path d="M23.7955 12.2197C23.9097 11.8473 23.7955 11.5742 23.2557 11.5742H21.4674C21.0124 11.5742 20.8045 11.8105 20.6903 12.07C20.6903 12.07 19.7811 14.2475 18.4926 15.6594C18.0767 16.0703 17.8867 16.2 17.66 16.2C17.5467 16.2 17.382 16.0703 17.382 15.6979V12.2197C17.382 11.7728 17.2507 11.5742 16.8715 11.5742H14.0614C13.7777 11.5742 13.6064 11.7808 13.6064 11.9779C13.6064 12.4007 14.2506 12.4984 14.3167 13.6901V16.2753C14.3167 16.8415 14.2131 16.9448 13.9848 16.9448C13.3789 16.9448 11.9046 14.7593 11.0296 12.2574C10.8591 11.7712 10.6871 11.575 10.2304 11.575H8.44294C7.93164 11.575 7.82971 11.8113 7.82971 12.0708C7.82971 12.5369 8.4356 14.8434 10.652 17.8939C12.1296 19.9769 14.2098 21.1061 16.105 21.1061C17.2409 21.1061 17.3812 20.8555 17.3812 20.423V18.8485C17.3812 18.3472 17.4896 18.2462 17.8492 18.2462C18.1134 18.2462 18.5685 18.3776 19.6294 19.3811C20.8411 20.5712 21.0417 21.1053 21.7227 21.1053H23.5101C24.0206 21.1053 24.2759 20.8547 24.1291 20.3597C23.9684 19.8672 23.3895 19.1504 22.6213 18.3023C22.2038 17.8186 21.58 17.298 21.3899 17.0377C21.1249 16.7022 21.2016 16.554 21.3899 16.2561C21.3899 16.2561 23.5689 13.244 23.7955 12.2197Z" fill="black" fill-opacity="0.5"/>
</svg>
